<svg width="64" height="49" viewBox="0 0 64 49" fill="none" xmlns="http://www.w3.org/2000/svg">
<path d="M8.03199 34.4656V31.8096H0.0963745V43.7569H8.03199V41.101H2.79598V39.1193H6.61692V36.4473H2.79598V34.4656H8.03199Z" fill="#F7F7F7"/>
<path d="M20.601 41.3977C20.965 40.8944 21.2583 40.3451 21.4729 39.7647C21.7085 39.1353 21.8292 38.4699 21.8296 37.7991C21.8369 36.9526 21.6593 36.1145 21.3086 35.3415C20.6541 33.892 19.456 32.7471 17.9644 32.1454C17.205 31.8382 16.3905 31.6844 15.5695 31.6932C14.7485 31.7021 13.9376 31.8734 13.1853 32.197C12.4509 32.5178 11.7861 32.9745 11.227 33.5422C10.6778 34.1077 10.2402 34.7688 9.93666 35.4918C9.44846 36.6264 9.32741 37.8814 9.59 39.0861C9.85258 40.2908 10.486 41.3867 11.4042 42.2246C11.9819 42.7487 12.6539 43.1621 13.3858 43.4436C14.109 43.7236 14.8792 43.8679 15.6564 43.8691C16.1988 43.8707 16.7389 43.7989 17.2615 43.6558C17.7099 43.5362 18.1458 43.3753 18.5635 43.1753L19.0962 43.7613H22.7633L20.601 41.3977ZM14.4955 38.728C14.858 39.1305 15.2496 39.5548 15.6611 39.9895C16.0108 40.3622 16.3453 40.728 16.6589 41.0778C16.3339 41.1705 15.9971 41.2172 15.6588 41.2165C15.1942 41.2198 14.7339 41.1289 14.3066 40.9493C13.8915 40.7754 13.5131 40.5264 13.1911 40.2154C12.871 39.905 12.6156 39.5361 12.4393 39.1294C12.257 38.709 12.1646 38.2562 12.1677 37.7991C12.166 37.3394 12.2592 36.8841 12.4416 36.4608C12.617 36.0498 12.8697 35.6751 13.1864 35.3564C13.5096 35.0348 13.8947 34.7797 14.3192 34.606C14.7437 34.4324 15.199 34.3436 15.6588 34.345C16.1175 34.3433 16.5718 34.4342 16.9934 34.6122C17.4068 34.7856 17.7818 35.0369 18.0972 35.3519C18.4159 35.6716 18.6719 36.0464 18.8526 36.4574C19.0388 36.8793 19.1341 37.3346 19.1323 37.7945C19.1339 38.1083 19.0879 38.4206 18.996 38.7211C18.9305 38.9343 18.8483 39.1421 18.75 39.3427L16.4129 36.8003L14.3777 38.5915L14.4955 38.728Z" fill="#F7F7F7"/>
<path d="M30.9399 31.8096V38.8762C30.9446 39.213 30.8857 39.5478 30.7662 39.8636C30.6642 40.1368 30.5081 40.3875 30.307 40.601C30.1218 40.7957 29.8986 40.9517 29.6507 41.0597C29.4079 41.164 29.1458 41.2179 28.8808 41.2179C28.6159 41.2179 28.3537 41.164 28.1109 41.0597C27.8627 40.9517 27.6392 40.7957 27.4535 40.601C27.2528 40.3872 27.0967 40.1366 26.9943 39.8636C26.8756 39.5477 26.8171 39.2129 26.8217 38.8762V31.8096H24.1408V39.1743C24.1339 39.8197 24.2526 40.4605 24.4905 41.062C24.7108 41.6153 25.0418 42.1196 25.4638 42.5448C25.8908 42.9667 26.4009 43.2984 26.9628 43.5196C28.1983 43.9905 29.568 43.9905 30.8035 43.5196C31.3667 43.2975 31.8789 42.9664 32.3095 42.5459C32.7366 42.1224 33.071 41.6174 33.2922 41.062C33.5299 40.4604 33.6486 39.8197 33.6419 39.1743V31.8096H30.9399Z" fill="#F7F7F7"/>
<path d="M39.6332 31.8096H36.9498V43.7569H39.6332V31.8096Z" fill="#F7F7F7"/>
<path d="M42.0505 31.8096V34.4656H45.3166V43.7569H48.0162V34.4656H51.2485V31.8096H42.0505Z" fill="#F7F7F7"/>
<path d="M60.6568 31.8096L58.0714 35.3647L55.4709 31.8096H52.15L52.354 32.0894C52.6905 32.5528 53.0468 33.039 53.4229 33.5482C53.799 34.0573 54.1747 34.57 54.5501 35.086C54.927 35.6067 55.3035 36.1208 55.6796 36.6285C56.0417 37.1193 56.3863 37.5895 56.7135 38.039V43.7569H59.4166V38.039L63.9998 31.8096H60.6568Z" fill="#F7F7F7"/>
<path fill-rule="evenodd" clip-rule="evenodd" d="M10.5626 11.4961H0.0963745V27.7015L10.5696 27.7175L28.9143 15.0741L46.7659 27.7153H63.9963L28.9085 2.85724L10.5626 15.4961V11.4961Z" fill="#F7F7F7"/>
</svg>
