<svg width="226" height="103" viewBox="0 0 226 103" fill="none" xmlns="http://www.w3.org/2000/svg">
<path d="M5.53636 63.9506V68.0254H13.258V73.5338H5.53636V77.6085H16.1207V83.0792L0.112373 83.1169L0.074707 58.5177L16.083 58.4799V63.9506H5.53636ZM45.1993 82.8906H37.8919L36.8373 81.721C36.0463 82.136 35.18 82.4378 34.2383 82.7019C33.2213 83.0037 32.129 83.1547 31.0366 83.1547C29.4923 83.1547 27.9856 82.8528 26.5166 82.2869C25.0476 81.721 23.7293 80.8909 22.5617 79.8345C21.394 78.7781 20.4523 77.4576 19.7743 75.9484C19.0587 74.4393 18.7197 72.7415 18.7197 70.855C18.7197 69.2327 19.021 67.6858 19.6613 66.1766C20.264 64.6675 21.1303 63.347 22.2227 62.2151C23.315 61.0832 24.6333 60.14 26.1023 59.4609C27.609 58.7818 29.2663 58.4422 31.0366 58.4422C32.6186 58.4422 34.163 58.744 35.632 59.3477C37.1009 59.9514 38.4193 60.8191 39.5493 61.9133C40.6793 63.0074 41.6209 64.3279 42.2989 65.8371C42.9769 67.3462 43.3536 69.044 43.3536 70.8173C43.3536 72.1755 43.1276 73.4961 42.6379 74.8166C42.2236 75.9862 41.6209 77.118 40.9053 78.1367L45.1993 82.8906ZM28.513 72.4774L32.5433 68.8554L37.214 73.9865C37.4023 73.5715 37.5529 73.1565 37.7036 72.7415C37.8919 72.1378 37.9673 71.5342 37.9673 70.855C37.9673 69.9118 37.779 69.0063 37.4023 68.1385C37.0256 67.3085 36.536 66.5539 35.8956 65.9125C35.2553 65.2711 34.5396 64.7807 33.711 64.4034C32.8823 64.0638 31.9783 63.8752 31.0366 63.8752C30.095 63.8752 29.191 64.0638 28.3246 64.4411C27.496 64.8184 26.7426 65.3089 26.1023 65.9503C25.462 66.5917 24.9723 67.3462 24.6333 68.1763C24.2566 69.0063 24.106 69.9495 24.106 70.8928C24.106 71.836 24.2943 72.7415 24.6333 73.5715C25.01 74.4015 25.4996 75.1561 26.14 75.7598C26.7803 76.4012 27.5336 76.8917 28.3623 77.2312C29.191 77.5708 30.095 77.7594 31.0366 77.7594C31.7146 77.7594 32.3926 77.6462 33.033 77.4576C32.3926 76.7407 31.7523 76.0239 31.0366 75.2693C30.208 74.4015 29.4546 73.5338 28.7013 72.7037L28.513 72.4774ZM61.5466 58.5177L61.5842 72.9678C61.5842 73.7224 61.4712 74.4016 61.2452 75.0052C61.0192 75.6089 60.7179 76.0994 60.3412 76.5144C59.9646 76.9294 59.5126 77.2312 59.0229 77.4576C58.0436 77.9103 56.9136 77.9103 55.9342 77.4576C55.4446 77.2312 54.9926 76.9294 54.6159 76.5144C54.2392 76.0994 53.9379 75.6089 53.6742 75.0052C53.4482 74.4016 53.3353 73.7224 53.3353 73.0056L53.2976 58.5554H47.9113L47.9489 73.6092C47.9489 75.0052 48.1749 76.288 48.6646 77.4576C49.1166 78.6272 49.7946 79.6459 50.6233 80.4759C51.4519 81.3059 52.4689 81.9851 53.6366 82.4755C54.8042 82.966 56.0849 83.1924 57.4786 83.1924C58.8722 83.1924 60.1529 82.9283 61.3206 82.4755C62.4882 81.9851 63.5052 81.3059 64.3339 80.4759C65.1626 79.6459 65.8406 78.6272 66.2925 77.4576C66.7446 76.288 67.0082 75.0052 66.9706 73.6092L66.9329 58.5554L61.5466 58.5177ZM73.4115 58.5177L73.4492 83.1169H78.8732L78.8355 58.5177H73.4115ZM83.6568 58.6308V64.1015H90.2485L90.2862 83.1547H95.7102L95.6725 64.1015H102.189V58.6686L83.6568 58.6308ZM121.06 58.5554L115.862 65.8371L110.626 58.5554H103.959L104.373 59.1213C105.051 60.0646 105.767 61.0832 106.52 62.1019C107.274 63.1583 108.027 64.177 108.78 65.2334C109.534 66.2898 110.287 67.3462 111.04 68.4026C111.756 69.4213 112.472 70.3645 113.112 71.3078L113.15 83.0415H118.574L118.536 71.3078L127.727 58.5177L121.06 58.5554Z" fill="#221F1F"/>
<path fill-rule="evenodd" clip-rule="evenodd" d="M20.8296 17.5817H0L0.0376667 50.4436H20.905L57.3662 24.7502L93.1871 50.4436L127.464 50.4059L57.2909 0L20.8296 25.6934V17.5817Z" fill="#A32A29"/>
<path d="M226 91.4172H132.022V103H226V91.4172Z" fill="#A32A29"/>
<path d="M226 91.4172H178.992V103H226V91.4172Z" fill="#58595B"/>
<path d="M149.273 65.3459C149.273 66.1383 149.084 67.006 148.745 67.9115C148.369 68.817 147.728 69.647 146.711 70.3262C147.314 70.5903 147.841 70.9676 148.293 71.3826C148.745 71.7976 149.084 72.2503 149.386 72.7408C149.649 73.2313 149.875 73.7218 150.026 74.2122C150.177 74.7405 150.252 75.2309 150.252 75.7214C150.252 76.6269 150.101 77.5324 149.838 78.4002C149.574 79.2679 149.122 80.0602 148.482 80.7771C147.841 81.4939 147.013 82.0599 145.92 82.4749C144.866 82.8899 143.547 83.1163 141.965 83.1163H132.059V58.6302H141.852C142.907 58.6302 143.886 58.8188 144.79 59.1961C145.694 59.5734 146.485 60.0639 147.163 60.6676C147.841 61.2712 148.369 61.9881 148.745 62.8181C149.084 63.6481 149.273 64.4782 149.273 65.3459ZM136.88 68.1756H141.287C142.154 68.1756 142.832 67.987 143.359 67.572C143.886 67.1569 144.15 66.6287 144.15 65.9496C144.15 65.2705 143.886 64.7046 143.359 64.2141C142.832 63.7236 142.154 63.4972 141.287 63.4972H136.88V68.1756ZM141.325 78.2492C142.643 78.2492 143.623 77.9851 144.188 77.4947C144.753 77.0042 145.054 76.4005 145.054 75.7214C145.054 75.3818 144.979 75.0423 144.866 74.7027C144.753 74.3632 144.564 74.0991 144.263 73.835C143.999 73.5709 143.585 73.3822 143.095 73.2313C142.606 73.0804 142.003 73.0049 141.287 73.0049H136.843V78.2115H141.325V78.2492ZM171.383 75.5328C170.479 76.4383 169.575 77.1174 168.596 77.6079C167.616 78.0983 166.562 78.3624 165.432 78.3624C164.415 78.3624 163.435 78.1738 162.531 77.7965C161.627 77.4192 160.836 76.891 160.158 76.2119C159.48 75.5328 158.953 74.7405 158.576 73.835C158.2 72.9295 158.011 71.9485 158.011 70.9298C158.011 69.9111 158.2 68.9302 158.576 68.0247C158.953 67.1192 159.48 66.3269 160.158 65.6478C160.836 64.9687 161.627 64.4405 162.531 64.0254C163.435 63.6104 164.415 63.4218 165.432 63.4218C166.449 63.4218 167.428 63.6481 168.407 64.0632C169.387 64.5159 170.253 65.1196 171.044 65.9119L174.359 62.554C173.116 61.309 171.722 60.328 170.178 59.6489C168.596 58.9698 167.014 58.6302 165.432 58.6302C163.85 58.6302 162.343 58.932 160.874 59.5357C159.405 60.1394 158.087 61.0071 156.957 62.0635C155.827 63.1577 154.923 64.4405 154.245 65.9496C153.567 67.4588 153.228 69.1188 153.228 70.8921C153.228 72.439 153.529 73.9104 154.094 75.3818C154.659 76.8533 155.488 78.1361 156.542 79.3057C157.597 80.4375 158.878 81.3807 160.384 82.0599C161.891 82.7767 163.586 83.1163 165.432 83.1163C167.164 83.1163 168.822 82.739 170.366 81.9844C171.948 81.2298 173.379 80.2111 174.735 78.8529L171.383 75.5328ZM179.557 83.1163V58.6302H188.032C189.84 58.6302 191.497 58.932 192.928 59.5357C194.397 60.1394 195.64 60.9694 196.657 62.0635C197.674 63.1577 198.465 64.4405 199.03 65.9496C199.595 67.4588 199.859 69.1188 199.859 70.9298C199.859 72.6654 199.595 74.25 199.03 75.7591C198.465 77.2306 197.674 78.5133 196.657 79.6452C195.64 80.7394 194.397 81.6071 192.928 82.2485C191.459 82.8899 189.84 83.1917 188.032 83.1917H179.557V83.1163ZM184.416 78.2492H188.069C189.086 78.2492 189.99 78.0606 190.857 77.6833C191.723 77.306 192.439 76.7778 193.079 76.1364C193.719 75.4573 194.209 74.7027 194.548 73.7972C194.887 72.8917 195.075 71.9485 195.075 70.8921C195.075 69.8734 194.887 68.8925 194.548 67.987C194.209 67.0815 193.719 66.2892 193.079 65.6478C192.439 64.9687 191.723 64.4405 190.857 64.0632C189.99 63.6859 189.086 63.4972 188.069 63.4972H184.416V78.2492ZM222.647 75.5328C221.743 76.4383 220.839 77.1174 219.86 77.6079C218.881 78.0983 217.826 78.3624 216.696 78.3624C215.679 78.3624 214.7 78.1738 213.796 77.7965C212.892 77.4192 212.101 76.891 211.423 76.2119C210.745 75.5328 210.217 74.7405 209.841 73.835C209.464 72.9295 209.276 71.9485 209.276 70.9298C209.276 69.9111 209.464 68.9302 209.841 68.0247C210.217 67.1192 210.745 66.3269 211.423 65.6478C212.101 64.9687 212.892 64.4405 213.796 64.0254C214.7 63.6104 215.679 63.4218 216.696 63.4218C217.713 63.4218 218.692 63.6481 219.672 64.0632C220.651 64.5159 221.517 65.1196 222.308 65.9119L225.623 62.554C224.38 61.309 222.986 60.328 221.442 59.6489C219.86 58.9698 218.278 58.6302 216.696 58.6302C215.114 58.6302 213.607 58.932 212.138 59.5357C210.669 60.1394 209.351 61.0071 208.221 62.0635C207.091 63.1577 206.187 64.4405 205.509 65.9496C204.831 67.4588 204.492 69.1188 204.492 70.8921C204.492 72.439 204.793 73.9104 205.358 75.3818C205.923 76.8533 206.752 78.1361 207.807 79.3057C208.861 80.4375 210.142 81.3807 211.649 82.0599C213.155 82.7767 214.85 83.1163 216.696 83.1163C218.429 83.1163 220.086 82.739 221.63 81.9844C223.212 81.2298 224.644 80.2111 226 78.8529L222.647 75.5328Z" fill="#58595B"/>
<path d="M190.18 94.1332L192.44 93.5673V100.774H191.46V94.8123L190.217 95.1519V94.1332H190.18ZM194.963 96.0951C194.963 97.4911 196.056 98.6229 197.449 98.6229C197.6 98.6229 197.751 98.623 197.901 98.5852L196.696 100.736H197.751L199.559 97.4156C199.785 97.0383 199.935 96.5479 199.935 96.0574C199.935 94.6614 198.805 93.5295 197.449 93.5295C196.093 93.5673 194.963 94.6991 194.963 96.0951ZM197.449 97.7175C196.621 97.7175 195.905 96.9629 195.905 96.1328C195.905 95.3028 196.621 94.5482 197.449 94.5482C198.278 94.5482 198.994 95.3028 198.994 96.1328C198.994 96.9629 198.316 97.7175 197.449 97.7175ZM202.007 97.1893C202.007 99.1889 202.949 100.849 204.907 100.849C206.866 100.849 207.808 99.2266 207.808 97.1893C207.808 95.1896 206.866 93.5295 204.907 93.5295C202.911 93.5673 202.007 95.2273 202.007 97.1893ZM202.986 97.1893C202.986 95.7178 203.476 94.5105 204.87 94.5105C206.263 94.5105 206.791 95.7178 206.791 97.1893C206.791 98.623 206.301 99.8303 204.87 99.8303C203.476 99.868 202.986 98.6607 202.986 97.1893ZM209.804 96.0951C209.804 97.4911 210.896 98.6229 212.29 98.6229C212.441 98.6229 212.591 98.623 212.742 98.5852L211.537 100.736H212.629L214.437 97.4156C214.663 97.0383 214.814 96.5479 214.814 96.0574C214.814 94.6614 213.684 93.5295 212.328 93.5295C210.934 93.5673 209.804 94.6991 209.804 96.0951ZM212.328 97.7175C211.499 97.7175 210.783 96.9629 210.783 96.1328C210.783 95.3028 211.499 94.5482 212.328 94.5482C213.156 94.5482 213.872 95.3028 213.872 96.1328C213.834 96.9629 213.156 97.7175 212.328 97.7175Z" fill="white"/>
</svg>
