<svg width="17" height="18" viewBox="0 0 17 18" fill="none" xmlns="http://www.w3.org/2000/svg">
<path d="M15.895 2.42907H11.055V1.55709C11.055 0.685121 10.381 0 9.5233 0H6.88886C6.03113 0 5.3572 0.685121 5.3572 1.55709V2.42907H0.762237C0.517173 2.42907 0.333374 2.61592 0.333374 2.86505C0.333374 3.11419 0.517173 3.30104 0.762237 3.30104H1.86503L2.78402 16.3183C2.84529 17.2526 3.58048 18 4.49948 18H11.974C12.8929 18 13.6281 17.2526 13.6894 16.3183L14.6084 3.30104H15.895C16.1401 3.30104 16.3239 3.11419 16.3239 2.86505C16.3851 2.61592 16.1401 2.42907 15.895 2.42907ZM6.2762 1.55709C6.2762 1.18339 6.52126 0.871972 6.88886 0.871972H9.58457C9.95217 0.871972 10.1972 1.18339 10.1972 1.55709V2.42907H6.21493V1.55709H6.2762ZM12.8317 16.2561C12.7704 16.7543 12.4028 17.0657 11.974 17.0657H4.49948C4.07061 17.0657 3.70302 16.692 3.64175 16.2561L2.66149 3.30104H13.7507L12.8317 16.2561Z" fill="#A32A29"/>
<path d="M8.23671 5.66782C7.99165 5.66782 7.80785 5.85467 7.80785 6.10381V14.3875C7.80785 14.6367 7.99165 14.8235 8.23671 14.8235C8.48178 14.8235 8.66558 14.6367 8.66558 14.3875V6.10381C8.66558 5.85467 8.48178 5.66782 8.23671 5.66782Z" fill="#A32A29"/>
<path d="M10.5648 6.04152L10.136 14.3253C10.136 14.5744 10.3198 14.7612 10.5648 14.8235C10.8099 14.8235 10.9937 14.6367 10.9937 14.3875L11.4226 6.10381C11.4226 5.85467 11.2388 5.66782 10.9937 5.60554C10.8099 5.66782 10.6261 5.79239 10.5648 6.04152Z" fill="#A32A29"/>
<path d="M5.41847 5.66782C5.1734 5.66782 4.98961 5.91695 4.98961 6.16609L5.41847 14.4498C5.41847 14.699 5.60227 14.8858 5.84733 14.8858C6.0924 14.8858 6.2762 14.6367 6.2762 14.3875L5.84733 6.10381C5.84733 5.79239 5.66353 5.66782 5.41847 5.66782Z" fill="#A32A29"/>
</svg>
