<svg width="14" height="14" viewBox="0 0 14 14" fill="none" xmlns="http://www.w3.org/2000/svg">
<path fill-rule="evenodd" clip-rule="evenodd" d="M4.375 1.9375C3.85766 1.9375 3.4375 2.35766 3.4375 2.875C3.4375 3.39234 3.85766 3.8125 4.375 3.8125C4.89234 3.8125 5.3125 3.39234 5.3125 2.875C5.3125 2.35766 4.89234 1.9375 4.375 1.9375ZM6.35979 2.3125C6.1148 1.44703 5.31867 0.8125 4.375 0.8125C3.43133 0.8125 2.6352 1.44703 2.39021 2.3125H1.375C1.06434 2.3125 0.8125 2.56434 0.8125 2.875C0.8125 3.18566 1.06434 3.4375 1.375 3.4375H2.39021C2.6352 4.30297 3.43133 4.9375 4.375 4.9375C5.31867 4.9375 6.1148 4.30297 6.35979 3.4375H12.625C12.9357 3.4375 13.1875 3.18566 13.1875 2.875C13.1875 2.56434 12.9357 2.3125 12.625 2.3125H6.35979ZM7.64021 6.8125C7.8852 5.94703 8.68133 5.3125 9.625 5.3125C10.5687 5.3125 11.3648 5.94703 11.6098 6.8125H12.625C12.9357 6.8125 13.1875 7.06434 13.1875 7.375C13.1875 7.68566 12.9357 7.9375 12.625 7.9375H11.6098C11.3648 8.80297 10.5687 9.4375 9.625 9.4375C8.68133 9.4375 7.8852 8.80297 7.64021 7.9375H1.375C1.06434 7.9375 0.8125 7.68566 0.8125 7.375C0.8125 7.06434 1.06434 6.8125 1.375 6.8125H7.64021ZM9.625 6.4375C9.10766 6.4375 8.6875 6.85766 8.6875 7.375C8.6875 7.89234 9.10766 8.3125 9.625 8.3125C10.1423 8.3125 10.5625 7.89234 10.5625 7.375C10.5625 6.85766 10.1423 6.4375 9.625 6.4375ZM2.39021 11.3125C2.6352 10.447 3.43133 9.8125 4.375 9.8125C5.31867 9.8125 6.1148 10.447 6.35979 11.3125H12.625C12.9357 11.3125 13.1875 11.5643 13.1875 11.875C13.1875 12.1857 12.9357 12.4375 12.625 12.4375H6.35979C6.1148 13.303 5.31867 13.9375 4.375 13.9375C3.43133 13.9375 2.6352 13.303 2.39021 12.4375H1.375C1.06434 12.4375 0.8125 12.1857 0.8125 11.875C0.8125 11.5643 1.06434 11.3125 1.375 11.3125H2.39021ZM4.375 10.9375C3.85766 10.9375 3.4375 11.3577 3.4375 11.875C3.4375 12.3923 3.85766 12.8125 4.375 12.8125C4.89234 12.8125 5.3125 12.3923 5.3125 11.875C5.3125 11.3577 4.89234 10.9375 4.375 10.9375Z" fill="#A32A29"/>
</svg>
