<svg width="32" height="33" viewBox="0 0 32 33" fill="none" xmlns="http://www.w3.org/2000/svg">
<path d="M16.5 3.5C9.63914 3.5 4.056 9.08333 4.00044 15.9167C3.97267 19.25 5.2504 22.4167 7.61143 24.7778C9.94468 27.1667 13.0835 28.4722 16.4167 28.5H16.5C23.3609 28.5 28.944 22.9167 28.9996 16.0833C29.0551 9.19444 23.472 3.55556 16.5 3.5ZM16.5 26.8056H16.4167C13.5279 26.7778 10.8335 25.6389 8.77806 23.5833C6.77813 21.5556 5.66705 18.8333 5.69483 15.9444C5.72261 10.0278 10.5836 5.19444 16.5833 5.19444C22.5554 5.22222 27.3608 10.1111 27.3331 16.0833C27.2774 22 22.4165 26.8056 16.5 26.8056Z" fill="currentColor"/>
<path d="M11.8939 14.6111H11.8468C11.0935 14.6111 10.4815 15.2337 10.4815 16C10.4815 16.7663 11.0935 17.3889 11.8468 17.3889H11.8939C12.6472 17.3889 13.2593 16.7663 13.2593 16C13.2593 15.2337 12.6472 14.6111 11.8939 14.6111Z" fill="currentColor"/>
<path d="M16.5235 14.6111H16.4765C15.7232 14.6111 15.1111 15.2337 15.1111 16C15.1111 16.7663 15.7232 17.3889 16.4765 17.3889H16.5235C17.2768 17.3889 17.8889 16.7663 17.8889 16C17.8889 15.2337 17.2768 14.6111 16.5235 14.6111Z" fill="currentColor"/>
<path d="M21.1532 14.6111H21.1061C20.3528 14.6111 19.7407 15.2337 19.7407 16C19.7407 16.7663 20.3528 17.3889 21.1061 17.3889H21.1532C21.9065 17.3889 22.5185 16.7663 22.5185 16C22.5185 15.2337 21.9065 14.6111 21.1532 14.6111Z" fill="currentColor"/>
</svg>
