<svg width="32" height="32" viewBox="0 0 32 32" fill="none" xmlns="http://www.w3.org/2000/svg">
<path fill-rule="evenodd" clip-rule="evenodd" d="M9.25 17.75C10.2165 17.75 11 16.9665 11 16C11 15.0335 10.2165 14.25 9.25 14.25C8.2835 14.25 7.5 15.0335 7.5 16C7.5 16.9665 8.2835 17.75 9.25 17.75Z" fill="#929497"/>
<path fill-rule="evenodd" clip-rule="evenodd" d="M16 17.75C16.9665 17.75 17.75 16.9665 17.75 16C17.75 15.0335 16.9665 14.25 16 14.25C15.0335 14.25 14.25 15.0335 14.25 16C14.25 16.9665 15.0335 17.75 16 17.75Z" fill="#929497"/>
<path fill-rule="evenodd" clip-rule="evenodd" d="M22.75 17.75C23.7165 17.75 24.5 16.9665 24.5 16C24.5 15.0335 23.7165 14.25 22.75 14.25C21.7835 14.25 21 15.0335 21 16C21 16.9665 21.7835 17.75 22.75 17.75Z" fill="#929497"/>
</svg>
