<svg width="22" height="20" viewBox="0 0 22 20" fill="none" xmlns="http://www.w3.org/2000/svg">
<path d="M6.67109 17.7632C6.67109 17.9841 6.85 18.1632 7.07109 18.1632C7.29219 18.1632 7.47109 17.9841 7.47109 17.7632V12.7894C7.47109 12.5685 7.29219 12.3894 7.07109 12.3894C6.85 12.3894 6.67109 12.5685 6.67109 12.7894V17.7632Z" fill="white"/>
<path fill-rule="evenodd" clip-rule="evenodd" d="M2.17109 0.899902C1.46738 0.899902 0.900391 1.4885 0.900391 2.20587V7.79373C0.900391 8.5113 1.46737 9.0999 2.17109 9.0999H5.00039V19.1172C5.00039 19.6039 5.41939 19.9999 5.93405 19.9999H16.0667C16.5814 19.9999 17.0004 19.6039 17.0004 19.1172V9.0999H19.8301C20.5334 9.0999 21.1004 8.51127 21.1004 7.79373V2.20587C21.1004 1.48852 20.5334 0.899902 19.8301 0.899902H2.17109ZM12.318 18.9999H13.65V3.9999H12.318V18.9999ZM15.8808 18.9999H14.65V3.9999H16.0004V18.8861C16.0004 18.9488 15.9467 18.9999 15.8808 18.9999ZM6.00039 3.9999H11.318V18.9999H6.11995C6.05408 18.9999 6.00039 18.9488 6.00039 18.8861V3.9999ZM5.49861 2.84062C5.48949 2.84015 5.48032 2.8399 5.47109 2.8399H3.33789C3.0673 2.8399 2.83789 3.04774 2.83789 3.31651V6.5633C2.83789 6.83207 3.0673 7.0399 3.33789 7.0399H5.00039V7.8999H2.36303C2.21788 7.8999 2.10039 7.78234 2.10039 7.63922V2.36039C2.10039 2.2175 2.21784 2.0999 2.36303 2.0999H19.6381C19.7832 2.0999 19.9004 2.21736 19.9004 2.36039V7.63922C19.9004 7.78248 19.7831 7.8999 19.6381 7.8999H17.0004V7.0399H18.6633C18.9339 7.0399 19.1633 6.83207 19.1633 6.5633V3.31651C19.1633 3.04774 18.9339 2.8399 18.6633 2.8399H16.5297C16.5205 2.8399 16.5113 2.84015 16.5022 2.84062C16.4721 2.83492 16.4412 2.83193 16.4095 2.83193H5.5913C5.55962 2.83193 5.52863 2.83492 5.49861 2.84062ZM3.83789 3.79312V6.08669H4.97109V3.79312H3.83789ZM17.0297 3.79312V6.08669H18.1633V3.79312H17.0297Z" fill="white"/>
</svg>
