<svg width="12" height="14" viewBox="0 0 12 14" fill="none" xmlns="http://www.w3.org/2000/svg">
<path d="M11.6712 2.0718H8.04119V1.41782C8.04119 0.763841 7.53574 0.25 6.89245 0.25H4.91661C4.27332 0.25 3.76787 0.763841 3.76787 1.41782V2.0718H0.321647C0.137849 2.0718 0 2.21194 0 2.39879C0 2.58564 0.137849 2.72578 0.321647 2.72578H1.14874L1.83799 12.4888C1.88394 13.1894 2.43533 13.75 3.12458 13.75H8.73043C9.41968 13.75 9.97107 13.1894 10.017 12.4888L10.7063 2.72578H11.6712C11.855 2.72578 11.9929 2.58564 11.9929 2.39879C12.0388 2.21194 11.855 2.0718 11.6712 2.0718ZM4.45712 1.41782C4.45712 1.13754 4.64091 0.903979 4.91661 0.903979H6.9384C7.2141 0.903979 7.39789 1.13754 7.39789 1.41782V2.0718H4.41117V1.41782H4.45712ZM9.37373 12.442C9.32778 12.8157 9.05208 13.0493 8.73043 13.0493H3.12458C2.80293 13.0493 2.52723 12.769 2.48128 12.442L1.74609 2.72578H10.063L9.37373 12.442Z" fill="#A32A29"/>
<path d="M5.92751 4.50086C5.74371 4.50086 5.60586 4.641 5.60586 4.82785V11.0407C5.60586 11.2275 5.74371 11.3676 5.92751 11.3676C6.1113 11.3676 6.24915 11.2275 6.24915 11.0407V4.82785C6.24915 4.641 6.1113 4.50086 5.92751 4.50086Z" fill="#A32A29"/>
<path d="M7.67359 4.78114L7.35194 10.9939C7.35194 11.1808 7.48979 11.3209 7.67359 11.3676C7.85739 11.3676 7.99524 11.2275 7.99524 11.0407L8.31689 4.82785C8.31689 4.641 8.17904 4.50086 7.99524 4.45415C7.85739 4.50086 7.71954 4.59429 7.67359 4.78114Z" fill="#A32A29"/>
<path d="M3.81382 4.50086C3.63002 4.50086 3.49217 4.68772 3.49217 4.87457L3.81382 11.0874C3.81382 11.2742 3.95167 11.4144 4.13547 11.4144C4.31927 11.4144 4.45712 11.2275 4.45712 11.0407L4.13547 4.82785C4.13547 4.59429 3.99762 4.50086 3.81382 4.50086Z" fill="#A32A29"/>
</svg>
