<svg width="24" height="17" viewBox="0 0 24 17" fill="none" xmlns="http://www.w3.org/2000/svg">
<path fill-rule="evenodd" clip-rule="evenodd" d="M0.789062 2.07697C0.789062 1.07888 1.61487 0.300049 2.59433 0.300049H21.3838C22.3633 0.300049 23.1891 1.07888 23.1891 2.07697V7.46159C23.1891 7.84819 22.8757 8.16159 22.4891 8.16159C22.1025 8.16159 21.7891 7.84819 21.7891 7.46159V5.00774H2.18906V13.9231C2.18906 14.114 2.35357 14.3 2.59433 14.3H13.8575C14.2441 14.3 14.5575 14.6134 14.5575 15C14.5575 15.3866 14.2441 15.7 13.8575 15.7H2.59433C1.61487 15.7 0.789062 14.9212 0.789062 13.9231V2.07697ZM2.18906 3.60774H21.7891V2.07697C21.7891 1.88614 21.6246 1.70005 21.3838 1.70005H2.59433C2.35357 1.70005 2.18906 1.88614 2.18906 2.07697V3.60774Z" fill="#A32A29"/>
<path d="M4.10485 9.30774C4.10485 8.92114 4.41825 8.60774 4.80485 8.60774H9.33117C9.71777 8.60774 10.0312 8.92114 10.0312 9.30774C10.0312 9.69434 9.71777 10.0077 9.33117 10.0077H4.80485C4.41825 10.0077 4.10485 9.69434 4.10485 9.30774Z" fill="#A32A29"/>
<path d="M4.10485 12.3077C4.10485 11.9211 4.41825 11.6077 4.80485 11.6077H12.3312C12.7178 11.6077 13.0312 11.9211 13.0312 12.3077C13.0312 12.6943 12.7178 13.0077 12.3312 13.0077H4.80485C4.41825 13.0077 4.10485 12.6943 4.10485 12.3077Z" fill="#A32A29"/>
<path d="M19.4891 12.5C19.4891 12.2239 19.2652 12 18.9891 12C18.7129 12 18.4891 12.2239 18.4891 12.5V14.5C18.4891 14.7762 18.7129 15 18.9891 15C19.2652 15 19.4891 14.7762 19.4891 14.5V12.5Z" fill="#A32A29"/>
<path d="M19.4891 11C19.4891 11.2762 19.2652 11.5 18.9891 11.5C18.7129 11.5 18.4891 11.2762 18.4891 11C18.4891 10.7239 18.7129 10.5 18.9891 10.5C19.2652 10.5 19.4891 10.7239 19.4891 11Z" fill="#A32A29"/>
<path fill-rule="evenodd" clip-rule="evenodd" d="M18.9891 8.15005C16.5866 8.15005 14.6391 10.0976 14.6391 12.5C14.6391 14.9025 16.5866 16.85 18.9891 16.85C21.3915 16.85 23.3391 14.9025 23.3391 12.5C23.3391 10.0976 21.3915 8.15005 18.9891 8.15005ZM15.8391 12.5C15.8391 10.7604 17.2494 9.35005 18.9891 9.35005C20.7288 9.35005 22.1391 10.7604 22.1391 12.5C22.1391 14.2397 20.7288 15.65 18.9891 15.65C17.2494 15.65 15.8391 14.2397 15.8391 12.5Z" fill="#A32A29"/>
</svg>
