<svg width="46" height="44" viewBox="0 0 46 44" fill="none" xmlns="http://www.w3.org/2000/svg">
<rect x="0.5" y="0.5" width="45" height="43" rx="7.5" fill="#F7F7F7"/>
<path d="M15.7035 10.9477C15.7631 10.9195 15.8238 10.8907 15.8858 10.8608C16.0381 10.8019 16.1599 10.7429 16.3123 10.6546C16.3303 10.6371 16.4229 10.5991 16.4767 10.577L16.4814 10.5751C16.4462 10.5983 16.4773 10.5815 16.5094 10.5634C16.5144 10.5612 16.5165 10.56 16.5149 10.5603C16.536 10.5483 16.556 10.5367 16.556 10.5367C16.6169 10.5072 16.6778 10.4778 16.7692 10.4483C17.1652 10.301 17.5917 10.1537 18.0182 10.0358C20.4249 9.32865 22.9839 9.1224 25.5124 9.47597C27.4621 9.77062 29.3813 10.3894 31.1177 11.2438C31.4528 11.4206 31.8793 11.3322 32.0621 11.0081C32.2449 10.7135 32.1535 10.242 31.8184 10.0947C28.772 8.6215 25.3601 7.82596 21.9176 8.03221C19.6938 8.17953 17.5308 8.68043 15.5202 9.56437C15.1242 9.74115 14.7281 9.91794 14.3626 10.1537C14.0579 10.3599 13.9056 10.7429 14.1188 11.0671C14.2712 11.3617 14.7281 11.509 15.0328 11.3028C15.2512 11.1619 15.4696 11.0585 15.7035 10.9477Z" fill="#929497"/>
<path d="M13.479 30.7787C13.1439 29.9831 12.9611 29.1581 12.8088 28.3037C12.7935 28.2153 12.7783 28.1195 12.7631 28.0238C12.7479 27.928 12.7326 27.8322 12.7174 27.7438C12.7174 27.6849 12.7174 27.6554 12.6869 27.5965C12.6869 27.5376 12.6793 27.4787 12.6717 27.4197C12.6641 27.3608 12.6565 27.3019 12.6565 27.2429C12.5955 26.801 12.5955 26.359 12.5955 25.8876C12.5955 25.4161 12.626 24.9153 12.6869 24.4438C12.6869 24.3915 12.6869 24.3392 12.7082 24.2869C12.7026 24.3284 12.6995 24.3534 12.7174 24.267C12.714 24.2737 12.7109 24.2803 12.7082 24.2869L12.7091 24.2801C12.7129 24.2521 12.7174 24.2194 12.7174 24.2081C12.7326 24.1492 12.7402 24.0902 12.7479 24.0313C12.7555 23.9724 12.7631 23.9135 12.7783 23.8545C12.7974 23.7713 12.8135 23.6881 12.8295 23.6058C12.8644 23.4259 12.8984 23.2502 12.9611 23.0884C13.2657 22.0277 13.6313 21.1733 14.3015 20.2599C14.6062 19.8474 14.9717 19.4348 15.3982 19.0518C15.8856 18.6098 16.3731 18.2268 16.9519 17.8732C18.3837 16.9893 20.0287 16.3705 21.7347 16.2232C23.593 16.0464 25.4513 16.3116 27.1878 16.9598C28.5587 17.4607 29.8077 18.2268 30.813 19.2581C31.3613 19.7884 31.7878 20.4072 32.1839 21.0554C32.3971 21.409 32.6104 21.792 32.7932 22.175C32.8389 22.2782 32.8922 22.3813 32.9455 22.4844C32.9988 22.5876 33.0521 22.6907 33.0978 22.7938C33.1892 23.0001 33.2501 23.2063 33.311 23.4126C33.372 23.5893 33.4024 23.7661 33.4329 23.9428C33.4491 23.9898 33.4566 24.0451 33.4648 24.1042C33.4719 24.1564 33.4795 24.2118 33.4938 24.267C33.4938 24.2965 33.5014 24.326 33.5091 24.3554C33.5167 24.3849 33.5243 24.4144 33.5243 24.4438C33.5031 24.3206 33.5114 24.412 33.5184 24.4888C33.5215 24.5221 33.5243 24.5528 33.5243 24.5617C33.5548 24.7974 33.5548 25.0331 33.5548 25.2982V26.0054C33.4634 26.5947 33.3415 26.9188 32.9759 27.3903L32.915 27.4787L32.7627 27.626C32.6713 27.7144 32.5799 27.8028 32.519 27.8322C32.2143 28.068 31.8488 28.2153 31.4832 28.3037C30.6911 28.5394 29.7772 28.4805 29.0156 28.0974C28.4368 27.8028 28.0103 27.3903 27.7057 26.8304C27.6447 26.7126 27.6143 26.6537 27.5533 26.4769C27.5229 26.3885 27.4924 26.2706 27.4924 26.1822C27.4832 26.1465 27.4683 26.0999 27.4555 26.0597C27.4261 25.9675 27.4075 25.9091 27.4924 26.0938C27.4575 26.0093 27.4626 25.9055 27.4676 25.8045C27.4713 25.7293 27.475 25.6558 27.462 25.5929C27.462 25.4437 27.4375 25.2944 27.4119 25.1377C27.397 25.0469 27.3817 24.9536 27.3706 24.8563C26.7004 21.6152 21.9175 20.6134 19.7546 23.0295C18.1095 24.8563 18.5665 27.5376 19.4499 29.6001C20.4552 31.9867 22.3745 33.8725 24.7507 35.0216C25.5123 35.4046 26.3348 35.6993 27.1573 35.9644C28.0103 36.2296 28.3759 34.9332 27.5229 34.668C26.0606 34.1966 24.5679 33.5189 23.4102 32.576C22.4354 31.8099 21.7652 30.9849 21.1559 29.9537L20.7599 29.1876C20.7294 29.1287 20.699 29.0697 20.699 29.0403C20.638 28.9224 20.6076 28.8046 20.5771 28.6867C20.4248 28.2742 20.3029 27.8322 20.2115 27.3903C20.1811 27.1841 20.1506 27.0073 20.1202 26.8306C20.1202 26.7716 20.1201 26.7421 20.0897 26.7126C20.0897 26.6684 20.0821 26.6242 20.0744 26.58C20.0668 26.5358 20.0592 26.4916 20.0592 26.4474C19.9678 25.7108 20.0897 24.9742 20.4857 24.326C21.3387 22.9706 23.0142 22.7349 24.4156 23.2947C24.9334 23.501 25.4209 23.8545 25.7255 24.326C26.0091 24.7602 26.0544 25.2299 26.103 25.7351C26.1171 25.8811 26.1315 26.0302 26.152 26.1822C26.1825 26.359 26.152 26.2412 26.152 26.2117C26.152 26.2559 26.1596 26.2927 26.1672 26.3295C26.1749 26.3664 26.1825 26.4032 26.1825 26.4474C26.1977 26.4916 26.2053 26.5432 26.2129 26.5947C26.2205 26.6463 26.2282 26.6979 26.2434 26.742C26.3043 26.9483 26.3957 27.184 26.4871 27.3608C26.5785 27.5671 26.7308 27.8028 26.8831 27.9796C27.462 28.7162 28.254 29.2465 29.1984 29.5117C30.8435 29.9831 32.8541 29.5706 33.9812 28.2742C35.3521 26.6831 35.1998 24.3554 34.5601 22.4697C34.1336 21.2322 33.4024 20.0536 32.5799 19.0518C31.666 17.9027 30.5084 16.9304 29.1679 16.2527C25.695 14.4848 21.5215 14.2491 17.9572 15.8402C15.4896 16.9304 13.3571 18.7866 12.2909 21.2322C11.4684 23.1179 11.2247 25.2099 11.4379 27.2724C11.5598 28.5099 11.8035 29.7474 12.23 30.926C12.2604 30.9849 12.2909 31.0439 12.2909 31.1028C12.4432 31.4564 12.7479 31.6921 13.1439 31.5742C13.3267 31.5448 13.6313 31.1323 13.479 30.7787Z" fill="#929497"/>
<path d="M11.4076 18.3153C11.3466 18.3742 11.3162 18.4037 11.2857 18.4626C10.7983 19.1992 9.61018 18.5215 10.1281 17.7849C10.7678 16.8126 11.6513 15.9581 12.5347 15.192C14.3016 13.7188 16.3732 12.5697 18.6275 11.9509C20.364 11.4795 22.2223 11.3616 24.0196 11.45C25.9084 11.5384 27.7667 11.9509 29.5032 12.6875C32.0926 13.7777 34.2555 15.5751 35.9006 17.7849C36.1138 18.0795 35.9615 18.5215 35.6569 18.6983C35.3218 18.9045 34.9257 18.7572 34.7125 18.4626C33.037 16.2527 30.6913 14.4554 28.0714 13.5715C27.1879 13.2768 26.274 13.0706 25.3601 12.9233C25.3296 12.8938 25.2687 12.8938 25.2077 12.8938C25.1163 12.8791 25.1544 12.8864 25.1925 12.8938C25.2306 12.9012 25.2687 12.9085 25.1773 12.8938C25.1316 12.8938 25.0859 12.8864 25.0402 12.8791C24.9945 12.8717 24.9488 12.8643 24.9031 12.8643C24.7508 12.8349 24.568 12.8054 24.4157 12.8054C24.2786 12.8054 24.1339 12.798 23.9892 12.7907C23.8445 12.7833 23.6998 12.7759 23.5627 12.7759C23.0143 12.7465 22.4355 12.7465 21.8567 12.7759C20.5468 12.8643 19.2673 13.1295 18.0487 13.542C17.0129 13.8956 16.0076 14.3965 15.0632 14.9858C14.2712 15.4867 13.6619 15.9581 12.9612 16.6063C12.5043 17.0483 12.0473 17.5197 11.6513 17.9911C11.636 18.0206 11.6132 18.0427 11.5903 18.0648C11.5675 18.0869 11.5446 18.109 11.5294 18.1385C11.4989 18.1974 11.4685 18.2563 11.4076 18.3153Z" fill="#929497"/>
<path d="M22.2526 25.6814C22.2222 26.9484 22.6791 28.2154 23.3189 29.3056C24.2328 30.8967 25.6951 32.1342 27.4924 32.6645C28.8938 33.077 30.2951 33.0181 31.7574 32.8708C32.123 32.8413 32.4581 32.5761 32.4581 32.1931C32.4581 31.8395 32.1534 31.486 31.7574 31.5154C30.5693 31.6333 29.3812 31.7217 28.2845 31.4565C27.7971 31.3386 27.462 31.2208 27.0964 31.044C27.005 30.9998 26.9136 30.9482 26.8222 30.8967C26.7309 30.8451 26.6395 30.7935 26.5481 30.7493C26.5208 30.7318 26.4962 30.7142 26.4728 30.6974C26.4176 30.6579 26.3685 30.6227 26.3044 30.602C26.2434 30.5726 26.213 30.5431 26.1825 30.5136C26.1709 30.5024 26.1592 30.4954 26.1493 30.4895C26.1332 30.4799 26.1216 30.4729 26.1216 30.4547C25.8169 30.219 25.5123 29.9243 25.2686 29.6297C25.2381 29.6002 25.2077 29.5634 25.1772 29.5266C25.1467 29.4897 25.1163 29.4529 25.0858 29.4234C25.1315 29.4676 25.1086 29.4382 25.0744 29.394C25.0401 29.3498 24.9944 29.2909 24.9944 29.2761C24.9335 29.2025 24.8802 29.1214 24.8269 29.0404C24.7735 28.9594 24.7202 28.8783 24.6593 28.8047C24.4765 28.51 24.3242 28.2154 24.1719 27.8913C24.1719 27.8827 24.1693 27.8742 24.1657 27.8657C24.1705 27.8738 24.1741 27.8808 24.1757 27.8839C24.1763 27.885 24.1766 27.8856 24.1766 27.8856C24.1766 27.8856 24.1673 27.8655 24.1414 27.8029C24.1414 27.8176 24.149 27.8324 24.1566 27.8471C24.1577 27.8491 24.1587 27.8511 24.1597 27.853C24.1618 27.8573 24.1639 27.8615 24.1657 27.8657C24.1591 27.8544 24.1502 27.8409 24.1414 27.8324C24.1262 27.7882 24.111 27.7514 24.0957 27.7145C24.0805 27.6777 24.0652 27.6408 24.05 27.5966C24.0196 27.523 23.9967 27.4493 23.9739 27.3757C23.951 27.302 23.9282 27.2283 23.8977 27.1547C23.8063 26.8895 23.7454 26.6243 23.6845 26.3591C23.6845 26.3357 23.6651 26.2002 23.6573 26.2202C23.6554 26.203 23.654 26.1886 23.654 26.1823V25.652C23.654 24.827 22.2831 24.827 22.2526 25.6814Z" fill="#929497"/>
<path fill-rule="evenodd" clip-rule="evenodd" d="M29.4118 21.026C30.5085 22.3519 31.2091 24.0313 31.1482 25.7403C31.1482 26.6242 29.7469 26.6242 29.6859 25.7992C29.6859 25.593 29.6859 25.3572 29.6555 25.1215C29.6555 25.0921 29.6479 25.0184 29.644 24.9816C29.6402 24.9447 29.6402 24.9447 29.6555 25.0626C29.6555 25.0184 29.6479 24.9816 29.6402 24.9447C29.6326 24.9079 29.625 24.8711 29.625 24.8269C29.5641 24.4438 29.4422 24.0903 29.3204 23.7367C29.3051 23.6925 29.2823 23.6409 29.2594 23.5894C29.2366 23.5378 29.2137 23.4862 29.1985 23.442C29.168 23.3684 29.1757 23.3905 29.1833 23.4126C29.1909 23.4347 29.1985 23.4568 29.168 23.3831C29.168 23.34 29.1517 23.3126 29.131 23.2779C29.1234 23.2653 29.1153 23.2516 29.1071 23.2358C29.0157 23.0295 28.9243 22.8233 28.8025 22.6465C28.4978 22.1456 28.2846 21.8804 27.8886 21.4974C27.1574 20.7608 26.2435 20.2304 25.1773 19.9063C23.7455 19.4643 22.2223 19.4054 20.76 19.8768C20.1202 20.0831 19.5719 20.3777 19.0235 20.7313C18.9594 20.779 18.8976 20.8245 18.8374 20.8687C18.5264 21.0974 18.2587 21.2943 17.9268 21.6152C17.1348 22.3813 16.5864 23.3831 16.3427 24.4733C16.2209 25.0331 16.1599 25.593 16.1599 26.1822C16.1599 26.4474 16.1904 26.7421 16.2209 27.0072C16.2209 27.0514 16.2285 27.103 16.2361 27.1546C16.2437 27.2061 16.2513 27.2577 16.2513 27.3019C16.2541 27.3178 16.2561 27.3297 16.2575 27.3382C16.2818 27.3692 16.2818 27.4219 16.2818 27.4492C16.286 27.474 16.2903 27.4993 16.2947 27.5251C16.3214 27.6838 16.3512 27.8611 16.4036 28.0385C16.952 30.543 18.3533 32.7528 20.2421 34.5207C20.8818 35.11 19.907 36.0529 19.2673 35.4636C17.0129 33.3716 15.3983 30.6314 14.9414 27.626C14.6977 25.976 14.8195 24.267 15.5202 22.7054C16.6169 20.3188 19.2368 18.5804 21.8872 18.2563C24.6289 17.9027 27.6753 18.9045 29.4118 21.026ZM16.2552 27.3355C16.254 27.3297 16.2527 27.3231 16.2513 27.3166C16.2437 27.2798 16.2361 27.243 16.2513 27.3314C16.2527 27.3327 16.254 27.3341 16.2552 27.3355Z" fill="#929497"/>
<rect x="0.5" y="0.5" width="45" height="43" rx="7.5" stroke="#221F1F"/>
<path d="M43 34C43 37.866 39.866 41 36 41C32.134 41 29 37.866 29 34C29 30.134 32.134 27 36 27C39.866 27 43 30.134 43 34Z" fill="#E60000"/>
<circle cx="36" cy="34" r="7" transform="rotate(-180 36 34)" fill="#E60000"/>
<path d="M36.5771 33.8756L39.0332 31.4194C39.1806 31.2721 39.1806 31.0264 39.0332 30.8791C38.8858 30.7317 38.6402 30.7317 38.4928 30.8791L36.0367 33.3352L33.5806 30.8791C33.4332 30.7317 33.1876 30.7317 33.0402 30.8791C32.8928 31.0264 32.8928 31.2721 33.0402 31.4194L35.4964 33.8756L33.0402 36.3317C32.8928 36.4791 32.8928 36.7247 33.0402 36.8721C33.0893 36.9212 33.1876 36.9703 33.2858 36.9703C33.3841 36.9703 33.4823 36.9212 33.5314 36.8721L35.9876 34.4159L38.4437 36.8721C38.4928 36.9212 38.5911 36.9703 38.6893 36.9703C38.7876 36.9703 38.8858 36.9212 38.935 36.8721C39.0823 36.7247 39.0823 36.4791 38.935 36.3317L36.5771 33.8756Z" fill="white"/>
</svg>
