<svg width="15" height="24" viewBox="0 0 15 24" fill="none" xmlns="http://www.w3.org/2000/svg">
<path fill-rule="evenodd" clip-rule="evenodd" d="M9.24995 0H7.24995V2.04765C6.15274 2.15319 5.00874 2.44367 4.04284 3.01385C2.72544 3.79154 1.74995 5.09581 1.74995 7C1.74995 7.9105 1.96093 8.70066 2.36394 9.37582C2.76348 10.0452 3.31947 10.5477 3.93182 10.9374C4.90319 11.5556 6.11169 11.9425 7.24995 12.2621V18.9751C5.659 18.8888 4.08634 18.5796 2.57828 18.0554L1.63372 17.7271L0.977051 19.6162L1.92161 19.9446C3.6409 20.5422 5.43534 20.8896 7.24995 20.9778V24H9.24995V20.957C10.4817 20.8562 11.6766 20.5681 12.6464 19.9659C13.9486 19.1575 14.7499 17.8383 14.7499 16C14.7499 15.0895 14.539 14.2993 14.136 13.6242C13.7364 12.9548 13.1804 12.4523 12.5681 12.0626C11.5967 11.4444 10.3882 11.0575 9.24995 10.7379V4.06324C10.3153 4.18281 11.3575 4.46835 12.3383 4.91135L13.2497 5.32298L14.0729 3.50029L13.1616 3.08865C11.9218 2.52868 10.5998 2.17935 9.24995 2.05274V0ZM7.24995 4.0591C6.43766 4.15698 5.66588 4.37822 5.05955 4.73615C4.25945 5.20846 3.74995 5.90419 3.74995 7C3.74995 7.5895 3.88271 8.01809 4.08127 8.35074C4.28329 8.68919 4.58667 8.98352 5.00557 9.25009C5.60937 9.63433 6.37158 9.91516 7.24995 10.1789V4.0591ZM9.24995 12.8211V18.9489C10.2109 18.8541 11.0096 18.6281 11.5915 18.2668C12.2933 17.831 12.7499 17.1617 12.7499 16C12.7499 15.4105 12.6172 14.9819 12.4186 14.6493C12.2166 14.3108 11.9132 14.0165 11.4943 13.7499C10.8905 13.3657 10.1283 13.0848 9.24995 12.8211Z" fill="#A32A29"/>
</svg>
