<svg width="24" height="24" viewBox="0 0 24 24" fill="none" xmlns="http://www.w3.org/2000/svg">
<path d="M24 12C24 18.6274 18.6274 24 12 24C5.37259 24 2.37703e-06 18.6274 2.95642e-06 12C3.53581e-06 5.37258 5.37259 2.78888e-07 12 8.58275e-07C18.6274 1.43766e-06 24 5.37259 24 12Z" fill="#A32A29"/>
<circle cx="12" cy="12" r="12" transform="rotate(-180 12 12)" fill="#A32A29"/>
<path d="M13.3467 17H11.7334V10.5674C11.7334 10.3532 11.7357 10.139 11.7402 9.9248C11.7448 9.71061 11.7493 9.50098 11.7539 9.2959C11.763 9.09082 11.7744 8.89486 11.7881 8.70801C11.6924 8.81283 11.5739 8.92676 11.4326 9.0498C11.2959 9.17285 11.1501 9.30046 10.9951 9.43262L9.84668 10.3486L9.04004 9.33008L12.0068 7.00586H13.3467V17Z" fill="white"/>
</svg>
