<svg width="25" height="26" viewBox="0 0 25 26" fill="none" xmlns="http://www.w3.org/2000/svg">
<path fill-rule="evenodd" clip-rule="evenodd" d="M21.2501 9.0625H23.125C23.4688 9.0625 23.75 8.78125 23.7812 8.4375V7.0625C23.7812 6.84375 23.6562 6.65625 23.4688 6.53125L12.8438 0.09375C12.625 -0.03125 12.375 -0.03125 12.1875 0.09375L1.5625 6.53125C1.375 6.65625 1.25 6.84375 1.25 7.0625V8.4375C1.25 8.78125 1.53125 9.0625 1.875 9.0625H3.75V17.1875C3.75 17.5312 4.03125 17.8125 4.375 17.8125C4.71875 17.8125 5 17.5312 5 17.1875V9.0625H7.8125V17.1875C7.8125 17.5312 8.09375 17.8125 8.4375 17.8125C8.78125 17.8125 9.0625 17.5312 9.0625 17.1875V9.0625H11.875V17.1875C11.875 17.5312 12.1562 17.8125 12.5 17.8125C12.8438 17.8125 13.125 17.5312 13.125 17.1875V9.0625H15.9374V17.1875C15.9374 17.5312 16.2186 17.8125 16.5624 17.8125C16.9061 17.8125 17.1874 17.5312 17.1874 17.1875V9.0625H20.0001V17.1875C20.0001 17.5312 20.2814 17.8125 20.6251 17.8125C20.9689 17.8125 21.2501 17.5312 21.2501 17.1875V9.0625ZM22.5 7.8125V7.40625L12.5 1.34375L2.5 7.40625V7.8125H22.5Z" fill="#221F1F"/>
<path fill-rule="evenodd" clip-rule="evenodd" d="M23.4375 21.5625V19.375C23.4375 19.0312 23.1562 18.75 22.8125 18.75H2.1875C1.84375 18.75 1.5625 19.0312 1.5625 19.375V21.5625H0.625C0.28125 21.5625 0 21.8438 0 22.1875V25C0 25.3438 0.28125 25.625 0.625 25.625H24.375C24.7188 25.625 25 25.3438 25 25V22.1875C25 21.8438 24.7188 21.5625 24.375 21.5625H23.4375ZM2.18595 22.8125L2.1875 22.8125H22.8125L22.8141 22.8125H23.75V24.375H1.25V22.8125H2.18595ZM22.1875 21.5625V20H2.8125V21.5625H22.1875Z" fill="#221F1F"/>
</svg>
