<svg width="32" height="32" viewBox="0 0 32 32" fill="none" xmlns="http://www.w3.org/2000/svg">
<path d="M16 32C7.13333 32 0 24.8667 0 16C0 7.13333 7.13333 0 16 0C24.8667 0 32 7.13333 32 16C32 24.8667 24.8667 32 16 32Z" fill="white"/>
<path d="M21.5689 13.9985L21.8541 12.3399C21.8541 12.3399 20.9709 12.0039 20.054 12.0039C19.0604 12.0039 16.7021 12.4417 16.7021 14.5627C16.7021 16.5604 19.4713 16.585 19.4713 17.6332C19.4713 18.6814 16.9873 18.4933 16.1685 17.8336L15.8711 19.5692C15.8711 19.5692 16.7635 20.007 18.1312 20.007C19.4989 20.007 21.5597 19.2949 21.5597 17.3588C21.5597 15.3488 18.766 15.1607 18.766 14.2883C18.7629 13.4097 20.7103 13.5238 21.5689 13.9985ZM24.4915 17.1338L25.5433 14.2421L26.1352 17.1338H24.4915ZM26.6964 19.8683H28.5333L26.9295 12.1396H25.3195C24.5773 12.1396 24.3964 12.716 24.3964 12.716L21.4125 19.8683H23.4979L23.9149 18.7214H26.4603L26.6964 19.8683ZM10.9491 12.1396L9.0416 17.4575L8.81467 16.3137L8.14 12.8363C8.14 12.8363 8.0572 12.1396 7.18933 12.1396H4.0368L4 12.269C4 12.269 4.966 12.4694 6.09453 13.1538L7.83333 19.8683H9.91867L13.1049 12.1396H10.9491ZM14.6352 19.8683H12.6327L13.8839 12.1396H15.8864L14.6352 19.8683Z" fill="#1A1E5A"/>
</svg>
