<svg width="21" height="25" viewBox="0 0 21 25" fill="none" xmlns="http://www.w3.org/2000/svg">
<path d="M7.50015 0.981934H13.5001C17.376 0.981934 20.518 4.12393 20.518 7.9998C20.518 11.8757 17.376 15.0177 13.5001 15.0177H3.93223L5.91436 16.9998L4.50015 18.414L0.0859375 13.9998L4.50015 9.58558L5.91436 10.9998L3.93223 12.9819H13.5001C16.2517 12.9819 18.4823 10.7514 18.4823 7.9998C18.4823 5.24823 16.2517 3.01766 13.5001 3.01766H7.50015V0.981934Z" fill="#221F1F"/>
<path d="M4.50015 21.9998H1.50015V24.9998H4.50015V21.9998Z" fill="#221F1F"/>
<path d="M6.50015 21.9998H9.50015V24.9998H6.50015V21.9998Z" fill="#221F1F"/>
<path d="M11.5001 21.9998H14.5001V24.9998H11.5001V21.9998Z" fill="#221F1F"/>
<path d="M16.5001 21.9998H19.5001V24.9998H16.5001V21.9998Z" fill="#221F1F"/>
</svg>
