<svg width="48" height="48" viewBox="0 0 48 48" fill="none" xmlns="http://www.w3.org/2000/svg">
<mask id="mask0_3_14487" style="mask-type:alpha" maskUnits="userSpaceOnUse" x="0" y="0" width="48" height="48">
<path fill-rule="evenodd" clip-rule="evenodd" d="M23.8602 47.7204C37.0378 47.7204 47.7204 37.0378 47.7204 23.8602C47.7204 10.6826 37.0378 0 23.8602 0C10.6826 0 0 10.6826 0 23.8602C0 37.0378 10.6826 47.7204 23.8602 47.7204Z" fill="white"/>
</mask>
<g mask="url(#mask0_3_14487)">
<path d="M0 31.0182H47.7204V33.4043H0V31.0182Z" fill="white"/>
</g>
<mask id="mask1_3_14487" style="mask-type:alpha" maskUnits="userSpaceOnUse" x="0" y="0" width="48" height="48">
<path fill-rule="evenodd" clip-rule="evenodd" d="M23.8602 47.7204C37.0378 47.7204 47.7204 37.0378 47.7204 23.8602C47.7204 10.6826 37.0378 0 23.8602 0C10.6826 0 0 10.6826 0 23.8602C0 37.0378 10.6826 47.7204 23.8602 47.7204Z" fill="white"/>
</mask>
<g mask="url(#mask1_3_14487)">
<path d="M0 14.3161H47.7204V16.7021H0V14.3161Z" fill="white"/>
</g>
<mask id="mask2_3_14487" style="mask-type:alpha" maskUnits="userSpaceOnUse" x="0" y="0" width="48" height="48">
<path fill-rule="evenodd" clip-rule="evenodd" d="M23.8602 47.7204C37.0378 47.7204 47.7204 37.0378 47.7204 23.8602C47.7204 10.6826 37.0378 0 23.8602 0C10.6826 0 0 10.6826 0 23.8602C0 37.0378 10.6826 47.7204 23.8602 47.7204Z" fill="white"/>
</mask>
<g mask="url(#mask2_3_14487)">
<path d="M0 0H47.7204V14.3161H0V0Z" fill="black"/>
</g>
<mask id="mask3_3_14487" style="mask-type:alpha" maskUnits="userSpaceOnUse" x="0" y="0" width="48" height="48">
<path fill-rule="evenodd" clip-rule="evenodd" d="M23.8602 47.7204C37.0378 47.7204 47.7204 37.0378 47.7204 23.8602C47.7204 10.6826 37.0378 0 23.8602 0C10.6826 0 0 10.6826 0 23.8602C0 37.0378 10.6826 47.7204 23.8602 47.7204Z" fill="white"/>
</mask>
<g mask="url(#mask3_3_14487)">
<path d="M0 16.7021H47.7204V31.0182H0V16.7021Z" fill="#BB0000"/>
</g>
<mask id="mask4_3_14487" style="mask-type:alpha" maskUnits="userSpaceOnUse" x="0" y="0" width="48" height="48">
<path fill-rule="evenodd" clip-rule="evenodd" d="M23.8602 47.7204C37.0378 47.7204 47.7204 37.0378 47.7204 23.8602C47.7204 10.6826 37.0378 0 23.8602 0C10.6826 0 0 10.6826 0 23.8602C0 37.0378 10.6826 47.7204 23.8602 47.7204Z" fill="white"/>
</mask>
<g mask="url(#mask4_3_14487)">
<path d="M0 33.4043H47.7204V47.7204H0V33.4043Z" fill="#006600"/>
</g>
<mask id="mask5_3_14487" style="mask-type:alpha" maskUnits="userSpaceOnUse" x="0" y="0" width="48" height="48">
<path fill-rule="evenodd" clip-rule="evenodd" d="M23.8602 47.7204C37.0378 47.7204 47.7204 37.0378 47.7204 23.8602C47.7204 10.6826 37.0378 0 23.8602 0C10.6826 0 0 10.6826 0 23.8602C0 37.0378 10.6826 47.7204 23.8602 47.7204Z" fill="white"/>
</mask>
<g mask="url(#mask5_3_14487)">
<path d="M15.3368 38.0272L15.8534 38.3254L29.7853 14.1944C30.6002 13.9761 31.0475 13.2012 31.4949 12.4264C31.7932 11.9098 32.9862 9.84352 33.5033 7.15865C31.4365 8.94876 30.2434 11.0151 29.9452 11.5316C29.4978 12.3065 29.0504 13.0813 29.2688 13.8962L15.3368 38.0272Z" fill="black"/>
</g>
<mask id="mask6_3_14487" style="mask-type:alpha" maskUnits="userSpaceOnUse" x="0" y="0" width="48" height="48">
<path fill-rule="evenodd" clip-rule="evenodd" d="M23.8602 47.7204C37.0378 47.7204 47.7204 37.0378 47.7204 23.8602C47.7204 10.6826 37.0378 0 23.8602 0C10.6826 0 0 10.6826 0 23.8602C0 37.0378 10.6826 47.7204 23.8602 47.7204Z" fill="white"/>
</mask>
<g mask="url(#mask6_3_14487)">
<path d="M15.3368 38.0272L15.8534 38.3254L29.7853 14.1944C30.6002 13.9761 31.0475 13.2012 31.4949 12.4264C31.7932 11.9098 32.9862 9.84352 33.5033 7.15865C31.4365 8.94876 30.2434 11.0151 29.9452 11.5316C29.4978 12.3065 29.0504 13.0813 29.2688 13.8962L15.3368 38.0272Z" fill="white"/>
</g>
<mask id="mask7_3_14487" style="mask-type:alpha" maskUnits="userSpaceOnUse" x="0" y="0" width="48" height="48">
<path fill-rule="evenodd" clip-rule="evenodd" d="M23.8602 47.7204C37.0378 47.7204 47.7204 37.0378 47.7204 23.8602C47.7204 10.6826 37.0378 0 23.8602 0C10.6826 0 0 10.6826 0 23.8602C0 37.0378 10.6826 47.7204 23.8602 47.7204Z" fill="white"/>
</mask>
<g mask="url(#mask7_3_14487)">
<path d="M32.3836 38.0272L31.867 38.3254L17.9351 14.1944C17.1202 13.9761 16.6729 13.2012 16.2255 12.4264C15.9272 11.9098 14.7342 9.84352 14.217 7.15865C16.2839 8.94876 17.4769 11.0151 17.7752 11.5316C18.2226 12.3065 18.67 13.0813 18.4516 13.8962L32.3836 38.0272Z" fill="black"/>
</g>
<mask id="mask8_3_14487" style="mask-type:alpha" maskUnits="userSpaceOnUse" x="0" y="0" width="48" height="48">
<path fill-rule="evenodd" clip-rule="evenodd" d="M23.8602 47.7204C37.0378 47.7204 47.7204 37.0378 47.7204 23.8602C47.7204 10.6826 37.0378 0 23.8602 0C10.6826 0 0 10.6826 0 23.8602C0 37.0378 10.6826 47.7204 23.8602 47.7204Z" fill="white"/>
</mask>
<g mask="url(#mask8_3_14487)">
<path d="M32.3836 38.0272L31.867 38.3254L17.9351 14.1944C17.1202 13.9761 16.6729 13.2012 16.2255 12.4264C15.9272 11.9098 14.7342 9.84352 14.217 7.15865C16.2839 8.94876 17.4769 11.0151 17.7752 11.5316C18.2226 12.3065 18.67 13.0813 18.4516 13.8962L32.3836 38.0272Z" fill="white"/>
</g>
<mask id="mask9_3_14487" style="mask-type:alpha" maskUnits="userSpaceOnUse" x="0" y="0" width="48" height="48">
<path fill-rule="evenodd" clip-rule="evenodd" d="M23.8602 47.7204C37.0378 47.7204 47.7204 37.0378 47.7204 23.8602C47.7204 10.6826 37.0378 0 23.8602 0C10.6826 0 0 10.6826 0 23.8602C0 37.0378 10.6826 47.7204 23.8602 47.7204Z" fill="white"/>
</mask>
<g mask="url(#mask9_3_14487)">
<path d="M18.1934 31.0182C19.0881 33.4043 22.0706 38.1763 23.8602 38.1763C25.6497 38.1763 28.6322 33.4043 29.527 31.0182V16.7021C28.6322 14.3161 25.6497 9.54408 23.8602 9.54408C22.0706 9.54408 19.0881 14.3161 18.1934 16.7021V31.0182Z" fill="#BB0000"/>
</g>
<mask id="mask10_3_14487" style="mask-type:alpha" maskUnits="userSpaceOnUse" x="0" y="0" width="48" height="48">
<path fill-rule="evenodd" clip-rule="evenodd" d="M23.8602 47.7204C37.0378 47.7204 47.7204 37.0378 47.7204 23.8602C47.7204 10.6826 37.0378 0 23.8602 0C10.6826 0 0 10.6826 0 23.8602C0 37.0378 10.6826 47.7204 23.8602 47.7204Z" fill="white"/>
</mask>
<g mask="url(#mask10_3_14487)">
<path d="M29.527 31.0182C30.4218 28.6322 31.0183 26.2462 31.0183 23.8602C31.0183 21.4742 30.4218 19.0882 29.527 16.7021C28.6323 19.0882 28.0358 21.4742 28.0358 23.8602C28.0358 26.2462 28.6323 28.6322 29.527 31.0182Z" fill="black"/>
</g>
<mask id="mask11_3_14487" style="mask-type:alpha" maskUnits="userSpaceOnUse" x="0" y="0" width="48" height="48">
<path fill-rule="evenodd" clip-rule="evenodd" d="M23.8602 47.7204C37.0378 47.7204 47.7204 37.0378 47.7204 23.8602C47.7204 10.6826 37.0378 0 23.8602 0C10.6826 0 0 10.6826 0 23.8602C0 37.0378 10.6826 47.7204 23.8602 47.7204Z" fill="white"/>
</mask>
<g mask="url(#mask11_3_14487)">
<path d="M18.1934 31.0182C17.2987 28.6322 16.7021 26.2462 16.7021 23.8602C16.7021 21.4742 17.2987 19.0882 18.1934 16.7021C19.0882 19.0882 19.6847 21.4742 19.6847 23.8602C19.6847 26.2462 19.0882 28.6322 18.1934 31.0182Z" fill="black"/>
</g>
<mask id="mask12_3_14487" style="mask-type:alpha" maskUnits="userSpaceOnUse" x="0" y="0" width="48" height="48">
<path fill-rule="evenodd" clip-rule="evenodd" d="M23.8602 47.7204C37.0378 47.7204 47.7204 37.0378 47.7204 23.8602C47.7204 10.6826 37.0378 0 23.8602 0C10.6826 0 0 10.6826 0 23.8602C0 37.0378 10.6826 47.7204 23.8602 47.7204Z" fill="white"/>
</mask>
<g mask="url(#mask12_3_14487)">
<path d="M23.8602 25.6497C24.5191 25.6497 25.0533 24.8485 25.0533 23.8602C25.0533 22.8719 24.5191 22.0707 23.8602 22.0707C23.2014 22.0707 22.6672 22.8719 22.6672 23.8602C22.6672 24.8485 23.2014 25.6497 23.8602 25.6497Z" fill="white"/>
</g>
<mask id="mask13_3_14487" style="mask-type:alpha" maskUnits="userSpaceOnUse" x="0" y="0" width="48" height="48">
<path fill-rule="evenodd" clip-rule="evenodd" d="M23.8602 47.7204C37.0378 47.7204 47.7204 37.0378 47.7204 23.8602C47.7204 10.6826 37.0378 0 23.8602 0C10.6826 0 0 10.6826 0 23.8602C0 37.0378 10.6826 47.7204 23.8602 47.7204Z" fill="white"/>
</mask>
<g mask="url(#mask13_3_14487)">
<path d="M24.1584 25.605C24.1584 25.605 25.3515 27.991 25.3515 31.8683C25.3515 35.7456 24.1584 38.1316 24.1584 38.1316V25.605Z" fill="white"/>
</g>
<mask id="mask14_3_14487" style="mask-type:alpha" maskUnits="userSpaceOnUse" x="0" y="0" width="48" height="48">
<path fill-rule="evenodd" clip-rule="evenodd" d="M23.8602 47.7204C37.0378 47.7204 47.7204 37.0378 47.7204 23.8602C47.7204 10.6826 37.0378 0 23.8602 0C10.6826 0 0 10.6826 0 23.8602C0 37.0378 10.6826 47.7204 23.8602 47.7204Z" fill="white"/>
</mask>
<g mask="url(#mask14_3_14487)">
<path d="M23.5619 22.1154C23.5619 22.1154 22.3689 19.7294 22.3689 15.8521C22.3689 11.9748 23.5619 9.58881 23.5619 9.58881V22.1154Z" fill="white"/>
</g>
<mask id="mask15_3_14487" style="mask-type:alpha" maskUnits="userSpaceOnUse" x="0" y="0" width="48" height="48">
<path fill-rule="evenodd" clip-rule="evenodd" d="M23.8602 47.7204C37.0378 47.7204 47.7204 37.0378 47.7204 23.8602C47.7204 10.6826 37.0378 0 23.8602 0C10.6826 0 0 10.6826 0 23.8602C0 37.0378 10.6826 47.7204 23.8602 47.7204Z" fill="white"/>
</mask>
<g mask="url(#mask15_3_14487)">
<path d="M23.5619 25.605C23.5619 25.605 22.3689 27.991 22.3689 31.8683C22.3689 35.7456 23.5619 38.1316 23.5619 38.1316V25.605Z" fill="white"/>
</g>
<mask id="mask16_3_14487" style="mask-type:alpha" maskUnits="userSpaceOnUse" x="0" y="0" width="48" height="48">
<path fill-rule="evenodd" clip-rule="evenodd" d="M23.8602 47.7204C37.0378 47.7204 47.7204 37.0378 47.7204 23.8602C47.7204 10.6826 37.0378 0 23.8602 0C10.6826 0 0 10.6826 0 23.8602C0 37.0378 10.6826 47.7204 23.8602 47.7204Z" fill="white"/>
</mask>
<g mask="url(#mask16_3_14487)">
<path d="M24.1584 22.1154C24.1584 22.1154 25.3515 19.7294 25.3515 15.8521C25.3515 11.9748 24.1584 9.58881 24.1584 9.58881V22.1154Z" fill="white"/>
</g>
</svg>
