<svg xmlns="http://www.w3.org/2000/svg" width="24" height="24" viewBox="0 0 24 24" fill="none">
<path fill-rule="evenodd" clip-rule="evenodd" d="M7 5.58579L10.7066 9.29237C11.0982 9.10495 11.5369 9 12 9C13.6569 9 15 10.3431 15 12C15 13.6569 13.6569 15 12 15C10.3431 15 9 13.6569 9 12C9 11.5369 9.10495 11.0982 9.29237 10.7066L5.58579 7L7 5.58579ZM11.2198 11.3744C11.0823 11.5457 11 11.7632 11 12C11 12.5523 11.4477 13 12 13C12.5523 13 13 12.5523 13 12C13 11.4477 12.5523 11 12 11C11.7632 11 11.5457 11.0823 11.3744 11.2198L11.2198 11.3744Z" fill="#221F1F"/>
<path d="M13 4V7H11V4H13Z" fill="#221F1F"/>
<path d="M18.3641 7.05005L16.9499 5.63584L14.8287 7.75705L16.2429 9.17126L18.3641 7.05005Z" fill="#221F1F"/>
<path d="M17 11H20V13H17V11Z" fill="#221F1F"/>
<path d="M4 11V13H7V11H4Z" fill="#221F1F"/>
<path fill-rule="evenodd" clip-rule="evenodd" d="M0 12C0 5.37258 5.37258 0 12 0C18.6274 0 24 5.37258 24 12C24 18.6274 18.6274 24 12 24C5.37258 24 0 18.6274 0 12ZM12 2C6.47715 2 2 6.47715 2 12C2 17.5228 6.47715 22 12 22C17.5228 22 22 17.5228 22 12C22 6.47715 17.5228 2 12 2Z" fill="#221F1F"/>
</svg>