<svg width="500" height="320" viewBox="0 0 500 320" fill="none" xmlns="http://www.w3.org/2000/svg">
<path d="M124.66 195.895C144.645 264.217 224.038 273.04 279.1 244.241C305.342 230.523 327.973 205.196 339.493 176.825C348.981 166.173 354.71 152.7 355.797 138.476C358.324 103.927 337.046 74.5218 309.769 61.6493C283.168 49.0952 251.534 50.5078 222.427 54.9146C193.578 59.2817 165.804 74.2532 147.44 100.306C128.917 126.609 115.558 164.977 124.66 195.895Z" fill="#F7F7F7"/>
<path d="M328.899 281.347L248.203 281.297C245.895 281.297 243.609 280.843 241.477 279.959C239.345 279.076 237.408 277.781 235.777 276.148C234.145 274.516 232.851 272.578 231.969 270.445C231.087 268.313 230.633 266.027 230.635 263.719V61.4108C230.633 59.1012 231.088 56.8141 231.971 54.6802C232.855 52.5464 234.15 50.6076 235.784 48.975C237.417 47.3424 239.357 46.0478 241.491 45.1655C243.626 44.2832 245.913 43.8304 248.223 43.833H328.919C331.232 43.833 333.521 44.2893 335.657 45.1758C337.793 46.0623 339.733 47.3615 341.366 48.999C342.999 50.6365 344.293 52.5802 345.173 54.7185C346.054 56.8569 346.503 59.148 346.497 61.4605V263.819C346.486 268.476 344.627 272.939 341.327 276.226C338.027 279.513 333.557 281.355 328.899 281.347V281.347Z" fill="#263238"/>
<path d="M328.869 51.0349H313.232C312.72 51.0452 312.216 51.1565 311.748 51.3623C311.28 51.5682 310.857 51.8645 310.504 52.2343C310.151 52.6041 309.874 53.04 309.69 53.5171C309.506 53.9941 309.418 54.5029 309.431 55.014V57.8492C309.445 58.3603 309.357 58.8691 309.173 59.3461C308.989 59.8232 308.712 60.2591 308.359 60.6289C308.006 60.9987 307.583 61.295 307.115 61.5009C306.647 61.7067 306.143 61.818 305.631 61.8283H275.131C274.621 61.8167 274.117 61.7045 273.65 61.4982C273.182 61.2919 272.76 60.9956 272.407 60.626C272.054 60.2565 271.777 59.8211 271.593 59.3446C271.408 58.8682 271.319 58.36 271.331 57.8492V54.9742C271.343 54.4634 271.254 53.9553 271.07 53.4788C270.885 53.0023 270.609 52.5669 270.256 52.1974C269.903 51.8278 269.481 51.5315 269.013 51.3252C268.546 51.1189 268.042 51.0067 267.531 50.9951H248.332C245.067 50.9951 241.937 52.2913 239.627 54.5987C237.318 56.9061 236.019 60.036 236.017 63.3006V260.775C236.015 262.391 236.333 263.993 236.95 265.487C237.568 266.981 238.474 268.339 239.617 269.482C240.76 270.626 242.117 271.533 243.611 272.152C245.104 272.771 246.705 273.09 248.322 273.09L328.899 273.14C332.151 273.121 335.263 271.817 337.556 269.511C339.848 267.205 341.135 264.086 341.135 260.834V63.3602C341.14 60.1001 339.852 56.971 337.552 54.6602C335.252 52.3493 332.13 51.0454 328.869 51.0349Z" fill="white"/>
<path d="M331.256 70.9704C331.256 71.03 329.217 71.0897 326.71 71.1096C324.203 71.1295 322.164 71.1096 322.164 71.0499C322.164 70.9902 324.154 70.9405 326.71 70.9107C329.267 70.8808 331.256 70.9206 331.256 70.9704Z" fill="#263238"/>
<path d="M331.277 73.2983C331.277 73.2983 329.238 73.4077 326.731 73.4276C324.224 73.4475 322.185 73.4276 322.185 73.4276C322.185 73.4276 324.174 73.3083 326.731 73.2884C329.287 73.2685 331.277 73.2486 331.277 73.2983Z" fill="#263238"/>
<path d="M331.296 75.626C331.296 75.6757 329.257 75.7354 326.75 75.7553C324.243 75.7752 322.204 75.7553 322.204 75.6956C322.204 75.6359 324.194 75.5862 326.75 75.5663C329.307 75.5464 331.296 75.5762 331.296 75.626Z" fill="#263238"/>
<path d="M267.342 119.038H248.551V137.83H267.342V119.038Z" fill="#E7515B"/>
<path d="M303.493 121.058C303.493 121.147 297.206 121.217 289.456 121.217C281.707 121.217 275.42 121.147 275.42 121.058C275.42 120.968 281.707 120.898 289.456 120.898C297.206 120.898 303.493 120.968 303.493 121.058Z" fill="#E7515B"/>
<path d="M325.865 126.818C325.865 126.907 314.574 126.977 300.648 126.977C286.721 126.977 275.42 126.907 275.42 126.818C275.42 126.728 286.711 126.659 300.648 126.659C314.584 126.659 325.865 126.728 325.865 126.818Z" fill="#263238"/>
<path d="M325.278 130.936C325.278 131.026 314.117 131.095 300.349 131.095C286.581 131.095 275.42 131.026 275.42 130.936C275.42 130.847 286.581 130.777 300.349 130.777C314.117 130.777 325.278 130.847 325.278 130.936Z" fill="#263238"/>
<path d="M304.855 134.855C304.855 134.945 298.27 135.015 290.143 135.015C282.015 135.015 275.42 134.945 275.42 134.855C275.42 134.766 282.015 134.696 290.143 134.696C298.27 134.696 304.855 134.766 304.855 134.855Z" fill="#263238"/>
<path d="M267.342 150.344H248.551V169.135H267.342V150.344Z" fill="#E7515B"/>
<path d="M303.493 152.403C303.493 152.493 297.206 152.563 289.456 152.563C281.707 152.563 275.42 152.493 275.42 152.403C275.42 152.314 281.707 152.244 289.456 152.244C297.206 152.244 303.493 152.274 303.493 152.403Z" fill="#E7515B"/>
<path d="M325.865 158.124C325.865 158.213 314.574 158.283 300.648 158.283C286.721 158.283 275.42 158.213 275.42 158.124C275.42 158.034 286.711 157.964 300.648 157.964C314.584 157.964 325.865 158.034 325.865 158.124Z" fill="#263238"/>
<path d="M325.278 162.242C325.278 162.331 314.117 162.401 300.349 162.401C286.581 162.401 275.42 162.331 275.42 162.242C275.42 162.152 286.581 162.083 300.349 162.083C314.117 162.083 325.278 162.152 325.278 162.242Z" fill="#263238"/>
<path d="M304.855 166.161C304.855 166.251 298.27 166.32 290.143 166.32C282.015 166.32 275.42 166.251 275.42 166.161C275.42 166.072 282.015 166.002 290.143 166.002C298.27 166.002 304.855 166.072 304.855 166.161Z" fill="#263238"/>
<path d="M267.342 181.649H248.551V200.441H267.342V181.649Z" fill="#E7515B"/>
<path d="M303.493 183.669C303.493 183.758 297.206 183.828 289.456 183.828C281.707 183.828 275.42 183.758 275.42 183.669C275.42 183.579 281.707 183.51 289.456 183.51C297.206 183.51 303.493 183.579 303.493 183.669Z" fill="#E7515B"/>
<path d="M325.865 189.429C325.865 189.518 314.574 189.588 300.648 189.588C286.721 189.588 275.42 189.518 275.42 189.429C275.42 189.339 286.711 189.27 300.648 189.27C314.584 189.27 325.865 189.349 325.865 189.429Z" fill="#263238"/>
<path d="M325.278 193.547C325.278 193.637 314.117 193.707 300.349 193.707C286.581 193.707 275.42 193.637 275.42 193.547C275.42 193.458 286.581 193.388 300.349 193.388C314.117 193.388 325.278 193.458 325.278 193.547Z" fill="#263238"/>
<path d="M304.855 197.466C304.855 197.556 298.27 197.625 290.143 197.625C282.015 197.625 275.42 197.556 275.42 197.466C275.42 197.377 282.015 197.307 290.143 197.307C298.27 197.307 304.855 197.387 304.855 197.466Z" fill="#263238"/>
<path d="M267.342 212.956H248.551V231.747H267.342V212.956Z" fill="#E7515B"/>
<path d="M303.493 214.985C303.493 215.064 297.206 215.144 289.456 215.144C281.707 215.144 275.42 215.064 275.42 214.985C275.42 214.905 281.707 214.815 289.456 214.815C297.206 214.815 303.493 214.895 303.493 214.985Z" fill="#455B64"/>
<path d="M325.865 220.745C325.865 220.824 314.574 220.904 300.648 220.904C286.721 220.904 275.42 220.824 275.42 220.745C275.42 220.665 286.711 220.585 300.648 220.585C314.584 220.585 325.865 220.655 325.865 220.745Z" fill="#263238"/>
<path d="M325.278 224.853C325.278 224.943 314.117 225.012 300.349 225.012C286.581 225.012 275.42 224.943 275.42 224.853C275.42 224.763 286.581 224.694 300.349 224.694C314.117 224.694 325.278 224.763 325.278 224.853Z" fill="#263238"/>
<path d="M304.855 228.783C304.855 228.862 298.27 228.942 290.143 228.942C282.015 228.942 275.42 228.862 275.42 228.783C275.42 228.703 282.015 228.624 290.143 228.624C298.27 228.624 304.855 228.693 304.855 228.783Z" fill="#263238"/>
<path d="M267.342 244.261H248.551V263.053H267.342V244.261Z" fill="#E0E0E0"/>
<path d="M303.493 246.291C303.493 246.38 297.206 246.45 289.456 246.45C281.707 246.45 275.42 246.38 275.42 246.291C275.42 246.201 281.707 246.131 289.456 246.131C297.206 246.131 303.493 246.201 303.493 246.291Z" fill="#E0E0E0"/>
<path d="M325.865 252.05C325.865 252.14 314.574 252.209 300.648 252.209C286.721 252.209 275.42 252.14 275.42 252.05C275.42 251.961 286.711 251.891 300.648 251.891C314.584 251.891 325.865 251.961 325.865 252.05Z" fill="#EBEBEB"/>
<path d="M325.278 256.159C325.278 256.248 314.117 256.318 300.349 256.318C286.581 256.318 275.42 256.248 275.42 256.159C275.42 256.069 286.581 256 300.349 256C314.117 256 325.278 256.069 325.278 256.159Z" fill="#EBEBEB"/>
<path d="M304.855 260.088C304.855 260.178 298.27 260.248 290.143 260.248C282.015 260.248 275.42 260.178 275.42 260.088C275.42 259.999 282.015 259.929 290.143 259.929C298.27 259.929 304.855 259.999 304.855 260.088Z" fill="#EBEBEB"/>
<g opacity="0.3">
<path opacity="0.3" d="M267.342 212.956H248.551V231.747H267.342V212.956Z" fill="black"/>
</g>
<g opacity="0.3">
<path opacity="0.3" d="M267.342 150.344H248.551V169.135H267.342V150.344Z" fill="black"/>
</g>
<path d="M314.28 61.2757L265 67.7197L273.817 135.149L323.097 128.705L314.28 61.2757Z" fill="#F5F6F6"/>
<path d="M304.072 57.5179L254.792 63.9619L263.609 131.391L312.889 124.947L304.072 57.5179Z" fill="white"/>
<path d="M312.863 124.967L312.803 124.639C312.803 124.42 312.734 124.102 312.674 123.644C312.555 122.759 312.386 121.565 312.167 119.973C311.739 116.75 311.102 112.015 310.306 106.126C308.725 94.2684 306.526 77.4367 303.85 57.5311L304.079 57.7102L254.818 64.1762L255.007 63.9176C258.289 89.1054 261.323 112.423 263.781 131.354L263.572 131.185L299.384 126.609L309.332 125.355L311.998 125.037L312.883 124.937L311.998 125.067L309.401 125.425L299.453 126.768L263.572 131.563H263.393V131.384C260.906 112.483 257.852 89.1452 254.539 63.9673V63.7385H254.758L304.029 57.2725H304.228V57.4814C306.795 77.4665 308.964 94.3479 310.495 106.226C311.242 112.194 311.838 116.82 312.236 120.043C312.445 121.625 312.585 122.848 312.694 123.684L312.803 124.619C312.893 124.778 312.873 124.868 312.863 124.967Z" fill="#A42A29"/>
<path d="M286.65 73.5867C286.65 73.716 281.288 74.5218 274.713 75.3872C268.137 76.2527 262.726 76.8496 262.716 76.7203C262.706 76.5909 268.068 75.8051 274.653 74.9296C281.239 74.0542 286.66 73.4673 286.65 73.5867Z" fill="#A42A29"/>
<path d="M300.369 77.7947C300.369 77.914 292.142 79.0978 281.956 80.4209C271.769 81.7439 263.493 82.7387 263.473 82.6094C263.453 82.4801 271.709 81.3062 281.896 79.9832C292.083 78.6601 300.379 77.6355 300.369 77.7947Z" fill="#A42A29"/>
<path d="M301.195 83.8732C301.195 83.9926 292.968 85.1764 282.781 86.5094C272.595 87.8424 264.328 88.7874 264.288 88.6979C264.248 88.6083 272.515 87.3947 282.702 86.0617C292.888 84.7287 301.175 83.7638 301.195 83.8732Z" fill="#A42A29"/>
<path d="M302 89.9908C302 90.1101 293.763 91.2939 283.587 92.6269C273.41 93.9599 265.113 94.9348 265.104 94.8055C265.094 94.6762 273.32 93.5023 283.527 92.1793C293.733 90.8562 302.01 89.8714 302 89.9908Z" fill="#A42A29"/>
<path d="M302.796 96.0988C302.796 96.2182 294.569 97.402 284.372 98.735C274.176 100.068 265.919 101.053 265.919 100.924C265.919 100.794 274.146 99.6204 284.332 98.2874C294.519 96.9543 302.776 95.9695 302.796 96.0988Z" fill="#A42A29"/>
<path d="M303.621 102.217C303.621 102.336 295.384 103.52 285.208 104.853C275.031 106.186 266.735 107.161 266.725 107.041C266.715 106.922 274.951 105.728 285.148 104.395C295.344 103.062 303.581 102.087 303.621 102.217Z" fill="#A42A29"/>
<path d="M304.388 108.325C304.388 108.444 296.161 109.628 285.975 110.961C275.788 112.294 267.521 113.279 267.531 113.16C267.541 113.04 275.758 111.846 285.955 110.513C296.151 109.18 304.378 108.196 304.388 108.325Z" fill="#A42A29"/>
<path d="M288.133 116.671C288.133 116.79 283.716 117.477 278.245 118.193C272.773 118.909 268.297 119.386 268.297 119.257C268.297 119.128 272.704 118.451 278.185 117.745C283.666 117.039 288.113 116.591 288.133 116.671Z" fill="#A42A29"/>
<path d="M394.315 280.481C394.315 287.663 275.031 300.536 223.78 300.377C171.554 300.238 112.981 290.708 112.981 283.525C112.981 276.343 158.662 268.792 214.777 268.792C270.893 268.792 394.315 273.309 394.315 280.481Z" fill="#E0E0E0"/>
<path d="M294.251 139.61C294.182 139.61 292.699 129.305 290.958 116.591C289.218 103.878 287.855 93.5422 287.974 93.5322C288.093 93.5223 289.526 103.828 291.277 116.551C293.028 129.275 294.331 139.591 294.251 139.61Z" fill="#A42A29"/>
<path d="M337.673 83.2358C337.673 83.2358 337.673 83.2955 337.673 83.395L337.494 83.8526L336.817 85.6034L334.31 92.0397C332.201 97.4712 329.336 104.972 326.253 113.358C323.169 121.744 320.533 129.274 318.633 134.835L316.394 141.361C316.126 142.117 315.927 142.714 315.778 143.142L315.609 143.599L315.549 143.748C315.549 143.748 315.549 143.699 315.549 143.589L315.688 143.122C315.821 142.697 316.01 142.1 316.255 141.331C316.753 139.779 317.489 137.531 318.414 134.766C320.264 129.235 322.9 121.624 325.964 113.258C329.028 104.892 331.933 97.3418 334.092 91.97C335.166 89.2642 336.081 87.0757 336.678 85.5636C336.996 84.8275 337.235 84.2505 337.404 83.8327L337.603 83.3851C337.623 83.3337 337.646 83.2838 337.673 83.2358Z" fill="#A42A29"/>
<path d="M368.79 123.773C368.79 123.833 361.299 129.742 351.958 136.954C342.617 144.166 334.997 149.986 334.948 149.886C334.898 149.787 342.438 143.918 351.789 136.696C361.14 129.474 368.75 123.714 368.79 123.773Z" fill="#A42A29"/>
<path d="M275.967 141.53C275.907 141.53 272.983 137.859 269.461 133.234C265.939 128.608 263.104 124.818 263.164 124.768C263.224 124.718 266.148 128.439 269.68 133.065C273.211 137.69 276.027 141.461 275.967 141.53Z" fill="#A42A29"/>
<path d="M365.238 170.558C365.238 170.638 360.592 169.355 354.922 167.693C349.252 166.032 344.656 164.639 344.676 164.57C344.696 164.5 349.321 165.773 354.992 167.435C360.662 169.096 365.258 170.489 365.238 170.558Z" fill="#A42A29"/>
<path d="M192.355 141.62C186.974 140.625 174.071 139.7 167.993 143.042C167.993 143.042 168.093 148.553 170.54 150.195C172.987 151.836 193.42 138.307 202.263 159.337C202.263 159.337 202.373 143.42 192.316 141.62H192.355Z" fill="#B72F49"/>
<path d="M163.596 230.235L159.229 241.038C159.229 241.038 129.197 234.532 112.882 239.944C106.675 241.983 101.86 257.363 112.415 265.351C122.671 273.09 185.143 284.54 184.347 284.55C183.552 284.56 202.164 284.928 202.164 284.928L204.153 268.196L238.782 268.822C265.014 266.336 266.059 239.825 252.41 236.771C237.041 233.339 213.554 231.797 213.554 231.797L209.824 223.381L163.596 230.235Z" fill="#8B383F"/>
<path d="M199.837 215.741C199.713 216.016 199.563 216.28 199.389 216.527C198.955 217.22 198.476 217.884 197.956 218.516C197.189 219.476 196.358 220.383 195.469 221.232C193.293 223.306 190.793 225.013 188.068 226.285C186.962 226.813 185.818 227.258 184.646 227.618C183.86 227.87 183.06 228.073 182.249 228.225C181.957 228.304 181.656 228.348 181.354 228.355C181.354 228.285 182.607 228.046 184.567 227.36C185.71 226.965 186.829 226.503 187.919 225.977C189.252 225.325 190.539 224.58 191.769 223.749C192.997 222.92 194.173 222.016 195.29 221.043C196.179 220.22 197.016 219.343 197.797 218.417C199.09 216.795 199.777 215.701 199.837 215.741Z" fill="#263238"/>
<path d="M213.693 221.739C213.693 221.849 212.45 222.028 211.017 222.605C209.585 223.182 208.54 223.908 208.471 223.818C209.128 223.105 209.957 222.571 210.878 222.267C211.755 221.851 212.725 221.669 213.693 221.739V221.739Z" fill="#263238"/>
<g opacity="0.3">
<path opacity="0.3" d="M184.547 227.559C190.48 225.602 195.552 221.651 198.902 216.377C199.419 217.437 199.634 218.619 199.523 219.793C199.413 220.967 198.981 222.088 198.275 223.033C200.165 223.629 202.175 222.784 204.085 222.247C205.994 221.709 208.422 221.64 209.586 223.241C200.985 225.261 192.262 226.723 183.473 227.618" fill="black"/>
</g>
<path d="M280.622 134.825C280.519 134.635 280.377 134.467 280.206 134.334C280.034 134.2 279.838 134.103 279.627 134.049L280.194 132.537C280.094 132.037 279.898 131.561 279.617 131.135C279.21 130.568 277.986 130.747 277.986 130.747L278.125 130.329C278.245 130.032 278.283 129.709 278.235 129.392C278.188 129.076 278.057 128.777 277.857 128.528L277.648 128.309C277.176 127.941 276.604 127.722 276.006 127.683C276.006 127.683 276.603 126.24 276.195 125.693C274.713 123.843 269.68 127.812 268.615 128.27C266.108 129.354 268.227 129.543 266.188 130.488C266.032 130.583 265.859 130.646 265.679 130.674C265.499 130.701 265.315 130.692 265.138 130.648C264.961 130.603 264.795 130.524 264.649 130.415C264.503 130.305 264.38 130.168 264.288 130.011C263.478 128.278 262.4 126.683 261.095 125.285C259.602 123.833 258.379 124.092 257.683 124.45C257.605 124.49 257.537 124.547 257.483 124.616C257.43 124.685 257.392 124.765 257.373 124.851C257.354 124.936 257.354 125.025 257.373 125.11C257.393 125.196 257.43 125.276 257.484 125.345C258.311 126.391 259.072 127.487 259.762 128.628C260.209 129.513 261.323 136.397 261.323 136.397L259.811 140.217L243.845 172.537C243.845 172.537 212.838 156.104 212.898 155.626L213.892 178.138L237.24 190.304C239.24 191.349 241.445 191.944 243.699 192.046C245.954 192.147 248.203 191.754 250.289 190.893C252.375 190.032 254.248 188.724 255.774 187.062C257.301 185.4 258.444 183.423 259.125 181.272L267.481 149.001L268.983 146.206L280.324 138.794C280.718 138.217 280.953 137.547 281.005 136.85C281.057 136.153 280.925 135.455 280.622 134.825V134.825Z" fill="#8F5045"/>
<path d="M274.475 128.797C274.117 129.076 273.709 129.304 273.341 129.563L272.207 130.349C271.749 130.667 271.271 130.966 270.804 131.264C270.527 131.29 270.263 131.389 270.038 131.553C269.773 131.733 269.526 131.94 269.302 132.169L269.222 132.259H269.123L268.934 132.14H268.864L268.804 132.09L268.645 131.931L268.546 131.811V131.742L268.397 131.602C268.397 131.602 268.397 131.602 268.347 131.602C268.314 131.577 268.277 131.557 268.237 131.543C268.219 131.533 268.199 131.528 268.178 131.528C268.157 131.528 268.136 131.533 268.118 131.543C268.118 131.543 268.058 131.592 268.038 131.632C267.996 131.716 267.975 131.808 267.975 131.901C267.975 131.994 267.996 132.086 268.038 132.169C268.058 132.221 268.081 132.271 268.108 132.319C268.138 132.373 268.175 132.423 268.218 132.468C268.259 132.519 268.306 132.566 268.357 132.607L268.586 132.776C268.663 132.824 268.747 132.861 268.834 132.886H268.924C268.667 133.23 268.466 133.613 268.327 134.02C268.212 134.32 268.186 134.647 268.254 134.961C268.321 135.275 268.477 135.563 268.705 135.79C268.897 135.986 269.149 136.112 269.421 136.149C269.516 136.173 269.615 136.173 269.71 136.149C269.766 136.131 269.817 136.1 269.859 136.059H269.799C269.934 136.009 270.044 135.909 270.108 135.78C270.123 135.756 270.131 135.728 270.133 135.699C270.135 135.67 270.13 135.641 270.118 135.615C270.106 135.589 270.088 135.565 270.066 135.548C270.043 135.53 270.017 135.517 269.988 135.512H269.759C269.614 135.476 269.471 135.429 269.332 135.373C269.19 135.295 269.078 135.173 269.013 135.024C268.95 134.796 268.94 134.557 268.983 134.324C269.026 134.092 269.122 133.872 269.262 133.681C269.502 133.272 269.797 132.898 270.137 132.567C270.317 132.398 270.486 132.239 270.675 132.08C270.781 131.995 270.881 131.902 270.973 131.801C271.518 131.499 272.046 131.167 272.555 130.807C272.923 130.558 273.271 130.279 273.619 129.991C273.967 129.702 274.276 129.314 274.614 128.996C274.554 128.827 274.514 128.777 274.475 128.797Z" fill="#703E38"/>
<path d="M276.384 131.782C275.91 131.963 275.471 132.23 275.091 132.567L273.798 133.562C273.38 133.871 272.952 134.159 272.545 134.467C272.137 134.776 271.769 135.134 271.391 135.462C271.391 135.462 271.391 135.542 271.391 135.532C271.879 135.373 272.355 135.177 272.813 134.945C273.281 134.69 273.736 134.411 274.176 134.109C274.614 133.821 275.041 133.532 275.459 133.234C275.923 132.955 276.323 132.583 276.633 132.14C276.657 132.1 276.669 132.055 276.667 132.009C276.666 131.962 276.651 131.918 276.625 131.88C276.599 131.842 276.562 131.813 276.519 131.795C276.477 131.778 276.43 131.773 276.384 131.782V131.782Z" fill="#703E38"/>
<path d="M278.235 135.184C278.015 135.228 277.809 135.327 277.638 135.472C277.409 135.621 277.18 135.78 276.961 135.95L275.608 136.944C274.693 137.591 273.718 138.148 272.843 138.844C272.526 139.009 272.193 139.139 271.848 139.232C271.407 139.333 270.945 139.261 270.555 139.033C270.376 138.936 270.227 138.792 270.124 138.617C270.021 138.442 269.967 138.242 269.968 138.039C269.99 137.796 270.057 137.56 270.167 137.342C270.286 137.113 270.386 136.875 270.525 136.656C270.525 136.656 270.525 136.596 270.475 136.656C270.271 136.855 270.085 137.071 269.918 137.303C269.764 137.543 269.666 137.815 269.63 138.098C269.617 138.344 269.668 138.588 269.778 138.808C269.888 139.027 270.053 139.215 270.257 139.352C270.648 139.626 271.123 139.756 271.599 139.72C271.489 139.809 271.394 139.917 271.321 140.038C271.161 140.333 271.101 140.671 271.149 141.003C271.197 141.335 271.352 141.642 271.59 141.879C271.865 142.154 272.208 142.353 272.584 142.455C272.816 142.509 273.053 142.532 273.291 142.525C273.529 142.525 273.878 142.525 273.977 142.257C274.005 142.217 274.021 142.17 274.021 142.122C274.021 142.074 274.005 142.027 273.977 141.988C273.818 141.829 273.629 141.879 273.43 141.898C273.268 141.913 273.105 141.913 272.942 141.898C272.643 141.892 272.35 141.814 272.087 141.67C271.875 141.524 271.716 141.313 271.633 141.069C271.551 140.825 271.55 140.561 271.629 140.317C271.715 140.053 271.882 139.823 272.107 139.66V139.66C272.572 139.569 273.015 139.387 273.41 139.123C274.338 138.679 275.216 138.135 276.026 137.501C276.474 137.173 276.902 136.825 277.319 136.507C277.548 136.323 277.761 136.12 277.956 135.9C278.144 135.746 278.285 135.543 278.364 135.313C278.364 135.313 278.265 135.174 278.235 135.184Z" fill="#703E38"/>
<path d="M173.504 147.449L163.904 150.583L170.768 168.429L188.545 170.319L199.567 160.59L200.134 150.284L189.5 147.509L173.504 147.449Z" fill="#D0D8DC"/>
<path d="M166.73 149.518C166.73 149.518 175.424 168.101 187.511 165.017C199.598 161.933 197.28 149.538 197.28 149.538C197.28 149.538 210.51 152.075 214.907 155.815C219.304 159.555 217.951 168.827 217.951 168.827L216.36 185.509L212.46 217.561C212.46 217.561 217.434 229.717 210.6 232.582L197.668 236.323L166.442 238.561C166.442 238.561 156.494 242.54 153.241 239.198C149.988 235.855 146.546 229.16 146.546 229.16L158.105 152.761L166.73 149.518Z" fill="#D0D8DC"/>
<path d="M211.266 153.707C211.624 153.866 243.666 172.329 243.666 172.329L259.343 139.68C259.741 144.336 264.825 150.215 269.54 148.205C269.54 148.205 256.438 203.028 248.301 200.73C245.983 200.083 213.295 184.117 213.295 184.117L206.152 172.299L211.266 153.707Z" fill="#D0D8DC"/>
<g opacity="0.3">
<path opacity="0.3" d="M166.749 201.367C164.866 196.572 162.993 191.78 161.129 186.992C160.85 186.296 160.433 185.48 159.687 185.43C159.335 185.448 159.004 185.599 158.76 185.852C158.516 186.105 158.378 186.442 158.373 186.793C158.337 187.518 158.4 188.244 158.562 188.952C159.219 192.135 159.706 194.294 161.467 196.621C164.899 201.158 163.228 203.714 163.228 203.714C164.083 209.603 164.442 217.711 163.228 223.978L165.745 231.111C166.809 225.49 170.092 220.556 170.122 214.836C170.172 210.18 168.431 205.704 166.749 201.367Z" fill="black"/>
</g>
<g opacity="0.3">
<path opacity="0.3" d="M216.34 185.609C221.423 187.598 226.069 190.583 231.053 192.791C228.785 188.97 225.414 185.925 221.383 184.057C220.35 183.53 219.175 183.349 218.031 183.54C216.907 183.818 216.161 184.534 216.449 185.658" fill="black"/>
</g>
<g opacity="0.3">
<path opacity="0.3" d="M242.811 172.08C241.169 172.219 240.085 173.841 239.429 175.363C237.586 179.685 237.154 184.479 238.195 189.061C238.384 189.887 238.792 190.852 239.638 190.921C239.941 190.923 240.237 190.827 240.482 190.648C240.728 190.469 240.909 190.216 241 189.926C241.166 189.337 241.193 188.718 241.08 188.116C240.772 185.291 239.976 182.983 240.394 179.65C240.866 177.032 241.679 174.488 242.811 172.08Z" fill="black"/>
</g>
<path d="M192.714 136.904L190.416 152.91C190.416 152.91 181.662 159.297 171.306 149.926C172.73 142.467 171.977 134.756 169.138 127.713C169.138 127.713 170.6 127.643 172.928 127.713C172.928 127.713 176.509 139.411 192.714 136.954V136.904Z" fill="#703E38"/>
<path d="M167.287 117.406C169.575 141.192 192.793 142.186 197.777 132.786C199.379 129.801 200.592 124.449 201.06 118.739C201.179 117.446 201.249 116.143 201.269 114.83C201.438 105.946 199.647 97.1725 194.494 95.3421C176.588 88.9656 165.009 93.6212 167.287 117.406V117.406Z" fill="#8F5045"/>
<path d="M201.886 96.9939C202.691 95.3226 201.886 92.8755 199.717 92.6666L199.657 92.5472C199.854 91.819 199.772 91.0437 199.429 90.3724C199.085 89.7011 198.503 89.182 197.797 88.9163V88.8566C197.854 88.8696 197.908 88.8933 197.956 88.9262L197.787 88.8168C197.778 88.4273 197.687 88.0442 197.52 87.6921C197.353 87.3401 197.114 87.0269 196.819 86.7729C196.524 86.5188 196.178 86.3295 195.805 86.2172C195.432 86.1049 195.04 86.0721 194.654 86.1209C194.42 86.1474 194.19 86.1974 193.967 86.2701C193.692 85.8489 193.303 85.5147 192.845 85.3068C192.387 85.0989 191.879 85.0259 191.381 85.0963C191.167 85.1145 190.956 85.1614 190.754 85.2356C190.46 84.9708 190.112 84.7738 189.734 84.6586C189.356 84.5435 188.957 84.5129 188.566 84.5691C188.353 84.591 188.143 84.6343 187.939 84.6984C187.368 84.2806 186.663 84.0873 185.959 84.1551C185.254 84.223 184.6 84.5473 184.119 85.0665C183.83 84.6944 183.448 84.406 183.011 84.2312C182.573 84.0563 182.097 84.0012 181.632 84.0717C181.127 84.1165 180.643 84.295 180.229 84.589C179.946 84.3609 179.619 84.1938 179.268 84.0979C178.917 84.0021 178.55 83.9796 178.19 84.0319C177.589 84.0757 177.019 84.317 176.568 84.7183C176.097 84.5092 175.578 84.4335 175.066 84.4994C174.821 84.5292 174.58 84.5894 174.35 84.6785C173.848 84.4644 173.297 84.3919 172.757 84.4691C172.217 84.5463 171.708 84.7701 171.286 85.1162C170.845 84.9263 170.361 84.8543 169.884 84.9073C169.289 84.9459 168.725 85.184 168.283 85.583C167.841 85.982 167.546 86.5185 167.446 87.1058H167.367C167.005 87.1345 166.652 87.2348 166.329 87.4008C166.006 87.5667 165.72 87.7951 165.485 88.0727C165.251 88.3502 165.075 88.6714 164.966 89.0177C164.857 89.364 164.817 89.7285 164.85 90.0901C164.43 89.9395 163.979 89.8917 163.537 89.9508C163.091 89.9979 162.662 90.1494 162.286 90.393C161.909 90.6366 161.595 90.9655 161.37 91.353C161.144 91.7406 161.013 92.1758 160.986 92.6235C160.96 93.0712 161.04 93.5188 161.219 93.93H161.07C160.651 93.9688 160.246 94.1007 159.885 94.316C159.523 94.5313 159.215 94.8246 158.981 95.1744C158.747 95.5243 158.595 95.9219 158.535 96.3382C158.474 96.7545 158.508 97.1791 158.633 97.5808C156.414 98.3866 156.364 101.45 158.006 102.704C157.367 103.197 156.946 103.919 156.831 104.718C156.715 105.516 156.916 106.328 157.389 106.981C157.309 107.473 157.343 107.975 157.488 108.451C157.633 108.927 157.885 109.364 158.225 109.727C157.884 110.388 157.786 111.148 157.945 111.874C158.105 112.601 158.514 113.249 159.1 113.706C160.254 121.237 163.945 128.757 171.595 132.896L170.073 127.573C170.073 127.573 166.879 122.948 167.566 119.466C168.252 115.984 170.391 118.471 170.391 118.471C170.391 118.471 174.877 109.14 174.271 103.38L173.654 97.6206C173.654 97.6206 190.376 91.8807 198.672 99.3515L198.881 99.2918C198.908 99.5676 198.991 99.835 199.123 100.078C199.256 100.321 199.436 100.535 199.654 100.707C199.871 100.879 200.121 101.005 200.388 101.078C200.655 101.151 200.935 101.17 201.209 101.132C203.597 100.953 203.626 97.7997 201.886 96.9939Z" fill="#0E3944"/>
<path d="M169.784 117.307C169.784 117.307 165.805 112.811 162.284 115.646C158.762 118.481 164.89 126.758 168.77 126.39C172.649 126.021 169.764 117.307 169.764 117.307H169.784Z" fill="#8F5045"/>
<path d="M170.142 269.29C170.142 269.29 143.939 277.149 142.487 277.656C133.425 280.849 139.771 298.845 157.13 293.891C160.373 293.234 182.467 286.311 182.467 286.311L170.142 269.29Z" fill="#0E3944"/>
<path d="M158.483 284.709C158.244 283.973 157.986 283.247 157.697 282.531C157.409 281.814 157.11 281.158 156.782 280.481C156.523 279.794 156.079 279.191 155.499 278.741C155.466 278.718 155.429 278.705 155.39 278.701C155.351 278.696 155.311 278.702 155.275 278.717C155.239 278.731 155.206 278.755 155.181 278.785C155.156 278.815 155.139 278.851 155.131 278.89C155.106 279.596 155.249 280.299 155.549 280.939C155.787 281.645 156.026 282.362 156.255 283.078C156.484 283.794 156.703 284.5 156.921 285.226C157.01 285.988 157.306 286.71 157.777 287.316C157.861 287.382 157.961 287.427 158.066 287.447C158.171 287.467 158.28 287.462 158.383 287.432C158.486 287.402 158.581 287.347 158.659 287.274C158.736 287.2 158.796 287.108 158.831 287.007V287.007C158.953 286.224 158.831 285.422 158.483 284.709V284.709Z" fill="#D0D8DC"/>
<path d="M164.303 284.49C163.736 283.376 163.208 282.242 162.691 281.108C162.432 280.551 162.174 279.994 161.895 279.447C161.617 278.899 161.398 278.263 160.841 278.114L160.721 277.984C160.642 277.885 160.433 277.915 160.433 278.064C160.433 278.213 160.304 278.362 160.274 278.551C160.259 278.69 160.259 278.83 160.274 278.969C160.328 279.307 160.412 279.64 160.522 279.964C160.692 280.551 160.9 281.128 161.119 281.705C161.597 282.889 162.114 284.033 162.701 285.177C162.759 285.317 162.853 285.44 162.974 285.532C163.095 285.624 163.239 285.682 163.39 285.7C163.541 285.719 163.694 285.696 163.833 285.636C163.973 285.575 164.094 285.478 164.183 285.356C164.282 285.237 164.346 285.093 164.367 284.94C164.388 284.787 164.366 284.631 164.303 284.49V284.49Z" fill="#D0D8DC"/>
<path d="M203.099 267.629C203.099 267.629 230.286 268.096 231.798 268.047C240.751 267.788 243.457 282.859 229.341 283.864C226.088 284.093 199.1 284.749 199.1 284.749L203.099 267.629Z" fill="#0E3944"/>
<path d="M210.152 272.453C210.139 272.383 210.107 272.319 210.059 272.266C210.01 272.214 209.949 272.177 209.88 272.158C209.812 272.139 209.739 272.14 209.671 272.161C209.603 272.181 209.542 272.221 209.496 272.274C209.298 272.58 209.154 272.916 209.068 273.269C208.958 273.657 208.849 274.045 208.76 274.433C208.561 275.199 208.411 275.975 208.282 276.751C208.126 277.515 208.023 278.29 207.974 279.068C207.974 279.884 208.889 280.74 209.655 280.133C209.767 280.047 209.854 279.932 209.907 279.801C209.959 279.67 209.975 279.527 209.953 279.387C209.929 279.257 209.874 279.134 209.794 279.029C209.961 278.062 210.054 277.085 210.073 276.104L210.162 274.304C210.162 274.095 210.162 273.886 210.162 273.677C210.234 273.272 210.23 272.857 210.152 272.453V272.453Z" fill="#D0D8DC"/>
<path d="M215.305 272.772C215.272 272.69 215.229 272.613 215.176 272.543C215.166 272.536 215.153 272.532 215.141 272.532C215.128 272.532 215.116 272.536 215.106 272.543C214.678 273.016 214.431 273.626 214.41 274.264C214.28 274.911 214.211 275.567 214.141 276.254C213.921 277.602 213.805 278.966 213.793 280.332C213.793 281.188 215.216 281.168 215.285 280.332C215.285 280.332 215.285 280.243 215.285 280.193C215.34 280.131 215.383 280.06 215.414 279.984C215.523 279.644 215.567 279.286 215.544 278.929C215.544 278.601 215.544 278.263 215.544 277.935C215.544 277.298 215.623 276.661 215.683 276.025C215.743 275.388 215.812 274.751 215.872 274.115C215.932 273.647 215.912 272.772 215.305 272.772Z" fill="#D0D8DC"/>
<path d="M223.631 196.969C226.277 202.062 226.615 215.373 225.113 219.063C223.382 223.241 213.255 222.615 213.255 222.615C213.255 222.615 209.714 189.359 206.222 172.647C202.731 155.934 194.195 146.285 194.195 146.285C194.195 146.285 212.012 144.942 215.802 154.522C217.663 159.073 218.443 163.993 218.08 168.896C218.018 169.716 217.898 170.531 217.722 171.334H217.871C218.458 171.334 220.507 172.03 222.676 178.944C225.242 187.111 222.417 195.397 222.417 195.397C222.93 195.832 223.343 196.372 223.631 196.979V196.969Z" fill="#EF4153"/>
<path d="M202.81 161.356C202.81 161.356 204.701 150.851 200.503 146.435C196.305 142.018 192.256 141.66 192.256 141.66C192.256 141.66 197.697 145.788 198.702 148.782C199.707 151.777 202.81 161.356 202.81 161.356Z" fill="#CE374C"/>
<path d="M207.307 172.517C211.077 171.931 214.721 170.707 218.08 168.896C218.018 169.716 217.898 170.531 217.722 171.334C217.722 171.334 211.117 172.955 207.307 172.517Z" fill="#CE374C"/>
<path d="M223.631 196.969C220 197.599 216.311 197.836 212.629 197.676C212.629 197.676 219.732 196.95 222.418 195.388C222.93 195.823 223.344 196.362 223.631 196.969V196.969Z" fill="#CE374C"/>
<path d="M180 161.933C180 161.933 182.089 150.99 180.697 147.757C179.304 144.524 168.471 142.027 167.615 143.152C166.76 144.276 166.024 147.379 167.456 150.851C167.456 150.851 174.042 151.12 180 161.933V161.933Z" fill="#CE374C"/>
<path d="M192.355 141.619L191.111 148.105C195.379 149.368 199.428 152.562 202.263 159.336C202.263 159.336 202.372 143.42 192.315 141.619H192.355Z" fill="#B72F49"/>
<path d="M187.601 191.807C190.535 219.75 183.731 229.071 183.731 229.071C183.731 229.071 163.467 234.045 159.289 230.374C155.111 226.703 157.3 213.264 157.3 213.264C156.459 211.673 155.702 210.039 155.031 208.37V208.37C154.514 207.126 153.957 205.684 153.44 204.122C152.923 202.56 152.445 200.909 152.057 199.198C151.255 195.856 151.396 192.357 152.465 189.091C152.709 188.283 153.043 187.506 153.46 186.773C153.46 186.773 147.68 171.016 148.605 163.634C148.792 162.088 149.315 160.6 150.137 159.277C154.584 151.946 166.651 149.528 166.651 149.528C170.172 150.066 180.269 154.801 184.198 171.752L187.601 191.807Z" fill="#EF4153"/>
<path d="M180.458 176.437C177.822 180.794 159.478 183.082 159.478 183.082C159.478 183.082 149.391 202.222 158.732 206.718C167.904 211.125 182.786 205.594 183.333 205.395C180.269 208.548 159.329 212.836 155.081 208.379C154.885 208.182 154.724 207.954 154.604 207.703C154.089 206.564 153.721 205.364 153.51 204.132C152.717 199.162 152.384 194.131 152.515 189.1C152.759 188.293 153.092 187.516 153.51 186.783C153.51 186.783 147.73 171.025 148.655 163.644C148.842 162.097 149.365 160.61 150.187 159.287C161.13 158.292 164.283 178.297 164.283 178.297C167.436 179.043 180.428 176.457 180.428 176.457L180.458 176.437Z" fill="#CE374C"/>
<path d="M177.523 269.907L172.778 262.048L160.661 217.153C160.661 217.153 151.459 212.508 144.745 224.117C144.476 224.584 156.553 256.557 159.915 265.45L160.781 274.075C160.781 274.075 160.781 284.351 161.377 285.216C161.859 285.823 162.504 286.279 163.238 286.529C163.207 286.893 163.256 287.258 163.382 287.6C163.508 287.942 163.708 288.252 163.967 288.508C164.226 288.764 164.538 288.96 164.881 289.083C165.225 289.205 165.591 289.25 165.953 289.215C165.953 289.215 166.361 292.021 168.52 291.513C169.109 291.405 169.668 291.171 170.159 290.828C170.65 290.485 171.061 290.04 171.365 289.524C171.365 289.524 171.554 293.105 173.454 292.618C175.354 292.13 175.593 290.578 175.921 290.051C176.249 289.524 176.369 284.241 176.369 284.241L175.871 275.567L181.094 279.357C182.576 280.004 184.735 280.78 185.889 279.636L177.523 269.907Z" fill="#8F5045"/>
<path d="M150.197 160.829C142.179 164.281 141.781 207.693 141.691 217.531C141.691 217.531 157.2 261.063 158.135 263.49C159.796 267.828 173.415 259.511 173.415 259.511L160.94 215.512L159.806 184.236C159.806 184.236 161.935 174.408 158.384 167.395C154.832 160.381 150.197 160.829 150.197 160.829Z" fill="#D0D8DC"/>
<path d="M365.069 159.944H241.965C240.008 159.944 238.13 160.722 236.746 162.106C235.362 163.49 234.584 165.367 234.584 167.325V216.517C234.587 218.473 235.365 220.348 236.749 221.73C238.133 223.112 240.009 223.888 241.965 223.888H365.069C367.025 223.888 368.901 223.112 370.285 221.73C371.669 220.348 372.448 218.473 372.451 216.517V167.325C372.451 165.367 371.673 163.49 370.289 162.106C368.905 160.722 367.027 159.944 365.069 159.944Z" fill="#FAFBFB"/>
<path d="M365.07 159.944L267.342 160.073H242.911C241.906 160.016 240.899 160.117 239.926 160.372C238.966 160.65 238.077 161.132 237.32 161.784C236.558 162.428 235.938 163.222 235.5 164.118C235.061 165.014 234.814 165.991 234.773 166.987V179.263V203.694V215.91C234.702 216.9 234.833 217.893 235.158 218.83C235.483 219.767 235.995 220.629 236.663 221.362C237.332 222.089 238.144 222.669 239.048 223.066C239.952 223.463 240.928 223.669 241.916 223.67L339.643 223.789H364.075C365.079 223.843 366.086 223.743 367.059 223.491C368.027 223.209 368.925 222.728 369.695 222.078C370.468 221.426 371.096 220.62 371.541 219.713C371.986 218.805 372.239 217.815 372.282 216.806V204.6V180.168V167.962C372.356 166.944 372.222 165.922 371.888 164.957C371.555 163.993 371.029 163.106 370.342 162.351C369.673 161.613 368.86 161.019 367.954 160.605C367.047 160.191 366.066 159.966 365.07 159.944V159.944ZM365.07 159.944C366.093 159.945 367.105 160.159 368.042 160.571C368.979 160.984 369.82 161.587 370.511 162.341C371.205 163.096 371.738 163.982 372.08 164.948C372.422 165.914 372.565 166.939 372.501 167.962V180.178V204.61V216.825C372.458 217.858 372.202 218.87 371.748 219.798C371.294 220.726 370.653 221.55 369.865 222.217C369.078 222.886 368.16 223.381 367.169 223.67C366.174 223.936 365.143 224.04 364.115 223.978H339.683L241.956 224.107C240.899 224.104 239.855 223.881 238.889 223.453C237.923 223.025 237.057 222.401 236.345 221.62C235.643 220.841 235.106 219.929 234.764 218.938C234.422 217.946 234.283 216.897 234.355 215.851V203.665V179.233V167.007C234.398 165.963 234.657 164.94 235.118 164.003C235.579 163.066 236.231 162.236 237.031 161.565C237.825 160.886 238.754 160.384 239.757 160.093C240.759 159.831 241.797 159.73 242.831 159.795H267.263L365.07 159.944Z" fill="#A42A29"/>
<path d="M358.176 185.798C358.176 186.047 334.152 186.236 304.528 186.236C274.903 186.236 250.869 186.047 250.869 185.798C250.869 185.549 274.883 185.37 304.528 185.37C334.172 185.37 358.176 185.559 358.176 185.798Z" fill="#A42A29"/>
<path d="M358.176 193.398C358.176 193.647 334.152 193.836 304.528 193.836C274.903 193.836 250.869 193.647 250.869 193.398C250.869 193.15 274.883 192.971 304.528 192.971C334.172 192.971 358.176 193.19 358.176 193.398Z" fill="#A42A29"/>
<path d="M307.572 201.028C306.836 201.154 306.09 201.211 305.343 201.197L299.265 201.326C294.142 201.406 287.049 201.456 279.22 201.456C271.391 201.456 264.299 201.406 259.176 201.326L253.097 201.197C252.351 201.211 251.605 201.154 250.869 201.028C251.604 200.895 252.351 200.839 253.097 200.859L259.176 200.72C264.309 200.64 271.391 200.59 279.22 200.59C287.049 200.59 294.142 200.64 299.265 200.72L305.343 200.859C306.09 200.839 306.837 200.895 307.572 201.028V201.028Z" fill="#A42A29"/>
<path d="M356.444 206.997C356.633 207.156 354.315 210.12 351.291 213.612L349.69 215.422L349.381 215.771L349.073 215.442C346.725 212.906 345.094 210.986 345.253 210.856C345.412 210.727 347.242 212.408 349.67 214.835H349.063C349.57 214.239 350.058 213.622 350.635 212.995C353.619 209.553 356.225 206.847 356.444 206.997Z" fill="#A42A29"/>
<path d="M361.149 206.997C361.328 207.156 359.538 209.523 357.17 212.289C356.126 213.483 355.18 214.567 354.365 215.373L354.086 215.661L353.857 215.383C352.912 214.209 352.365 213.393 352.465 213.334C352.564 213.274 353.29 213.861 354.355 214.925H353.857C354.544 214.04 355.469 212.936 356.513 211.712C358.881 208.956 360.97 206.847 361.149 206.997Z" fill="#A42A29"/>
<path d="M317.141 152.095C315.742 149.708 313.756 147.718 311.371 146.315L311.192 146.205L307.322 144.574L303.005 143.997C301.518 144.096 300.039 144.296 298.578 144.594L297.584 144.803L297.136 144.942C296.86 145.01 296.587 145.093 296.32 145.191L295.654 145.449C295.405 145.549 295.166 145.648 294.928 145.768L294.191 146.176C294.052 146.265 293.903 146.325 293.764 146.414C291.418 147.832 289.451 149.798 288.034 152.144C287.944 152.294 287.875 152.433 287.795 152.582C287.715 152.731 287.516 153.06 287.387 153.308C287.258 153.557 287.168 153.796 287.069 154.034C286.969 154.273 286.88 154.472 286.8 154.701C286.721 154.93 286.631 155.248 286.551 155.517C286.472 155.785 286.462 155.815 286.422 155.964V156.183C286.285 156.812 286.199 157.451 286.164 158.093C286.029 158.722 285.942 159.361 285.905 160.003V160.212C285.905 160.302 285.905 160.391 285.905 160.481C285.874 161.79 286.052 163.097 286.432 164.35C286.432 164.35 286.432 164.35 286.432 164.41C286.426 164.426 286.426 164.444 286.432 164.46V164.529C286.805 165.841 287.34 167.1 288.024 168.28C289.062 170.054 290.434 171.611 292.063 172.866C292.431 173.154 292.819 173.393 293.207 173.642C293.396 173.761 293.565 173.9 293.754 174.01C294.95 174.704 296.23 175.243 297.564 175.611L298.558 175.82C299.215 175.956 299.879 176.049 300.548 176.099H300.767C303.617 176.481 306.518 176.1 309.173 174.994C309.926 174.803 310.643 174.487 311.292 174.059C313.676 172.66 315.662 170.674 317.061 168.29C318.501 165.825 319.26 163.022 319.26 160.167C319.26 157.313 318.501 154.51 317.061 152.045L317.141 152.095Z" fill="#EBEBEB"/>
<path d="M317.142 152.095C316.425 150.879 315.552 149.762 314.545 148.772C313.536 147.788 312.406 146.936 311.183 146.235V146.235L307.303 144.614L302.986 144.067C301.382 144.191 299.79 144.431 298.221 144.783C297.827 144.857 297.438 144.956 297.057 145.082C296.675 145.19 296.3 145.319 295.933 145.47C295.196 145.775 294.484 146.137 293.804 146.554C292.621 147.209 291.556 148.056 290.65 149.061C289.665 149.98 288.838 151.056 288.203 152.244V152.244L287.726 153.139C287.565 153.439 287.422 153.748 287.298 154.064C287.161 154.388 287.045 154.721 286.95 155.059L286.661 156.054V156.273L286.413 158.133V158.183L286.164 160.053V160.262C286.164 160.63 286.164 160.978 286.164 161.326C286.164 161.674 286.214 162.033 286.263 162.381C286.353 163.072 286.503 163.755 286.711 164.42V164.42V164.48C287.264 166.415 288.179 168.228 289.407 169.822C290.014 170.625 290.7 171.365 291.456 172.03C292.226 172.677 293.041 173.268 293.893 173.801V173.801C295.07 174.483 296.326 175.018 297.634 175.393V175.393L298.45 175.562C298.719 175.618 298.991 175.662 299.265 175.691L300.897 175.93H300.946C302.317 176.304 303.764 176.304 305.135 175.93H305.194C306.585 175.951 307.957 175.608 309.173 174.935C310.265 174.625 311.292 174.123 312.207 173.453C315.578 171.19 317.96 167.729 318.869 163.772C319.778 159.816 319.146 155.661 317.102 152.154L317.142 152.095ZM317.142 152.095C318.313 154.088 319.043 156.31 319.281 158.61C319.52 160.909 319.262 163.233 318.524 165.425C317.79 167.624 316.597 169.642 315.023 171.344C314.232 172.191 313.355 172.955 312.406 173.622C311.473 174.327 310.422 174.863 309.303 175.203V175.203C308.04 175.961 306.597 176.366 305.125 176.377H305.174C303.725 176.77 302.197 176.77 300.748 176.377V176.377L299.066 176.158C298.788 176.109 298.499 176.089 298.231 176.029L297.415 175.87C296.057 175.501 294.753 174.955 293.535 174.249V174.249C292.653 173.694 291.806 173.086 290.999 172.428C290.213 171.74 289.497 170.977 288.86 170.15C287.571 168.5 286.624 166.61 286.074 164.589V164.589V164.53C285.863 163.827 285.71 163.108 285.617 162.381C285.568 162.018 285.538 161.653 285.527 161.287C285.527 160.918 285.527 160.55 285.527 160.192V159.973L285.796 157.984V158.034L286.065 156.044V155.825L286.373 154.83C286.472 154.492 286.622 154.174 286.751 153.836C286.891 153.513 287.047 153.198 287.218 152.891L287.736 151.965C288.415 150.748 289.289 149.649 290.322 148.712V148.712C291.27 147.694 292.383 146.843 293.615 146.196V146.196C294.316 145.776 295.052 145.417 295.813 145.121C296.194 144.973 296.582 144.847 296.977 144.743C297.361 144.622 297.754 144.529 298.151 144.465C299.736 144.139 301.341 143.926 302.956 143.828V143.828L307.263 144.435L311.133 146.076C312.35 146.793 313.476 147.655 314.485 148.643C315.519 149.671 316.412 150.832 317.142 152.095Z" fill="#A42A29"/>
<path d="M311.003 152.264C308.178 154.333 300.886 161.277 298.38 163.376L296.758 161.655C295.965 160.61 294.877 159.827 293.635 159.406C293.498 159.382 293.358 159.39 293.226 159.431C293.094 159.473 292.974 159.545 292.877 159.643C292.779 159.741 292.706 159.861 292.665 159.993C292.624 160.125 292.615 160.265 292.64 160.401C292.993 161.678 293.708 162.825 294.699 163.704L297.435 166.748C297.725 167.037 298.119 167.199 298.529 167.199C298.939 167.199 299.332 167.037 299.623 166.748C301.613 164.43 310.188 155.964 312.237 153.726C312.358 153.547 312.416 153.333 312.405 153.117C312.393 152.901 312.311 152.695 312.172 152.53C312.032 152.364 311.843 152.249 311.632 152.201C311.421 152.153 311.201 152.175 311.003 152.264Z" fill="#A42A29"/>
</svg>
