<svg width="24" height="22" viewBox="0 0 24 22" fill="none" xmlns="http://www.w3.org/2000/svg">
<path fill-rule="evenodd" clip-rule="evenodd" d="M0 0V2H3V14.126C1.27477 14.5701 0 16.1362 0 18C0 20.2091 1.79086 22 4 22C5.86384 22 7.42994 20.7252 7.87398 19H24V17H7.87398C7.5122 15.5944 6.40561 14.4878 5 14.126V0H0ZM4 16C5.10457 16 6 16.8954 6 18C6 19.1046 5.10457 20 4 20C2.89543 20 2 19.1046 2 18C2 16.8954 2.89543 16 4 16Z" fill="#221F1F"/>
<path fill-rule="evenodd" clip-rule="evenodd" d="M8 2V14H22V2H8ZM10 12V4H20V12H10Z" fill="#221F1F"/>
</svg>
