<svg width="26" height="26" viewBox="0 0 26 26" fill="none" xmlns="http://www.w3.org/2000/svg">
<path fill-rule="evenodd" clip-rule="evenodd" d="M21.4142 2.00015L20 0.585938L15.5858 5.00015L20 9.41436L21.4142 8.00015L19.4142 6.00015H24V13.0002H14V11.0002L2.26502e-06 11.0001L0 17.0001L14 17.0002V15.0002H24V22.0002H14V20.0002L0 20.0001V26.0001L14 26.0002V24.0002H26V4.00015H19.4142L21.4142 2.00015ZM12 15.0002V13.0002L2 13.0001L2 15.0001L12 15.0002ZM12 24.0002V22.0002L2 22.0001V24.0001L12 24.0002Z" fill="#221F1F"/>
<path fill-rule="evenodd" clip-rule="evenodd" d="M14 8.00015L0 8.00015V2.00015L14 2.00015L14 8.00015ZM12 6.00015V4.00015L2 4.00015L2 6.00015L12 6.00015Z" fill="#221F1F"/>
</svg>
