<svg width="48" height="48" viewBox="0 0 48 48" fill="none" xmlns="http://www.w3.org/2000/svg">
<mask id="mask0_3_15700" style="mask-type:alpha" maskUnits="userSpaceOnUse" x="0" y="0" width="48" height="48">
<path fill-rule="evenodd" clip-rule="evenodd" d="M24 48C37.2548 48 48 37.2548 48 24C48 10.7452 37.2548 0 24 0C10.7452 0 0 10.7452 0 24C0 37.2548 10.7452 48 24 48Z" fill="white"/>
</mask>
<g mask="url(#mask0_3_15700)">
<path d="M21.4754 0H26.2456C26.2456 6.22512 26.2468 12.4502 26.2414 18.6754C26.2408 19.0184 26.2868 19.0965 26.4538 19.0959C33.5391 19.087 40.6244 19.0882 47.7102 19.0882V28.6322C40.625 28.6322 33.5391 28.6334 26.4538 28.6245C26.2862 28.6245 26.2408 28.702 26.2414 29.045C26.2474 35.2701 26.2456 41.4953 26.2456 47.7204H21.4754C21.4754 41.4953 21.4742 35.2701 21.4795 29.045C21.4801 28.702 21.4342 28.6239 21.2672 28.6245C14.1813 28.6334 7.09601 28.6322 0.0101318 28.6322V19.0882C7.09542 19.0882 14.1813 19.087 21.2666 19.0959C21.4342 19.0959 21.4795 19.0184 21.4789 18.6754C21.4736 12.4502 21.4754 6.22512 21.4754 0Z" fill="#C13D39"/>
<path d="M21.4753 0C21.4753 6.22512 21.4742 12.4502 21.4795 18.6754C21.4801 19.0184 21.4342 19.0965 21.2672 19.0959C14.1813 19.087 7.096 19.0882 0.010118 19.0882V15.8819C0.0345747 15.8879 0.0590314 15.8992 0.0834881 15.8992C3.52293 15.8998 6.96238 15.9004 10.4024 15.898C10.4328 15.898 10.4788 15.9452 10.4919 15.8277C10.4651 15.7972 10.4388 15.7656 10.4114 15.7382C6.98445 12.3089 3.55753 8.88017 0.130015 5.45265C0.0924357 5.41507 0.0500838 5.39598 0.00952148 5.36854V3.57903C0.071558 3.63331 0.135384 3.68282 0.195631 3.74307C4.18138 7.73021 8.16623 11.7182 12.1502 15.7072C12.2683 15.8253 12.3846 15.9076 12.5212 15.9064C13.5764 15.8986 14.6322 15.9028 15.6875 15.9004C15.7322 15.9004 15.7823 15.9285 15.8366 15.8414C15.7704 15.771 15.7185 15.7119 15.6648 15.6583C10.7156 10.7079 5.76639 5.75866 0.817786 0.804089C0.558902 0.544609 0.289879 0.32092 0.0465048 0H5.37568C5.42758 0.062633 5.47828 0.132424 5.53256 0.186706L19.6906 14.3519C19.8815 14.5428 19.8821 14.5428 19.8821 14.1187L19.8815 0.333446C19.8815 0.222496 19.8755 0.11095 19.8725 0L21.4753 0Z" fill="white"/>
<path d="M26.245 47.7204C26.245 41.4952 26.2462 35.2701 26.2409 29.045C26.2403 28.702 26.2862 28.6239 26.4532 28.6245C33.5391 28.6334 40.6244 28.6322 47.7103 28.6322V31.8384C47.6673 31.8325 47.6238 31.8211 47.5808 31.8205C44.1783 31.8199 40.7753 31.8193 37.3728 31.8217C37.3269 31.8217 37.2762 31.7841 37.2231 31.8772C37.275 31.9345 37.3203 31.9887 37.3675 32.0359C40.7693 35.4401 44.1718 38.8438 47.5742 42.2462C47.6178 42.2898 47.6649 42.3172 47.7108 42.3518V44.1413C47.6548 44.0912 47.5975 44.0453 47.542 43.9898C43.5517 39.9978 39.562 36.005 35.5732 32.0114C35.4551 31.8933 35.3381 31.8128 35.2021 31.814C34.1469 31.8217 33.0911 31.8175 32.0359 31.8199C31.9912 31.8199 31.9411 31.7907 31.8862 31.8796C31.9512 31.9488 32.0031 32.0072 32.0568 32.0609C37.2052 37.2111 42.3536 42.3608 47.5021 47.5134C47.5611 47.5724 47.6315 47.6029 47.6739 47.7204H42.3447C42.3083 47.6088 42.2433 47.5856 42.1902 47.5325C37.469 42.8061 32.7462 38.0811 28.022 33.3577C27.9683 33.304 27.9194 33.2175 27.8454 33.2295C27.8431 33.3279 27.8395 33.4257 27.8395 33.5235V47.4245C27.8395 47.5235 27.8454 47.6219 27.8484 47.721L26.245 47.7204Z" fill="white"/>
<path d="M47.7103 19.0882C40.625 19.0882 33.5391 19.087 26.4538 19.0959C26.2862 19.0959 26.2409 19.0184 26.2415 18.6754C26.2474 12.4502 26.2456 6.22512 26.2456 0H27.8478C27.8449 0.0739666 27.8389 0.147933 27.8389 0.2219V14.2344C27.8389 14.3197 27.8431 14.4044 27.8467 14.5326C27.9188 14.4623 27.9785 14.405 28.0381 14.3459C32.3515 10.0326 36.6654 5.72108 40.9769 1.40238C41.4344 0.943671 41.9027 0.524924 42.3441 0H44.133C44.068 0.0721771 44.0048 0.149723 43.9386 0.215935C38.7997 5.3584 33.6602 10.4997 28.5219 15.6439C28.4617 15.7042 28.3847 15.7298 28.3412 15.8861C28.3799 15.8927 28.4044 15.901 28.4294 15.901C29.5163 15.9016 30.6031 15.8998 31.6899 15.9046C31.8003 15.9052 31.8939 15.8294 31.9894 15.734C37.1664 10.5534 42.3447 5.37451 47.5212 0.192671C47.5743 0.139582 47.6405 0.118108 47.6739 0C47.7508 0.0668085 47.7085 0.201619 47.7091 0.298252C47.7121 1.98815 47.7115 3.67865 47.7115 5.36854C47.6661 5.40314 47.6184 5.43058 47.5749 5.47412C44.1724 8.87659 40.7699 12.2802 37.3681 15.6845C37.3209 15.7316 37.2756 15.7859 37.2297 15.8366L37.2344 15.9004H37.4104L47.5254 15.8998C47.5874 15.8998 47.6488 15.8885 47.7109 15.8819L47.7103 19.0882Z" fill="white"/>
<path d="M0.0101418 28.6322C7.09543 28.6322 14.1813 28.6334 21.2666 28.6245C21.4342 28.6245 21.4795 28.702 21.4789 29.045C21.4736 35.2701 21.4754 41.4952 21.4754 47.7204H19.8732C19.8761 47.6094 19.8821 47.4979 19.8821 47.3869L19.8827 33.6017C19.8827 33.1776 19.8821 33.1776 19.6912 33.3685C15.3654 37.6967 11.0395 42.0243 6.71426 46.3556C6.26688 46.8035 5.81055 47.2181 5.37749 47.721H3.62615C3.64524 47.5927 3.70966 47.5879 3.7556 47.5414C4.89134 46.4015 6.02768 45.2645 7.16402 44.1282C11.194 40.0964 15.2246 36.0653 19.2534 32.0305C19.2957 31.9881 19.3655 31.9875 19.3715 31.8193H19.183C18.1648 31.8193 17.1459 31.8235 16.1277 31.8152C15.9738 31.814 15.8384 31.8808 15.7012 32.0186C10.5408 37.1861 5.37928 42.3482 0.218918 47.5146C0.159865 47.5736 0.0888804 47.5993 0.0489146 47.7222C-0.0280345 47.6553 0.0143173 47.5205 0.0137208 47.4239C0.0107383 45.734 0.0113348 44.0435 0.0113348 42.3536C0.0572657 42.3202 0.104986 42.2951 0.147934 42.2522C3.55875 38.8408 6.96897 35.4282 10.3786 32.0138C10.4192 31.9732 10.4705 31.9577 10.5039 31.8217H10.3285L0.177163 31.8223C0.121688 31.8223 0.0662132 31.8336 0.0107383 31.8402L0.0101418 28.6322Z" fill="white"/>
<path d="M27.8478 47.7204C27.8448 47.6214 27.8389 47.5229 27.8389 47.4239V33.523C27.8389 33.4251 27.843 33.3279 27.8448 33.2289C27.9188 33.217 27.9677 33.3035 28.0214 33.3571C32.7445 38.0797 37.4671 42.8046 42.1896 47.5319C42.2433 47.5856 42.3077 47.6082 42.3441 47.7198L27.8478 47.7204Z" fill="#243775"/>
<path d="M42.3441 0C41.9033 0.524328 41.435 0.943671 40.9769 1.40238C36.6648 5.72167 32.3514 10.0326 28.0381 14.3459C27.9784 14.4056 27.9188 14.4629 27.8466 14.5326C27.843 14.4044 27.8389 14.3197 27.8389 14.2344V0.2219C27.8389 0.147933 27.8448 0.0739666 27.8478 0H42.3441Z" fill="#243775"/>
<path d="M5.37628 47.7204C5.80994 47.2175 6.26567 46.8029 6.71305 46.355C11.0383 42.0238 15.3642 37.6967 19.69 33.3679C19.8809 33.177 19.8815 33.177 19.8815 33.6011L19.8809 47.3863C19.8809 47.4973 19.8749 47.6088 19.8719 47.7198L5.37628 47.7204Z" fill="#243775"/>
<path d="M19.8725 0C19.8755 0.11095 19.8815 0.222496 19.8815 0.333446L19.8821 14.1187C19.8821 14.5422 19.8815 14.5428 19.6906 14.3519C14.9711 9.63057 10.2521 4.90924 5.53316 0.186706C5.47888 0.132424 5.42877 0.062633 5.37628 0L19.8725 0Z" fill="#243775"/>
<path d="M0.0477295 47.7204C0.0876953 47.5975 0.159276 47.5718 0.217733 47.5128C5.37869 42.347 10.5397 37.1843 15.7 32.0168C15.8372 31.8796 15.9726 31.8122 16.1265 31.8134C17.1448 31.8217 18.1636 31.8175 19.1818 31.8175H19.3703C19.3643 31.9858 19.2946 31.9864 19.2522 32.0287C15.2236 36.0625 11.1938 40.095 7.16284 44.1264C6.0265 45.2634 4.89016 46.3997 3.75441 47.5396C3.70788 47.5862 3.64406 47.5909 3.62497 47.7192C2.43256 47.7204 1.24014 47.7204 0.0477295 47.7204Z" fill="#C13D39"/>
<path d="M47.6727 0C47.6393 0.118108 47.5731 0.139582 47.52 0.192671C42.3429 5.37451 37.1653 10.5534 31.9882 15.734C31.8927 15.8294 31.7997 15.9052 31.6887 15.9046C30.6019 15.8998 29.5151 15.9016 28.4282 15.901C28.4038 15.901 28.3793 15.8927 28.34 15.8861C28.3835 15.7298 28.4605 15.7042 28.5207 15.6439C33.659 10.4997 38.7985 5.3584 43.9374 0.215935C44.0036 0.149723 44.0674 0.0721771 44.1318 0H47.6727V0Z" fill="#C13D39"/>
<path d="M47.7103 15.8819C47.6482 15.8879 47.5868 15.8992 47.5247 15.8998L37.4098 15.9004H37.2338L37.2291 15.8366C37.275 15.7859 37.3203 15.7316 37.3675 15.6845C40.7693 12.2802 44.1718 8.87658 47.5742 5.47411C47.6178 5.43057 47.6649 5.40313 47.7108 5.36853L47.7103 15.8819Z" fill="#243775"/>
<path d="M0.0101318 5.36853C0.0500977 5.39597 0.093046 5.41506 0.130626 5.45264C3.55814 8.88015 6.98506 12.3089 10.412 15.7382C10.4394 15.7656 10.4651 15.7972 10.4925 15.8276C10.4794 15.9446 10.4329 15.898 10.403 15.898C6.96359 15.9004 3.52414 15.9004 0.0840984 15.8992C0.0596417 15.8992 0.035185 15.8879 0.0107283 15.8819L0.0101318 5.36853Z" fill="#243775"/>
<path d="M0.0101318 31.8384C0.0656068 31.8325 0.121082 31.8211 0.176557 31.8205L10.3279 31.8199H10.5032C10.4698 31.9559 10.4185 31.9715 10.378 32.012C6.96836 35.4254 3.55814 38.8382 0.147328 42.2504C0.10438 42.294 0.0560627 42.3184 0.0107283 42.3518L0.0101318 31.8384H0.0101318Z" fill="#243775"/>
<path d="M47.7102 42.3519C47.6649 42.3173 47.6172 42.2898 47.5736 42.2463C44.1712 38.8438 40.7687 35.4402 37.3668 32.0359C37.3197 31.9888 37.2744 31.9345 37.2225 31.8772C37.2756 31.7848 37.3269 31.8224 37.3722 31.8218C40.7747 31.8194 44.1777 31.82 47.5802 31.8206C47.6231 31.8206 47.6667 31.8319 47.7096 31.8385L47.7102 42.3519Z" fill="#243775"/>
<path d="M47.6726 47.7204C47.6303 47.6023 47.5605 47.5724 47.5008 47.5134C42.353 42.3608 37.204 37.2112 32.0555 32.0609C32.0019 32.0072 31.95 31.9488 31.8849 31.8796C31.9398 31.7901 31.9899 31.8199 32.0347 31.8199C33.0899 31.8182 34.1457 31.8217 35.2009 31.814C35.3375 31.8128 35.4538 31.8933 35.5719 32.0114C39.5608 36.005 43.5504 39.9978 47.5408 43.9898C47.5957 44.0447 47.653 44.0906 47.7096 44.1413C47.7096 45.2598 47.7108 46.3782 47.7072 47.4967C47.7078 47.5677 47.7526 47.6906 47.6726 47.7204Z" fill="#C13D39"/>
<path d="M0.0477005 0C0.291074 0.32092 0.559502 0.545205 0.818981 0.804089C5.76699 5.75806 10.7168 10.7073 15.666 15.6583C15.7197 15.7119 15.7722 15.771 15.8378 15.8414C15.7835 15.9285 15.7334 15.9004 15.6887 15.9004C14.6334 15.9022 13.5776 15.8986 12.5224 15.9064C12.3858 15.9076 12.2695 15.8253 12.1514 15.7072C8.16673 11.7177 4.18208 7.73011 0.196827 3.74307C0.135983 3.68222 0.0727537 3.63331 0.0107172 3.57903C0.0107172 2.45939 0.00952419 1.34035 0.0131032 0.220707C0.0131032 0.150916 -0.0328276 0.0280357 0.0477005 0V0Z" fill="#C13D39"/>
</g>
</svg>
