<svg width="70" height="33" viewBox="0 0 70 33" fill="none" xmlns="http://www.w3.org/2000/svg">
<rect y="0.921387" width="70" height="32" rx="16" fill="white"/>
<rect y="0.921387" width="70" height="32" rx="16" fill="#58595B" fill-opacity="0.1"/>
<path d="M15.8359 13.355C16.9414 13.355 17.748 13.5718 18.2559 14.0054C18.7676 14.4351 19.0234 15.0522 19.0234 15.8569C19.0234 16.2202 18.9629 16.5659 18.8418 16.894C18.7246 17.2183 18.5332 17.5054 18.2676 17.7554C18.002 18.0015 17.6523 18.1968 17.2188 18.3413C16.7891 18.4819 16.2617 18.5522 15.6367 18.5522H14.5938V21.9214H13.5977V13.355H15.8359ZM15.7422 14.2046H14.5938V17.6968H15.5254C16.0723 17.6968 16.5273 17.6382 16.8906 17.521C17.2578 17.4038 17.5332 17.2144 17.7168 16.9526C17.9004 16.687 17.9922 16.3354 17.9922 15.8979C17.9922 15.3276 17.8105 14.9038 17.4473 14.6265C17.084 14.3452 16.5156 14.2046 15.7422 14.2046ZM23.1426 15.3823C23.6895 15.3823 24.1582 15.5034 24.5488 15.7456C24.9395 15.9878 25.2383 16.3276 25.4453 16.7651C25.6523 17.1987 25.7559 17.7065 25.7559 18.2886V18.8921H21.3203C21.332 19.646 21.5195 20.2202 21.8828 20.6147C22.2461 21.0093 22.7578 21.2065 23.418 21.2065C23.8242 21.2065 24.1836 21.1694 24.4961 21.0952C24.8086 21.021 25.1328 20.9116 25.4688 20.7671V21.6226C25.1445 21.7671 24.8223 21.8726 24.502 21.939C24.1855 22.0054 23.8105 22.0386 23.377 22.0386C22.7598 22.0386 22.2207 21.9136 21.7598 21.6636C21.3027 21.4097 20.9473 21.0386 20.6934 20.5503C20.4395 20.062 20.3125 19.4644 20.3125 18.7573C20.3125 18.0659 20.4277 17.4683 20.6582 16.9644C20.8926 16.4565 21.2207 16.0659 21.6426 15.7925C22.0684 15.519 22.5684 15.3823 23.1426 15.3823ZM23.1309 16.1792C22.6113 16.1792 22.1973 16.3491 21.8887 16.689C21.5801 17.0288 21.3965 17.5034 21.3379 18.1128H24.7363C24.7324 17.73 24.6719 17.394 24.5547 17.105C24.4414 16.812 24.2676 16.5854 24.0332 16.4253C23.7988 16.2612 23.498 16.1792 23.1309 16.1792ZM30.4492 15.3823C31.2109 15.3823 31.7871 15.5698 32.1777 15.9448C32.5684 16.3159 32.7637 16.9136 32.7637 17.7378V21.9214H31.8027V17.8022C31.8027 17.2671 31.6797 16.8667 31.4336 16.6011C31.1914 16.3354 30.8184 16.2026 30.3145 16.2026C29.6035 16.2026 29.1035 16.4038 28.8145 16.8062C28.5254 17.2085 28.3809 17.7925 28.3809 18.5581V21.9214H27.4082V15.4995H28.1934L28.3398 16.4253H28.3926C28.5293 16.1987 28.7031 16.0093 28.9141 15.8569C29.125 15.7007 29.3613 15.5835 29.623 15.5054C29.8848 15.4233 30.1602 15.3823 30.4492 15.3823ZM37.0527 22.0386C36.2402 22.0386 35.5957 21.7612 35.1191 21.2065C34.6465 20.6519 34.4102 19.8276 34.4102 18.7339C34.4102 17.6284 34.6523 16.7944 35.1367 16.2319C35.6211 15.6655 36.2656 15.3823 37.0703 15.3823C37.4102 15.3823 37.707 15.4272 37.9609 15.5171C38.2148 15.6069 38.4336 15.728 38.6172 15.8804C38.8008 16.0288 38.9551 16.1987 39.0801 16.3901H39.1504C39.1348 16.269 39.1191 16.103 39.1035 15.8921C39.0879 15.6812 39.0801 15.5093 39.0801 15.3765V12.8042H40.0527V21.9214H39.2676L39.1211 21.0073H39.0801C38.959 21.1987 38.8047 21.3726 38.6172 21.5288C38.4336 21.6851 38.2129 21.8101 37.9551 21.9038C37.7012 21.9937 37.4004 22.0386 37.0527 22.0386ZM37.2051 21.23C37.8926 21.23 38.3789 21.0347 38.6641 20.644C38.9492 20.2534 39.0918 19.6733 39.0918 18.9038V18.728C39.0918 17.9116 38.9551 17.2847 38.6816 16.8472C38.4121 16.4097 37.9199 16.1909 37.2051 16.1909C36.6074 16.1909 36.1602 16.4214 35.8633 16.8823C35.5664 17.3394 35.418 17.9644 35.418 18.7573C35.418 19.5464 35.5645 20.1558 35.8574 20.5854C36.1543 21.0151 36.6035 21.23 37.2051 21.23ZM43.0879 15.4995V21.9214H42.1152V15.4995H43.0879ZM42.6133 13.0972C42.7734 13.0972 42.9102 13.1499 43.0234 13.2554C43.1406 13.3569 43.1992 13.5171 43.1992 13.7358C43.1992 13.9507 43.1406 14.1108 43.0234 14.2163C42.9102 14.3218 42.7734 14.3745 42.6133 14.3745C42.4453 14.3745 42.3047 14.3218 42.1914 14.2163C42.082 14.1108 42.0273 13.9507 42.0273 13.7358C42.0273 13.5171 42.082 13.3569 42.1914 13.2554C42.3047 13.1499 42.4453 13.0972 42.6133 13.0972ZM48.1914 15.3823C48.9531 15.3823 49.5293 15.5698 49.9199 15.9448C50.3105 16.3159 50.5059 16.9136 50.5059 17.7378V21.9214H49.5449V17.8022C49.5449 17.2671 49.4219 16.8667 49.1758 16.6011C48.9336 16.3354 48.5605 16.2026 48.0566 16.2026C47.3457 16.2026 46.8457 16.4038 46.5566 16.8062C46.2676 17.2085 46.123 17.7925 46.123 18.5581V21.9214H45.1504V15.4995H45.9355L46.082 16.4253H46.1348C46.2715 16.1987 46.4453 16.0093 46.6562 15.8569C46.8672 15.7007 47.1035 15.5835 47.3652 15.5054C47.627 15.4233 47.9023 15.3823 48.1914 15.3823ZM54.3027 24.8042C53.459 24.8042 52.8086 24.646 52.3516 24.3296C51.8945 24.0171 51.666 23.5776 51.666 23.0112C51.666 22.6089 51.793 22.2651 52.0469 21.98C52.3047 21.6948 52.6602 21.5054 53.1133 21.4116C52.9453 21.3335 52.8008 21.2163 52.6797 21.0601C52.5625 20.9038 52.5039 20.7241 52.5039 20.521C52.5039 20.2866 52.5684 20.0815 52.6973 19.9058C52.8301 19.7261 53.0312 19.5542 53.3008 19.3901C52.9648 19.2534 52.6914 19.0229 52.4805 18.6987C52.2734 18.3706 52.1699 17.9897 52.1699 17.5562C52.1699 17.0952 52.2656 16.7026 52.457 16.3784C52.6484 16.0503 52.9258 15.8003 53.2891 15.6284C53.6523 15.4565 54.0918 15.3706 54.6074 15.3706C54.7207 15.3706 54.834 15.3765 54.9473 15.3882C55.0645 15.396 55.1758 15.4097 55.2812 15.4292C55.3867 15.4448 55.4785 15.4644 55.5566 15.4878H57.7598V16.1147L56.5762 16.2612C56.6934 16.4136 56.791 16.5972 56.8691 16.812C56.9473 17.0269 56.9863 17.2651 56.9863 17.5269C56.9863 18.1675 56.7695 18.6772 56.3359 19.0562C55.9023 19.4312 55.3066 19.6187 54.5488 19.6187C54.3691 19.6187 54.1855 19.603 53.998 19.5718C53.8066 19.6772 53.6602 19.7944 53.5586 19.9233C53.4609 20.0522 53.4121 20.2007 53.4121 20.3687C53.4121 20.4937 53.4492 20.5933 53.5234 20.6675C53.6016 20.7417 53.7129 20.7964 53.8574 20.8315C54.002 20.8628 54.1758 20.8784 54.3789 20.8784H55.5098C56.209 20.8784 56.7441 21.0249 57.1152 21.3179C57.4902 21.6108 57.6777 22.0386 57.6777 22.6011C57.6777 23.312 57.3887 23.8569 56.8105 24.2358C56.2324 24.6147 55.3965 24.8042 54.3027 24.8042ZM54.332 24.0425C54.8633 24.0425 55.3027 23.9878 55.6504 23.8784C56.002 23.7729 56.2637 23.6187 56.4355 23.4155C56.6113 23.2163 56.6992 22.978 56.6992 22.7007C56.6992 22.4429 56.6406 22.2476 56.5234 22.1147C56.4062 21.9858 56.2344 21.8999 56.0078 21.8569C55.7812 21.8101 55.5039 21.7866 55.1758 21.7866H54.0625C53.7734 21.7866 53.5215 21.8315 53.3066 21.9214C53.0918 22.0112 52.9258 22.144 52.8086 22.3198C52.6953 22.4956 52.6387 22.7144 52.6387 22.9761C52.6387 23.3237 52.7852 23.5874 53.0781 23.7671C53.3711 23.9507 53.7891 24.0425 54.332 24.0425ZM54.584 18.9097C55.0488 18.9097 55.3984 18.7925 55.6328 18.5581C55.8672 18.3237 55.9844 17.9819 55.9844 17.5327C55.9844 17.0522 55.8652 16.6929 55.627 16.4546C55.3887 16.2124 55.0371 16.0913 54.5723 16.0913C54.127 16.0913 53.7832 16.2163 53.541 16.4663C53.3027 16.7124 53.1836 17.0737 53.1836 17.5503C53.1836 17.9878 53.3047 18.3237 53.5469 18.5581C53.7891 18.7925 54.1348 18.9097 54.584 18.9097Z" fill="#58595B"/>
</svg>
