<svg width="32" height="32" viewBox="0 0 32 32" fill="none" xmlns="http://www.w3.org/2000/svg">
<path d="M24.6817 25.2844H7.80791C6.80943 25.2844 6 24.4749 6 23.4765V6.60264C6 6.26981 6.26981 6 6.60264 6C6.93546 6 7.20527 6.26981 7.20527 6.60264V23.4765C7.20527 23.8093 7.47508 24.0791 7.80791 24.0791H24.6817C25.0146 24.0791 25.2844 24.3489 25.2844 24.6817C25.2844 25.0146 25.0146 25.2844 24.6817 25.2844Z" fill="#929497"/>
<path d="M9.01318 20.4633C8.76835 20.4647 8.547 20.3179 8.45311 20.0917C8.35923 19.8656 8.41148 19.6052 8.58531 19.4328L14.6117 13.4064C14.8467 13.1727 15.2263 13.1727 15.4614 13.4064L18.6554 16.6004L23.2294 12.0264H21.6686C21.3357 12.0264 21.0659 11.7566 21.0659 11.4237C21.0659 11.0909 21.3357 10.8211 21.6686 10.8211H24.6817C25.0146 10.8211 25.2844 11.0909 25.2844 11.4237V15.0395C25.2844 15.3724 25.0146 15.6422 24.6817 15.6422C24.3489 15.6422 24.0791 15.3724 24.0791 15.0395V12.8761L19.0832 17.8719C18.8482 18.1056 18.4686 18.1056 18.2335 17.8719L15.0395 14.684L9.44106 20.2885C9.32733 20.4013 9.17337 20.4642 9.01318 20.4633Z" fill="#929497"/>
</svg>
