<svg width="24" height="24" viewBox="0 0 24 24" fill="none" xmlns="http://www.w3.org/2000/svg">
<path fill-rule="evenodd" clip-rule="evenodd" d="M12 1L3 5V11C3 16.055 6.956 20.782 12 22C17.044 20.782 21 16.055 21 11V5L12 1ZM12 20.315C7.887 19.075 5 15.22 5 11V6.3L12 3.215L19 6.3V11C19 15.22 16.113 19.075 12 20.315Z" fill="#929497"/>
<path fill-rule="evenodd" clip-rule="evenodd" d="M16.707 9.293C17.098 9.684 17.098 10.316 16.707 10.707L11.207 16.207C10.816 16.598 10.184 16.598 9.793 16.207L7.293 13.707C6.902 13.316 6.902 12.684 7.293 12.293C7.684 11.902 8.316 11.902 8.707 12.293L10.5 14.086L15.293 9.293C15.684 8.902 16.316 8.902 16.707 9.293Z" fill="#929497"/>
</svg>
