<svg width="26" height="26" viewBox="0 0 26 26" fill="none" xmlns="http://www.w3.org/2000/svg">
<path d="M22 0V4L26 4V6L22 6V10H20V6H16V4H20V0H22Z" fill="#221F1F"/>
<path fill-rule="evenodd" clip-rule="evenodd" d="M0 9V17C0 18.4113 1.1179 19.4197 2.31004 20.0158C3.56193 20.6417 5.22145 21 7 21C8.77855 21 10.4381 20.6417 11.69 20.0158C11.7941 19.9637 11.8977 19.9085 12 19.8502V22C12 23.4113 13.1179 24.4197 14.31 25.0158C15.5619 25.6417 17.2214 26 19 26C20.7786 26 22.4381 25.6417 23.69 25.0158C24.8821 24.4197 26 23.4113 26 22V18C26 16.5887 24.8819 15.5803 23.6899 14.9843C22.438 14.3583 20.7784 14 19 14C17.2216 14 15.5621 14.3583 14.3101 14.9843C14.206 15.0363 14.1024 15.0916 14 15.15V9C14 7.58874 12.8819 6.5803 11.6899 5.98425C10.4379 5.3583 8.77844 5 7 5C5.22156 5 3.56205 5.3583 2.31015 5.98425C1.11805 6.5803 0 7.58874 0 9ZM14 20.85V22C14 22.2457 14.2251 22.7373 15.2045 23.2269C16.1241 23.6868 17.4646 24 19 24C20.5354 24 21.8759 23.6868 22.7955 23.2269C23.7749 22.7373 24 22.2457 24 22V20.85C23.8976 20.9084 23.794 20.9637 23.6899 21.0157C22.438 21.6417 20.7784 22 19 22C17.2216 22 15.5621 21.6417 14.3101 21.0157C14.206 20.9637 14.1024 20.9084 14 20.85ZM24 18C24 18.2456 23.7749 18.7372 22.7954 19.2269C21.8758 19.6867 20.5353 20 19 20C17.4647 20 16.1242 19.6867 15.2046 19.2269C14.2251 18.7372 14 18.2456 14 18C14 17.7544 14.2251 17.2628 15.2046 16.7731C16.1242 16.3133 17.4647 16 19 16C20.5353 16 21.8758 16.3133 22.7954 16.7731C23.7749 17.2628 24 17.7544 24 18ZM2 11.85V13C2 13.2457 2.2251 13.7373 3.20446 14.2269C4.12407 14.6868 5.46455 15 7 15C8.53545 15 9.87593 14.6868 10.7955 14.2269C11.7749 13.7373 12 13.2457 12 13V11.85C11.8976 11.9084 11.794 11.9637 11.6899 12.0157C10.4379 12.6417 8.77844 13 7 13C5.22156 13 3.56205 12.6417 2.31015 12.0157C2.20597 11.9637 2.10235 11.9084 2 11.85ZM12 9C12 9.2456 11.7749 9.73715 10.7954 10.2269C9.87576 10.6867 8.53527 11 7 11C5.46473 11 4.12424 10.6867 3.20457 10.2269C2.22509 9.73715 2 9.2456 2 9C2 8.7544 2.22509 8.26285 3.20457 7.77311C4.12424 7.31327 5.46473 7 7 7C8.53527 7 9.87576 7.31327 10.7954 7.77311C11.7749 8.26285 12 8.7544 12 9ZM2 17V15.8502C2.10232 15.9085 2.20589 15.9637 2.31004 16.0158C3.56193 16.6417 5.22145 17 7 17C8.77855 17 10.4381 16.6417 11.69 16.0158C11.7941 15.9637 11.8977 15.9085 12 15.8502V17C12 17.2457 11.7749 17.7373 10.7955 18.2269C9.87593 18.6868 8.53545 19 7 19C5.46455 19 4.12407 18.6868 3.20446 18.2269C2.2251 17.7373 2 17.2457 2 17Z" fill="#221F1F"/>
</svg>
