<svg width="32" height="32" viewBox="0 0 32 32" fill="none" xmlns="http://www.w3.org/2000/svg">
<path fill-rule="evenodd" clip-rule="evenodd" d="M18.0996 11.9H7.89958V19.1H18.0996V11.9ZM8.63149 18.2559V12.7442H17.3677V18.2559H8.63149Z" fill="#A32A29"/>
<path d="M19.4414 13.5256H21.5251V11.4419H19.4414V13.5256ZM19.9995 11.9628H21.0042V12.9675H19.9995V11.9628Z" fill="#A32A29"/>
<path d="M22.3809 13.5256H24.4646V11.4419H22.3809V13.5256ZM22.9391 11.9628H23.9437V12.9675H22.9391V11.9628Z" fill="#A32A29"/>
<path d="M19.4414 16.4279H21.5251V14.3442H19.4414V16.4279ZM19.9995 14.8651H21.0042V15.8698H19.9995V14.8651Z" fill="#A32A29"/>
<path d="M22.3809 16.4279H24.4646V14.3442H22.3809V16.4279ZM22.9391 14.8651H23.9437V15.8698H22.9391V14.8651Z" fill="#A32A29"/>
<path d="M19.4414 19.3303H21.5251V17.2465H19.4414V19.3303ZM19.9995 17.7675H21.0042V18.7721H19.9995V17.7675Z" fill="#A32A29"/>
<path d="M22.3809 19.3303H24.4646V17.2465H22.3809V19.3303ZM22.9391 17.7675H23.9437V18.7721H22.9391V17.7675Z" fill="#A32A29"/>
<path fill-rule="evenodd" clip-rule="evenodd" d="M7.79487 3.90002C7.36755 3.90002 7.0251 4.24247 7.0251 4.66979V7.68375C7.0251 8.11107 7.36755 8.45351 7.79487 8.45351H9.8158V9.55584H5.98324V20.6675L4.37403 22.3864C4.36586 22.3946 4.35722 22.4032 4.35019 22.411C4.34259 22.4195 4.33225 22.4319 4.32403 22.4483C4.30812 22.4802 4.30859 22.5131 4.30879 22.5269L4.30882 22.5312V27.1782C4.26955 27.7963 4.7654 28.2861 5.37627 28.2861H26.8088C27.4222 28.2861 27.9135 27.7948 27.9135 27.1814V22.5303C27.9135 22.5024 27.906 22.4777 27.8934 22.4567C27.8878 22.4474 27.8815 22.4395 27.8763 22.4335V22.4163L26.2391 20.6675V9.55584H13.2158V8.45351H15.2367C15.6641 8.45351 16.0065 8.11107 16.0065 7.68375V4.66979C16.0065 4.24247 15.6641 3.90002 15.2367 3.90002H7.79487ZM7.78324 4.66979C7.78324 4.66511 7.78351 4.66148 7.78385 4.65877C7.78656 4.65843 7.79019 4.65816 7.79487 4.65816H15.2367C15.2414 4.65816 15.245 4.65843 15.2478 4.65877C15.2481 4.66148 15.2484 4.66511 15.2484 4.66979V7.68375C15.2484 7.68608 15.2482 7.68999 15.2482 7.68999L15.2478 7.69477C15.245 7.69511 15.2414 7.69537 15.2367 7.69537H12.4577V9.55584H10.5739V7.69537H7.79487C7.79019 7.69537 7.78656 7.69511 7.78385 7.69477C7.78351 7.69206 7.78324 7.68843 7.78324 7.68375V4.66979ZM6.74138 20.4582V10.314H25.4437V20.4582H6.74138ZM5.50105 22.2442L6.53484 21.1791H25.6865L26.689 22.2442H5.50105ZM5.02975 27.1814V23.0396H27.1925V27.1814C27.1925 27.3813 27.0195 27.5279 26.846 27.5279H5.37627C5.17634 27.5279 5.02975 27.3549 5.02975 27.1814Z" fill="#A32A29"/>
<path d="M16.0925 26.5117C16.7623 26.5117 17.3205 25.9535 17.3205 25.2837C17.3205 24.614 16.7623 24.0558 16.0925 24.0558C15.4228 24.0558 14.8646 24.614 14.8646 25.2837C14.8646 25.9535 15.4228 26.5117 16.0925 26.5117ZM16.0925 24.614C16.4646 24.614 16.7623 24.9117 16.7623 25.2837C16.7623 25.6558 16.4646 25.9535 16.0925 25.9535C15.7205 25.9535 15.4228 25.6558 15.4228 25.2837C15.4228 24.9117 15.7205 24.614 16.0925 24.614Z" fill="#A32A29"/>
<path d="M14.4553 5.26514H8.57627V6.06514H14.4553V5.26514Z" fill="#A32A29"/>
<path d="M14.4553 6.45584H8.57627V7.25584H14.4553V6.45584Z" fill="#A32A29"/>
</svg>
