<svg width="24" height="24" viewBox="0 0 24 24" fill="none" xmlns="http://www.w3.org/2000/svg">
<circle cx="12" cy="12" r="12" fill="#F38707"/>
<path d="M13.2 8.625C13.2 9.24632 12.6963 9.75 12.075 9.75C11.4537 9.75 10.95 9.24632 10.95 8.625C10.95 8.00368 11.4537 7.5 12.075 7.5C12.6963 7.5 13.2 8.00368 13.2 8.625Z" fill="white"/>
<path d="M11.25 12V16.5C11.25 16.9142 11.5858 17.25 12 17.25C12.4142 17.25 12.75 16.9142 12.75 16.5V12C12.75 11.5858 12.4142 11.25 12 11.25C11.5858 11.25 11.25 11.5858 11.25 12Z" fill="white"/>
<path fill-rule="evenodd" clip-rule="evenodd" d="M12 20.25C16.5563 20.25 20.25 16.5563 20.25 12C20.25 7.44365 16.5563 3.75 12 3.75C7.44365 3.75 3.75 7.44365 3.75 12C3.75 16.5563 7.44365 20.25 12 20.25ZM12 19.125C15.935 19.125 19.125 15.935 19.125 12C19.125 8.06497 15.935 4.875 12 4.875C8.06497 4.875 4.875 8.06497 4.875 12C4.875 15.935 8.06497 19.125 12 19.125Z" fill="white"/>
</svg>
