<svg width="27" height="26" viewBox="0 0 27 26" fill="none" xmlns="http://www.w3.org/2000/svg">
<path d="M22 0.585815L20.5858 2.00003L22.5858 4.00003L16 4.00003V6.00003L22.5858 6.00003L20.5858 8.00003L22 9.41424L26.4142 5.00003L22 0.585815Z" fill="#221F1F"/>
<path fill-rule="evenodd" clip-rule="evenodd" d="M0 9.00003C0 7.58877 1.11805 6.58033 2.31015 5.98428C3.56205 5.35833 5.22156 5.00003 7 5.00003C8.77844 5.00003 10.4379 5.35833 11.6899 5.98428C12.8819 6.58033 14 7.58877 14 9.00003V15.15C14.1024 15.0916 14.206 15.0364 14.3101 14.9843C15.5621 14.3583 17.2216 14 19 14C20.7784 14 22.438 14.3583 23.6899 14.9843C24.8819 15.5803 26 16.5888 26 18V22C26 23.4113 24.8821 24.4198 23.69 25.0158C22.4381 25.6418 20.7786 26 19 26C17.2214 26 15.5619 25.6418 14.31 25.0158C13.1179 24.4198 12 23.4113 12 22V19.8502C11.8977 19.9085 11.7941 19.9638 11.69 20.0158C10.4381 20.6418 8.77855 21 7 21C5.22145 21 3.56193 20.6418 2.31004 20.0158C1.1179 19.4198 0 18.4113 0 17V9.00003ZM2 9.00003C2 8.75443 2.22509 8.26288 3.20457 7.77314C4.12424 7.3133 5.46473 7.00003 7 7.00003C8.53527 7.00003 9.87576 7.3133 10.7954 7.77314C11.7749 8.26288 12 8.75443 12 9.00003C12 9.24563 11.7749 9.73718 10.7954 10.2269C9.87576 10.6868 8.53527 11 7 11C5.46473 11 4.12424 10.6868 3.20457 10.2269C2.22509 9.73718 2 9.24563 2 9.00003ZM24 18C24 17.7544 23.7749 17.2629 22.7954 16.7731C21.8758 16.3133 20.5353 16 19 16C17.4647 16 16.1242 16.3133 15.2046 16.7731C14.2251 17.2629 14 17.7544 14 18C14 18.2456 14.2251 18.7372 15.2046 19.2269C16.1242 19.6868 17.4647 20 19 20C20.5353 20 21.8758 19.6868 22.7954 19.2269C23.7749 18.7372 24 18.2456 24 18ZM14 20.8501C14.1024 20.9084 14.206 20.9637 14.3101 21.0158C15.5621 21.6417 17.2216 22 19 22C20.7784 22 22.438 21.6417 23.6899 21.0158C23.794 20.9637 23.8976 20.9084 24 20.8501V22C24 22.2458 23.7749 22.7373 22.7955 23.227C21.8759 23.6868 20.5354 24 19 24C17.4646 24 16.1241 23.6868 15.2045 23.227C14.2251 22.7373 14 22.2458 14 22V20.8501ZM12 11.8501V13C12 13.2458 11.7749 13.7373 10.7955 14.227C9.87593 14.6868 8.53545 15 7 15C5.46455 15 4.12407 14.6868 3.20446 14.227C2.2251 13.7373 2 13.2458 2 13V11.8501C2.10235 11.9084 2.20597 11.9637 2.31015 12.0158C3.56205 12.6417 5.22156 13 7 13C8.77844 13 10.4379 12.6417 11.6899 12.0158C11.794 11.9637 11.8976 11.9084 12 11.8501ZM2 17V15.8502C2.10232 15.9085 2.20589 15.9638 2.31004 16.0158C3.56193 16.6418 5.22145 17 7 17C8.77855 17 10.4381 16.6418 11.69 16.0158C11.7941 15.9638 11.8977 15.9085 12 15.8502V17C12 17.2458 11.7749 17.7373 10.7955 18.227C9.87593 18.6868 8.53545 19 7 19C5.46455 19 4.12407 18.6868 3.20446 18.227C2.2251 17.7373 2 17.2458 2 17Z" fill="#221F1F"/>
</svg>
