<svg width="32" height="32" viewBox="0 0 32 32" fill="none" xmlns="http://www.w3.org/2000/svg">
<path d="M16 32C7.13333 32 0 24.8667 0 16C0 7.13333 7.13333 0 16 0C24.8667 0 32 7.13333 32 16C32 24.8667 24.8667 32 16 32Z" fill="white"/>
<path fill-rule="evenodd" clip-rule="evenodd" d="M11.8518 22.37C15.4518 22.37 18.3703 19.4516 18.3703 15.8515C18.3703 12.2514 15.4518 9.33301 11.8518 9.33301C8.25169 9.33301 5.33325 12.2514 5.33325 15.8515C5.33325 19.4516 8.25169 22.37 11.8518 22.37Z" fill="#FF0000" fill-opacity="0.8"/>
<path fill-rule="evenodd" clip-rule="evenodd" d="M20.1482 22.37C23.7482 22.37 26.6667 19.4516 26.6667 15.8515C26.6667 12.2514 23.7482 9.33301 20.1482 9.33301C16.5481 9.33301 13.6296 12.2514 13.6296 15.8515C13.6296 19.4516 16.5481 22.37 20.1482 22.37Z" fill="#FFA600" fill-opacity="0.8"/>
</svg>
