<svg width="32" height="32" viewBox="0 0 32 32" fill="none" xmlns="http://www.w3.org/2000/svg">
<path d="M15.617 5.12232L15.6584 5.15976L17.6804 7.18182H22C23.0776 7.18182 23.9562 8.0341 23.9984 9.10138L24 9.18182V10.0909H24.5455C25.6231 10.0909 26.5017 10.9432 26.5439 12.0105L26.5455 12.0909V15.5455H27.3455C27.707 15.5455 28 15.8304 28 16.1818V20C28 20.3515 27.707 20.6364 27.3455 20.6364H26.5455V24.0909C26.5455 25.1685 25.6932 26.0471 24.6259 26.0893L24.5455 26.0909H6C4.92237 26.0909 4.0438 25.2386 4.00159 24.1713L4 24.0909V9.18182L4.00159 9.10138C4.04272 8.06147 4.87787 7.22567 5.91751 7.18349L6 7.18182H12.8647L14.887 5.15976C15.0867 4.96006 15.4028 4.94758 15.617 5.12232ZM5.09091 10.9636V24.0909C5.09091 24.5729 5.46601 24.9673 5.94023 24.9981L6 25H24.5455C25.0274 25 25.4218 24.6249 25.4526 24.1507L25.4545 24.0909V20.6364H24.0727C22.6267 20.6364 21.4545 19.4967 21.4545 18.0909C21.4545 16.6851 22.6267 15.5455 24.0727 15.5455H25.4545V12.0909C25.4545 11.6089 25.0794 11.2145 24.6052 11.1838L24.5455 11.1818H6C5.71263 11.1818 5.43942 11.1212 5.19245 11.0121L5.09091 10.9636ZM26.9091 16.6364H24.1039C23.2658 16.6364 22.5823 17.2538 22.5469 18.0278L22.5455 18.0909C22.5455 18.8731 23.207 19.5111 24.0363 19.5441L24.1039 19.5455H26.9091V16.6364ZM11.7738 8.27273H6C5.49792 8.27273 5.09091 8.67974 5.09091 9.18182C5.09091 9.66381 5.46601 10.0582 5.94023 10.089L6 10.0909H9.95564L11.7738 8.27273ZM15.2727 6.31673L11.4982 10.0909H19.0469L15.2727 6.31673ZM20.5895 10.0909H22.9091V9.18182C22.9091 8.71991 22.5646 8.33846 22.1185 8.28038L22.0598 8.27466L22 8.27273H18.7713L20.5895 10.0909Z" fill="#A32A29"/>
<path d="M13.425 15.375C13.425 15.0574 13.6825 14.8 14 14.8C14.3176 14.8 14.575 15.0574 14.575 15.375V17.425H16.625C16.9426 17.425 17.2 17.6824 17.2 18C17.2 18.3176 16.9426 18.575 16.625 18.575H14.575V20.625C14.575 20.9426 14.3176 21.2 14 21.2C13.6825 21.2 13.425 20.9426 13.425 20.625V18.575H11.375C11.0575 18.575 10.8 18.3176 10.8 18C10.8 17.6824 11.0575 17.425 11.375 17.425H13.425V15.375Z" fill="#A32A29"/>
<path fill-rule="evenodd" clip-rule="evenodd" d="M14 12C10.6863 12 8 14.6863 8 18C8 21.3137 10.6863 24 14 24C17.3137 24 20 21.3137 20 18C20 14.6863 17.3137 12 14 12ZM9 18C9 15.2386 11.2386 13 14 13C16.7614 13 19 15.2386 19 18C19 20.7614 16.7614 23 14 23C11.2386 23 9 20.7614 9 18Z" fill="#A32A29"/>
</svg>
