<svg width="24" height="24" viewBox="0 0 24 24" fill="none" xmlns="http://www.w3.org/2000/svg">
<path d="M4 12C4 10.8999 4.89999 10 6 10C7.10001 10 8 10.8999 8 12C8 13.1001 7.10001 14 6 14C4.89999 14 4 13.1001 4 12Z" fill="#A32A29"/>
<path d="M16 12C16 10.8999 16.9 10 18 10C19.1 10 20 10.8999 20 12C20 13.1001 19.1 14 18 14C16.9 14 16 13.1001 16 12Z" fill="#A32A29"/>
<path d="M10 12C10 10.8999 10.9 10 12 10C13.1 10 14 10.8999 14 12C14 13.1001 13.1 14 12 14C10.9 14 10 13.1001 10 12Z" fill="#A32A29"/>
<path fill-rule="evenodd" clip-rule="evenodd" d="M12 0C5.37259 0 0 5.37256 0 12C0 18.6274 5.37259 24 12 24C18.6274 24 24 18.6274 24 12C24 5.37256 18.6274 0 12 0ZM2 12C2 6.47705 6.47714 2 12 2C17.5229 2 22 6.47705 22 12C22 17.5229 17.5229 22 12 22C6.47714 22 2 17.5229 2 12Z" fill="#A32A29"/>
</svg>
