<svg width="24" height="24" viewBox="0 0 24 24" fill="none" xmlns="http://www.w3.org/2000/svg">
<g clip-path="url(#clip0)">
<path d="M2.07085 20.243L3.78887 17.381C4.58087 16.06 4.99988 14.548 4.99988 13.007V10.5C4.99988 6.641 8.14088 3.5 11.9999 3.5C15.8589 3.5 18.9999 6.641 18.9999 10.5V13.007C18.9999 14.548 19.4189 16.06 20.2109 17.381L21.9289 20.243C22.0219 20.397 22.0239 20.59 21.9359 20.746C21.8469 20.903 21.6799 21 21.4999 21H2.4999C2.3199 21 2.15288 20.9031 2.06392 20.746C1.97588 20.59 1.97785 20.397 2.07085 20.243ZM20.6169 20L19.3539 17.895C18.4679 16.419 17.9999 14.729 17.9999 13.007V10.5C17.9999 7.19099 15.3089 4.49998 11.9999 4.49998C8.69087 4.49998 5.99987 7.19099 5.99987 10.5V13.007C5.99987 14.729 5.53187 16.419 4.64687 17.895L3.38288 20H20.6169Z" fill="#221F1F"/>
<path d="M11.9999 0C13.103 0 14 0.897 14 2.00002V4.00003C14 4.27598 13.776 4.5 13.5 4.5C13.224 4.5 12.9999 4.27598 12.9999 3.99998V2.00002C12.9999 1.44802 12.552 1.00003 11.9999 1.00003C11.4479 1.00003 11 1.44802 11 2.00002V4.00003C11 4.27598 10.7759 4.5 10.4999 4.5C10.2239 4.5 9.99993 4.27598 9.99993 3.99998V2.00002C9.99993 0.897 10.8969 0 11.9999 0Z" fill="#221F1F"/>
<path d="M9.83614 20.2471C9.97714 20.0091 10.2822 19.9311 10.5211 20.0681C10.7601 20.2081 10.8401 20.5151 10.7001 20.7531C10.5702 20.9741 10.4991 21.2391 10.4991 21.5001C10.4991 22.3271 11.1721 23.0001 11.9991 23.0001C12.8262 23.0001 13.4991 22.3271 13.4991 21.5001C13.4991 21.2391 13.4281 20.9741 13.2981 20.7531C13.1592 20.5141 13.2391 20.2081 13.4772 20.0681C13.7181 19.9311 14.0222 20.0091 14.1621 20.2471C14.3832 20.6251 14.5002 21.0581 14.5002 21.5001C14.5001 22.8791 13.3791 24.0001 12.0001 24.0001C10.6211 24.0001 9.50015 22.8791 9.49813 21.5001C9.49813 21.0581 9.61513 20.6251 9.83614 20.2471Z" fill="#221F1F"/>
<circle cx="19" cy="8.2207" r="4.5" fill="#2F9803" stroke="white"/>
</g>
<defs>
<clipPath id="clip0">
<rect width="24" height="24" fill="white" transform="matrix(-1 0 0 1 24 0)"/>
</clipPath>
</defs>
</svg>
