<svg xmlns="http://www.w3.org/2000/svg" width="17" height="18" viewBox="0 0 17 18" fill="none">
<path d="M7.30002 12.375C7.30002 11.7537 7.8037 11.25 8.42502 11.25C9.04634 11.25 9.55002 11.7537 9.55002 12.375C9.55002 12.9963 9.04634 13.5 8.42502 13.5C7.8037 13.5 7.30002 12.9963 7.30002 12.375Z" fill="white"/>
<path d="M9.25 9L9.25 4.5C9.25 4.08579 8.91421 3.75 8.5 3.75C8.08579 3.75 7.75 4.08579 7.75 4.5L7.75 9C7.75 9.41421 8.08579 9.75 8.5 9.75C8.91421 9.75 9.25 9.41421 9.25 9Z" fill="white"/>
<path fill-rule="evenodd" clip-rule="evenodd" d="M8.5 0.749999C3.94365 0.749999 0.250001 4.44365 0.250001 9C0.25 13.5563 3.94365 17.25 8.5 17.25C13.0563 17.25 16.75 13.5563 16.75 9C16.75 4.44365 13.0564 0.75 8.5 0.749999ZM8.5 1.875C4.56497 1.875 1.375 5.06497 1.375 9C1.375 12.935 4.56497 16.125 8.5 16.125C12.435 16.125 15.625 12.935 15.625 9C15.625 5.06497 12.435 1.875 8.5 1.875Z" fill="white"/>
</svg>
