<svg width="220" height="220" viewBox="0 0 220 220" fill="none" xmlns="http://www.w3.org/2000/svg">
<path d="M26.2639 149.796C-7.42207 105.202 19.8505 44.785 68.1067 39.4062C71.8427 38.9684 115.055 37.4048 138.281 43.5967C149.177 42.8462 166.612 41.0949 176.512 47.4119C199.488 62.1097 202.29 74.9312 197.62 97.8848C193.075 120.338 177.321 139.289 160.945 155.3C144.694 171.186 122.216 181.381 97.185 180.505C71.9672 179.692 41.5191 169.935 26.2639 149.796Z" fill="#F7F7F7"/>
<path d="M197.807 173.876C206.276 174.313 210.012 176.19 197.185 178.004C189.464 179.129 175.329 179.192 153.038 179.942C97.7458 181.819 21.8434 178.441 21.8434 176.878C21.8434 175.689 35.4175 173.751 68.2317 173.25C78.3811 173.125 91.6437 171.499 105.778 171.499C165.554 171.562 173.399 172.687 197.807 173.876Z" fill="#E0E0E0"/>
<path opacity="0.8" d="M182.552 156.425H37.6587C33.8605 156.425 30.7472 153.298 30.7472 149.483V79.1836H189.464V149.546C189.464 153.361 186.35 156.425 182.552 156.425Z" fill="#F5F5F5"/>
<path d="M182.552 156.426L69.6636 156.551L41.457 156.613H37.9078C36.7248 156.676 35.4795 156.363 34.4209 155.8C33.3624 155.237 32.4284 154.424 31.7435 153.424C31.0586 152.423 30.6227 151.234 30.5604 149.984C30.4982 145.23 30.5604 140.539 30.4982 135.786L30.4359 79.1213V78.8086H30.7472L189.464 79.0588H189.526V79.1213L189.464 119.712V140.039V145.105V147.669C189.464 148.545 189.464 149.358 189.401 150.234C189.214 151.922 188.405 153.549 187.16 154.674C185.914 155.8 184.233 156.426 182.552 156.426ZM182.552 156.426C184.233 156.426 185.914 155.8 187.16 154.612C188.405 153.486 189.214 151.86 189.401 150.171C189.464 149.358 189.401 148.483 189.464 147.607V145.043V139.977V119.65L189.401 79.0588L189.464 79.1213L30.7472 79.4966L31.0586 79.1839L30.9963 135.849C30.9963 140.539 30.934 145.293 30.9963 149.984C31.0586 151.109 31.4944 152.235 32.1171 153.173C32.7398 154.112 33.6115 154.925 34.67 155.425C35.6663 155.925 36.8493 156.175 37.9701 156.175H41.5193L69.7258 156.238L182.552 156.426Z" fill="#A42A29"/>
<path d="M189.463 92.5061H30.7471V61.6094C30.7471 57.7942 33.8604 54.667 37.6587 54.667H182.552C186.35 54.667 189.463 57.7942 189.463 61.6094V92.5061Z" fill="#A42A29"/>
<path d="M136.911 102.951C136.226 101.7 130.622 108.517 132.179 112.645C133.736 116.835 136.911 116.147 136.911 116.147C136.911 116.147 138.904 106.641 136.911 102.951Z" fill="#7A4B51"/>
<path d="M129.813 92.7559C129.813 92.7559 129.813 92.7559 132.926 96.446C136.039 100.136 135.23 100.449 134.669 103.013C134.109 105.39 129.688 104.889 127.945 104.139C126.45 103.513 122.465 104.452 121.345 103.639C120.909 103.326 121.345 103.138 122.652 103.013C124.147 102.888 125.516 102.2 125.516 102.2C124.582 100.824 119.165 101.887 118.356 100.261C117.982 99.4481 124.458 100.887 125.08 100.074C125.08 100.074 124.769 99.5106 121.656 98.5725C119.85 98.0096 118.044 97.4467 117.92 96.8838C117.733 95.758 121.282 97.5717 125.765 98.0096C125.765 98.0096 123.96 97.0714 122.216 96.3209C120.597 95.6329 119.041 95.1951 119.414 94.5071C119.726 93.9442 122.154 95.07 123.773 95.758C126.762 97.0089 129.19 97.259 130.435 97.259C131.058 97.259 131.369 97.259 131.369 97.259C128.505 93.0686 129.813 92.7559 129.813 92.7559Z" fill="#8F5045"/>
<path d="M131.37 97.0718C131.37 97.0718 131.058 99.1983 132.179 100.324C132.179 100.324 129.813 99.6361 130.373 97.0718C130.996 97.1343 131.37 97.0718 131.37 97.0718Z" fill="#703E38"/>
<path d="M135.167 100.136L138.156 107.454L135.167 114.459C135.167 114.459 132.926 106.14 132.116 103.576C131.369 100.887 135.167 100.136 135.167 100.136Z" fill="#8F5045"/>
<path d="M169.29 88.8159C169.29 88.8159 158.891 92.6311 155.778 95.5081L147.31 121.839C147.31 121.839 146.998 120.025 146.438 120.776L136.911 102.951C136.911 102.951 136.724 112.645 132.179 112.645C132.179 112.645 141.519 138.476 146.687 139.914C151.917 141.353 160.821 118.587 160.821 118.587L169.29 88.8159Z" fill="#522228"/>
<path d="M183.922 157.739C185.416 157.614 186.849 157.552 188.343 157.427C188.592 147.169 181.618 104.89 181.618 104.89C181.618 104.89 163.935 103.264 162.938 107.892C157.708 132.284 143.262 156.739 143.262 156.739C146.998 152.861 173.835 154.55 183.922 157.739Z" fill="#4F1F25"/>
<path d="M174.831 85.6263C174.831 85.6263 181.493 82.6867 187.409 84.8757L188.405 93.3817C188.405 93.3817 174.271 98.5729 169.725 97.0093C165.18 95.5082 163.997 91.8807 174.831 85.6263Z" fill="#7A4B51"/>
<path d="M167.422 158.427C170.348 158.365 173.275 158.24 176.201 158.114C175.703 150.171 171.78 142.541 172.154 135.286L156.089 134.911C153.349 141.29 151.481 149.546 150.236 157.989C156.027 158.052 161.755 158.552 167.422 158.427Z" fill="#0E3944"/>
<path d="M167.422 158.427C175.205 158.24 183.05 157.864 190.834 157.176C189.152 143.542 180.186 136.036 180.186 136.036L156.151 134.911C156.151 134.911 157.833 148.233 161.942 158.365C163.81 158.49 165.616 158.49 167.422 158.427Z" fill="#0E3944"/>
<path d="M148.991 158.052C155.155 157.989 161.382 158.615 167.422 158.427C175.578 158.24 183.735 157.864 191.892 157.114C189.713 141.791 185.79 130.908 184.047 126.592C184.047 126.592 205.03 100.199 195.13 91.6929C194.57 91.1925 194.009 90.7547 193.387 90.3795C184.171 84.4378 170.099 88.8159 167.546 89.6289C167.297 89.6915 167.173 89.754 167.173 89.754C167.173 89.754 147.808 103.076 158.891 122.089C158.829 122.152 154.346 138.226 148.991 158.052Z" fill="#D95D7B"/>
<path d="M189.215 60.7336C189.215 60.7336 193.449 56.3556 197.558 60.1082C201.668 63.8608 197.371 71.6163 197.558 73.0548C197.745 74.4933 201.107 74.806 200.298 76.6198C199.489 78.4336 197.371 78.6838 197.558 79.5594C197.745 80.435 199.8 81.811 198.928 82.7491C198.056 83.6247 196.188 82.6866 196.313 84.2502C196.437 85.8138 197.496 87.8152 195.628 88.0028C195.628 88.0028 197.06 86.2516 195.753 85.6887C194.445 85.1258 193.449 85.7512 192.888 83.8749C192.328 82.0611 195.005 81.3106 193.822 80.3099C192.639 79.3092 189.962 79.3092 191.207 77.6831C192.452 76.0569 192.888 74.6184 190.584 73.305C188.156 71.929 189.215 60.7336 189.215 60.7336Z" fill="#222323"/>
<path d="M170.846 58.6071C166.051 58.482 165.74 68.9894 171.469 74.5558C177.197 80.1222 178.629 58.7947 170.846 58.6071Z" fill="#222323"/>
<path d="M187.098 57.5441C187.098 57.5441 172.839 52.7282 169.974 62.7978C167.11 72.8674 169.725 83.4999 176.388 82.7493C185.852 81.8112 198.181 63.2356 187.098 57.5441Z" fill="#8F5045"/>
<path d="M181.431 62.7348C181.431 62.7348 184.669 66.9253 184.544 72.3041C184.544 72.3041 186.911 69.3645 188.156 71.9288C189.401 74.4931 184.42 78.2457 184.42 78.2457C184.42 78.2457 192.452 78.6836 193.449 68.2387C193.822 63.7981 188.094 59.7953 181.431 62.7348Z" fill="#141515"/>
<path d="M184.233 75.9941C183.112 78.9337 178.94 84.0623 174.52 82.6238C174.52 82.6238 175.64 87.0019 173.772 88.628C173.772 88.628 171.842 92.0679 176.263 92.5057C181.805 93.1312 184.918 88.628 184.918 88.628C182.49 83.2492 185.79 76.557 185.79 76.557C184.607 77.3076 184.233 75.9941 184.233 75.9941Z" fill="#703E38"/>
<path d="M177.82 59.7955C177.82 59.7955 175.64 71.116 184.544 72.3043C184.544 72.3043 187.72 66.9255 191.892 70.6782C191.892 70.6782 196.375 58.357 185.852 56.4182C185.852 56.4182 183.797 51.7274 175.64 53.2284C164.246 55.2924 161.07 69.1771 167.421 82.8743C167.359 82.8743 161.817 58.2319 177.82 59.7955Z" fill="#141515"/>
<path d="M193.324 90.4418C192.141 91.1298 190.709 91.8177 189.028 92.5683C158.517 106.265 165.678 93.4439 165.678 93.4439C165.678 92.5057 165.989 91.6301 166.55 90.8796C166.799 90.5043 167.11 90.1291 167.484 89.7538C169.974 88.9407 183.548 84.7503 192.701 90.1291C192.95 90.1916 193.137 90.3167 193.324 90.4418Z" fill="#703E38"/>
<path d="M193.324 90.4421C192.141 91.1301 190.709 91.818 189.028 92.5686C158.517 106.266 165.678 93.4442 165.678 93.4442C165.678 92.506 165.989 91.6304 166.55 90.8799C167.67 91.3802 169.912 92.4435 170.659 92.6311L171.157 94.5074L173.772 92.8187C173.772 92.8187 182.926 93.0689 192.764 90.1919C192.95 90.1919 193.137 90.317 193.324 90.4421Z" fill="#8F5045"/>
<path d="M192.515 157.051C192.701 156.301 192.764 155.425 192.701 154.362C192.515 151.923 193.698 150.297 195.379 149.546L188.592 126.405C188.592 126.405 200.049 102.451 200.298 98.5103C200.298 98.5103 198.305 89.9417 187.471 87.3774C187.471 87.3774 178.629 93.5693 173.399 105.828C169.787 114.396 175.765 142.103 179.688 157.99C183.984 157.802 188.218 157.489 192.515 157.051Z" fill="#4F1F25"/>
<path d="M191.145 88.1277C191.145 88.1277 192.515 92.3807 191.518 101.45C191.518 101.45 189.214 99.7609 184.918 100.011C184.918 100.011 174.146 112.27 174.022 130.908C174.022 130.908 169.414 113.145 172.714 104.076C176.014 95.0701 187.471 84.938 187.471 84.938L191.145 88.1277Z" fill="#0E3944"/>
<path d="M143.2 158.365C143.698 158.302 144.196 158.24 144.694 158.24L159.514 127.656C159.514 127.656 159.327 112.207 159.514 107.454C159.7 102.701 169.289 88.8159 169.289 88.8159C159.95 92.506 155.591 102.388 154.719 107.454C153.847 112.458 155.715 128.469 155.715 128.469C145.068 145.668 143.262 154.55 143.2 158.365Z" fill="#662D34"/>
<path d="M159.513 127.655C159.513 127.655 159.389 107.829 162.502 99.8234C165.678 91.8178 174.831 85.6885 174.831 85.6885C174.831 85.6885 163.312 89.5037 158.953 99.3231C158.953 99.3231 160.012 99.0103 161.132 99.1354C161.132 99.0729 156.338 103.639 159.513 127.655Z" fill="#432024"/>
<path d="M200.236 98.5103C200.236 98.5103 209.638 134.848 206.773 137.913C203.909 140.978 200.422 146.544 195.254 134.848C190.086 123.153 189.214 113.458 189.214 113.458C189.214 113.458 194.196 98.6979 200.236 98.5103Z" fill="#0E3944"/>
<path d="M193.449 116.21C193.449 116.21 200.049 116.085 201.605 111.707C201.605 111.644 196.5 109.893 193.449 116.21Z" fill="#082930"/>
<path d="M193.947 105.828L196.313 115.46C196.313 115.46 200.298 114.584 201.17 112.02L199.364 105.828H193.947Z" fill="#8F5045"/>
<path d="M196.064 96.5715C196.064 96.5715 196.064 96.5715 194.507 101.137C192.95 105.703 193.822 105.703 195.254 107.829C196.624 109.831 200.547 107.704 201.917 106.391C203.1 105.265 207.147 104.702 207.832 103.514C208.143 103.013 207.645 103.013 206.4 103.389C204.968 103.827 203.473 103.701 203.473 103.701C203.847 102.075 209.264 101.075 209.389 99.2608C209.451 98.3852 203.971 102.075 203.1 101.512C203.1 101.512 203.162 100.887 205.715 98.8856C207.147 97.6972 208.704 96.5089 208.579 95.946C208.33 94.8828 205.715 97.8223 201.668 99.8863C201.668 99.8863 203.037 98.3227 204.345 97.0093C205.59 95.8209 206.836 94.7577 206.275 94.2573C205.777 93.8195 203.909 95.8209 202.664 97.0093C200.36 99.2608 198.181 100.387 196.998 100.887C196.437 101.137 196.126 101.2 196.126 101.2C197.433 96.3838 196.064 96.5715 196.064 96.5715Z" fill="#8F5045"/>
<path d="M196.251 101.199C196.251 101.199 197.309 103.076 196.686 104.577C196.686 104.577 198.617 103.076 197.185 100.887C196.562 101.074 196.251 101.199 196.251 101.199Z" fill="#703E38"/>
<path d="M187.471 87.3774C187.471 87.3774 178.629 93.5693 173.399 105.828C168.169 118.087 179.314 156.489 179.314 156.489C179.314 156.489 185.79 155.675 189.464 150.922L188.53 126.405C188.53 126.405 199.987 102.451 200.236 98.5103C200.236 98.5103 198.243 89.9417 187.471 87.3774Z" fill="#662D34"/>
<path d="M191.145 88.1277C191.145 88.1277 192.515 92.3807 191.518 101.45C191.518 101.45 189.214 99.7609 184.918 100.011C184.918 100.011 174.146 112.27 174.022 130.908C174.022 130.908 169.414 113.145 172.714 104.076C176.014 95.0701 187.471 84.938 187.471 84.938L191.145 88.1277Z" fill="#522228"/>
<path d="M200.236 98.5103C200.236 98.5103 209.638 134.848 206.774 137.913C203.909 140.978 200.422 146.544 195.254 134.848C190.086 123.153 189.214 113.458 189.214 113.458C189.214 113.458 194.196 98.6979 200.236 98.5103Z" fill="#522228"/>
<path d="M193.449 116.21C193.449 116.21 200.049 116.085 201.605 111.707C201.605 111.644 196.5 109.893 193.449 116.21Z" fill="#7A4B51"/>
<path d="M193.947 105.828L196.313 115.46C196.313 115.46 200.298 114.584 201.17 112.02L199.364 105.828H193.947Z" fill="#8F5045"/>
<path d="M196.064 96.5715C196.064 96.5715 196.064 96.5715 194.507 101.137C192.95 105.703 193.822 105.703 195.254 107.829C196.624 109.831 200.547 107.704 201.917 106.391C203.1 105.265 207.147 104.702 207.832 103.514C208.143 103.013 207.645 103.013 206.4 103.389C204.968 103.827 203.473 103.701 203.473 103.701C203.847 102.075 209.264 101.075 209.389 99.2608C209.451 98.3852 203.971 102.075 203.1 101.512C203.1 101.512 203.162 100.887 205.715 98.8856C207.147 97.6972 208.704 96.5089 208.579 95.946C208.33 94.8828 205.715 97.8223 201.668 99.8863C201.668 99.8863 203.037 98.3227 204.345 97.0093C205.59 95.8209 206.836 94.7577 206.275 94.2573C205.777 93.8195 203.909 95.8209 202.664 97.0093C200.36 99.2608 198.181 100.387 196.998 100.887C196.437 101.137 196.126 101.2 196.126 101.2C197.433 96.3838 196.064 96.5715 196.064 96.5715Z" fill="#8F5045"/>
<path d="M196.25 101.199C196.25 101.199 197.309 103.076 196.686 104.577C196.686 104.577 198.617 103.076 197.184 100.887C196.562 101.074 196.25 101.199 196.25 101.199Z" fill="#703E38"/>
<path d="M177.82 59.7955C177.82 59.7955 175.64 71.116 184.544 72.3043C184.544 72.3043 187.72 66.9255 191.892 70.6782C191.892 70.6782 196.375 58.357 185.852 56.4182C185.852 56.4182 183.797 51.7274 175.64 53.2284C164.246 55.2924 161.07 69.1771 167.421 82.8743C167.359 82.8743 161.817 58.2319 177.82 59.7955Z" fill="#141515"/>
<path d="M181.431 62.7348C181.431 62.7348 184.669 66.9253 184.544 72.3041C184.544 72.3041 186.911 69.3645 188.156 71.9288C189.401 74.4931 184.42 78.2457 184.42 78.2457C184.42 78.2457 192.452 78.6836 193.449 68.2387C193.822 63.7981 188.094 59.7953 181.431 62.7348Z" fill="#141515"/>
<path fill-rule="evenodd" clip-rule="evenodd" d="M33.5492 161.804C32.0548 161.054 30.7472 160.053 29.5641 158.99L25.2678 160.491L21.2828 154.111L24.4583 150.859C23.9602 149.296 23.7111 147.669 23.6489 146.043L19.5393 144.104L21.1582 136.724H25.7037C26.4508 135.223 27.4471 133.91 28.5056 132.721L27.0112 128.406L33.3624 124.341L36.6002 127.53C38.1569 127.03 39.7758 126.78 41.3947 126.717L43.325 122.589L50.6724 124.215V128.781C52.1667 129.532 53.4743 130.532 54.6574 131.596L58.9538 130.095L63.0011 136.474L59.8255 139.726C60.3236 141.29 60.5727 142.916 60.6349 144.542L64.7445 146.481L63.1256 153.861H58.5802C57.833 155.362 56.8367 156.676 55.7782 157.864L57.2726 162.18L50.9214 166.245L47.6836 163.055C46.1269 163.556 44.508 163.806 42.8891 163.868L40.9588 167.996L33.6114 166.37L33.5492 161.804ZM40.0249 153.173C44.3835 154.174 48.6798 151.422 49.6761 147.044C50.6724 142.666 47.9327 138.35 43.574 137.35C39.2154 136.349 34.919 139.101 33.9228 143.479C32.9265 147.857 35.6662 152.173 40.0249 153.173Z" fill="#A42A29"/>
<path d="M85.3546 140.289C85.3546 140.289 84.9187 140.289 84.2338 139.914C83.5489 139.601 82.6149 138.913 82.0545 137.663C81.7432 137.037 81.5564 136.287 81.6186 135.474C81.6809 134.66 81.8677 133.785 82.3658 133.034C82.6149 132.659 82.9262 132.284 83.2375 131.971C83.6111 131.658 83.9847 131.408 84.4829 131.221C85.3546 130.783 86.4131 130.72 87.4716 130.908C88.4679 131.158 89.4019 131.721 90.0245 132.471C90.3359 132.847 90.5849 133.285 90.7717 133.722C90.9585 134.16 91.0831 134.598 91.1453 135.036C91.2699 135.911 91.0831 136.787 90.7717 137.538C90.4604 138.288 89.9623 138.851 89.4642 139.289C88.4056 140.164 87.2848 140.352 86.5376 140.352C85.7905 140.415 85.3546 140.289 85.3546 140.289C85.3546 140.227 85.7904 140.352 86.4754 140.352C87.2226 140.352 88.2811 140.102 89.2773 139.226C89.7755 138.788 90.2113 138.225 90.5227 137.538C90.834 136.85 90.9585 135.974 90.834 135.161C90.7717 134.723 90.6472 134.285 90.4604 133.91C90.2736 133.472 90.0245 133.097 89.7132 132.784C89.0906 132.096 88.2188 131.533 87.2848 131.346C86.3508 131.158 85.2923 131.221 84.4829 131.596C84.047 131.783 83.6734 132.034 83.2998 132.346C82.9885 132.659 82.6771 132.972 82.4281 133.347C81.9299 134.035 81.7432 134.911 81.6809 135.661C81.6186 136.412 81.8054 137.162 82.0545 137.725C82.6149 138.913 83.4866 139.601 84.1093 139.977C84.981 140.164 85.4169 140.227 85.3546 140.289Z" fill="#263238"/>
<path d="M81.6186 145.293C81.6186 145.293 81.6186 145.356 81.6186 145.481C81.6186 145.606 81.6186 145.793 81.6186 145.981C81.6186 146.419 81.6186 147.107 81.6186 147.982L81.5563 147.92C82.6771 148.17 84.1092 148.483 85.7904 148.858L85.7282 148.921C86.0395 148.17 86.4131 147.42 86.849 146.544V146.481H86.9112C87.783 146.419 88.7169 146.294 89.7132 145.981H89.7755L89.8377 146.044C90.3981 146.606 91.0831 147.232 91.7057 147.92H91.5812C92.7642 147.169 93.9473 146.419 95.2549 145.543L95.1926 145.668C94.9436 144.918 94.6322 144.042 94.3209 143.167V143.104L94.3832 143.041C95.0058 142.416 95.5662 141.603 96.0021 140.727L96.0644 140.665H96.1266C96.9361 140.665 97.8701 140.665 98.7418 140.665L98.6173 140.727C98.9286 139.414 99.2399 137.913 99.5512 136.474L99.6135 136.599C98.8663 136.224 98.0569 135.849 97.2474 135.474L97.1851 135.411V135.349C97.1229 134.473 96.9983 133.535 96.687 132.597V132.534L96.7493 132.472C97.3097 131.909 97.9946 131.221 98.6173 130.595V130.783C97.8701 129.594 97.0606 128.344 96.3134 127.093L96.5002 127.155C95.6908 127.405 94.8813 127.718 94.0096 128.031H93.9473L93.885 127.968C93.2624 127.343 92.4529 126.78 91.5812 126.342C91.5189 126.28 91.6435 126.467 91.5189 126.217V126.155V126.092V125.904V125.592V124.904C91.5189 124.466 91.5189 124.028 91.5189 123.59L91.6435 123.715C90.2113 123.403 88.7792 123.09 87.4094 122.777L87.5339 122.715C87.1603 123.528 86.7867 124.341 86.4131 125.091L86.3508 125.154H86.2886C85.3546 125.216 84.4206 125.342 83.5489 125.654H83.4866L83.4243 125.592C82.8017 124.966 82.179 124.341 81.5563 123.715H81.7431C80.4978 124.528 79.2525 125.279 78.0694 126.029L78.1317 125.904C78.443 126.78 78.7544 127.593 79.0034 128.406V128.469L78.9412 128.531C78.3185 129.219 77.7581 130.032 77.3222 130.845L77.26 130.908H77.1977C76.326 130.908 75.392 130.908 74.5825 130.908L74.7071 130.845C74.3957 132.346 74.0221 133.785 73.7731 135.098L73.7108 134.973C74.5203 135.349 75.3297 135.724 76.0769 136.099H76.1392V136.162C76.2015 137.162 76.326 138.1 76.6373 138.976V139.039L76.5751 139.101C75.8901 139.789 75.2675 140.415 74.7071 140.977V140.852C75.5788 142.291 76.3883 143.542 77.0109 144.542H76.9486C77.9449 144.167 78.7544 143.917 79.4393 143.667C80.1242 144.292 80.7469 144.73 81.1205 144.98C81.3073 145.105 81.4941 145.168 81.5563 145.23C81.6186 145.293 81.6186 145.293 81.6186 145.293C81.6186 145.293 81.5563 145.293 81.4318 145.23C81.3073 145.168 81.1827 145.105 80.9959 144.98C80.5601 144.73 79.9997 144.355 79.2525 143.667H79.3148C78.6298 143.917 77.8204 144.23 76.8241 144.542H76.7618V144.48C76.0769 143.417 75.3297 142.228 74.3957 140.79L74.3335 140.727L74.3957 140.665C74.9561 140.102 75.5788 139.476 76.2637 138.788V138.851C76.0147 137.975 75.8279 137.037 75.7656 136.037L75.8279 136.099C75.0807 135.724 74.2712 135.349 73.4617 134.973L73.3995 134.911V134.848C73.7108 133.472 74.0221 132.096 74.3335 130.595V130.533H74.3957C75.2675 130.533 76.1392 130.533 77.0109 130.533L76.8864 130.595C77.3222 129.782 77.8826 128.969 78.5676 128.219V128.344C78.2562 127.531 78.0072 126.717 77.6958 125.842L77.6336 125.779L77.6958 125.717C78.8789 124.966 80.1242 124.153 81.3695 123.403L81.4318 123.34L81.4941 123.403C82.1167 124.028 82.7394 124.654 83.3621 125.279L83.2375 125.216C84.1715 124.904 85.1055 124.779 86.0395 124.716L85.915 124.779C86.2886 123.966 86.6622 123.215 87.0358 122.402L87.098 122.277H87.2226C88.5924 122.59 90.0245 122.902 91.4567 123.215H91.5812V123.34C91.5812 123.778 91.5812 124.216 91.5812 124.654V125.342V125.654V125.842V125.904V125.967C91.4566 125.717 91.5189 125.904 91.5189 125.842C92.3906 126.28 93.2001 126.905 93.885 127.531H93.7605C94.6322 127.218 95.4417 126.905 96.2511 126.655L96.3757 126.592L96.4379 126.655C97.2474 127.906 98.0569 129.157 98.7418 130.345L98.8041 130.408L98.7418 130.47C98.1191 131.096 97.4342 131.784 96.8738 132.346L96.9361 132.221C97.2474 133.159 97.3719 134.16 97.4342 135.036L97.3719 134.911C98.1814 135.286 98.9909 135.724 99.738 136.037L99.8003 136.099V136.224C99.489 137.725 99.1154 139.164 98.8663 140.477V140.54H98.7418C97.8078 140.54 96.9361 140.54 96.1266 140.54L96.2511 140.477C95.8153 141.353 95.1926 142.166 94.57 142.854V142.729C94.8813 143.604 95.1926 144.48 95.4417 145.23V145.293L95.3794 145.356C94.0718 146.169 92.8265 146.982 91.7057 147.67L91.6435 147.732L91.5812 147.67C90.9585 146.982 90.2736 146.356 89.7132 145.793H89.7755C88.7792 146.106 87.8452 146.231 86.9735 146.294L87.0358 146.231C86.5999 147.107 86.2263 147.92 85.915 148.608V148.67H85.8527C84.1092 148.295 82.6771 147.92 81.6186 147.67H81.5563V147.607C81.5563 146.732 81.5563 146.106 81.5563 145.668C81.5563 145.481 81.5563 145.293 81.5563 145.168C81.6186 145.356 81.6186 145.293 81.6186 145.293Z" fill="#263238"/>
<path fill-rule="evenodd" clip-rule="evenodd" d="M60.5726 120.088C59.8254 119.713 59.2028 119.212 58.5801 118.712L56.4631 119.462L54.4705 116.273L56.0895 114.647C55.8404 113.896 55.7159 113.083 55.6536 112.27L53.5988 111.269L54.4083 107.642H56.6499C57.0235 106.891 57.5216 106.266 58.0197 105.64L57.2725 103.514L60.4481 101.512L62.067 103.138C62.8142 102.888 63.6237 102.763 64.4331 102.701L65.4294 100.637L69.0408 101.45V103.701C69.788 104.077 70.4107 104.577 71.0333 105.077L73.1504 104.327L75.1429 107.517L73.524 109.143C73.773 109.893 73.8976 110.706 73.9598 111.519L76.0146 112.52L75.2052 116.148H72.9636C72.59 116.898 72.0919 117.524 71.5937 118.149L72.3409 120.276L69.1653 122.277L67.5464 120.651C66.7992 120.901 65.9898 121.026 65.1803 121.089L64.1841 123.153L60.5726 122.339V120.088ZM63.7482 115.835C65.9275 116.335 68.0446 114.959 68.5427 112.77C69.0408 110.581 67.671 108.455 65.4916 107.954C63.3123 107.454 61.1953 108.83 60.6972 111.019C60.2613 113.208 61.6311 115.335 63.7482 115.835Z" fill="#E7515B"/>
<g opacity="0.4">
<g opacity="0.4">
<g opacity="0.4">
<g opacity="0.4">
<path opacity="0.4" fill-rule="evenodd" clip-rule="evenodd" d="M60.5726 120.088C59.8254 119.713 59.2028 119.212 58.5801 118.712L56.4631 119.462L54.4705 116.273L56.0895 114.647C55.8404 113.896 55.7159 113.083 55.6536 112.27L53.5988 111.269L54.4083 107.642H56.6499C57.0235 106.891 57.5216 106.266 58.0197 105.64L57.2725 103.514L60.4481 101.512L62.067 103.138C62.8142 102.888 63.6237 102.763 64.4331 102.701L65.4294 100.637L69.0408 101.45V103.701C69.788 104.077 70.4107 104.577 71.0333 105.077L73.1504 104.327L75.1429 107.517L73.524 109.143C73.773 109.893 73.8976 110.706 73.9598 111.519L76.0146 112.52L75.2052 116.148H72.9636C72.59 116.898 72.0919 117.524 71.5937 118.149L72.3409 120.276L69.1653 122.277L67.5464 120.651C66.7992 120.901 65.9898 121.026 65.1803 121.089L64.1841 123.153L60.5726 122.339V120.088ZM63.7482 115.835C65.9275 116.335 68.0446 114.959 68.5427 112.77C69.0408 110.581 67.671 108.455 65.4916 107.954C63.3123 107.454 61.1953 108.83 60.6972 111.019C60.2613 113.208 61.6311 115.335 63.7482 115.835Z" fill="white"/>
</g>
</g>
</g>
</g>
</svg>
