<svg width="48" height="48" viewBox="0 0 48 48" fill="none" xmlns="http://www.w3.org/2000/svg">
<mask id="mask0_3_15062" style="mask-type:alpha" maskUnits="userSpaceOnUse" x="0" y="0" width="48" height="48">
<path fill-rule="evenodd" clip-rule="evenodd" d="M23.8602 47.7204C37.0378 47.7204 47.7204 37.0378 47.7204 23.8602C47.7204 10.6826 37.0378 0 23.8602 0C10.6826 0 0 10.6826 0 23.8602C0 37.0378 10.6826 47.7204 23.8602 47.7204Z" fill="white"/>
</mask>
<g mask="url(#mask0_3_15062)">
<path d="M0 35.7903H47.7204V47.7204H0V35.7903Z" fill="#215E3C"/>
</g>
<mask id="mask1_3_15062" style="mask-type:alpha" maskUnits="userSpaceOnUse" x="0" y="0" width="48" height="48">
<path fill-rule="evenodd" clip-rule="evenodd" d="M23.8602 47.7204C37.0378 47.7204 47.7204 37.0378 47.7204 23.8602C47.7204 10.6826 37.0378 0 23.8602 0C10.6826 0 0 10.6826 0 23.8602C0 37.0378 10.6826 47.7204 23.8602 47.7204Z" fill="white"/>
</mask>
<g mask="url(#mask1_3_15062)">
<path d="M0 23.8602H47.7204V35.7903H0V23.8602Z" fill="#F1CC28"/>
</g>
<mask id="mask2_3_15062" style="mask-type:alpha" maskUnits="userSpaceOnUse" x="0" y="0" width="48" height="48">
<path fill-rule="evenodd" clip-rule="evenodd" d="M23.8602 47.7204C37.0378 47.7204 47.7204 37.0378 47.7204 23.8602C47.7204 10.6826 37.0378 0 23.8602 0C10.6826 0 0 10.6826 0 23.8602C0 37.0378 10.6826 47.7204 23.8602 47.7204Z" fill="white"/>
</mask>
<g mask="url(#mask2_3_15062)">
<path d="M0 0H47.7204V23.8602H0V0Z" fill="#2099CF"/>
</g>
<mask id="mask3_3_15062" style="mask-type:alpha" maskUnits="userSpaceOnUse" x="0" y="0" width="48" height="48">
<path fill-rule="evenodd" clip-rule="evenodd" d="M23.8602 47.7204C37.0378 47.7204 47.7204 37.0378 47.7204 23.8602C47.7204 10.6826 37.0378 0 23.8602 0C10.6826 0 0 10.6826 0 23.8602C0 37.0378 10.6826 47.7204 23.8602 47.7204Z" fill="white"/>
</mask>
<g mask="url(#mask3_3_15062)">
<path fill-rule="evenodd" clip-rule="evenodd" d="M42.5904 12.4669L37.2613 12.7783L42.3286 14.4587L37.1002 13.3802L41.5597 16.3144L36.7888 13.9194L40.3369 17.9083L36.348 14.3603L38.743 19.1311L35.8088 14.6716L36.8873 19.9L35.2069 14.8327L34.8955 20.1619L34.5842 14.8327L32.9038 19.9L33.9823 14.6716L31.0481 19.1311L33.443 14.3603L29.4542 17.9083L33.0022 13.9194L28.2314 16.3144L32.6909 13.3802L27.4625 14.4587L32.5298 12.7783L27.2006 12.4669L32.5298 12.1556L27.4625 10.4752L32.6909 11.5537L28.2314 8.61949L33.0022 11.0145L29.4542 7.02563L33.443 10.5736L31.0481 5.80279L33.9823 10.2623L32.9038 5.0339L34.5842 10.1012L34.8955 4.77203L35.2069 10.1012L36.8873 5.0339L35.8088 10.2623L38.743 5.80279L36.348 10.5736L40.3369 7.02563L36.7888 11.0145L41.5597 8.61949L37.1002 11.5537L42.3286 10.4752L37.2613 12.1556L42.5904 12.4669ZM34.8955 14.853L34.9409 14.8518C36.2221 14.8261 37.2547 13.7936 37.2804 12.5123L37.2816 12.4669L37.2804 12.4216C37.2547 11.1403 36.2221 10.1078 34.9409 10.0821L34.8955 10.0809L34.8502 10.0821C33.5689 10.1078 32.5364 11.1403 32.5107 12.4216L32.5095 12.4669L32.5107 12.5123C32.5364 13.7936 33.5689 14.8261 34.8502 14.8518L34.8955 14.853Z" fill="#DDBA25"/>
<path d="M34.9427 10.3076C34.9113 10.3064 34.8798 10.3064 34.8484 10.3076C33.6566 10.3353 32.7119 11.3222 32.7362 12.5141C32.7639 13.7059 33.7507 14.6506 34.9427 14.6263C36.1164 14.5994 37.0544 13.641 37.0561 12.4669L37.0549 12.4198C37.0287 11.2643 36.0982 10.3338 34.9427 10.3076Z" fill="#DDBA25"/>
</g>
</svg>
