<svg width="48" height="48" viewBox="0 0 48 48" fill="none" xmlns="http://www.w3.org/2000/svg">
<g clip-path="url(#clip0_3_15288)">
<path d="M24 48C37.2548 48 48 37.2548 48 24C48 10.7452 37.2548 0 24 0C10.7452 0 0 10.7452 0 24C0 37.2548 10.7452 48 24 48Z" fill="#F0F0F0"/>
<path d="M46.1277 14.6956C42.4931 6.06206 33.9551 0 24 0C17.3724 0 11.3731 2.68678 7.03021 7.03022L13.0405 14.6956H46.1277Z" fill="black"/>
<path d="M13.1087 33.2172L7.03021 40.9695C11.3731 45.3129 17.3724 47.9997 24 47.9997C33.9887 47.9997 42.5511 41.8972 46.1647 33.2172H13.1087Z" fill="#496E2D"/>
<path d="M5.21729 17.6522V30.2608H47.1732C47.7115 28.2648 47.9999 26.1663 47.9999 24C47.9999 21.8023 47.7038 19.6742 47.1504 17.6522H5.21729Z" fill="#A2001D"/>
<path d="M7.02936 7.02896C-2.3432 16.4015 -2.3432 31.5976 7.02936 40.9702C10.9025 37.0971 14.6274 33.3721 24 23.9996L7.02936 7.02896Z" fill="#0052B4"/>
<path d="M7.81735 18.0334L10.7466 22.121L15.5398 20.598L12.5575 24.6473L15.4868 28.7351L10.7141 27.1501L7.73176 31.1993L7.76457 26.1703L2.99176 24.5851L7.78464 23.0622L7.81735 18.0334Z" fill="#FFDA44"/>
</g>
<defs>
<clipPath id="clip0_3_15288">
<rect width="48" height="48" fill="white"/>
</clipPath>
</defs>
</svg>
