<svg width="48" height="48" viewBox="0 0 48 48" fill="none" xmlns="http://www.w3.org/2000/svg">
<path d="M0 24C0 10.7452 10.7452 0 24 0C37.2548 0 48 10.7452 48 24C48 37.2548 37.2548 48 24 48C10.7452 48 0 37.2548 0 24Z" fill="#929497" fill-opacity="0.2"/>
<path fill-rule="evenodd" clip-rule="evenodd" d="M15.1919 13.1611C14.234 13.1611 13.4441 13.9487 13.4441 14.9067V31.9513C13.4441 32.9093 14.234 33.6991 15.1919 33.6991H26.7923C27.6753 34.4113 28.783 34.8576 30.0021 34.8576C32.8374 34.8576 35.1494 32.5478 35.1494 29.7125C35.1494 28.4547 34.6756 27.3152 33.9218 26.4201H33.9843V14.9067C33.9843 13.9487 33.1944 13.1611 32.2365 13.1611H15.1919ZM15.1919 14.304H32.2365C32.5811 14.304 32.8414 14.5622 32.8414 14.9067V25.4268C32.0264 24.8851 31.0508 24.5674 30.0021 24.5674C29.8059 24.5674 29.6191 24.6016 29.4285 24.6232V24.5718H17.9999V25.7147H26.8035C26.0643 26.3076 25.4979 27.0914 25.174 28.0004H17.9999V29.1433H24.9151C24.8938 29.3325 24.857 29.5177 24.857 29.7125C24.857 30.7639 25.1765 31.7403 25.7209 32.5562H15.1919C14.8473 32.5562 14.5869 32.2959 14.5869 31.9513V14.9067C14.5869 14.5622 14.8473 14.304 15.1919 14.304ZM20.857 15.429C19.917 15.429 19.1428 16.2033 19.1428 17.1433C19.1428 18.0833 19.917 18.8576 20.857 18.8576C21.797 18.8576 22.5713 18.0833 22.5713 17.1433C22.5713 16.2033 21.797 15.429 20.857 15.429ZM26.2343 15.4424L20.2655 22.6254L21.145 23.3553L27.1115 16.1723L26.2343 15.4424ZM20.857 16.5718C21.1794 16.5718 21.4285 16.821 21.4285 17.1433C21.4285 17.4657 21.1794 17.7147 20.857 17.7147C20.5347 17.7147 20.2856 17.4657 20.2856 17.1433C20.2856 16.821 20.5347 16.5718 20.857 16.5718ZM26.5713 20.0004C25.6313 20.0004 24.857 20.7747 24.857 21.7147C24.857 22.6547 25.6313 23.429 26.5713 23.429C27.5113 23.429 28.2856 22.6547 28.2856 21.7147C28.2856 20.7747 27.5113 20.0004 26.5713 20.0004ZM26.5713 21.1433C26.8937 21.1433 27.1428 21.3924 27.1428 21.7147C27.1428 22.0371 26.8937 22.2861 26.5713 22.2861C26.249 22.2861 25.9999 22.0371 25.9999 21.7147C25.9999 21.3924 26.249 21.1433 26.5713 21.1433ZM30.0021 25.7102C32.2197 25.7102 34.0066 27.4948 34.0066 29.7125C34.0066 31.9301 32.2197 33.7147 30.0021 33.7147C27.7845 33.7147 25.9999 31.9301 25.9999 29.7125C25.9999 27.4948 27.7845 25.7102 30.0021 25.7102ZM27.1606 29.141V30.2839H32.8459V29.141H27.1606Z" fill="#A32A29" stroke="#A32A29" stroke-width="0.1"/>
</svg>
