<svg width="22" height="24" viewBox="0 0 22 24" fill="none" xmlns="http://www.w3.org/2000/svg">
<path d="M13.731 0.00608088C14.9573 -0.0383503 16.1803 0.161052 17.3291 0.5928C18.4839 1.02681 19.5405 1.68689 20.437 2.53437L21.1637 3.22134L19.7897 4.67472L19.063 3.98776C18.3599 3.32306 17.5312 2.80535 16.6255 2.46495C15.7197 2.12454 14.7552 1.96829 13.7883 2.00533L13.7692 2.00607H13.75C10.7728 2.00607 8.82646 3.22515 7.58942 4.96134C6.86292 5.981 6.36545 7.2038 6.07285 8.50604H13.75V10.506H5.7844C5.76135 10.8389 5.75 11.1729 5.75 11.5061C5.75 11.8392 5.76134 12.1732 5.7844 12.506H13.75V14.506H6.07284C6.36544 15.8083 6.86291 17.0311 7.58942 18.0508C8.82646 19.787 10.7728 21.0061 13.75 21.0061H13.7692L13.7883 21.0068C14.7552 21.0438 15.7197 20.8876 16.6255 20.5472C17.5312 20.2068 18.3599 19.6891 19.063 19.0244L19.7897 18.3374L21.1637 19.7908L20.437 20.4778C19.5405 21.3252 18.4839 21.9853 17.3291 22.4193C16.1803 22.8511 14.9573 23.0505 13.731 23.0061C10.1182 23.0007 7.57072 21.4712 5.96058 19.2113C4.97017 17.8213 4.35306 16.184 4.03025 14.506H0.75V12.506H3.7803C3.75989 12.1705 3.75 11.8366 3.75 11.5061C3.75 11.1755 3.75989 10.8416 3.7803 10.506H0.75V8.50604H4.03026C4.35307 6.82813 4.97018 5.19082 5.96058 3.80079C7.57072 1.54095 10.1183 0.0114228 13.731 0.00608088Z" fill="#A32A29"/>
</svg>
