<svg width="26" height="26" viewBox="0 0 26 26" fill="none" xmlns="http://www.w3.org/2000/svg">
<path d="M13 0.5C6.13914 0.5 0.555997 6.08333 0.500444 12.9167C0.472667 16.25 1.7504 19.4167 4.11143 21.7778C6.44468 24.1667 9.58347 25.4722 12.9167 25.5H13C19.8609 25.5 25.444 19.9167 25.4996 13.0833C25.5551 6.19444 19.972 0.555556 13 0.5ZM13 23.8056H12.9167C10.0279 23.7778 7.33354 22.6389 5.27806 20.5833C3.27813 18.5556 2.16705 15.8333 2.19483 12.9444C2.22261 7.02778 7.08355 2.19444 13.0833 2.19444C19.0554 2.22222 23.8608 7.11111 23.8331 13.0833C23.7774 19 18.9165 23.8056 13 23.8056Z" fill="#A32A29"/>
<path d="M8.39391 11.6111H8.34683C7.59353 11.6111 6.98148 12.2337 6.98148 13C6.98148 13.7663 7.59353 14.3889 8.34683 14.3889H8.39391C9.14721 14.3889 9.75926 13.7663 9.75926 13C9.75926 12.2337 9.14721 11.6111 8.39391 11.6111Z" fill="#A32A29"/>
<path d="M13.0235 11.6111H12.9765C12.2232 11.6111 11.6111 12.2337 11.6111 13C11.6111 13.7663 12.2232 14.3889 12.9765 14.3889H13.0235C13.7768 14.3889 14.3889 13.7663 14.3889 13C14.3889 12.2337 13.7768 11.6111 13.0235 11.6111Z" fill="#A32A29"/>
<path d="M17.6532 11.6111H17.6061C16.8528 11.6111 16.2407 12.2337 16.2407 13C16.2407 13.7663 16.8528 14.3889 17.6061 14.3889H17.6532C18.4065 14.3889 19.0185 13.7663 19.0185 13C19.0185 12.2337 18.4065 11.6111 17.6532 11.6111Z" fill="#A32A29"/>
</svg>
