<svg width="120" height="78" viewBox="0 0 120 78" fill="none" xmlns="http://www.w3.org/2000/svg">
<path d="M15.0599 59.6855V54.7056H0.180664V77.1068H15.0599V72.1268H5.24242V68.4112H12.4067V63.4011H5.24242V59.6855H15.0599Z" fill="#F7F7F7"/>
<path d="M38.6267 72.6834C39.3091 71.7398 39.859 70.7098 40.2615 69.6215C40.7032 68.4413 40.9296 67.1937 40.9303 65.936C40.9441 64.3489 40.6109 62.7774 39.9534 61.3281C38.7262 58.6102 36.4799 56.4634 33.683 55.3354C32.2592 54.7592 30.7321 54.4709 29.1926 54.4875C27.6532 54.5041 26.1328 54.8254 24.7222 55.4321C23.3453 56.0336 22.0988 56.8899 21.0505 57.9543C20.0206 59.0147 19.2002 60.2542 18.6311 61.6097C17.7157 63.7371 17.4887 66.0903 17.9811 68.3492C18.4734 70.608 19.6611 72.6627 21.3827 74.2338C22.4658 75.2165 23.7259 75.9917 25.0981 76.5195C26.4543 77.0444 27.8983 77.315 29.3556 77.3172C30.3727 77.3202 31.3853 77.1856 32.3651 76.9173C33.2058 76.693 34.0232 76.3914 34.8064 76.0163L35.8052 77.1151H42.6809L38.6267 72.6834ZM27.1788 67.6777C27.8585 68.4324 28.5928 69.228 29.3643 70.043C30.02 70.7418 30.6473 71.4277 31.2352 72.0835C30.6258 72.2574 29.9944 72.345 29.36 72.3437C28.4889 72.3499 27.6258 72.1793 26.8247 71.8427C26.0463 71.5165 25.3369 71.0497 24.7331 70.4666C24.1329 69.8846 23.654 69.1929 23.3235 68.4303C22.9817 67.642 22.8084 66.793 22.8142 65.936C22.811 65.074 22.9858 64.2203 23.3278 63.4267C23.6566 62.6561 24.1304 61.9535 24.7244 61.356C25.3304 60.7529 26.0524 60.2746 26.8483 59.949C27.6442 59.6234 28.498 59.457 29.36 59.4595C30.2202 59.4563 31.0719 59.6269 31.8624 59.9605C32.6376 60.2857 33.3407 60.7569 33.9322 61.3474C34.5296 61.9469 35.0097 62.6496 35.3484 63.4202C35.6976 64.2113 35.8762 65.065 35.8729 65.9274C35.8759 66.5158 35.7897 67.1014 35.6172 67.6648C35.4945 68.0645 35.3403 68.4541 35.1561 68.8302L30.774 64.0632L26.958 67.4218L27.1788 67.6777Z" fill="#F7F7F7"/>
<path d="M58.0121 54.7056V67.9553C58.0209 68.587 57.9104 69.2147 57.6864 69.8067C57.4952 70.3191 57.2025 70.789 56.8253 71.1893C56.4781 71.5544 56.0596 71.8469 55.5949 72.0494C55.1396 72.2451 54.6481 72.3461 54.1513 72.3461C53.6545 72.3461 53.163 72.2451 52.7077 72.0494C52.2424 71.847 51.8232 71.5545 51.4751 71.1893C51.0987 70.7885 50.8061 70.3187 50.614 69.8067C50.3914 69.2144 50.2817 68.5868 50.2905 67.9553V54.7056H45.2637V68.5144C45.2507 69.7245 45.4733 70.9259 45.9194 72.0537C46.3325 73.0912 46.9531 74.0367 47.7443 74.834C48.545 75.6251 49.5014 76.2471 50.555 76.6617C52.8715 77.5448 55.4398 77.5448 57.7564 76.6617C58.8124 76.2453 59.7726 75.6245 60.5801 74.8361C61.3808 74.0421 62.0079 73.0952 62.4225 72.0537C62.8682 70.9258 63.0908 69.7245 63.0782 68.5144V54.7056H58.0121Z" fill="#F7F7F7"/>
<path d="M74.312 54.7056H69.2808V77.1068H74.312V54.7056Z" fill="#F7F7F7"/>
<path d="M78.8447 54.7056V59.6855H84.9687V77.1068H90.0304V59.6855H96.091V54.7056H78.8447Z" fill="#F7F7F7"/>
<path d="M113.731 54.7056L108.884 61.3713L104.008 54.7056H97.7812L98.1637 55.2302C98.7946 56.0989 99.4627 57.0106 100.168 57.9653C100.873 58.92 101.578 59.8812 102.281 60.8488C102.988 61.825 103.694 62.789 104.399 63.7409C105.078 64.6612 105.724 65.5428 106.338 66.3857V77.1068H111.406V66.3857L120 54.7056H113.731Z" fill="#F7F7F7"/>
<path fill-rule="evenodd" clip-rule="evenodd" d="M19.8048 16.6177H0.180664V47.0029L19.8179 47.033L54.2142 23.3265L87.6861 47.0287H119.993L54.2033 0.419922L19.8048 24.1178V16.6177Z" fill="#F7F7F7"/>
</svg>
