<svg width="25" height="17" viewBox="0 0 25 17" fill="none" xmlns="http://www.w3.org/2000/svg">
<path fill-rule="evenodd" clip-rule="evenodd" d="M12.5714 3.5C9.81 3.5 7.57143 5.73858 7.57143 8.5C7.57143 11.2614 9.81 13.5 12.5714 13.5C15.3329 13.5 17.5714 11.2614 17.5714 8.5C17.5714 5.73858 15.3329 3.5 12.5714 3.5ZM9.57143 8.5C9.57143 6.84315 10.9146 5.5 12.5714 5.5C14.2283 5.5 15.5714 6.84315 15.5714 8.5C15.5714 10.1569 14.2283 11.5 12.5714 11.5C10.9146 11.5 9.57143 10.1569 9.57143 8.5Z" fill="currentColor"/>
<path fill-rule="evenodd" clip-rule="evenodd" d="M24.4902 8.10513C24.4902 8.10513 24.4906 8.10608 23.5714 8.5C24.4906 8.89392 24.4902 8.89487 24.4902 8.89487L24.4897 8.89598L24.4885 8.89868L24.4853 8.906L24.4755 8.92817C24.4674 8.94624 24.4563 8.97083 24.442 9.0015C24.4133 9.06283 24.3721 9.14858 24.3177 9.25525C24.2089 9.46846 24.0471 9.76613 23.8279 10.1201C23.3906 10.8265 22.7195 11.7661 21.7785 12.7071C19.8882 14.5975 16.8967 16.5 12.5714 16.5C8.2462 16.5 5.25467 14.5975 3.36432 12.7071C2.42333 11.7661 1.75223 10.8265 1.31491 10.1201C1.09579 9.76613 0.933975 9.46846 0.825197 9.25525C0.770771 9.14858 0.729509 9.06283 0.700889 9.0015C0.686575 8.97083 0.675412 8.94624 0.667335 8.92817L0.657522 8.906L0.654334 8.89868L0.653166 8.89598L0.652689 8.89487C0.652689 8.89487 0.652282 8.89392 1.57143 8.5C0.652282 8.10608 0.652689 8.10513 0.652689 8.10513L0.653166 8.10402L0.654334 8.10132L0.657522 8.094L0.667335 8.07183C0.675412 8.05376 0.686575 8.02917 0.700889 7.9985C0.729509 7.93717 0.770771 7.85142 0.825197 7.74475C0.933975 7.53154 1.09579 7.23387 1.31491 6.8799C1.75223 6.17346 2.42333 5.23388 3.36432 4.29289C5.25467 2.40255 8.2462 0.5 12.5714 0.5C16.8967 0.5 19.8882 2.40255 21.7785 4.29289C22.7195 5.23388 23.3906 6.17346 23.8279 6.8799C24.0471 7.23387 24.2089 7.53154 24.3177 7.74475C24.3721 7.85142 24.4133 7.93717 24.442 7.9985C24.4563 8.02917 24.4674 8.05376 24.4755 8.07183L24.4853 8.094L24.4885 8.10132L24.4897 8.10402L24.4902 8.10513ZM3.01544 9.0674C2.87867 8.84645 2.76971 8.65387 2.68719 8.5C2.76971 8.34613 2.87867 8.15354 3.01544 7.9326C3.39063 7.32654 3.96952 6.51612 4.77853 5.70711C6.38819 4.09745 8.89666 2.5 12.5714 2.5C16.2462 2.5 18.7547 4.09745 20.3643 5.70711C21.1733 6.51612 21.7522 7.32654 22.1274 7.9326C22.2642 8.15354 22.3731 8.34613 22.4557 8.5C22.3731 8.65387 22.2642 8.84645 22.1274 9.0674C21.7522 9.67346 21.1733 10.4839 20.3643 11.2929C18.7547 12.9025 16.2462 14.5 12.5714 14.5C8.89666 14.5 6.38819 12.9025 4.77853 11.2929C3.96952 10.4839 3.39063 9.67346 3.01544 9.0674Z" fill="currentColor"/>
<path d="M23.5714 8.5L24.4906 8.10608L24.6594 8.5L24.4906 8.89392L23.5714 8.5Z" fill="currentColor"/>
<path d="M0.652282 8.10608L1.57143 8.5L0.652282 8.89392L0.483459 8.5L0.652282 8.10608Z" fill="currentColor"/>
</svg>
