<svg width="199" height="143" viewBox="0 0 199 143" fill="none" xmlns="http://www.w3.org/2000/svg">
<path d="M15.262 111.796C-18.424 67.202 8.84859 6.78453 57.1048 1.40575C60.8408 0.967944 104.053 -0.595654 127.279 5.5962C138.175 4.84567 155.61 3.09444 165.51 9.41138C188.486 24.1092 191.288 36.9307 186.618 59.8843C182.073 82.3376 166.32 101.288 149.944 117.3C133.692 133.186 111.214 143.381 86.1831 142.505C60.9653 141.692 30.5172 131.935 15.262 111.796Z" fill="#F7F7F7"/>
<path d="M186.804 135.875C195.272 136.313 199.008 138.189 186.181 140.003C178.46 141.128 164.326 141.191 142.035 141.941C86.7422 143.818 10.8398 140.44 10.8398 138.877C10.8398 137.688 24.4139 135.75 57.2281 135.249C67.3775 135.124 80.6401 133.498 94.7745 133.498C154.55 133.561 162.396 134.686 186.804 135.875Z" fill="#E0E0E0"/>
<path opacity="0.8" d="M171.551 118.425H26.6576C22.8594 118.425 19.7461 115.298 19.7461 111.483V41.1836H178.462V111.546C178.462 115.361 175.349 118.425 171.551 118.425Z" fill="#F5F5F5"/>
<path d="M171.55 118.426L58.6612 118.551L30.4547 118.613H26.9055C25.7225 118.676 24.4771 118.363 23.4186 117.8C22.3601 117.237 21.4261 116.424 20.7412 115.424C20.0563 114.423 19.6204 113.234 19.5581 111.984C19.4959 107.23 19.5581 102.539 19.4959 97.7861L19.4336 41.1213V40.8086H19.7449L178.461 41.0588H178.523V41.1213L178.461 81.7123V102.039V107.105V109.669C178.461 110.545 178.461 111.358 178.399 112.234C178.212 113.922 177.403 115.549 176.157 116.674C174.912 117.8 173.231 118.426 171.55 118.426ZM171.55 118.426C173.231 118.426 174.912 117.8 176.157 116.612C177.403 115.486 178.212 113.86 178.399 112.171C178.461 111.358 178.399 110.483 178.461 109.607V107.043V101.977V81.6498L178.399 41.0588L178.461 41.1213L19.7449 41.4966L20.0563 41.1839L19.994 97.8487C19.994 102.539 19.9317 107.293 19.994 111.984C20.0563 113.109 20.4921 114.235 21.1148 115.173C21.7374 116.112 22.6092 116.925 23.6677 117.425C24.6639 117.925 25.847 118.175 26.9678 118.175H30.517L58.7235 118.238L171.55 118.426Z" fill="#A42A29"/>
<path d="M178.462 54.5051H19.7461V23.6084C19.7461 19.7932 22.8594 16.666 26.6576 16.666H171.551C175.349 16.666 178.462 19.7932 178.462 23.6084V54.5051Z" fill="#A42A29"/>
<path d="M125.907 64.9507C125.222 63.6998 119.618 70.5171 121.174 74.645C122.731 78.8355 125.907 78.1475 125.907 78.1475C125.907 78.1475 127.899 68.6408 125.907 64.9507Z" fill="#7A4B51"/>
<path d="M118.81 54.7559C118.81 54.7559 118.81 54.7559 121.923 58.446C125.037 62.1361 124.227 62.4488 123.667 65.0131C123.106 67.3897 118.686 66.8894 116.942 66.1389C115.448 65.5134 111.463 66.4516 110.342 65.6385C109.906 65.3258 110.342 65.1382 111.649 65.0131C113.144 64.888 114.514 64.2 114.514 64.2C113.58 62.824 108.163 63.8873 107.353 62.2611C106.979 61.4481 113.455 62.8866 114.078 62.0735C114.078 62.0735 113.766 61.5106 110.653 60.5725C108.847 60.0096 107.042 59.4467 106.917 58.8838C106.73 57.758 110.28 59.5717 114.763 60.0096C114.763 60.0096 112.957 59.0714 111.214 58.3209C109.595 57.6329 108.038 57.1951 108.412 56.5071C108.723 55.9442 111.151 57.07 112.77 57.758C115.759 59.0089 118.187 59.259 119.433 59.259C120.055 59.259 120.367 59.259 120.367 59.259C117.502 55.0686 118.81 54.7559 118.81 54.7559Z" fill="#8F5045"/>
<path d="M120.367 59.0713C120.367 59.0713 120.056 61.1978 121.177 62.3236C121.177 62.3236 118.811 61.6356 119.371 59.0713C119.994 59.1338 120.367 59.0713 120.367 59.0713Z" fill="#703E38"/>
<path d="M124.164 62.1357L127.153 69.4534L124.164 76.4583C124.164 76.4583 121.922 68.14 121.113 65.5757C120.366 62.8863 124.164 62.1357 124.164 62.1357Z" fill="#8F5045"/>
<path d="M158.286 50.8154C158.286 50.8154 147.888 54.6306 144.775 57.5076L136.306 83.8386C136.306 83.8386 135.995 82.0249 135.435 82.7754L125.908 64.9504C125.908 64.9504 125.721 74.6447 121.176 74.6447C121.176 74.6447 130.516 100.475 135.684 101.914C140.914 103.352 149.818 80.5864 149.818 80.5864L158.286 50.8154Z" fill="#522228"/>
<path d="M172.918 119.739C174.412 119.614 175.844 119.551 177.338 119.426C177.588 109.169 170.614 66.8893 170.614 66.8893C170.614 66.8893 152.93 65.2631 151.934 69.8914C146.704 94.2835 132.258 118.738 132.258 118.738C135.994 114.86 162.83 116.549 172.918 119.739Z" fill="#4F1F25"/>
<path d="M163.827 47.6253C163.827 47.6253 170.489 44.6857 176.404 46.8748L177.401 55.3807C177.401 55.3807 163.266 60.5719 158.721 59.0083C154.175 57.5072 152.992 53.8797 163.827 47.6253Z" fill="#7A4B51"/>
<path d="M156.42 120.427C159.346 120.364 162.273 120.239 165.199 120.114C164.701 112.171 160.778 104.541 161.152 97.2854L145.087 96.9102C142.348 103.29 140.48 111.545 139.234 119.989C145.025 120.051 150.754 120.552 156.42 120.427Z" fill="#0E3944"/>
<path d="M156.419 120.427C164.202 120.239 172.047 119.864 179.831 119.176C178.149 105.541 169.183 98.0359 169.183 98.0359L145.148 96.9102C145.148 96.9102 146.83 110.232 150.939 120.364C152.807 120.489 154.613 120.489 156.419 120.427Z" fill="#0E3944"/>
<path d="M137.988 120.052C144.153 119.989 150.379 120.614 156.419 120.427C164.576 120.239 172.733 119.864 180.89 119.113C178.71 103.79 174.788 92.9075 173.044 88.5919C173.044 88.5919 194.028 62.1984 184.127 53.6924C183.567 53.1921 183.007 52.7543 182.384 52.379C173.169 46.4373 159.096 50.8154 156.544 51.6285C156.295 51.691 156.17 51.7536 156.17 51.7536C156.17 51.7536 136.805 65.0754 147.889 84.0888C147.826 84.1513 143.343 100.225 137.988 120.052Z" fill="#D95D7B"/>
<path d="M178.21 22.7331C178.21 22.7331 182.444 18.3551 186.554 22.1077C190.663 25.8603 186.367 33.6158 186.554 35.0543C186.741 36.4928 190.103 36.8055 189.293 38.6193C188.484 40.4331 186.367 40.6833 186.554 41.5589C186.741 42.4345 188.795 43.8105 187.924 44.7486C187.052 45.6242 185.184 44.6861 185.308 46.2497C185.433 47.8133 186.491 49.8147 184.623 50.0023C184.623 50.0023 186.056 48.2511 184.748 47.6882C183.44 47.1253 182.444 47.7507 181.884 45.8744C181.323 44.0606 184.001 43.3101 182.818 42.3094C181.635 41.3087 178.957 41.3087 180.203 39.6826C181.448 38.0564 181.884 36.6179 179.58 35.3045C177.152 33.9285 178.21 22.7331 178.21 22.7331Z" fill="#222323"/>
<path d="M159.843 20.6066C155.048 20.4815 154.737 30.9889 160.465 36.5553C166.194 42.1217 167.626 20.7942 159.843 20.6066Z" fill="#222323"/>
<path d="M176.093 19.5436C176.093 19.5436 161.834 14.7277 158.97 24.7973C156.106 34.8669 158.721 45.4994 165.384 44.7488C174.848 43.8107 187.177 25.2351 176.093 19.5436Z" fill="#8F5045"/>
<path d="M170.43 24.7343C170.43 24.7343 173.668 28.9248 173.543 34.3036C173.543 34.3036 175.909 31.364 177.154 33.9283C178.4 36.4926 173.418 40.2453 173.418 40.2453C173.418 40.2453 181.451 40.6831 182.447 30.2382C182.821 25.7976 177.092 21.7948 170.43 24.7343Z" fill="#141515"/>
<path d="M173.232 37.9941C172.111 40.9337 167.939 46.0623 163.518 44.6238C163.518 44.6238 164.639 49.0019 162.771 50.628C162.771 50.628 160.841 54.0679 165.262 54.5057C170.803 55.1312 173.917 50.628 173.917 50.628C171.488 45.2492 174.788 38.557 174.788 38.557C173.605 39.3076 173.232 37.9941 173.232 37.9941Z" fill="#703E38"/>
<path d="M166.816 21.795C166.816 21.795 164.636 33.1155 173.54 34.3038C173.54 34.3038 176.716 28.9251 180.888 32.6777C180.888 32.6777 185.371 20.3565 174.848 18.4177C174.848 18.4177 172.793 13.7269 164.636 15.2279C153.242 17.2919 150.066 31.1766 156.417 44.8738C156.355 44.8738 150.813 20.2314 166.816 21.795Z" fill="#141515"/>
<path d="M182.322 52.4413C181.139 53.1293 179.707 53.8173 178.026 54.5678C147.515 68.2649 154.676 55.4434 154.676 55.4434C154.676 54.5052 154.987 53.6296 155.548 52.8791C155.797 52.5038 156.108 52.1286 156.482 51.7533C158.972 50.9402 172.546 46.7498 181.7 52.1286C181.949 52.1911 182.135 52.3162 182.322 52.4413Z" fill="#703E38"/>
<path d="M182.322 52.4416C181.139 53.1296 179.707 53.8176 178.026 54.5681C147.515 68.2652 154.676 55.4437 154.676 55.4437C154.676 54.5055 154.987 53.6299 155.548 52.8794C156.669 53.3797 158.91 54.443 159.657 54.6306L160.155 56.5069L162.771 54.8183C162.771 54.8183 171.924 55.0684 181.762 52.1914C181.949 52.1914 182.135 52.3165 182.322 52.4416Z" fill="#8F5045"/>
<path d="M181.512 119.051C181.699 118.3 181.761 117.425 181.699 116.362C181.512 113.922 182.695 112.296 184.377 111.546L177.59 88.4044C177.59 88.4044 189.047 64.4501 189.296 60.5098C189.296 60.5098 187.303 51.9413 176.469 49.377C176.469 49.377 167.627 55.5688 162.397 67.8274C158.785 76.3959 164.763 104.103 168.686 119.989C172.982 119.801 177.216 119.489 181.512 119.051Z" fill="#4F1F25"/>
<path d="M180.141 50.1272C180.141 50.1272 181.511 54.3802 180.514 63.4491C180.514 63.4491 178.211 61.7604 173.914 62.0106C173.914 62.0106 163.142 74.2692 163.018 92.9073C163.018 92.9073 158.41 75.1448 161.71 66.0759C165.01 57.0696 176.467 46.9375 176.467 46.9375L180.141 50.1272Z" fill="#0E3944"/>
<path d="M132.195 120.364C132.693 120.302 133.192 120.239 133.69 120.239L148.509 89.6552C148.509 89.6552 148.322 74.2069 148.509 69.4535C148.696 64.7002 158.285 50.8154 158.285 50.8154C148.945 54.5055 144.586 64.3875 143.715 69.4535C142.843 74.457 144.711 90.4683 144.711 90.4683C134.063 107.668 132.258 116.549 132.195 120.364Z" fill="#662D34"/>
<path d="M148.513 89.6555C148.513 89.6555 148.388 69.829 151.501 61.8234C154.677 53.8178 163.83 47.6885 163.83 47.6885C163.83 47.6885 152.311 51.5037 147.952 61.3231C147.952 61.3231 149.011 61.0103 150.131 61.1354C150.131 61.0729 145.337 65.6386 148.513 89.6555Z" fill="#432024"/>
<path d="M189.232 60.5098C189.232 60.5098 198.634 96.8478 195.77 99.9125C192.906 102.977 189.419 108.544 184.251 96.8478C179.083 85.1521 178.211 75.4578 178.211 75.4578C178.211 75.4578 183.192 60.6974 189.232 60.5098Z" fill="#0E3944"/>
<path d="M182.445 78.2096C182.445 78.2096 189.046 78.0845 190.602 73.7065C190.602 73.6439 185.496 71.8927 182.445 78.2096Z" fill="#082930"/>
<path d="M182.945 67.8271L185.311 77.4589C185.311 77.4589 189.296 76.5833 190.168 74.019L188.362 67.8271H182.945Z" fill="#8F5045"/>
<path d="M185.062 58.571C185.062 58.571 185.062 58.571 183.505 63.1367C181.948 67.7024 182.82 67.7024 184.252 69.8289C185.622 71.8303 189.545 69.7038 190.915 68.3904C192.098 67.2646 196.145 66.7017 196.83 65.5133C197.141 65.013 196.643 65.013 195.398 65.3883C193.966 65.8261 192.471 65.701 192.471 65.701C192.845 64.0748 198.262 63.0741 198.387 61.2604C198.449 60.3847 192.969 64.0748 192.098 63.5119C192.098 63.5119 192.16 62.8865 194.713 60.8851C196.145 59.6968 197.702 58.5084 197.577 57.9455C197.328 56.8823 194.713 59.8218 190.666 61.8858C190.666 61.8858 192.035 60.3222 193.343 59.0088C194.588 57.8204 195.834 56.7572 195.273 56.2568C194.775 55.819 192.907 57.8204 191.662 59.0088C189.358 61.2604 187.179 62.3861 185.996 62.8865C185.435 63.1367 185.124 63.1992 185.124 63.1992C186.431 58.3833 185.062 58.571 185.062 58.571Z" fill="#8F5045"/>
<path d="M185.246 63.1994C185.246 63.1994 186.305 65.0758 185.682 66.5768C185.682 66.5768 187.612 65.0758 186.18 62.8867C185.557 63.0744 185.246 63.1994 185.246 63.1994Z" fill="#703E38"/>
<path d="M176.469 49.377C176.469 49.377 167.627 55.5688 162.397 67.8274C157.166 80.086 168.312 118.488 168.312 118.488C168.312 118.488 174.788 117.675 178.461 112.922L177.527 88.4044C177.527 88.4044 188.984 64.4501 189.233 60.5098C189.233 60.5098 187.241 51.9413 176.469 49.377Z" fill="#662D34"/>
<path d="M180.145 50.1272C180.145 50.1272 181.515 54.3802 180.518 63.4491C180.518 63.4491 178.214 61.7604 173.918 62.0106C173.918 62.0106 163.146 74.2692 163.022 92.9073C163.022 92.9073 158.414 75.1448 161.714 66.0759C165.014 57.0696 176.471 46.9375 176.471 46.9375L180.145 50.1272Z" fill="#522228"/>
<path d="M189.232 60.5098C189.232 60.5098 198.634 96.8478 195.77 99.9125C192.906 102.977 189.419 108.544 184.251 96.8478C179.083 85.1521 178.211 75.4578 178.211 75.4578C178.211 75.4578 183.192 60.6974 189.232 60.5098Z" fill="#522228"/>
<path d="M182.445 78.2096C182.445 78.2096 189.046 78.0845 190.602 73.7065C190.602 73.6439 185.496 71.8927 182.445 78.2096Z" fill="#7A4B51"/>
<path d="M182.945 67.8271L185.311 77.4589C185.311 77.4589 189.296 76.5833 190.168 74.019L188.362 67.8271H182.945Z" fill="#8F5045"/>
<path d="M185.062 58.571C185.062 58.571 185.062 58.571 183.505 63.1367C181.948 67.7024 182.82 67.7024 184.252 69.8289C185.622 71.8303 189.545 69.7038 190.915 68.3904C192.098 67.2646 196.145 66.7017 196.83 65.5133C197.141 65.013 196.643 65.013 195.398 65.3883C193.966 65.8261 192.471 65.701 192.471 65.701C192.845 64.0748 198.262 63.0741 198.387 61.2604C198.449 60.3847 192.969 64.0748 192.098 63.5119C192.098 63.5119 192.16 62.8865 194.713 60.8851C196.145 59.6968 197.702 58.5084 197.577 57.9455C197.328 56.8823 194.713 59.8218 190.666 61.8858C190.666 61.8858 192.035 60.3222 193.343 59.0088C194.588 57.8204 195.834 56.7572 195.273 56.2568C194.775 55.819 192.907 57.8204 191.662 59.0088C189.358 61.2604 187.179 62.3861 185.996 62.8865C185.435 63.1367 185.124 63.1992 185.124 63.1992C186.431 58.3833 185.062 58.571 185.062 58.571Z" fill="#8F5045"/>
<path d="M185.246 63.1994C185.246 63.1994 186.305 65.0758 185.682 66.5768C185.682 66.5768 187.612 65.0758 186.18 62.8867C185.557 63.0744 185.246 63.1994 185.246 63.1994Z" fill="#703E38"/>
<path d="M166.819 21.795C166.819 21.795 164.64 33.1155 173.544 34.3038C173.544 34.3038 176.72 28.9251 180.892 32.6777C180.892 32.6777 185.375 20.3565 174.852 18.4177C174.852 18.4177 172.797 13.7269 164.64 15.2279C153.245 17.2919 150.07 31.1766 156.421 44.8738C156.359 44.8738 150.817 20.2314 166.819 21.795Z" fill="#141515"/>
<path d="M170.43 24.7343C170.43 24.7343 173.668 28.9248 173.543 34.3036C173.543 34.3036 175.909 31.364 177.154 33.9283C178.4 36.4926 173.418 40.2453 173.418 40.2453C173.418 40.2453 181.451 40.6831 182.447 30.2382C182.821 25.7976 177.092 21.7948 170.43 24.7343Z" fill="#141515"/>
<path fill-rule="evenodd" clip-rule="evenodd" d="M22.5489 123.804C21.0546 123.053 19.747 122.053 18.5639 120.989L14.2675 122.49L10.2825 116.111L13.4581 112.859C12.96 111.295 12.7109 109.669 12.6486 108.043L8.53906 106.104L10.158 98.7238H14.7034C15.4506 97.2227 16.4469 95.9093 17.5054 94.721L16.011 90.4055L22.3621 86.3401L25.6 89.5298C27.1566 89.0295 28.7755 88.7793 30.3945 88.7168L32.3247 84.5889L39.6721 86.215V90.7807C41.1665 91.5312 42.4741 92.5319 43.6571 93.5952L47.9535 92.0941L52.0008 98.4736L48.8252 101.726C49.3234 103.29 49.5724 104.916 49.6347 106.542L53.7443 108.481L52.1253 115.861H47.5799C46.8327 117.362 45.8365 118.675 44.7779 119.864L46.2723 124.179L39.9212 128.245L36.6833 125.055C35.1267 125.555 33.5078 125.805 31.8889 125.868L29.9586 129.996L22.6112 128.37L22.5489 123.804ZM29.0246 115.173C33.3832 116.174 37.6796 113.422 38.6759 109.044C39.6721 104.665 36.9324 100.35 32.5738 99.3492C28.2152 98.3485 23.9188 101.1 22.9225 105.479C21.9263 109.857 24.666 114.172 29.0246 115.173Z" fill="#A42A29"/>
<path d="M74.3534 102.288C74.3534 102.288 73.9175 102.288 73.2326 101.913C72.5476 101.6 71.6137 100.912 71.0533 99.6611C70.7419 99.0357 70.5551 98.2852 70.6174 97.4721C70.6797 96.659 70.8665 95.7834 71.3646 95.0329C71.6137 94.6576 71.925 94.2823 72.2363 93.9696C72.6099 93.6569 72.9835 93.4067 73.4816 93.2191C74.3534 92.7813 75.4119 92.7187 76.4704 92.9064C77.4667 93.1565 78.4007 93.7194 79.0233 94.47C79.3347 94.8452 79.5837 95.283 79.7705 95.7209C79.9573 96.1587 80.0818 96.5965 80.1441 97.0343C80.2686 97.9099 80.0818 98.7855 79.7705 99.536C79.4592 100.287 78.9611 100.849 78.4629 101.287C77.4044 102.163 76.2836 102.351 75.5364 102.351C74.7892 102.413 74.3534 102.288 74.3534 102.288C74.3534 102.225 74.7892 102.351 75.4742 102.351C76.2213 102.351 77.2799 102.1 78.2761 101.225C78.7743 100.787 79.2101 100.224 79.5215 99.536C79.8328 98.8481 79.9573 97.9724 79.8328 97.1594C79.7705 96.7216 79.646 96.2837 79.4592 95.9085C79.2724 95.4707 79.0233 95.0954 78.712 94.7827C78.0893 94.0947 77.2176 93.5318 76.2836 93.3442C75.3496 93.1565 74.2911 93.2191 73.4816 93.5944C73.0458 93.782 72.6722 94.0322 72.2986 94.3449C71.9873 94.6576 71.6759 94.9703 71.4269 95.3456C70.9287 96.0336 70.7419 96.9092 70.6797 97.6597C70.6174 98.4102 70.8042 99.1608 71.0533 99.7237C71.6137 100.912 72.4854 101.6 73.108 101.975C73.9798 102.163 74.4156 102.225 74.3534 102.288Z" fill="#263238"/>
<path d="M70.6176 107.292C70.6176 107.292 70.6176 107.354 70.6176 107.479C70.6176 107.604 70.6176 107.792 70.6176 107.98C70.6176 108.417 70.6176 109.105 70.6176 109.981L70.5553 109.918C71.6761 110.169 73.1082 110.481 74.7894 110.857L74.7271 110.919C75.0385 110.169 75.4121 109.418 75.8479 108.542V108.48H75.9102C76.7819 108.417 77.7159 108.292 78.7122 107.98H78.7744L78.8367 108.042C79.3971 108.605 80.082 109.23 80.7047 109.918H80.5801C81.7632 109.168 82.9463 108.417 84.2539 107.542L84.1916 107.667C83.9425 106.916 83.6312 106.041 83.3199 105.165V105.103L83.3821 105.04C84.0048 104.415 84.5652 103.601 85.001 102.726L85.0633 102.663H85.1256C85.935 102.663 86.869 102.663 87.7407 102.663L87.6162 102.726C87.9275 101.412 88.2389 99.9114 88.5502 98.4729L88.6125 98.5979C87.8653 98.2227 87.0558 97.8474 86.2464 97.4722L86.1841 97.4096V97.3471C86.1218 96.4715 85.9973 95.5333 85.686 94.5951V94.5326L85.7482 94.4701C86.3086 93.9072 86.9936 93.2192 87.6162 92.5937V92.7814C86.869 91.593 86.0596 90.3421 85.3124 89.0913L85.4992 89.1538C84.6897 89.404 83.8803 89.7167 83.0085 90.0294H82.9463L82.884 89.9669C82.2613 89.3414 81.4519 88.7786 80.5801 88.3407C80.5179 88.2782 80.6424 88.4658 80.5179 88.2157V88.1531V88.0906V87.9029V87.5902V86.9022C80.5179 86.4644 80.5179 86.0266 80.5179 85.5888L80.6424 85.7139C79.2103 85.4012 77.7782 85.0885 76.4083 84.7757L76.5329 84.7132C76.1593 85.5263 75.7857 86.3393 75.4121 87.0899L75.3498 87.1524H75.2875C74.3535 87.2149 73.4195 87.34 72.5478 87.6528H72.4856L72.4233 87.5902C71.8006 86.9648 71.178 86.3393 70.5553 85.7139H70.7421C69.4968 86.527 68.2515 87.2775 67.0684 88.028L67.1307 87.9029C67.442 88.7786 67.7533 89.5916 68.0024 90.4047V90.4672L67.9401 90.5298C67.3175 91.2178 66.7571 92.0308 66.3212 92.8439L66.2589 92.9065H66.1967C65.3249 92.9065 64.391 92.9065 63.5815 92.9065L63.706 92.8439C63.3947 94.345 63.0211 95.7835 62.772 97.0969L62.7098 96.9718C63.5192 97.3471 64.3287 97.7223 65.0759 98.0976H65.1381V98.1601C65.2004 99.1608 65.3249 100.099 65.6363 100.975V101.037L65.574 101.1C64.8891 101.788 64.2664 102.413 63.706 102.976V102.851C64.5778 104.289 65.3872 105.54 66.0099 106.541H65.9476C66.9439 106.166 67.7533 105.916 68.4383 105.665C69.1232 106.291 69.7458 106.729 70.1194 106.979C70.3062 107.104 70.493 107.166 70.5553 107.229C70.6176 107.292 70.6176 107.292 70.6176 107.292C70.6176 107.292 70.5553 107.292 70.4308 107.229C70.3062 107.166 70.1817 107.104 69.9949 106.979C69.559 106.729 68.9986 106.353 68.2515 105.665H68.3137C67.6288 105.916 66.8193 106.228 65.8231 106.541H65.7608V106.478C65.0759 105.415 64.3287 104.227 63.3947 102.788L63.3324 102.726L63.3947 102.663C63.9551 102.1 64.5778 101.475 65.2627 100.787V100.85C65.0136 99.9739 64.8268 99.0358 64.7646 98.0351L64.8268 98.0976C64.0796 97.7223 63.2702 97.3471 62.4607 96.9718L62.3984 96.9093V96.8467C62.7098 95.4707 63.0211 94.0948 63.3324 92.5937V92.5312H63.3947C64.2664 92.5312 65.1381 92.5312 66.0099 92.5312L65.8853 92.5937C66.3212 91.7807 66.8816 90.9676 67.5665 90.2171V90.3421C67.2552 89.5291 67.0061 88.716 66.6948 87.8404L66.6325 87.7778L66.6948 87.7153C67.8779 86.9648 69.1232 86.1517 70.3685 85.4012L70.4308 85.3386L70.493 85.4012C71.1157 86.0266 71.7384 86.6521 72.361 87.2775L72.2365 87.215C73.1705 86.9022 74.1045 86.7771 75.0385 86.7146L74.9139 86.7771C75.2875 85.9641 75.6611 85.2135 76.0347 84.4005L76.097 84.2754H76.2215C77.5914 84.5881 79.0235 84.9008 80.4556 85.2135H80.5801V85.3386C80.5801 85.7764 80.5801 86.2143 80.5801 86.6521V87.34V87.6528V87.8404V87.9029V87.9655C80.4556 87.7153 80.5179 87.9029 80.5179 87.8404C81.3896 88.2782 82.1991 88.9036 82.884 89.5291H82.7595C83.6312 89.2164 84.4406 88.9036 85.2501 88.6535L85.3746 88.5909L85.4369 88.6535C86.2464 89.9043 87.0558 91.1552 87.7407 92.3436L87.803 92.4061L87.7407 92.4686C87.1181 93.0941 86.4332 93.7821 85.8728 94.345L85.935 94.2199C86.2464 95.158 86.3709 96.1587 86.4332 97.0343L86.3709 96.9093C87.1804 97.2845 87.9898 97.7223 88.737 98.0351L88.7993 98.0976V98.2227C88.4879 99.7237 88.1144 101.162 87.8653 102.476V102.538H87.7407C86.8068 102.538 85.935 102.538 85.1256 102.538L85.2501 102.476C84.8142 103.351 84.1916 104.164 83.5689 104.852V104.727C83.8803 105.603 84.1916 106.478 84.4407 107.229V107.292L84.3784 107.354C83.0708 108.167 81.8255 108.98 80.7047 109.668L80.6424 109.731L80.5801 109.668C79.9575 108.98 79.2726 108.355 78.7122 107.792H78.7744C77.7782 108.105 76.8442 108.23 75.9725 108.292L76.0347 108.23C75.5989 109.105 75.2253 109.918 74.9139 110.606V110.669H74.8517C73.1082 110.294 71.6761 109.918 70.6176 109.668H70.5553V109.606C70.5553 108.73 70.5553 108.105 70.5553 107.667C70.5553 107.479 70.5553 107.292 70.5553 107.166C70.6176 107.354 70.6176 107.292 70.6176 107.292Z" fill="#263238"/>
<path fill-rule="evenodd" clip-rule="evenodd" d="M49.5715 82.0869C48.8243 81.7117 48.2016 81.2113 47.5789 80.711L45.4619 81.4615L43.4694 78.2717L45.0883 76.6456C44.8392 75.8951 44.7147 75.082 44.6524 74.2689L42.5977 73.2682L43.4071 69.6407H45.6487C46.0223 68.8901 46.5204 68.2647 47.0186 67.6393L46.2714 65.5128L49.4469 63.5114L51.0658 65.1375C51.813 64.8873 52.6225 64.7622 53.432 64.6997L54.4282 62.6357L58.0397 63.4488V65.7004C58.7868 66.0757 59.4095 66.576 60.0322 67.0764L62.1492 66.3258L64.1417 69.5156L62.5228 71.1417C62.7719 71.8923 62.8964 72.7053 62.9587 73.5184L65.0135 74.5191L64.204 78.1467H61.9624C61.5888 78.8972 61.0907 79.5226 60.5926 80.1481L61.3398 82.2746L58.1642 84.276L56.5453 82.6498C55.7981 82.9 54.9886 83.0251 54.1792 83.0876L53.1829 85.1516L49.5715 84.3385V82.0869ZM52.747 77.8339C54.9263 78.3343 57.0434 76.9583 57.5415 74.7693C58.0397 72.5802 56.6698 70.4537 54.4905 69.9534C52.3112 69.453 50.1941 70.829 49.696 73.018C49.2601 75.2071 50.63 77.3336 52.747 77.8339Z" fill="#E7515B"/>
<g opacity="0.4">
<g opacity="0.4">
<g opacity="0.4">
<g opacity="0.4">
<path opacity="0.4" fill-rule="evenodd" clip-rule="evenodd" d="M49.5715 82.0869C48.8243 81.7117 48.2016 81.2113 47.5789 80.711L45.4619 81.4615L43.4694 78.2717L45.0883 76.6456C44.8392 75.8951 44.7147 75.082 44.6524 74.2689L42.5977 73.2682L43.4071 69.6407H45.6487C46.0223 68.8901 46.5204 68.2647 47.0186 67.6393L46.2714 65.5128L49.4469 63.5114L51.0658 65.1375C51.813 64.8873 52.6225 64.7622 53.432 64.6997L54.4282 62.6357L58.0397 63.4488V65.7004C58.7868 66.0757 59.4095 66.576 60.0322 67.0764L62.1492 66.3258L64.1417 69.5156L62.5228 71.1417C62.7719 71.8923 62.8964 72.7053 62.9587 73.5184L65.0135 74.5191L64.204 78.1467H61.9624C61.5888 78.8972 61.0907 79.5226 60.5926 80.1481L61.3398 82.2746L58.1642 84.276L56.5453 82.6498C55.7981 82.9 54.9886 83.0251 54.1792 83.0876L53.1829 85.1516L49.5715 84.3385V82.0869ZM52.747 77.8339C54.9263 78.3343 57.0434 76.9583 57.5415 74.7693C58.0397 72.5802 56.6698 70.4537 54.4905 69.9534C52.3112 69.453 50.1941 70.829 49.696 73.018C49.2601 75.2071 50.63 77.3336 52.747 77.8339Z" fill="white"/>
</g>
</g>
</g>
</g>
</svg>
