<?xml version="1.0" standalone="no"?>
<!DOCTYPE svg PUBLIC "-//W3C//DTD SVG 20010904//EN"
 "http://www.w3.org/TR/2001/REC-SVG-20010904/DTD/svg10.dtd">
<svg version="1.0" xmlns="http://www.w3.org/2000/svg"
 width="1024.000000pt" height="1024.000000pt" viewBox="0 0 1024.000000 1024.000000"
 preserveAspectRatio="xMidYMid meet">
<metadata>
Created by potrace 1.14, written by Peter Selinger 2001-2017
</metadata>
<g transform="translate(0.000000,1024.000000) scale(0.100000,-0.100000)"
fill="#000000" stroke="none">
<path d="M4575 8550 c-22 -16 -45 -33 -50 -37 -6 -4 -46 -32 -90 -62 -44 -30
-83 -60 -87 -65 -4 -6 -8 -7 -8 -2 0 5 -10 1 -22 -10 -13 -11 -36 -29 -53 -39
-16 -10 -34 -22 -40 -27 -5 -5 -111 -78 -235 -163 -124 -85 -232 -160 -241
-166 -9 -6 -81 -56 -160 -111 -79 -54 -153 -105 -164 -113 -86 -61 -152 -106
-165 -112 -8 -4 -17 -9 -20 -13 -3 -3 -48 -35 -100 -70 -52 -36 -97 -67 -100
-70 -13 -14 -102 -70 -110 -70 -6 0 -10 -3 -10 -7 0 -5 -21 -21 -48 -38 -26
-16 -49 -32 -52 -35 -3 -4 -54 -40 -115 -81 -144 -99 -321 -220 -415 -285 -41
-29 -120 -83 -175 -121 -117 -79 -305 -209 -320 -220 -6 -5 -32 -23 -58 -41
l-47 -33 0 316 c0 269 -2 316 -15 321 -21 9 -135 10 -135 2 0 -4 -13 -3 -29 2
-15 4 -34 4 -41 0 -7 -5 -23 -6 -34 -4 -37 9 -86 10 -86 2 0 -4 -10 -4 -22 1
-13 4 -35 5 -50 1 -14 -5 -29 -6 -32 -3 -8 8 -186 9 -186 1 0 -4 -13 -3 -29 2
-16 4 -31 6 -34 4 -9 -9 -44 -12 -56 -4 -7 4 -28 4 -47 0 -18 -4 -36 -5 -39
-2 -7 7 -211 6 -223 -1 -4 -3 -14 -2 -21 3 -8 4 -27 4 -42 0 -16 -5 -29 -6
-29 -2 0 6 -56 7 -70 2 -3 -1 -9 -1 -15 0 -26 6 -75 5 -75 -2 0 -3 -13 -3 -30
2 -18 5 -32 5 -36 -1 -3 -5 -12 -6 -21 0 -9 5 -29 5 -45 1 -15 -5 -28 -6 -28
-2 0 8 -58 8 -66 -1 -3 -3 -13 -3 -22 1 -15 5 -28 6 -94 3 l-23 -1 0 -1289 c0
-709 3 -1293 7 -1297 4 -4 380 -8 835 -8 l828 -2 70 45 c39 25 72 48 75 51 3
3 48 35 100 70 174 117 185 125 188 133 2 4 8 7 13 7 5 0 17 7 26 15 10 8 104
73 208 144 105 72 198 136 207 143 9 7 60 42 113 78 120 82 256 176 272 190 7
5 15 10 18 10 3 0 27 16 53 35 64 47 66 49 85 60 28 17 190 129 202 140 6 5
18 15 27 20 67 40 238 161 238 168 0 4 4 6 9 3 5 -3 14 1 21 9 6 7 35 29 63
47 29 18 58 38 65 46 8 7 28 20 45 29 18 9 34 19 37 23 5 6 50 37 255 178 44
30 83 59 86 64 3 6 9 9 13 8 4 -1 17 6 29 15 12 9 71 49 130 90 60 41 150 104
201 139 l92 65 60 -42 c32 -22 61 -44 64 -47 3 -3 34 -25 70 -50 36 -24 67
-48 68 -52 2 -4 8 -8 14 -8 6 0 23 -10 38 -22 15 -13 36 -29 46 -35 19 -13
327 -231 394 -279 19 -14 118 -83 220 -154 102 -71 192 -136 200 -143 8 -7 47
-35 85 -61 39 -26 104 -72 145 -102 41 -29 98 -69 125 -88 28 -19 158 -111
290 -205 132 -94 248 -176 259 -183 10 -7 52 -38 95 -68 42 -31 114 -82 161
-114 47 -33 87 -63 88 -68 2 -4 8 -8 13 -8 5 0 44 -26 88 -57 43 -32 87 -64
97 -71 11 -7 66 -46 124 -87 57 -41 111 -76 120 -76 44 -3 2726 -4 2733 -1 4
2 -29 30 -75 62 -46 33 -87 63 -93 67 -5 5 -39 29 -75 53 -36 24 -66 47 -68
52 -2 4 -8 8 -13 8 -8 0 -71 45 -122 86 -9 8 -21 14 -26 14 -5 0 -11 3 -13 8
-1 4 -30 25 -63 47 -33 22 -62 43 -65 46 -3 3 -36 28 -75 54 -38 27 -95 67
-127 89 -31 23 -66 48 -78 56 -13 8 -35 25 -50 38 -15 12 -31 22 -34 22 -3 0
-32 20 -63 43 -32 24 -83 61 -114 83 -165 114 -255 178 -259 184 -3 4 -23 18
-45 32 -34 22 -257 178 -334 235 -26 19 -110 79 -206 145 -33 23 -62 44 -65
47 -3 3 -13 11 -22 16 -28 17 -299 209 -313 223 -8 6 -18 12 -24 12 -6 0 -11
3 -11 8 0 4 -21 20 -48 37 -26 16 -49 32 -52 35 -3 4 -52 40 -110 80 -58 41
-106 77 -108 82 -2 4 -8 8 -13 8 -6 0 -30 15 -53 33 -24 17 -52 38 -62 45 -11
7 -125 88 -255 180 -130 92 -243 172 -252 177 -26 17 -301 213 -312 222 -5 5
-41 31 -80 58 -121 84 -129 90 -143 103 -7 6 -17 12 -21 12 -4 0 -16 8 -27 18
-10 9 -48 37 -84 62 -36 24 -69 48 -75 52 -12 10 -170 121 -450 318 -38 27
-79 57 -90 65 -11 9 -32 24 -47 33 -16 9 -28 20 -28 24 0 4 -5 8 -11 8 -5 0
-30 15 -53 33 -24 17 -54 39 -66 47 -19 13 -104 74 -136 97 -5 4 -17 13 -26
18 -34 21 -230 161 -243 173 -8 6 -18 12 -23 12 -6 0 -12 4 -14 8 -4 10 -278
202 -287 202 -3 0 -24 -14 -46 -30z"/>
<path d="M2378 3964 c-2 -1 -19 -6 -38 -9 -73 -13 -121 -26 -182 -49 -57 -21
-158 -70 -183 -88 -5 -5 -38 -28 -72 -54 -174 -127 -325 -362 -369 -573 -27
-133 -24 -324 8 -436 6 -22 13 -44 14 -50 7 -26 40 -112 49 -125 5 -8 10 -18
10 -21 0 -4 24 -44 54 -90 54 -82 179 -215 233 -247 15 -9 28 -20 28 -24 0 -4
5 -8 11 -8 6 0 31 -14 57 -32 26 -18 48 -31 50 -30 1 1 27 -9 58 -23 51 -23
156 -56 229 -70 63 -13 262 -12 339 1 80 15 221 59 244 76 6 6 12 7 12 4 0 -4
9 -2 21 4 17 10 26 5 63 -36 39 -42 48 -47 89 -48 25 -1 43 3 40 8 -4 5 0 6 7
1 16 -10 230 -13 236 -3 3 4 15 4 27 0 17 -6 199 -8 226 -3 3 1 -4 9 -15 20
-10 10 -50 53 -89 96 -38 43 -88 97 -110 120 -96 102 -126 138 -120 149 3 6
14 25 25 41 19 29 84 155 85 165 0 3 6 14 11 25 6 11 15 34 19 50 5 17 9 35
11 40 31 100 45 275 31 365 -3 14 -8 45 -12 70 -3 24 -11 52 -16 62 -5 10 -7
18 -4 18 7 0 -31 95 -72 178 -20 39 -40 72 -44 72 -5 0 -9 5 -9 11 0 18 -51
81 -128 157 -141 141 -330 239 -532 278 -37 7 -287 14 -292 8z m232 -429 c181
-30 349 -176 421 -366 25 -65 34 -222 18 -283 -6 -23 -13 -48 -14 -56 -2 -8
-4 -16 -5 -17 -2 -2 -3 -6 -4 -10 -1 -5 -8 -19 -15 -32 l-13 -24 -40 44 c-49
53 -189 206 -242 262 -21 23 -49 55 -62 70 l-24 28 -26 -20 c-15 -11 -48 -40
-74 -63 -26 -24 -76 -68 -111 -98 -34 -30 -75 -66 -90 -80 l-28 -25 41 -45
c70 -77 201 -219 260 -283 61 -65 66 -73 46 -75 -7 0 -35 -4 -63 -9 -52 -9
-103 -9 -170 0 -194 28 -373 177 -440 366 -44 126 -36 274 23 401 82 179 232
285 457 323 24 4 106 0 155 -8z"/>
<path d="M19 3943 c-1 -5 -2 -433 -3 -951 -1 -1049 -8 -961 68 -955 22 1 46 5
53 7 7 3 13 2 13 -2 0 -9 67 -8 75 0 4 3 21 2 39 -2 19 -4 40 -4 47 1 7 4 17
5 23 2 14 -9 66 -9 66 0 0 5 5 5 12 1 15 -9 193 -9 207 1 6 3 11 2 11 -2 0 -9
66 -10 75 -1 4 3 21 2 39 -2 19 -4 40 -4 47 1 7 4 17 5 23 2 14 -9 66 -9 66 0
0 5 5 5 12 1 15 -9 193 -9 207 1 6 3 11 2 11 -2 0 -9 66 -10 75 -1 4 3 21 2
39 -2 60 -13 61 -11 62 212 0 112 -3 205 -7 208 -4 3 -192 5 -418 4 -282 0
-411 3 -412 10 0 6 -1 77 -2 158 l-2 146 32 4 c17 2 40 1 50 -3 10 -4 22 -4
26 -2 12 7 164 6 175 -1 5 -3 12 -3 15 0 8 8 262 8 275 0 6 -3 13 -2 17 4 4 6
10 8 15 5 6 -3 9 84 9 209 l0 215 -187 0 c-103 -1 -241 0 -307 0 l-120 1 1
150 c0 82 4 153 8 157 4 5 191 9 414 9 224 1 409 2 412 3 3 1 5 96 5 211 l0
210 -632 0 c-348 0 -634 -3 -634 -7z"/>
<path d="M3867 3943 c-7 -11 -1 -1282 6 -1319 3 -18 18 -67 32 -110 68 -206
219 -364 418 -439 66 -25 81 -29 172 -45 76 -13 263 -4 340 16 37 10 160 57
165 63 3 4 23 15 44 26 56 28 206 181 236 240 14 28 28 52 32 55 4 3 9 15 11
25 1 11 5 25 9 30 9 15 38 128 45 178 3 23 6 321 6 662 l1 620 -217 3 -216 2
-4 -617 c-3 -680 -1 -652 -66 -747 -35 -50 -68 -79 -122 -106 -52 -27 -70 -31
-146 -32 -109 -1 -229 76 -278 178 -41 85 -43 124 -44 672 0 290 0 555 -1 590
l0 62 -209 0 c-116 0 -212 -3 -214 -7z"/>
<path d="M5912 2995 l0 -955 31 -1 c18 -1 39 -2 47 -3 8 0 30 2 48 5 17 4 32
4 32 0 0 -8 84 -6 106 3 8 3 14 2 14 -2 0 -7 139 -6 147 1 3 4 6 1542 3 1860
l0 47 -214 0 -214 0 0 -955z"/>
<path d="M6729 3943 c0 -5 -1 -99 -2 -210 -2 -172 0 -202 13 -205 8 -2 126 -3
263 -3 l247 1 0 -742 c0 -699 1 -743 18 -746 9 -2 32 -1 50 3 17 4 32 4 32 0
0 -8 67 -7 75 1 4 3 21 2 39 -2 19 -4 40 -4 47 1 7 4 18 5 23 2 14 -9 59 -8
74 1 7 4 12 4 12 -1 0 -15 60 -9 61 7 1 8 2 344 3 745 l1 730 257 0 258 0 0
40 c0 57 0 73 -1 88 0 6 0 26 0 42 1 17 0 44 -2 60 -1 17 1 40 5 52 4 12 3 25
-1 28 -5 3 -6 20 -2 37 4 18 5 43 3 56 l-3 22 -735 0 c-404 0 -734 -3 -735 -7z"/>
<path d="M8364 3928 c9 -13 19 -30 23 -38 7 -16 29 -43 56 -72 9 -10 17 -20
17 -23 0 -5 107 -153 137 -190 5 -5 33 -44 63 -85 30 -41 58 -76 62 -78 5 -2
8 -8 8 -13 0 -10 91 -132 102 -137 5 -2 8 -8 8 -13 0 -6 5 -15 10 -22 6 -7 47
-61 91 -122 80 -109 91 -124 119 -159 12 -15 14 -90 15 -478 l0 -461 81 0 c45
0 86 3 91 6 5 3 15 2 23 -3 7 -4 23 -4 36 0 12 5 24 6 27 4 9 -10 77 -12 77
-3 0 5 10 5 23 1 12 -5 33 -6 47 -3 l26 6 0 455 1 456 111 149 c61 83 124 168
140 190 80 109 215 293 230 313 9 13 40 54 67 91 28 36 66 89 86 116 20 28 51
69 68 93 l31 42 -268 0 -268 0 -49 -70 c-28 -39 -57 -79 -66 -89 -20 -25 -34
-44 -124 -171 -42 -58 -81 -112 -88 -120 -7 -9 -28 -37 -46 -63 -18 -27 -36
-47 -41 -45 -7 2 -104 132 -208 276 -9 14 -27 37 -39 52 -13 15 -23 31 -23 34
0 4 -9 16 -20 28 -11 12 -32 40 -47 62 -15 23 -39 56 -53 73 l-25 33 -264 0
-263 0 16 -22z"/>
</g>
</svg>
