<svg width="32" height="32" viewBox="0 0 32 32" fill="none" xmlns="http://www.w3.org/2000/svg">
<path fill-rule="evenodd" clip-rule="evenodd" d="M24.1563 12.6789H18.0664C17.8766 12.6789 17.7226 12.5263 17.7226 12.3351C17.7226 12.1454 17.8766 11.9928 18.0664 11.9928H24.1563C24.346 11.9928 24.5 12.1454 24.5 12.3351C24.5 12.5263 24.346 12.6789 24.1563 12.6789Z" fill="#929497"/>
<path fill-rule="evenodd" clip-rule="evenodd" d="M24.1563 14.9549H18.0664C17.8766 14.9549 17.7226 14.8009 17.7226 14.6112C17.7226 14.4201 17.8766 14.2674 18.0664 14.2674H24.1563C24.346 14.2674 24.5 14.4201 24.5 14.6112C24.5 14.8009 24.346 14.9549 24.1563 14.9549Z" fill="#929497"/>
<path fill-rule="evenodd" clip-rule="evenodd" d="M24.1563 17.231H18.0664C17.8766 17.231 17.7226 17.077 17.7226 16.8872C17.7226 16.6961 17.8766 16.5435 18.0664 16.5435H24.1563C24.346 16.5435 24.5 16.6961 24.5 16.8872C24.5 17.077 24.346 17.231 24.1563 17.231Z" fill="#929497"/>
<path fill-rule="evenodd" clip-rule="evenodd" d="M24.1563 19.5056H18.0664C17.8766 19.5056 17.7226 19.353 17.7226 19.1619C17.7226 18.9721 17.8766 18.8181 18.0664 18.8181H24.1563C24.346 18.8181 24.5 18.9721 24.5 19.1619C24.5 19.353 24.346 19.5056 24.1563 19.5056Z" fill="#929497"/>
<path fill-rule="evenodd" clip-rule="evenodd" d="M24.1563 21.7815H18.0664C17.8766 21.7815 17.7226 21.6275 17.7226 21.4378C17.7226 21.248 17.8766 21.094 18.0664 21.094H24.1563C24.346 21.094 24.5 21.248 24.5 21.4378C24.5 21.6275 24.346 21.7815 24.1563 21.7815Z" fill="#929497"/>
<path fill-rule="evenodd" clip-rule="evenodd" d="M24.1563 24.0562H18.0664C17.8766 24.0562 17.7226 23.9036 17.7226 23.7124C17.7226 23.5227 17.8766 23.3701 18.0664 23.3701H24.1563C24.346 23.3701 24.5 23.5227 24.5 23.7124C24.5 23.9036 24.346 24.0562 24.1563 24.0562Z" fill="#929497"/>
<path fill-rule="evenodd" clip-rule="evenodd" d="M25.6675 26.2691H16.6173C16.4275 26.2691 16.2735 26.1165 16.2735 25.9254V11.8412C16.2735 11.6515 16.4275 11.4989 16.6173 11.4989C16.8084 11.4989 16.961 11.6515 16.961 11.8412V25.583H25.3238V11.8412C25.3238 11.6515 25.4778 11.4989 25.6675 11.4989C25.8573 11.4989 26.0113 11.6515 26.0113 11.8412V25.9254C26.0113 26.1165 25.8573 26.2691 25.6675 26.2691Z" fill="#929497"/>
<path fill-rule="evenodd" clip-rule="evenodd" d="M16.618 12.1847C16.4282 12.1847 16.2735 12.0324 16.2735 11.8412C16.2735 11.0272 15.6115 10.3642 14.7961 10.3642C14.6063 10.3642 14.4523 10.2088 14.4523 10.0205C14.4523 9.82934 14.6063 9.67672 14.7961 9.67672C15.9896 9.67672 16.961 10.6477 16.961 11.8412C16.961 12.0324 16.8077 12.1847 16.618 12.1847Z" fill="#929497"/>
<path fill-rule="evenodd" clip-rule="evenodd" d="M11.1529 22.0153C9.958 22.0153 8.98726 21.0445 8.98726 19.8497V8.51003C8.98726 7.69466 8.32451 7.03191 7.50913 7.03191C6.69376 7.03191 6.03101 7.69466 6.03101 8.51003V14.5477H8.27363C8.46201 14.5477 8.61601 14.7017 8.61601 14.8914C8.61601 15.0812 8.46201 15.2338 8.27363 15.2338H5.68726C5.49751 15.2338 5.34351 15.0812 5.34351 14.8914V8.51003C5.34351 7.31516 6.31426 6.34441 7.50913 6.34441C8.70263 6.34441 9.67476 7.31516 9.67476 8.51003V19.8497C9.67476 20.665 10.3375 21.3278 11.1529 21.3278C11.9683 21.3278 12.631 20.665 12.631 19.8497V11.8417C12.631 10.6468 13.6012 9.67672 14.7961 9.67672C14.9858 9.67672 15.139 9.83003 15.139 10.0198C15.139 10.2095 14.9858 10.3642 14.7961 10.3642C13.9807 10.3642 13.3185 11.0277 13.3185 11.8417V19.8497C13.3185 21.0445 12.3464 22.0153 11.1529 22.0153Z" fill="#929497"/>
<path fill-rule="evenodd" clip-rule="evenodd" d="M25.6675 12.1847C25.4778 12.1847 25.3238 12.0324 25.3238 11.8412C25.3238 11.0272 24.661 10.3642 23.8456 10.3642H14.7961C14.6063 10.3642 14.4523 10.2088 14.4523 10.0205C14.4523 9.82934 14.6063 9.67672 14.7961 9.67672H23.8456C25.0391 9.67672 26.0113 10.6477 26.0113 11.8412C26.0113 12.0324 25.8573 12.1847 25.6675 12.1847Z" fill="#929497"/>
<path fill-rule="evenodd" clip-rule="evenodd" d="M15.3249 22.0153H11.1529C10.9631 22.0153 10.8094 21.8613 10.8094 21.6715C10.8094 21.4818 10.9631 21.3278 11.1529 21.3278H15.3249C15.5147 21.3278 15.6687 21.4818 15.6687 21.6715C15.6687 21.8613 15.5147 22.0153 15.3249 22.0153Z" fill="#929497"/>
<path fill-rule="evenodd" clip-rule="evenodd" d="M18.4394 8.85337C18.2497 8.85337 18.0957 8.69937 18.0957 8.50962C18.0957 7.69424 17.4329 7.03149 16.6175 7.03149L7.50913 7.03191C7.31938 7.03191 7.16579 6.87749 7.16579 6.68774C7.16579 6.49662 7.31938 6.34441 7.50913 6.34441L16.6175 6.34399C17.811 6.34399 18.7832 7.31474 18.7832 8.50962C18.7832 8.69937 18.6292 8.85337 18.4394 8.85337Z" fill="#929497"/>
<path fill-rule="evenodd" clip-rule="evenodd" d="M18.0664 11.7428C17.7399 11.7428 17.4726 12.006 17.4726 12.3351C17.4726 12.665 17.7392 12.9289 18.0664 12.9289H24.1563C24.4834 12.9289 24.75 12.665 24.75 12.3351C24.75 12.006 24.4828 11.7428 24.1563 11.7428H18.0664ZM17.9726 12.3351C17.9726 12.2848 18.0134 12.2428 18.0664 12.2428H24.1563C24.2092 12.2428 24.25 12.2848 24.25 12.3351C24.25 12.3875 24.2086 12.4289 24.1563 12.4289H18.0664C18.0141 12.4289 17.9726 12.3875 17.9726 12.3351Z" fill="#929497"/>
<path fill-rule="evenodd" clip-rule="evenodd" d="M18.0664 14.0174C17.7392 14.0174 17.4726 14.2813 17.4726 14.6112C17.4726 14.939 17.7386 15.2049 18.0664 15.2049H24.1563C24.4841 15.2049 24.75 14.939 24.75 14.6112C24.75 14.2813 24.4834 14.0174 24.1563 14.0174H18.0664ZM17.9726 14.6112C17.9726 14.5588 18.0141 14.5174 18.0664 14.5174H24.1563C24.2086 14.5174 24.25 14.5588 24.25 14.6112C24.25 14.6629 24.2079 14.7049 24.1563 14.7049H18.0664C18.0147 14.7049 17.9726 14.6629 17.9726 14.6112Z" fill="#929497"/>
<path fill-rule="evenodd" clip-rule="evenodd" d="M17.4726 16.8872C17.4726 16.5574 17.7392 16.2935 18.0664 16.2935H24.1563C24.4834 16.2935 24.75 16.5574 24.75 16.8872C24.75 17.215 24.4841 17.481 24.1563 17.481H18.0664C17.7386 17.481 17.4726 17.215 17.4726 16.8872ZM18.0664 16.7935C18.0141 16.7935 17.9726 16.8348 17.9726 16.8872C17.9726 16.9389 18.0147 16.981 18.0664 16.981H24.1563C24.2079 16.981 24.25 16.9389 24.25 16.8872C24.25 16.8348 24.2086 16.7935 24.1563 16.7935H18.0664Z" fill="#929497"/>
<path fill-rule="evenodd" clip-rule="evenodd" d="M18.0664 18.5681C17.7386 18.5681 17.4726 18.8341 17.4726 19.1619C17.4726 19.4917 17.7392 19.7556 18.0664 19.7556H24.1563C24.4834 19.7556 24.75 19.4917 24.75 19.1619C24.75 18.8341 24.4841 18.5681 24.1563 18.5681H18.0664ZM17.9726 19.1619C17.9726 19.1102 18.0147 19.0681 18.0664 19.0681H24.1563C24.2079 19.0681 24.25 19.1102 24.25 19.1619C24.25 19.2143 24.2086 19.2556 24.1563 19.2556H18.0664C18.0141 19.2556 17.9726 19.2143 17.9726 19.1619Z" fill="#929497"/>
<path fill-rule="evenodd" clip-rule="evenodd" d="M17.4726 21.4378C17.4726 21.11 17.7386 20.844 18.0664 20.844H24.1563C24.4841 20.844 24.75 21.11 24.75 21.4378C24.75 21.7656 24.4841 22.0315 24.1563 22.0315H18.0664C17.7386 22.0315 17.4726 21.7656 17.4726 21.4378ZM18.0664 21.344C18.0147 21.344 17.9726 21.3861 17.9726 21.4378C17.9726 21.4895 18.0147 21.5315 18.0664 21.5315H24.1563C24.2079 21.5315 24.25 21.4895 24.25 21.4378C24.25 21.3861 24.2079 21.344 24.1563 21.344H18.0664Z" fill="#929497"/>
<path fill-rule="evenodd" clip-rule="evenodd" d="M18.0664 23.1201C17.7399 23.1201 17.4726 23.3833 17.4726 23.7124C17.4726 24.0423 17.7392 24.3062 18.0664 24.3062H24.1563C24.4834 24.3062 24.75 24.0423 24.75 23.7124C24.75 23.3833 24.4828 23.1201 24.1563 23.1201H18.0664ZM17.9726 23.7124C17.9726 23.6621 18.0134 23.6201 18.0664 23.6201H24.1563C24.2092 23.6201 24.25 23.6621 24.25 23.7124C24.25 23.7648 24.2086 23.8062 24.1563 23.8062H18.0664C18.0141 23.8062 17.9726 23.7648 17.9726 23.7124Z" fill="#929497"/>
<path fill-rule="evenodd" clip-rule="evenodd" d="M7.48393 6.09454C7.49242 6.09418 7.50096 6.09399 7.50954 6.09399H16.6175C17.949 6.09399 19.0332 7.17657 19.0332 8.50962C19.0332 8.83744 18.7672 9.10337 18.4394 9.10337C18.1116 9.10337 17.8457 8.83744 17.8457 8.50962C17.8457 7.83232 17.2948 7.28149 16.6175 7.28149H9.58859C9.80208 7.64155 9.92476 8.06162 9.92476 8.51003V19.8497C9.92476 20.527 10.4756 21.0778 11.1529 21.0778C11.8302 21.0778 12.381 20.527 12.381 19.8497V11.8417C12.381 10.5087 13.4637 9.42603 14.7966 9.42603C14.8063 9.42603 14.8159 9.42626 14.8255 9.42672H23.8456C25.177 9.42672 26.2613 10.5092 26.2613 11.841L26.2613 11.8431V25.9254C26.2613 26.2552 25.9947 26.5191 25.6675 26.5191H16.6173C16.2901 26.5191 16.0235 26.2552 16.0235 25.9254V11.8412C16.0235 11.8333 16.0237 11.8253 16.024 11.8174C16.0114 11.1524 15.4656 10.6142 14.7961 10.6142C14.7882 10.6142 14.7804 10.6141 14.7726 10.6138C14.1065 10.6266 13.5685 11.1736 13.5685 11.8417V19.8497C13.5685 20.2979 13.4459 20.7178 13.2326 21.0778H15.3249C15.6527 21.0778 15.9187 21.3437 15.9187 21.6715C15.9187 21.9994 15.6527 22.2653 15.3249 22.2653H11.1532C9.82021 22.2653 8.73726 21.1826 8.73726 19.8497V15.2602C8.62849 15.3966 8.46084 15.4838 8.27363 15.4838H5.68726C5.36074 15.4838 5.09351 15.2205 5.09351 14.8914V8.51003C5.09351 7.1855 6.16256 6.10808 7.48393 6.09454ZM6.91579 6.68832C6.14879 6.9385 5.59351 7.66026 5.59351 8.51003V14.8914C5.59351 14.9418 5.63427 14.9838 5.68726 14.9838H8.27363C8.32459 14.9838 8.36601 14.9424 8.36601 14.8914C8.36601 14.8391 8.32328 14.7977 8.27363 14.7977H5.78101V8.51003C5.78101 7.7536 6.26861 7.10969 6.94624 6.87588C6.92655 6.81693 6.91586 6.75386 6.91579 6.68832ZM8.72376 7.28149C9.04071 7.59488 9.23726 8.02978 9.23726 8.51003V19.8497C9.23726 20.6994 9.79247 21.4211 10.5594 21.6713C10.5594 21.6058 10.5701 21.5427 10.5897 21.4837C9.91224 21.2498 9.42476 20.606 9.42476 19.8497V8.51003C9.42476 8.0428 9.2566 7.61424 8.97776 7.28149H8.72376ZM9.19515 6.78149H16.6175C17.571 6.78149 18.3457 7.55617 18.3457 8.50962C18.3457 8.5613 18.3877 8.60337 18.4394 8.60337C18.4911 8.60337 18.5332 8.5613 18.5332 8.50962C18.5332 7.45292 17.6731 6.59399 16.6175 6.59399H8.97885C9.05462 6.65223 9.12684 6.71486 9.19515 6.78149ZM8.33435 6.78149H7.50954C7.45787 6.78149 7.41579 6.73942 7.41579 6.68774C7.41579 6.63846 7.45244 6.59895 7.50034 6.59443C7.50327 6.59441 7.5062 6.59441 7.50913 6.59441C7.80434 6.59441 8.08426 6.66159 8.33435 6.78149ZM11.979 21.5778C11.7286 21.6979 11.4484 21.7653 11.1529 21.7653C11.1016 21.7648 11.0594 21.7229 11.0594 21.6715C11.0594 21.6199 11.1015 21.5778 11.1532 21.5778H11.979ZM12.6231 21.7653C12.6989 21.707 12.7711 21.6444 12.8393 21.5778H15.3249C15.3766 21.5778 15.4187 21.6199 15.4187 21.6715C15.4187 21.7232 15.3766 21.7653 15.3249 21.7653H12.6231ZM12.3679 21.0778H12.6219C12.9005 20.7451 13.0685 20.3167 13.0685 19.8497V11.8417C13.0685 11.0868 13.5556 10.4424 14.2328 10.208C14.213 10.1489 14.2023 10.0859 14.2023 10.0205C13.4358 10.2709 12.881 10.9922 12.881 11.8417V19.8497C12.881 20.3297 12.6846 20.7644 12.3679 21.0778ZM14.7964 9.92672C14.7442 9.92694 14.703 9.96821 14.703 10.0205C14.703 10.0678 14.7398 10.108 14.7859 10.1136L14.7966 10.1135C14.847 10.1135 14.889 10.0728 14.889 10.0198C14.889 9.97092 14.8533 9.93245 14.8082 9.92676L14.7964 9.92672ZM16.0113 10.6142C16.198 10.7988 16.3428 11.0256 16.4303 11.2788C16.4891 11.2594 16.552 11.2489 16.6173 11.2489C16.5407 11.0143 16.4204 10.7994 16.2653 10.6142H16.0113ZM15.6222 10.1142H15.3816C15.3864 10.0837 15.389 10.0525 15.389 10.0207C15.4692 10.0468 15.5471 10.0781 15.6222 10.1142ZM16.4827 10.1142C16.4144 10.0476 16.3422 9.98496 16.2665 9.92672H23.8456C24.6947 9.92672 25.4171 10.4824 25.6674 11.2489C25.602 11.2489 25.5389 11.2595 25.4799 11.279C25.2461 10.6019 24.6021 10.1142 23.8456 10.1142H16.4827ZM16.876 10.6142C17.0892 10.9739 17.2117 11.3933 17.2117 11.841C17.2117 11.8507 17.2115 11.8604 17.211 11.87V25.333H25.0738V11.8412L25.0738 11.8394C25.0729 11.1643 24.5226 10.6142 23.8456 10.6142H16.876ZM25.5738 12.4274V25.833H16.711V12.4275C16.6807 12.4323 16.6496 12.4347 16.618 12.4347C16.5858 12.4347 16.5543 12.4322 16.5235 12.4273V25.9254C16.5235 25.9778 16.5649 26.0191 16.6173 26.0191H25.6675C25.7198 26.0191 25.7613 25.9778 25.7613 25.9254V12.4274C25.7307 12.4322 25.6994 12.4347 25.6675 12.4347C25.6356 12.4347 25.6043 12.4322 25.5738 12.4274ZM25.7613 11.8412C25.7613 11.7909 25.7205 11.7489 25.6675 11.7489C25.615 11.7489 25.5745 11.7901 25.5738 11.8399L25.5738 11.841C25.5738 11.8934 25.6152 11.9347 25.6675 11.9347C25.7196 11.9347 25.7608 11.8932 25.7613 11.8412ZM8.73726 14.5221V8.51003C8.73726 7.83273 8.18643 7.28191 7.50913 7.28191C6.83183 7.28191 6.28101 7.83273 6.28101 8.51003V14.2977H8.27363C8.46135 14.2977 8.62871 14.3855 8.73726 14.5221ZM16.711 11.8526C16.7054 11.8994 16.6663 11.9347 16.618 11.9347C16.5656 11.9347 16.5242 11.8934 16.5242 11.841L16.5242 11.8302C16.5296 11.7849 16.5682 11.7489 16.6173 11.7489C16.671 11.7489 16.711 11.7902 16.711 11.8412V11.8526Z" fill="#929497"/>
</svg>
