<svg width="20" height="20" viewBox="0 0 20 20" fill="none" xmlns="http://www.w3.org/2000/svg">
<path fill-rule="evenodd" clip-rule="evenodd" d="M10 17.5C14.1421 17.5 17.5 14.1421 17.5 10C17.5 5.85786 14.1421 2.5 10 2.5C5.85786 2.5 2.5 5.85786 2.5 10C2.5 14.1421 5.85786 17.5 10 17.5Z" fill="#2F9803"/>
<path fill-rule="evenodd" clip-rule="evenodd" d="M12.6824 9.9422C12.509 10.121 12.2278 10.121 12.0544 9.9422L10.4934 8.3328V12.8234C10.4934 13.0763 10.2835 13.2812 10.0247 13.2812C9.76578 13.2812 9.55591 13.0763 9.55591 12.8234V8.28195L7.94559 9.9422C7.77217 10.121 7.49099 10.121 7.31757 9.9422C7.14414 9.7634 7.14414 9.47351 7.31757 9.29471L9.68599 6.85285C9.85941 6.67405 10.1406 6.67405 10.314 6.85285L12.6824 9.29471C12.8559 9.47351 12.8559 9.7634 12.6824 9.9422Z" fill="white"/>
</svg>
