<svg width="32" height="32" viewBox="0 0 32 32" fill="inherit" xmlns="http://www.w3.org/2000/svg">
<path fill-rule="evenodd" clip-rule="evenodd" d="M14.5 7.25C18.2279 7.25 21.25 10.2721 21.25 14C21.25 15.7213 20.6057 17.2921 19.5451 18.4845L24.5303 23.4697C24.8232 23.7626 24.8232 24.2374 24.5303 24.5303C24.2374 24.8232 23.7626 24.8232 23.4697 24.5303L18.4288 19.4895C17.3221 20.2829 15.9656 20.75 14.5 20.75C10.7721 20.75 7.75 17.7279 7.75 14C7.75 10.2721 10.7721 7.25 14.5 7.25ZM19.75 14C19.75 11.1005 17.3995 8.75 14.5 8.75C11.6005 8.75 9.25 11.1005 9.25 14C9.25 16.8995 11.6005 19.25 14.5 19.25C17.3995 19.25 19.75 16.8995 19.75 14Z" fill="inherit"/>
</svg>
