<svg width="32" height="32" viewBox="0 0 32 32" fill="none" xmlns="http://www.w3.org/2000/svg">
<path d="M24.7154 9.4932L19.9512 4.72893C19.4844 4.2622 18.8514 4 18.1913 4H11.7556C9.69369 4 8.02222 5.67147 8.02222 7.73333V22.6667C8.02222 24.7285 9.69369 26.4 11.7556 26.4H21.7111C23.773 26.4 25.4444 24.7285 25.4444 22.6667V11.2532C25.4444 10.593 25.1822 9.95995 24.7154 9.4932ZM19.2222 5.75979L23.6845 10.2222H20.4667C19.7797 10.2214 19.223 9.66474 19.2222 8.97778V5.75979ZM24.2 22.6667C24.1984 24.0406 23.085 25.154 21.7111 25.1556H11.7556C10.3816 25.154 9.26824 24.0406 9.26666 22.6667V7.73333C9.26821 6.3594 10.3816 5.24599 11.7556 5.24444H17.9778V8.97778C17.9778 10.3524 19.0921 11.4667 20.4667 11.4667H24.2V22.6667Z" fill="#929497"/>
</svg>
