<svg width="24" height="26" viewBox="0 0 24 26" fill="none" xmlns="http://www.w3.org/2000/svg">
<path fill-rule="evenodd" clip-rule="evenodd" d="M14.0996 8.90003H3.89958V16.1H14.0996V8.90003ZM4.63149 15.2559V9.7442H13.3677V15.2559H4.63149Z" fill="#A32A29"/>
<path d="M15.4414 10.5256H17.5251V8.44188H15.4414V10.5256ZM15.9995 8.96281H17.0042V9.96747H15.9995V8.96281Z" fill="#A32A29"/>
<path d="M18.3809 10.5256H20.4646V8.44188H18.3809V10.5256ZM18.9391 8.96281H19.9437V9.96747H18.9391V8.96281Z" fill="#A32A29"/>
<path d="M15.4414 13.4279H17.5251V11.3442H15.4414V13.4279ZM15.9995 11.8651H17.0042V12.8698H15.9995V11.8651Z" fill="#A32A29"/>
<path d="M18.3809 13.4279H20.4646V11.3442H18.3809V13.4279ZM18.9391 11.8651H19.9437V12.8698H18.9391V11.8651Z" fill="#A32A29"/>
<path d="M15.4414 16.3303H17.5251V14.2465H15.4414V16.3303ZM15.9995 14.7675H17.0042V15.7721H15.9995V14.7675Z" fill="#A32A29"/>
<path d="M18.3809 16.3303H20.4646V14.2465H18.3809V16.3303ZM18.9391 14.7675H19.9437V15.7721H18.9391V14.7675Z" fill="#A32A29"/>
<path fill-rule="evenodd" clip-rule="evenodd" d="M3.79487 0.900024C3.36755 0.900024 3.0251 1.24247 3.0251 1.66979V4.68375C3.0251 5.11107 3.36755 5.45351 3.79487 5.45351H5.8158V6.55584H1.98324V17.6675L0.374025 19.3864C0.365856 19.3946 0.357224 19.4032 0.350192 19.411C0.342595 19.4195 0.332245 19.4319 0.324032 19.4483C0.308121 19.4802 0.308592 19.5131 0.308789 19.5269L0.308824 19.5312V24.1782C0.269546 24.7963 0.765399 25.2861 1.37627 25.2861H22.8088C23.4222 25.2861 23.9135 24.7948 23.9135 24.1814V19.5303C23.9135 19.5024 23.906 19.4777 23.8934 19.4567C23.8878 19.4474 23.8815 19.4395 23.8763 19.4335V19.4163L22.2391 17.6675V6.55584H9.2158V5.45351H11.2367C11.6641 5.45351 12.0065 5.11107 12.0065 4.68375V1.66979C12.0065 1.24247 11.6641 0.900024 11.2367 0.900024H3.79487ZM3.78324 1.66979C3.78324 1.66511 3.78351 1.66148 3.78385 1.65877C3.78656 1.65843 3.79019 1.65816 3.79487 1.65816H11.2367C11.2414 1.65816 11.245 1.65843 11.2478 1.65877C11.2481 1.66148 11.2484 1.66511 11.2484 1.66979V4.68375C11.2484 4.68608 11.2482 4.68999 11.2482 4.68999L11.2478 4.69477C11.245 4.69511 11.2414 4.69537 11.2367 4.69537H8.45766V6.55584H6.57394V4.69537H3.79487C3.79019 4.69537 3.78656 4.69511 3.78385 4.69477C3.78351 4.69206 3.78324 4.68843 3.78324 4.68375V1.66979ZM2.74138 17.4582V7.31398H21.4437V17.4582H2.74138ZM1.50105 19.2442L2.53484 18.1791H21.6865L22.689 19.2442H1.50105ZM1.02975 24.1814V20.0396H23.1925V24.1814C23.1925 24.3813 23.0195 24.5279 22.846 24.5279H1.37627C1.17634 24.5279 1.02975 24.3549 1.02975 24.1814Z" fill="#A32A29"/>
<path d="M12.0925 23.5117C12.7623 23.5117 13.3205 22.9535 13.3205 22.2837C13.3205 21.614 12.7623 21.0558 12.0925 21.0558C11.4228 21.0558 10.8646 21.614 10.8646 22.2837C10.8646 22.9535 11.4228 23.5117 12.0925 23.5117ZM12.0925 21.614C12.4646 21.614 12.7623 21.9117 12.7623 22.2837C12.7623 22.6558 12.4646 22.9535 12.0925 22.9535C11.7205 22.9535 11.4228 22.6558 11.4228 22.2837C11.4228 21.9117 11.7205 21.614 12.0925 21.614Z" fill="#A32A29"/>
<path d="M10.4553 2.26514H4.57627V3.06514H10.4553V2.26514Z" fill="#A32A29"/>
<path d="M10.4553 3.45584H4.57627V4.25584H10.4553V3.45584Z" fill="#A32A29"/>
</svg>
