<svg width="40" height="40" viewBox="0 0 40 40" fill="none" xmlns="http://www.w3.org/2000/svg">
<path d="M0 20C0 8.95431 8.95431 0 20 0C31.0457 0 40 8.95431 40 20C40 31.0457 31.0457 40 20 40C8.95431 40 0 31.0457 0 20Z" fill="#929497" fill-opacity="0.2"/>
<path d="M19.6806 10.9354L19.7151 10.9666L21.4001 12.6517H24.9998C25.8978 12.6517 26.6299 13.3619 26.6651 14.2513L26.6664 14.3183V15.0759H27.121C28.019 15.0759 28.7511 15.7862 28.7863 16.6756L28.7876 16.7426V19.6214H29.4543C29.7555 19.6214 29.9998 19.8588 29.9998 20.1517V23.3335C29.9998 23.6264 29.7555 23.8638 29.4543 23.8638H28.7876V26.7426C28.7876 27.6406 28.0774 28.3727 27.188 28.4079L27.121 28.4093H11.6664C10.7684 28.4093 10.0363 27.699 10.0011 26.8096L9.99976 26.7426V14.3183L10.0011 14.2513C10.0354 13.3847 10.7313 12.6882 11.5977 12.6531L11.6664 12.6517H17.387L19.0723 10.9666C19.2387 10.8002 19.5021 10.7898 19.6806 10.9354ZM10.9088 15.8032V26.7426C10.9088 27.1442 11.2214 27.4729 11.6166 27.4986L11.6664 27.5002H27.121C27.5226 27.5002 27.8513 27.1876 27.8769 26.7924L27.8785 26.7426V23.8638H26.727C25.522 23.8638 24.5452 22.9141 24.5452 21.7426C24.5452 20.5711 25.522 19.6214 26.727 19.6214H27.8785V16.7426C27.8785 16.3409 27.566 16.0123 27.1708 15.9866L27.121 15.985H11.6664C11.4269 15.985 11.1993 15.9345 10.9935 15.8436L10.9088 15.8032ZM29.0907 20.5305H26.753C26.0546 20.5305 25.485 21.045 25.4555 21.69L25.4543 21.7426C25.4543 22.3944 26.0056 22.9261 26.6967 22.9536L26.753 22.9547H29.0907V20.5305ZM16.4779 13.5608H11.6664C11.248 13.5608 10.9088 13.8999 10.9088 14.3183C10.9088 14.72 11.2214 15.0487 11.6166 15.0743L11.6664 15.0759H14.9628L16.4779 13.5608ZM19.3937 11.9308L16.2482 15.0759H22.5388L19.3937 11.9308ZM23.8243 15.0759H25.7573V14.3183C25.7573 13.9334 25.4703 13.6155 25.0985 13.5671L25.0496 13.5624L24.9998 13.5608H22.3091L23.8243 15.0759Z" fill="#A32A29"/>
<path d="M17.854 19.4793C17.854 19.2147 18.0685 19.0002 18.3331 19.0002C18.5978 19.0002 18.8123 19.2147 18.8123 19.4793V21.1877H20.5206C20.7853 21.1877 20.9998 21.4022 20.9998 21.6668C20.9998 21.9315 20.7853 22.146 20.5206 22.146H18.8123V23.8543C18.8123 24.119 18.5978 24.3335 18.3331 24.3335C18.0685 24.3335 17.854 24.119 17.854 23.8543V22.146H16.1456C15.881 22.146 15.6665 21.9315 15.6665 21.6668C15.6665 21.4022 15.881 21.1877 16.1456 21.1877H17.854V19.4793Z" fill="#A32A29"/>
<path fill-rule="evenodd" clip-rule="evenodd" d="M18.3331 16.6668C15.5717 16.6668 13.3331 18.9054 13.3331 21.6668C13.3331 24.4283 15.5717 26.6668 18.3331 26.6668C21.0945 26.6668 23.3331 24.4283 23.3331 21.6668C23.3331 18.9054 21.0945 16.6668 18.3331 16.6668ZM14.1664 21.6668C14.1664 19.3656 16.0319 17.5002 18.3331 17.5002C20.6343 17.5002 22.4998 19.3656 22.4998 21.6668C22.4998 23.968 20.6343 25.8335 18.3331 25.8335C16.0319 25.8335 14.1664 23.968 14.1664 21.6668Z" fill="#A32A29"/>
</svg>
