<svg width="40" height="40" viewBox="0 0 40 40" fill="none" xmlns="http://www.w3.org/2000/svg">
<path d="M0 20C0 8.95431 8.95431 0 20 0C31.0457 0 40 8.95431 40 20C40 31.0457 31.0457 40 20 40C8.95431 40 0 31.0457 0 20Z" fill="#929497" fill-opacity="0.2"/>
<path d="M16.3922 26.4695C16.3922 26.6536 16.5413 26.8028 16.7255 26.8028C16.9097 26.8028 17.0588 26.6536 17.0588 26.4695V22.3246C17.0588 22.1405 16.9097 21.9913 16.7255 21.9913C16.5413 21.9913 16.3922 22.1405 16.3922 22.3246V26.4695Z" fill="#A32A29"/>
<path fill-rule="evenodd" clip-rule="evenodd" d="M12.6422 12.4167C12.0557 12.4167 11.5833 12.9072 11.5833 13.5051V18.1616C11.5833 18.7596 12.0557 19.2501 12.6422 19.2501H14.9999V27.5978C14.9999 28.0035 15.3491 28.3334 15.778 28.3334H24.2219C24.6508 28.3334 24.9999 28.0035 24.9999 27.5978V19.2501H27.358C27.9441 19.2501 28.4166 18.7596 28.4166 18.1616V13.5051C28.4166 12.9073 27.9441 12.4167 27.358 12.4167H12.6422ZM21.0979 27.5001H22.2079V15.0001H21.0979V27.5001ZM24.0669 27.5001H23.0413V15.0001H24.1666V27.4053C24.1666 27.4575 24.1218 27.5001 24.0669 27.5001ZM15.8333 15.0001H20.2646V27.5001H15.9329C15.878 27.5001 15.8333 27.4575 15.8333 27.4053V15.0001ZM15.4151 14.034C15.4075 14.0336 15.3999 14.0334 15.3922 14.0334H13.6145C13.389 14.0334 13.1978 14.2066 13.1978 14.4306V17.1362C13.1978 17.3602 13.389 17.5334 13.6145 17.5334H14.9999V18.2501H12.8021C12.6812 18.2501 12.5833 18.1521 12.5833 18.0328V13.6338C12.5833 13.5147 12.6811 13.4167 12.8021 13.4167H27.198C27.3189 13.4167 27.4166 13.5146 27.4166 13.6338V18.0328C27.4166 18.1522 27.3189 18.2501 27.198 18.2501H24.9999V17.5334H26.3857C26.6112 17.5334 26.8023 17.3602 26.8023 17.1362V14.4306C26.8023 14.2066 26.6112 14.0334 26.3857 14.0334H24.6077C24.6 14.0334 24.5923 14.0336 24.5847 14.034C24.5597 14.0293 24.5339 14.0268 24.5075 14.0268H15.4923C15.4659 14.0268 15.4401 14.0293 15.4151 14.034ZM14.0312 14.8278V16.7391H14.9755V14.8278H14.0312ZM25.0243 14.8278V16.7391H25.969V14.8278H25.0243Z" fill="#A32A29"/>
</svg>
