<svg width="40" height="40" viewBox="0 0 40 40" fill="none" xmlns="http://www.w3.org/2000/svg">
<path d="M0 20C0 8.95431 8.95431 0 20 0C31.0457 0 40 8.95431 40 20C40 31.0457 31.0457 40 20 40C8.95431 40 0 31.0457 0 20Z" fill="#929497" fill-opacity="0.2"/>
<path d="M30.7499 24.4167V22.6667C30.7499 21.3334 29.7499 20.1667 28.4166 19.9167V12.5834C28.4166 11.1667 27.2499 9.91675 25.7499 9.91675H11.7499C10.3333 9.91675 9.08325 11.0834 9.08325 12.5834V24.4167C9.08325 25.8334 10.2499 27.0834 11.7499 27.0834H24.3333V29.0834C24.3333 29.9167 24.9999 30.6667 25.9166 30.6667H30.2499C31.0833 30.6667 31.8333 30.0001 31.8333 29.0834V25.9167C31.6666 25.2501 31.3333 24.6667 30.7499 24.4167ZM26.1666 24.3334V22.7501C26.1666 21.7501 26.9166 20.9167 27.9166 20.9167C27.9999 20.9167 27.9999 20.9167 28.0833 20.9167C29.0833 21.0001 29.8333 21.7501 29.8333 22.7501V24.3334H26.1666ZM25.2499 22.7501V24.5001C24.6666 24.7501 24.3333 25.3334 24.3333 25.9167V26.1667H11.7499C10.8333 26.1667 10.0833 25.4167 10.0833 24.5001V15.3334H27.5833V20.0001C26.1666 20.2501 25.2499 21.3334 25.2499 22.7501ZM25.1666 25.9167C25.1666 25.5834 25.4166 25.3334 25.7499 25.3334H30.0833C30.4166 25.3334 30.6666 25.5834 30.6666 25.9167V29.0834C30.6666 29.4167 30.4166 29.6667 30.0833 29.6667H25.8333C25.4999 29.6667 25.2499 29.4167 25.2499 29.0834V25.9167H25.1666ZM9.99992 14.3334V12.5834C9.99992 11.6667 10.7499 10.9167 11.6666 10.9167H25.8333C26.7499 10.9167 27.4999 11.6667 27.4999 12.5834V14.3334H9.99992Z" fill="#A32A29"/>
<path d="M11.5833 11.4167C10.9166 11.4167 10.4166 11.9167 10.4166 12.5834C10.4166 13.2501 10.9166 13.7501 11.5833 13.7501C12.2499 13.7501 12.7499 13.2501 12.7499 12.5834C12.7499 11.9167 12.1666 11.5001 11.5833 11.4167ZM11.7499 12.5834C11.7499 12.6667 11.7499 12.6667 11.6666 12.7501C11.6666 12.8334 11.5833 12.8334 11.4999 12.8334C11.4166 12.8334 11.3333 12.7501 11.3333 12.6667C11.3333 12.5834 11.3333 12.5834 11.4166 12.5001C11.4166 12.5001 11.4999 12.4167 11.5833 12.4167C11.6666 12.4167 11.6666 12.4167 11.7499 12.5001C11.8333 12.5834 11.7499 12.5001 11.7499 12.5834Z" fill="#A32A29"/>
<path d="M17.6666 11.5001C16.9999 11.5001 16.4999 12.0001 16.4999 12.6667C16.4999 13.3334 16.9999 13.8334 17.6666 13.8334C18.3333 13.8334 18.8333 13.3334 18.8333 12.6667C18.8333 12.0001 18.3333 11.5001 17.6666 11.5001ZM17.9166 12.5834C17.9166 12.6667 17.8333 12.7501 17.7499 12.8334C17.6666 12.8334 17.5833 12.8334 17.4999 12.7501C17.4166 12.6667 17.4999 12.5834 17.4999 12.5001C17.4999 12.5001 17.5833 12.4167 17.6666 12.4167C17.7499 12.4167 17.9166 12.5001 17.9166 12.5834Z" fill="#A32A29"/>
<path d="M14.5833 11.5001C13.9166 11.5001 13.4166 12.0001 13.4166 12.6667C13.4166 13.3334 13.9166 13.8334 14.5833 13.8334C14.9166 13.8334 15.1666 13.7501 15.4166 13.5001C15.6666 13.2501 15.7499 13.0001 15.7499 12.6667C15.7499 12.3334 15.6666 12.0834 15.4166 11.8334C15.1666 11.5834 14.9166 11.5001 14.5833 11.5001ZM14.4166 12.6667C14.4166 12.5834 14.4166 12.5001 14.4999 12.4167C14.4999 12.4167 14.5833 12.3334 14.6666 12.3334C14.7499 12.3334 14.9166 12.4167 14.9166 12.5834C14.9166 12.6667 14.8333 12.8334 14.6666 12.8334C14.4999 12.8334 14.4166 12.7501 14.4166 12.6667Z" fill="#A32A29"/>
</svg>
