<svg xmlns="http://www.w3.org/2000/svg" xmlns:xlink="http://www.w3.org/1999/xlink" viewBox="0 0 405.7 465.75"><defs><style>.cls-1,.cls-4{fill:none;}.cls-2{clip-path:url(#clip-path);}.cls-3{fill:url(#linear-gradient);}.cls-4{stroke:#fefefe;stroke-opacity:0.1;}</style><clipPath id="clip-path" transform="translate(11.43 167.38)"><rect class="cls-1" width="335" height="132" rx="8"/></clipPath><linearGradient id="linear-gradient" x1="122.48" y1="182.26" x2="212.52" y2="-46.26" gradientTransform="matrix(1, 0, 0, -1, 0, 134)" gradientUnits="userSpaceOnUse"><stop offset="0" stop-color="#a32a29"/><stop offset="1" stop-color="#791716"/></linearGradient></defs><g id="Layer_2" data-name="Layer 2"><g id="Layer_1-2" data-name="Layer 1"><g class="cls-2"><path class="cls-3" d="M0,8A8,8,0,0,1,8,0H327a8,8,0,0,1,8,8V124a8,8,0,0,1-8,8H8a8,8,0,0,1-8-8Z" transform="translate(11.43 167.38)"/><path class="cls-4" d="M-3.9-164l68.38,57.67v94.58L210,114.14v32L321.24,240.7,320.9,298" transform="translate(11.43 167.38)"/><path class="cls-4" d="M209.51,298l-.14-27.79V238.29L64,112.58V18.13L-10.93-45V-75H337.3" transform="translate(11.43 167.38)"/><path class="cls-4" d="M105.48-167l67.11,58.88v94.71L319,112.72l-.29,31.13L340.31,162" transform="translate(11.43 167.38)"/><path class="cls-4" d="M215.87-165l68.05,57.74v94.68L352.35,47" transform="translate(11.43 167.38)"/><path class="cls-4" d="M130.36,297l-67-57.71V144.63L-9.92,81.32V51H337.3" transform="translate(11.43 167.38)"/><path class="cls-4" d="M64.06,113H-9.14V209l73.2,64v24.67" transform="translate(11.43 167.38)"/><path class="cls-4" d="M-9.14,51.81l35.67,32v62.62l37.53,31.31" transform="translate(11.43 167.38)"/><path class="cls-4" d="M-11-76.76l37.53,32V17.83L64.06,51" transform="translate(11.43 167.38)"/><path class="cls-4" d="M98.46-78,136-45l-.4,62.84L173.72,49" transform="translate(11.43 167.38)"/><path class="cls-4" d="M136.59-12.79l37.52,32V81.72L209.77,113l73.34-.7V19.08l-72.9-64.41v-94.21L180.59-165" transform="translate(11.43 167.38)"/><path class="cls-4" d="M-10.93-107,101-13V49.77L136.59,83" transform="translate(11.43 167.38)"/><path class="cls-4" d="M136.59,82v62.72l37.72,33.21V240.6L239,298" transform="translate(11.43 167.38)"/><path class="cls-4" d="M208.85-77l37.81,31.91.24,63.75L284.11,51" transform="translate(11.43 167.38)"/><path class="cls-4" d="M211.86,52,247.5,83.21l-.44,63.45L284.11,178" transform="translate(11.43 167.38)"/><path class="cls-4" d="M174.73,177V146L101.47,82.11,101.54,49" transform="translate(11.43 167.38)"/><path class="cls-4" d="M209.85,18l.2,63.82,74.5,64.23V240l52.75,45" transform="translate(11.43 167.38)"/><path class="cls-4" d="M64.06-11.75H-9V19L100.6,113.62v95L174,272.51V298" transform="translate(11.43 167.38)"/><path class="cls-4" d="M393.77,292.65V272.8l-74.53-62.57V114.08h18" transform="translate(11.43 167.38)"/><path class="cls-4" d="M284.11-12H208.85V19" transform="translate(11.43 167.38)"/><path class="cls-4" d="M208.85,113v96.28l75.26,63.64V298" transform="translate(11.43 167.38)"/><path class="cls-4" d="M247,83h36.25l-.35,30.83L320.24,146" transform="translate(11.43 167.38)"/><path class="cls-4" d="M174.72,83v31l-73.26-.9" transform="translate(11.43 167.38)"/><path class="cls-4" d="M173.72-140,319.31-12.83V82l18,17" transform="translate(11.43 167.38)"/><path class="cls-4" d="M173.72,114l57.2,51" transform="translate(11.43 167.38)"/></g></g></g></svg>