<svg width="23" height="23" viewBox="0 0 23 23" fill="none" xmlns="http://www.w3.org/2000/svg">
<path d="M11.6973 22.0186C17.5947 22.0186 22.4717 17.1416 22.4717 11.2441C22.4717 5.33594 17.5947 0.469727 11.6865 0.469727C5.78906 0.469727 0.922852 5.33594 0.922852 11.2441C0.922852 17.1416 5.7998 22.0186 11.6973 22.0186ZM5.09082 4.27246C6.2832 3.14453 7.76562 2.30664 9.39844 1.89844C8.56055 2.66113 7.84082 3.83203 7.31445 5.31445C6.44434 5.05664 5.69238 4.70215 5.09082 4.27246ZM13.9961 1.89844C15.6396 2.31738 17.1113 3.14453 18.3037 4.27246C17.6914 4.70215 16.9502 5.05664 16.0801 5.31445C15.5537 3.83203 14.834 2.66113 13.9961 1.89844ZM8.4209 5.59375C9.08691 3.69238 10.0645 2.37109 11.1387 2.0166V5.88379C10.1504 5.85156 9.24805 5.75488 8.4209 5.59375ZM12.2559 2.0166C13.3301 2.37109 14.3076 3.69238 14.9736 5.59375C14.1465 5.75488 13.2441 5.85156 12.2559 5.88379V2.0166ZM2.09375 10.6855C2.21191 8.55859 3.03906 6.61426 4.33887 5.06738C5.02637 5.59375 5.92871 6.02344 6.99219 6.3457C6.64844 7.62402 6.43359 9.08496 6.39062 10.6855H2.09375ZM17.0039 10.6855C16.9609 9.08496 16.7461 7.62402 16.4023 6.3457C17.4658 6.02344 18.3682 5.59375 19.0557 5.07812C20.3555 6.61426 21.1826 8.55859 21.3008 10.6855H17.0039ZM12.2559 10.6855V6.99023C13.3301 6.95801 14.3613 6.83984 15.2959 6.63574C15.6182 7.84961 15.8115 9.22461 15.8545 10.6855H12.2559ZM7.54004 10.6855C7.58301 9.22461 7.78711 7.84961 8.09863 6.63574C9.04395 6.83984 10.0645 6.95801 11.1387 6.99023V10.6855H7.54004ZM2.09375 11.8027H6.39062C6.43359 13.4141 6.64844 14.8965 6.99219 16.1855C5.9502 16.5078 5.04785 16.9375 4.37109 17.4424C3.0498 15.8955 2.21191 13.9404 2.09375 11.8027ZM7.54004 11.8027H11.1387V15.5518C10.0752 15.5732 9.05469 15.7021 8.12012 15.8955C7.78711 14.6709 7.57227 13.2637 7.54004 11.8027ZM12.2559 15.5518V11.8027H15.8652C15.8223 13.2637 15.6074 14.6709 15.2744 15.8955C14.3398 15.7021 13.3301 15.5732 12.2559 15.5518ZM16.4023 16.1855C16.7461 14.8965 16.9609 13.4141 17.0039 11.8027H21.3008C21.1826 13.9404 20.3447 15.8955 19.0234 17.4424C18.3467 16.9375 17.4443 16.5078 16.4023 16.1855ZM12.2559 16.6582C13.2334 16.6904 14.1357 16.7871 14.9521 16.9482C14.2861 18.8066 13.3193 20.1387 12.2559 20.4932V16.6582ZM8.44238 16.9482C9.26953 16.7871 10.1611 16.6904 11.1387 16.6582V20.4932C10.0752 20.1387 9.1084 18.8066 8.44238 16.9482ZM16.0801 17.2275C16.9287 17.4854 17.6699 17.8291 18.2715 18.2373C17.0898 19.3438 15.6396 20.1709 14.0391 20.5791C14.8555 19.8164 15.5537 18.667 16.0801 17.2275ZM5.12305 18.2373C5.72461 17.8291 6.46582 17.4854 7.3252 17.2275C7.84082 18.667 8.53906 19.8164 9.35547 20.5791C7.75488 20.1709 6.30469 19.3438 5.12305 18.2373Z" fill="#A32A29"/>
</svg>
