<svg width="32" height="32" viewBox="0 0 32 32" fill="none" xmlns="http://www.w3.org/2000/svg">
<path fill-rule="evenodd" clip-rule="evenodd" d="M16 9.8999C13.8 9.8999 12.1 11.6999 12.1 13.7999C12.1 15.0999 12.7 16.2999 13.7 16.9999C11.6 17.7999 10.1 19.7999 10.1 22.1999C10.1 22.6999 10.4 23.1999 10.7 23.4999C11.1 23.7999 11.5 23.9999 12.1 24.0999C13.1 24.3999 14.5 24.4999 16 24.4999C17.5 24.4999 18.9 24.3999 19.9 24.0999C20.4 23.9999 20.9 23.7999 21.3 23.4999C21.7 23.1999 21.9 22.7999 21.9 22.1999C21.9 19.8999 20.4 17.8999 18.3 16.9999C19.3 16.2999 19.9 15.0999 19.9 13.7999C20 11.5999 18.2 9.8999 16 9.8999ZM16 16.4999C17.5 16.4999 18.8 15.2999 18.8 13.6999C18.8 12.1999 17.6 10.8999 16 10.8999C14.4 10.8999 13.2 12.0999 13.2 13.6999C13.3 15.2999 14.5 16.4999 16 16.4999ZM16 17.6999C13.3 17.6999 11.2 19.6999 11.2 22.0999C11.2 22.1999 11.2 22.2999 11.4 22.3999C11.6 22.4999 11.9 22.6999 12.3 22.7999C13.2 22.9999 14.5 23.0999 15.9 23.0999C17.3 23.0999 18.6 22.9999 19.5 22.7999C19.9 22.6999 20.3 22.4999 20.4 22.3999C20.6 22.2999 20.6 22.1999 20.6 22.0999C20.8 19.7999 18.7 17.6999 16 17.6999Z" fill="#929497"/>
<path fill-rule="evenodd" clip-rule="evenodd" d="M27.2 14.2001C28.2 13.5001 28.8 12.3001 28.8 11.0001C28.8 8.8001 27 7.1001 24.9 7.1001C22.8 7.1001 21 8.9001 21 11.0001C21 12.3001 21.6 13.5001 22.6 14.2001C21.2 14.8001 20 15.9001 19.4 17.2001C19.8 17.4001 20.1 17.6001 20.4 17.9001C21.1 16.2001 22.8 15.0001 24.9 15.0001C27.6 15.0001 29.7 17.0001 29.7 19.4001C29.7 19.5001 29.7 19.6001 29.5 19.7001C29.3 19.9001 29 20.0001 28.6 20.1001C27.7 20.3001 26.4 20.4001 25 20.4001C23.9 20.4001 22.9 20.3001 22.1 20.2001C22.3 20.7001 22.3 21.1001 22.4 21.4001C23.2 21.5001 24.1 21.5001 25 21.5001C26.5 21.5001 27.9 21.4001 28.9 21.1001C29.4 21.0001 29.9 20.8001 30.3 20.5001C30.7 20.2001 30.9 19.8001 30.9 19.2001C30.8 17.0001 29.3 15.1001 27.2 14.2001ZM24.9 13.8001C23.4 13.8001 22.1 12.6001 22.1 11.0001C22.1 9.5001 23.3 8.2001 24.9 8.2001C26.4 8.2001 27.7 9.4001 27.7 11.0001C27.6 12.5001 26.4 13.8001 24.9 13.8001Z" fill="#929497"/>
<path fill-rule="evenodd" clip-rule="evenodd" d="M9.49995 14.2001C10.5 13.5001 11.1 12.3001 11.1 11.0001C11.1 8.8001 9.29995 7.1001 7.19995 7.1001C4.99995 7.1001 3.19995 8.8001 3.19995 11.0001C3.19995 12.3001 3.79995 13.5001 4.79995 14.2001C2.69995 15.0001 1.19995 17.0001 1.19995 19.4001C1.19995 19.9001 1.49995 20.4001 1.79995 20.7001C2.19995 21.0001 2.59995 21.2001 3.19995 21.3001C4.19995 21.6001 5.69995 21.7001 7.09995 21.7001C8.09995 21.7001 8.99995 21.7001 9.79995 21.5001C9.79995 21.0001 9.99995 20.6001 10.1 20.2001C9.29995 20.4001 8.19995 20.4001 7.09995 20.4001C5.59995 20.4001 4.39995 20.3001 3.49995 20.1001C3.09995 20.0001 2.69995 19.8001 2.59995 19.7001C2.39995 19.6001 2.39995 19.5001 2.39995 19.4001C2.39995 17.0001 4.49995 15.0001 7.09995 15.0001C9.19995 15.0001 11 16.3001 11.6 18.0001C12 17.6001 12.3 17.3001 12.6 17.2001C12 15.8001 10.9 14.8001 9.49995 14.2001ZM7.09995 13.8001C5.59995 13.8001 4.29995 12.6001 4.29995 11.0001C4.29995 9.5001 5.49995 8.2001 7.09995 8.2001C8.59995 8.2001 9.89995 9.4001 9.89995 11.0001C9.89995 12.5001 8.69995 13.8001 7.09995 13.8001Z" fill="#929497"/>
</svg>
