<svg width="32" height="32" viewBox="0 0 32 32" fill="none" xmlns="http://www.w3.org/2000/svg">
<path d="M13.4 13C13.4 11.564 14.5641 10.4 16 10.4C17.436 10.4 18.6 11.564 18.6 13C18.6 13.8236 18.1561 14.5331 17.3663 15.1419C17.0491 15.3863 16.8858 15.5656 16.7821 15.7884C16.6731 16.0224 16.6 16.3697 16.6 17C16.6 17.3313 16.3314 17.6 16 17.6C15.6686 17.6 15.4 17.3313 15.4 17C15.4 16.2969 15.4778 15.7466 15.6943 15.2818C15.9159 14.8058 16.2527 14.485 16.6337 14.1914C17.2404 13.7238 17.4 13.3302 17.4 13C17.4 12.2268 16.7732 11.6 16 11.6C15.2268 11.6 14.6 12.2268 14.6 13C14.6 13.3313 14.3314 13.6 14 13.6C13.6686 13.6 13.4 13.3313 13.4 13Z" fill="#221F1F"/>
<path d="M17 20.5C17 21.0522 16.5523 21.5 16 21.5C15.4477 21.5 15 21.0522 15 20.5C15 19.9477 15.4477 19.5 16 19.5C16.5523 19.5 17 19.9477 17 20.5Z" fill="#221F1F"/>
<path fill-rule="evenodd" clip-rule="evenodd" d="M26.3 16C26.3 21.6885 21.6885 26.2999 16 26.2999C10.3115 26.2999 5.70001 21.6885 5.70001 16C5.70001 10.3114 10.3115 5.69995 16 5.69995C21.6885 5.69995 26.3 10.3114 26.3 16ZM25 16C25 20.9705 20.9706 25 16 25C11.0294 25 7.00001 20.9705 7.00001 16C7.00001 11.0294 11.0294 6.99995 16 6.99995C20.9706 6.99995 25 11.0294 25 16Z" fill="#221F1F"/>
</svg>
