<svg width="321" height="320" viewBox="0 0 321 320" fill="none" xmlns="http://www.w3.org/2000/svg">
<path d="M264.725 112.406C211.867 -17.9499 2.94425 51.4875 59.009 191.399C75.1413 241.028 136.049 254.183 182.712 249.416C240.991 238.41 284.294 169.3 264.725 112.406Z" fill="#F7F7F7"/>
<path d="M268.609 264.478C216.1 253.57 8.52967 259.373 64.2236 271.088C80.2577 275.244 140.762 276.345 187.13 275.953C245.027 275.025 288.101 269.244 268.609 264.478Z" fill="#E0E0E0"/>
<path d="M274.073 134.636C279.287 149.732 276.429 164.424 269.71 166.748C262.991 169.071 254.93 158.153 249.716 143.046C244.503 127.939 245.015 111.839 251.745 109.516C258.475 107.193 268.848 119.54 274.073 134.636Z" fill="#C96F32"/>
<path d="M229.986 172.004C229.986 171.753 226.888 172.113 226.713 171.851C225.219 169.67 223.354 167.903 221.805 165.743C220.256 163.583 219.111 161.173 217.442 159.057C214.27 154.925 210.861 150.981 207.232 147.244C200.089 139.799 192.251 133.053 183.825 127.098C182.57 126.225 181.316 125.385 180.018 124.589C179.087 123.874 178.034 123.334 176.909 122.996C175.71 122.8 173.714 122.691 173.299 124.022C168.805 126.203 164.769 129.475 160.832 132.431C156.392 135.813 152.106 139.336 147.895 143.044C139.431 150.542 131.562 158.686 124.357 167.401C122.404 169.779 120.474 172.178 118.609 174.622C116.743 177.065 114.246 179.617 112.86 182.497C112.793 182.629 112.774 182.781 112.807 182.926C112.84 183.071 112.923 183.199 113.041 183.289C113.16 183.379 113.306 183.424 113.454 183.417C113.603 183.41 113.744 183.35 113.853 183.25C114.006 183.086 114.147 182.901 114.3 182.737C119.607 187.997 125.495 192.637 131.85 196.568C138.318 200.604 145.077 204.151 152.073 207.181C152.821 207.523 153.634 207.7 154.456 207.7C155.279 207.7 156.092 207.523 156.84 207.181C158.857 206.374 160.843 205.414 162.828 204.497C166.929 202.589 170.932 200.593 174.826 198.324C178.658 196.293 182.598 194.472 186.628 192.87C190.762 191.038 197.034 190.492 201.146 188.616C210.363 184.406 215.948 180.861 225.143 176.618C226.135 176.127 230.575 172.582 229.986 172.004Z" fill="#884638"/>
<path d="M273.79 146.317C273.124 142.99 272.481 139.652 271.685 136.347C270.07 129.65 268.303 122.997 266.231 116.43C266.013 115.721 230.629 120.793 218.576 120.521C212.576 120.388 206.598 119.738 200.709 118.579C195.255 117.488 189.802 116.55 184.206 117.248C181.365 117.626 178.587 118.386 175.949 119.506C173.451 120.597 170.746 121.753 169.197 124.055C169.168 124.094 169.152 124.142 169.152 124.191C169.152 124.24 169.168 124.288 169.197 124.327L169.012 124.458C168.552 124.802 168.15 125.218 167.823 125.691C167.749 125.824 167.711 125.975 167.714 126.127C166.888 126.652 166.298 127.477 166.067 128.429C165.903 129.65 166.885 130.479 167.627 131.308C168.368 132.137 169.372 133.272 170.266 134.242C170.249 134.27 170.24 134.302 170.24 134.335C170.24 134.368 170.249 134.4 170.266 134.428C172.96 137.7 177.16 139.881 180.661 142.216C184.37 144.692 188.078 147.157 191.678 149.786C198.844 155.021 203 160.202 209.708 166.027C213.504 169.299 216.58 174.567 220.212 178.025C220.943 178.734 225.458 176.738 225.797 176.029C225.797 176.029 231.163 172.866 232.723 171.001C235.096 168.185 237.988 165.852 241.242 164.129C244.7 162.391 248.41 161.209 252.237 160.628C254.254 160.268 256.294 160.006 258.334 159.733C259.915 159.526 275.175 157.148 275.142 156.461C274.961 153.049 274.508 149.657 273.79 146.317Z" fill="#A96050"/>
<path d="M303.47 134.319C301.173 121.299 296.914 108.703 290.839 96.9607C272.427 102.862 254.2 108.708 252.804 109.221C252.182 109.45 260.614 114.86 264.737 135.857C268.009 152.644 267.835 162.591 267.126 166.856C267.038 167.38 277.641 166.584 283.356 165.94C285.679 165.678 294.929 164.457 304.899 163.137C305.764 153.511 305.283 143.812 303.47 134.319Z" fill="#E28A40"/>
<path d="M221.215 177.632C219.862 175.103 218.142 172.787 216.111 170.761C214.093 168.579 211.955 166.463 209.762 164.423C200.829 156.112 190.532 149.458 181.512 141.245C178.851 138.823 176.255 136.314 173.571 133.904C172.48 132.944 171.466 131.93 170.408 130.948C169.645 130.221 168.859 129.494 168.052 128.766C166.837 127.677 165.559 126.661 164.223 125.723C163.787 125.429 163.307 125.047 162.795 124.709C164.114 124.403 165.445 124.098 166.776 123.847C168.357 123.531 169.961 123.356 171.542 123.084C172.293 122.976 173.026 122.77 173.724 122.473C173.954 122.353 174.164 122.199 174.346 122.015C174.48 122.003 174.61 121.962 174.727 121.895L174.869 121.818C174.968 121.764 175.05 121.683 175.106 121.585C175.162 121.487 175.189 121.375 175.186 121.262V121.109C175.172 120.96 175.127 120.815 175.055 120.684C175.058 120.659 175.058 120.633 175.055 120.608C174.936 120.427 174.759 120.292 174.553 120.226C171.715 119.431 168.774 119.063 165.827 119.135C165.456 119.135 165.085 119.048 164.736 118.982C163.285 118.753 161.857 118.306 160.373 118.164C157.374 117.881 154.374 118.819 151.407 119.081C148.44 119.342 145.659 119.626 142.801 120.073C139.943 120.52 137.064 121.295 134.217 121.971C128.359 123.378 122.48 124.807 116.514 125.669C113.405 126.127 110.264 126.509 107.144 126.858C104.234 127.103 101.305 127.005 98.4182 126.563C95.1649 126.127 91.9412 125.494 88.7651 124.665C85.9618 123.956 56.9368 113.561 55.1153 113.049C54.4936 112.874 49.0398 129.934 48.4944 136.053C47.6872 145.182 46.9455 158.108 46.3129 158.108C46.2147 158.108 46.182 158.271 46.3129 158.293C48.2653 158.686 83.4749 168.11 87.358 169.441C95.1776 172.127 102.691 175.634 109.773 179.901C111.638 181.04 113.434 182.29 115.15 183.642C116.722 184.972 118.226 186.381 119.655 187.864C121.011 189.294 122.61 190.473 124.378 191.343C126.254 192.128 128.065 193.066 129.832 194.026C133.206 195.824 136.71 197.366 140.314 198.64C144.259 200.132 148.292 201.381 152.389 202.382C156.817 203.385 176.113 206.308 178.251 206.003C178.97 205.894 179.734 205.817 180.432 205.697L180.967 205.643C182.048 205.518 183.086 205.145 183.999 204.552C185.632 203.476 186.8 201.825 187.271 199.927C189.118 200.162 190.987 200.162 192.834 199.927C194.298 199.663 195.6 198.833 196.455 197.615C197.153 196.603 197.616 195.448 197.808 194.234C198.727 194.388 199.657 194.476 200.589 194.495C202.948 194.573 205.299 194.18 207.505 193.339C208.498 193.01 209.395 192.439 210.113 191.678C210.83 190.916 211.347 189.988 211.617 188.976C211.834 187.951 211.727 186.884 211.311 185.922C214.107 186.008 216.863 185.248 219.219 183.741C221.674 182.312 222.404 180.13 221.215 177.632Z" fill="#884638"/>
<path d="M78.2068 120.478C78.2007 120.4 78.173 120.325 78.1268 120.261C78.0806 120.198 78.0177 120.148 77.945 120.118C70.2007 116.486 42.6373 104.564 28.7629 98.4775C23.4182 106.582 13.656 128.146 18.5426 154.03C30.7154 156.702 63.5471 164.054 68.4119 165.199C68.5065 165.218 68.6046 165.213 68.6965 165.183C68.7883 165.153 68.8708 165.1 68.9358 165.028C69.0007 164.956 69.0459 164.869 69.0669 164.775C69.0879 164.681 69.0839 164.582 69.0554 164.49C69.0823 158.367 69.5196 152.252 70.3643 146.187C71.1351 140.285 72.3567 134.451 74.0183 128.735C74.73 125.893 76.1311 123.271 78.0978 121.1C78.188 121.027 78.2488 120.924 78.2689 120.809C78.2889 120.695 78.2669 120.577 78.2068 120.478Z" fill="#A32A29"/>
<path d="M198.594 125.069C195.091 122.861 191.342 121.067 187.424 119.725C183.345 118.187 179.342 117.543 175.066 118.634C170.707 119.897 166.427 121.42 162.25 123.193C160.239 123.823 158.307 124.679 156.491 125.746C154.822 126.913 153.96 128.833 152.826 130.458C149.881 134.69 147.372 139.369 144.809 143.819C143.456 146.143 142.071 148.444 140.74 150.778C140.118 151.869 139.507 152.96 138.908 154.051C138.439 154.912 137.61 158.741 138.504 158.883C145.921 160.094 151.68 154.683 156.327 149.677C158.825 146.983 161.344 144.223 164.584 142.478C166.602 141.387 171.521 140.449 171.947 140.296C179.407 138.246 187.097 141.104 194.601 139.642C197.819 139.02 201.68 137.286 202.739 133.894C203.862 130.349 201.397 127 198.594 125.069Z" fill="#A96050"/>
<path d="M112.631 181.014C109.828 183.567 106.741 190.831 112.085 192.424C114.171 193.009 116.393 192.871 118.39 192.031C118.39 192.031 123.418 190.253 125.338 188.355C125.982 187.722 126.603 187.079 127.225 186.424C126.534 187.284 125.911 188.196 125.36 189.151C125.087 189.555 124.836 189.958 124.585 190.373C123.638 191.955 122.835 193.62 122.186 195.347C121.16 198.095 120.964 202.153 124.236 203.484C127.509 204.815 130.716 202.109 133.126 200.146C135.971 197.831 138.688 195.363 141.263 192.751C142.717 191.253 144.143 189.715 145.539 188.137L147.131 186.337C147.125 186.366 147.125 186.396 147.131 186.424C146.034 187.609 145.031 188.879 144.132 190.22C142.766 192.118 141.51 194.092 140.369 196.132C139.201 198.205 138.145 200.339 137.205 202.524C136.747 203.615 136.311 204.705 135.918 205.796C135.442 206.8 135.21 207.903 135.242 209.014C135.46 210.923 137.271 211.697 138.983 211.643C140.91 211.471 142.787 210.934 144.514 210.061C148.176 208.364 151.454 205.936 154.145 202.927C154.548 202.48 154.908 202.011 155.29 201.553C154.778 202.644 154.287 203.789 153.818 204.913C153.019 206.484 152.516 208.188 152.334 209.941C152.28 213.148 155.607 214.62 158.312 213.519C159.756 212.85 160.995 211.807 161.9 210.497C162.979 209.086 163.966 207.607 164.856 206.069C165.898 204.337 166.775 202.511 167.474 200.615C167.91 199.473 168.242 198.294 168.467 197.092C168.563 197.028 168.633 196.931 168.663 196.819C169.208 194.311 170.637 189.948 167.354 188.715C166.813 188.525 166.239 188.447 165.667 188.486C165.095 188.525 164.537 188.681 164.027 188.944C163.223 189.389 162.541 190.026 162.042 190.798C162.452 189.066 162.452 187.262 162.042 185.53C161.503 183.931 160.438 182.562 159.021 181.647C158.202 181.205 157.29 180.962 156.36 180.937C155.429 180.912 154.506 181.107 153.665 181.505C152.143 182.196 150.683 183.017 149.302 183.959C149.423 183.651 149.521 183.333 149.596 183.01C149.827 182.016 149.944 180.999 149.946 179.978C149.981 178.333 149.496 176.718 148.56 175.364C146.575 172.583 143.281 172.201 140.434 173.902C137.564 175.795 134.951 178.05 132.657 180.611C134.638 178.585 136.509 176.455 138.264 174.23C139.163 173.057 139.942 171.796 140.587 170.467C141.099 169.376 141.678 168.089 141.219 166.911C140.205 164.38 136.671 166.115 135.024 166.791C132.349 167.875 129.748 169.132 127.236 170.554L119.383 175.44L112.631 181.014Z" fill="#A96050"/>
</svg>
