<svg width="32" height="32" viewBox="0 0 32 32" fill="none" xmlns="http://www.w3.org/2000/svg">
<path d="M24.7706 8.49766L24.7806 8.51276C25.2268 8.333 25.7539 8.64523 25.767 9.16459L25.8406 12.5213C25.8645 12.768 25.7958 12.9972 25.6203 13.1405C25.5918 13.1637 25.5605 13.1847 25.5264 13.2031C25.2901 13.3306 24.9649 13.3078 24.596 13.1456L24.556 13.128L24.5546 13.1259C24.4637 13.0867 24.3239 13.0284 24.1516 12.9565L23.9369 12.8668C23.6364 12.7411 23.2771 12.5897 22.9262 12.4357C22.5758 12.2818 22.2318 12.1245 21.9625 11.9871C21.8281 11.9186 21.7097 11.8536 21.6176 11.7956C21.5715 11.7666 21.53 11.738 21.4954 11.7104C21.4628 11.6843 21.4277 11.6523 21.4029 11.6152C21.2777 11.4278 21.2439 11.24 21.2964 11.0585C21.3463 10.8861 21.4682 10.7404 21.6082 10.6158C21.7496 10.49 21.9242 10.3729 22.1001 10.2619C22.1632 10.222 22.226 10.1832 22.2881 10.1448C22.3524 10.1052 22.4162 10.0658 22.4786 10.0263C19.2217 6.47633 13.8226 5.74003 9.75909 8.45519C2.50033 13.3053 4.80713 24.6444 13.3928 26.3942C19.0766 27.5527 24.4667 23.5682 25.0672 17.8269C25.0913 17.5999 25.1986 17.4281 25.3513 17.3206C25.5009 17.2153 25.6848 17.1777 25.8575 17.196C26.0302 17.2142 26.2022 17.2895 26.3264 17.4238C26.3633 17.4637 26.3953 17.5081 26.4216 17.5566C26.4855 17.6748 26.5151 17.8172 26.4981 17.9781C26.148 21.2985 24.3557 24.2937 21.5809 26.1478C13.2746 31.6978 2.26758 24.3285 4.18505 14.4511C5.9747 5.22755 17.5472 2.2448 23.691 9.21898L24.7706 8.49766Z" fill="#A32A29"/>
<path fill-rule="evenodd" clip-rule="evenodd" d="M15.3125 10.5703C13.5974 10.5703 12.207 11.9607 12.207 13.6758C12.207 14.7104 12.7129 15.6268 13.4909 16.1911C11.8174 16.8582 10.625 18.4175 10.625 20.2676C10.625 20.689 10.8353 21.0202 11.1333 21.2574C11.4184 21.4844 11.7971 21.6394 12.2073 21.7501C13.0313 21.9724 14.1355 22.0547 15.3125 22.0547C16.4895 22.0547 17.5937 21.9724 18.4177 21.7501C18.8279 21.6394 19.2066 21.4844 19.4917 21.2574C19.7897 21.0202 20 20.689 20 20.2676C20 18.4175 18.8076 16.8582 17.1341 16.1911C17.9121 15.6268 18.418 14.7104 18.418 13.6758C18.418 11.9607 17.0276 10.5703 15.3125 10.5703ZM15.3125 15.8438C16.5098 15.8438 17.4805 14.8731 17.4805 13.6758C17.4805 12.4784 16.5098 11.5078 15.3125 11.5078C14.1152 11.5078 13.1445 12.4784 13.1445 13.6758C13.1445 14.8731 14.1152 15.8438 15.3125 15.8438ZM15.3125 16.7812C13.2125 16.7812 11.5625 18.3702 11.5625 20.2676C11.5625 20.3406 11.5883 20.4214 11.7172 20.524C11.8591 20.6369 12.0982 20.7497 12.4515 20.845C13.1544 21.0346 14.1596 21.1172 15.3125 21.1172C16.4654 21.1172 17.4706 21.0346 18.1735 20.845C18.5268 20.7497 18.7659 20.6369 18.9078 20.524C19.0367 20.4214 19.0625 20.3406 19.0625 20.2676C19.0625 18.3702 17.4125 16.7812 15.3125 16.7812Z" fill="#A32A29" stroke="#A42A29" stroke-width="0.5"/>
</svg>
