<svg width="44" height="48" viewBox="0 0 44 48" fill="none" xmlns="http://www.w3.org/2000/svg">
<path d="M9.43828 5.05328C9.53701 5.00485 9.63746 4.95557 9.73993 4.90424C9.99199 4.80322 10.1936 4.7022 10.4457 4.55066C10.4755 4.52078 10.6288 4.45555 10.7178 4.4177L10.7256 4.41439C10.6674 4.45427 10.7188 4.42541 10.7719 4.39434C10.7802 4.39058 10.7837 4.38863 10.781 4.38901C10.816 4.36847 10.849 4.34862 10.849 4.34862C10.9498 4.29811 11.0507 4.2476 11.2019 4.19709C11.8573 3.94454 12.563 3.69198 13.2688 3.48994C17.2514 2.27768 21.4861 1.92411 25.6704 2.53024C28.8968 3.03534 32.0728 4.09607 34.9463 5.56088C35.5008 5.86394 36.2066 5.71241 36.5091 5.15679C36.8116 4.65168 36.6603 3.84351 36.1058 3.59096C31.0645 1.06543 25.4183 -0.298357 19.7216 0.0552178C16.0415 0.307771 12.4622 1.16645 9.13498 2.68177C8.47961 2.98483 7.82424 3.2879 7.21929 3.69198C6.71517 4.04556 6.4631 4.70219 6.81599 5.25781C7.06805 5.76292 7.82424 6.01547 8.32837 5.6619C8.68984 5.42045 9.05132 5.24312 9.43828 5.05328Z" fill="#A32A29"/>
<path d="M5.75714 39.0492C5.2026 37.6854 4.90012 36.2711 4.64806 34.8063C4.62285 34.6548 4.59764 34.4906 4.57244 34.3264C4.54723 34.1623 4.52203 33.9981 4.49682 33.8466C4.49682 33.7456 4.49682 33.6951 4.44641 33.594C4.44641 33.493 4.4338 33.392 4.4212 33.291C4.4086 33.19 4.39599 33.0889 4.39599 32.9879C4.29517 32.2303 4.29517 31.4726 4.29517 30.6644C4.29517 29.8563 4.34558 28.9976 4.44641 28.1894C4.44641 28.0998 4.44641 28.0101 4.48165 27.9204C4.47236 27.9915 4.46726 28.0344 4.49682 27.8863C4.49115 27.8977 4.48611 27.9091 4.48165 27.9204L4.48318 27.9087C4.48946 27.8608 4.49682 27.8046 4.49682 27.7853C4.52203 27.6843 4.53463 27.5833 4.54723 27.4823C4.55984 27.3812 4.57244 27.2802 4.59764 27.1792C4.62928 27.0366 4.65595 26.8939 4.68233 26.7529C4.74003 26.4443 4.79633 26.1432 4.90012 25.8659C5.40425 24.0475 6.0092 22.5827 7.11828 21.0169C7.62241 20.3097 8.22736 19.6026 8.93314 18.946C9.73974 18.1883 10.5463 17.5317 11.5042 16.9255C13.8736 15.4102 16.5959 14.3495 19.419 14.0969C22.4942 13.7939 25.5693 14.2485 28.4429 15.3597C30.7114 16.2184 32.7784 17.5317 34.442 19.2995C35.3494 20.2087 36.0552 21.2695 36.7106 22.3807C37.0634 22.9868 37.4163 23.6434 37.7188 24.3001C37.7944 24.4769 37.8827 24.6537 37.9709 24.8305C38.0591 25.0072 38.1473 25.184 38.2229 25.3608C38.3742 25.7144 38.475 26.068 38.5758 26.4215C38.6766 26.7246 38.727 27.0276 38.7775 27.3306C38.8042 27.411 38.8168 27.5058 38.8302 27.6072C38.8421 27.6967 38.8547 27.7916 38.8783 27.8863C38.8783 27.9369 38.8909 27.9874 38.9035 28.0379C38.9161 28.0884 38.9287 28.1389 38.9287 28.1894C38.8936 27.9782 38.9074 28.1349 38.919 28.2665C38.9241 28.3236 38.9287 28.3762 38.9287 28.3914C38.9791 28.7955 38.9791 29.1996 38.9791 29.6541V30.8665C38.8279 31.8767 38.6262 32.4323 38.0213 33.2405L37.9205 33.392L37.6684 33.6446C37.5172 33.7961 37.3659 33.9476 37.2651 33.9981C36.761 34.4022 36.156 34.6548 35.5511 34.8063C34.2403 35.2104 32.7279 35.1094 31.4676 34.4527C30.5098 33.9476 29.804 33.2405 29.2999 32.2808C29.1991 32.0787 29.1486 31.9777 29.0478 31.6746C28.9974 31.5231 28.947 31.3211 28.947 31.1695C28.9317 31.1082 28.9071 31.0283 28.8859 30.9595C28.8373 30.8014 28.8065 30.7014 28.947 31.018C28.8892 30.8732 28.8977 30.6951 28.9059 30.522C28.9121 30.3932 28.9181 30.267 28.8966 30.1593C28.8966 29.9034 28.8561 29.6476 28.8137 29.3788C28.7891 29.2232 28.7638 29.0633 28.7453 28.8966C27.6363 23.3404 19.7215 21.623 16.1422 25.7649C13.4199 28.8966 14.1761 33.493 15.638 37.0288C17.3017 41.1201 20.4777 44.3528 24.4098 46.3227C25.6702 46.9794 27.0313 47.4845 28.3925 47.9391C29.804 48.3937 30.409 46.1712 28.9974 45.7166C26.5776 44.9084 24.1074 43.7467 22.1917 42.1303C20.5785 40.8171 19.4694 39.4028 18.4611 37.6349L17.8058 36.3216C17.7554 36.2206 17.705 36.1196 17.705 36.0691C17.6041 35.867 17.5537 35.665 17.5033 35.4629C17.2512 34.7558 17.0496 33.9981 16.8983 33.2405C16.8479 32.887 16.7975 32.584 16.7471 32.281C16.7471 32.1799 16.7471 32.1292 16.6967 32.0787C16.6967 32.003 16.6841 31.9272 16.6715 31.8514C16.6589 31.7757 16.6463 31.6999 16.6463 31.6241C16.495 30.3614 16.6967 29.0986 17.3521 27.9874C18.7636 25.6639 21.5363 25.2598 23.8553 26.2195C24.7123 26.5731 25.5189 27.1792 26.0231 27.9874C26.4923 28.7318 26.5672 29.537 26.6478 30.403C26.6711 30.6534 26.6949 30.9089 26.7288 31.1695C26.7792 31.4726 26.7288 31.2706 26.7288 31.22C26.7288 31.2958 26.7414 31.3589 26.754 31.4221C26.7666 31.4852 26.7792 31.5484 26.7792 31.6241C26.8045 31.6999 26.8171 31.7883 26.8297 31.8767C26.8423 31.9651 26.8549 32.0535 26.8801 32.1292C26.9809 32.4828 27.1321 32.8869 27.2834 33.19C27.4346 33.5435 27.6867 33.9476 27.9387 34.2507C28.8966 35.5134 30.2073 36.4226 31.7701 36.8772C34.4924 37.6854 37.8196 36.9783 39.6849 34.7558C41.9535 32.0282 41.7014 28.0379 40.6427 24.8052C39.937 22.6837 38.7271 20.6633 37.3659 18.946C35.8535 16.976 33.9379 15.3092 31.7197 14.1475C25.9726 11.1168 19.0661 10.7127 13.1678 13.4403C9.08438 15.3092 5.55549 18.4914 3.79104 22.6837C2.4299 25.9164 2.0266 29.5027 2.37948 33.0384C2.58114 35.1599 2.98444 37.2813 3.69022 39.3017C3.74063 39.4028 3.79104 39.5038 3.79104 39.6048C4.04311 40.2109 4.54723 40.615 5.2026 40.413C5.50507 40.3625 6.0092 39.6553 5.75714 39.0492Z" fill="#A32A29"/>
<path d="M2.32927 17.6833C2.22844 17.7843 2.17803 17.8348 2.12762 17.9359C1.32101 19.1986 -0.645083 18.0369 0.211934 16.7741C1.2706 15.1073 2.73257 13.6425 4.19454 12.3292C7.11848 9.80365 10.5465 7.83373 14.2771 6.77301C17.1506 5.96484 20.2258 5.7628 23.2001 5.91433C26.3257 6.06586 29.4009 6.77301 32.2744 8.03577C36.5595 9.90467 40.1388 12.9858 42.8611 16.7741C43.214 17.2792 42.9619 18.0369 42.4578 18.3399C41.9033 18.6935 41.2479 18.441 40.895 17.9359C38.1223 14.1476 34.2405 11.0664 29.905 9.55109C28.4431 9.04599 26.9307 8.69241 25.4183 8.43986C25.3679 8.38935 25.2671 8.38935 25.1662 8.38935C25.015 8.36409 25.078 8.37672 25.141 8.38935C25.204 8.40198 25.2671 8.4146 25.1158 8.38935C25.0402 8.38935 24.9646 8.37672 24.889 8.36409C24.8133 8.35147 24.7377 8.33884 24.6621 8.33884C24.41 8.28833 24.1076 8.23782 23.8555 8.23782C23.6286 8.23782 23.3892 8.22519 23.1497 8.21256C22.9103 8.19993 22.6708 8.18731 22.4439 8.18731C21.5365 8.1368 20.5787 8.1368 19.6208 8.18731C17.4531 8.33884 15.3358 8.79343 13.3192 9.50058C11.6052 10.1067 9.94159 10.9654 8.37879 11.9756C7.06806 12.8343 6.05981 13.6425 4.90032 14.7537C4.14413 15.5113 3.38793 16.3195 2.73257 17.1277C2.70736 17.1782 2.66955 17.2161 2.63174 17.254C2.59393 17.2918 2.55612 17.3297 2.53092 17.3802C2.48051 17.4813 2.43009 17.5823 2.32927 17.6833Z" fill="#A32A29"/>
<path d="M20.2761 30.3111C20.2256 32.483 20.9818 34.655 22.0405 36.5239C23.5529 39.2514 25.9727 41.3729 28.947 42.2821C31.266 42.9892 33.585 42.8882 36.0048 42.6357C36.6098 42.5851 37.1643 42.1305 37.1643 41.4739C37.1643 40.8678 36.6602 40.2617 36.0048 40.3122C34.0387 40.5142 32.0726 40.6657 30.2578 40.2111C29.4512 40.0091 28.8966 39.8071 28.2917 39.504C28.1404 39.4282 27.9892 39.3398 27.838 39.2514C27.6867 39.163 27.5355 39.0747 27.3842 38.9989C27.3391 38.9687 27.2985 38.9386 27.2596 38.9098C27.1683 38.8421 27.0871 38.7818 26.9809 38.7463C26.8801 38.6958 26.8297 38.6453 26.7793 38.5948C26.76 38.5755 26.7408 38.5636 26.7243 38.5534C26.6977 38.5369 26.6785 38.525 26.6785 38.4938C26.1743 38.0897 25.6702 37.5846 25.2669 37.0795C25.2165 37.029 25.1661 36.9658 25.1157 36.9027C25.0653 36.8396 25.0149 36.7764 24.9644 36.7259C25.0401 36.8017 25.0022 36.7512 24.9455 36.6754C24.8888 36.5996 24.8132 36.4986 24.8132 36.4734C24.7124 36.3471 24.6242 36.2082 24.5359 36.0693C24.4477 35.9304 24.3595 35.7915 24.2587 35.6652C23.9562 35.1601 23.7041 34.655 23.4521 34.0994C23.4521 34.0847 23.4478 34.0701 23.4418 34.0554C23.4497 34.0694 23.4557 34.0814 23.4583 34.0867C23.4593 34.0886 23.4598 34.0897 23.4599 34.0896C23.4601 34.0896 23.4445 34.0552 23.4016 33.9478C23.4016 33.9731 23.4142 33.9983 23.4269 34.0236C23.4286 34.027 23.4302 34.0304 23.4319 34.0338C23.4354 34.041 23.4388 34.0482 23.4418 34.0554C23.4309 34.0361 23.4163 34.013 23.4016 33.9983C23.3765 33.9226 23.3513 33.8595 23.3261 33.7964C23.3009 33.7332 23.2756 33.67 23.2504 33.5942C23.2 33.468 23.1622 33.3417 23.1244 33.2154C23.0866 33.0892 23.0488 32.9629 22.9983 32.8366C22.8471 32.382 22.7463 31.9274 22.6455 31.4728C22.6455 31.4326 22.6135 31.2003 22.6005 31.2347C22.5974 31.2051 22.595 31.1805 22.595 31.1697V30.2605C22.595 28.8463 20.3265 28.8462 20.2761 30.3111Z" fill="#A32A29"/>
<path fill-rule="evenodd" clip-rule="evenodd" d="M32.1232 22.3302C33.938 24.6032 35.0975 27.4823 34.9967 30.4119C34.9967 31.9272 32.6777 31.9272 32.5769 30.5129C32.5769 30.1594 32.5769 29.7552 32.5265 29.3512C32.5265 29.3007 32.5139 29.1744 32.5076 29.1113C32.5013 29.0481 32.5013 29.0481 32.5265 29.2502C32.5265 29.1744 32.5139 29.1113 32.5013 29.0481C32.4887 28.985 32.4761 28.9218 32.4761 28.8461C32.3752 28.1894 32.1736 27.5833 31.9719 26.9772C31.9467 26.9014 31.9089 26.813 31.8711 26.7246C31.8333 26.6362 31.7955 26.5478 31.7703 26.4721C31.7199 26.3458 31.7325 26.3837 31.7451 26.4216C31.7577 26.4595 31.7703 26.4973 31.7199 26.3711C31.7199 26.2971 31.6929 26.2502 31.6586 26.1908C31.6461 26.169 31.6326 26.1456 31.619 26.1185C31.4678 25.7649 31.3166 25.4114 31.1149 25.1083C30.6108 24.2496 30.2579 23.795 29.6025 23.1384C28.3926 21.8756 26.8802 20.9664 25.1158 20.4108C22.7464 19.6531 20.2258 19.5521 17.806 20.3603C16.7473 20.7139 15.8399 21.219 14.9324 21.8251C14.8262 21.9069 14.724 21.9848 14.6245 22.0606C14.1097 22.4527 13.6667 22.7902 13.1176 23.3404C11.8068 24.6537 10.8994 26.3711 10.4961 28.2399C10.2945 29.1996 10.1936 30.1594 10.1936 31.1696C10.1936 31.6242 10.244 32.1293 10.2945 32.5839C10.2945 32.6596 10.3071 32.748 10.3197 32.8364C10.3323 32.9248 10.3449 33.0132 10.3449 33.089C10.3494 33.1163 10.3527 33.1366 10.355 33.1512C10.3953 33.2043 10.3953 33.2947 10.3953 33.3415C10.4023 33.384 10.4094 33.4274 10.4166 33.4717C10.4608 33.7436 10.5102 34.0477 10.5969 34.3517C11.5044 38.6451 13.8233 42.4334 16.9489 45.4641C18.0076 46.4743 16.3944 48.0906 15.3357 47.0804C11.6052 43.4942 8.93331 38.7967 8.17712 33.6446C7.77382 30.816 7.97547 27.8864 9.13496 25.2093C10.9498 21.118 15.2853 18.1378 19.6712 17.5822C24.2084 16.9761 29.2496 18.6934 32.1232 22.3302ZM10.3514 33.1466C10.3493 33.1366 10.3471 33.1254 10.3449 33.1142C10.3323 33.0511 10.3197 32.988 10.3449 33.1395C10.3471 33.1417 10.3493 33.1441 10.3514 33.1466Z" fill="#A32A29"/>
</svg>
