<svg xmlns="http://www.w3.org/2000/svg" viewBox="0 0 405.7 465.75"><defs><style>.cls-1{fill:none;stroke:#fefefe;stroke-opacity:0.1;}</style></defs><g id="Layer_2" data-name="Layer 2"><g id="Layer_1-2" data-name="Layer 1"><path class="cls-1" d="M7.53,3.38,75.91,61.05v94.58L221.43,281.52v32l111.24,94.56-.34,57.3"/><path class="cls-1" d="M220.94,465.38l-.14-27.79V405.67L75.43,280V185.51L.5,122.38v-30H348.73"/><path class="cls-1" d="M116.91.38,184,59.26V154L330.43,280.1l-.29,31.13,21.6,18.15"/><path class="cls-1" d="M227.3,2.38l68.05,57.74V154.8l68.43,59.58"/><path class="cls-1" d="M141.79,464.38l-67-57.71V312L1.51,248.7V218.38H348.73"/><path class="cls-1" d="M75.49,280.38H2.29v96l73.2,64v24.67"/><path class="cls-1" d="M2.29,219.19l35.67,32v62.62l37.53,31.31"/><path class="cls-1" d="M.43,90.62l37.53,32v62.59l37.53,33.17"/><path class="cls-1" d="M109.89,89.38l37.54,33-.4,62.84,38.12,31.16"/><path class="cls-1" d="M148,154.59l37.52,32V249.1l35.66,31.28,73.34-.7V186.46l-72.9-64.41V27.84L192,2.38"/><path class="cls-1" d="M.5,60.38l111.93,94v62.77L148,250.38"/><path class="cls-1" d="M148,249.38V312.1l37.72,33.21V408l64.69,57.4"/><path class="cls-1" d="M220.28,90.38l37.81,31.91.24,63.75,37.21,32.34"/><path class="cls-1" d="M223.29,219.38l35.64,31.21L258.49,314l37.05,31.34"/><path class="cls-1" d="M186.16,344.38v-31L112.9,249.49l.07-33.11"/><path class="cls-1" d="M221.28,185.38l.2,63.82L296,313.43v93.95l52.75,45"/><path class="cls-1" d="M75.49,155.63H2.43v30.75L112,281v95l73.4,63.89v25.49"/><path class="cls-1" d="M405.2,460V440.18l-74.53-62.57V281.46h18"/><path class="cls-1" d="M295.54,155.38H220.28v31"/><path class="cls-1" d="M220.28,280.38v96.28l75.26,63.64v25.08"/><path class="cls-1" d="M258.43,250.38h36.25l-.35,30.83,37.34,32.17"/><path class="cls-1" d="M186.15,250.38v31l-73.26-.9"/><path class="cls-1" d="M185.15,27.38,330.74,154.55v94.83l18,17"/><path class="cls-1" d="M185.15,281.38l57.2,51"/></g></g></svg>