<svg width="32" height="32" viewBox="0 0 32 32" fill="none" xmlns="http://www.w3.org/2000/svg">
<path fill-rule="evenodd" clip-rule="evenodd" d="M16.0552 6.19556H17.0978C22.9906 6.19556 27.7975 10.8789 28.0238 16.717C28.0378 16.8573 28.0451 16.999 28.0451 17.1429H27.0025C27.0025 17.0797 26.9982 17.0176 26.9939 16.9555C26.9909 16.9116 26.9879 16.8676 26.9864 16.8234C26.8258 15.248 25.4918 14.0151 23.8747 14.0151C22.1497 14.0151 20.7469 15.4179 20.7469 17.1429H19.7043C19.7043 15.5957 18.5746 14.3112 17.0978 14.062V24.4412C17.0978 25.3034 16.3961 26.0051 15.5339 26.0051C14.6716 26.0051 13.9699 25.3034 13.9699 24.4412V23.9199H15.0126V24.4412C15.0126 24.7284 15.2466 24.9625 15.5339 24.9625C15.8211 24.9625 16.0552 24.7284 16.0552 24.4412V14.062C14.5783 14.3117 13.4486 15.5962 13.4486 17.1429H12.406C12.406 15.4179 11.0032 14.0151 9.27821 14.0151C7.66113 14.0151 6.32712 15.248 6.16656 16.8234C6.16504 16.8677 6.16201 16.9116 6.15897 16.9555C6.15469 17.0176 6.15039 17.0797 6.15039 17.1429H5.10779C5.10779 16.999 5.11509 16.8573 5.12916 16.717C5.35541 10.8789 10.1623 6.19556 16.0552 6.19556ZM6.72383 13.8535C7.43019 13.3035 8.31537 12.9725 9.27821 12.9725C10.5314 12.9725 11.6543 13.5308 12.4196 14.4082C12.4858 11.7381 13.5039 9.23423 15.3113 7.2757C11.3301 7.57388 8.00519 10.231 6.72383 13.8535ZM16.5765 12.9725C15.3384 12.9725 14.228 13.5178 13.4638 14.3774C13.5409 11.8475 14.5522 9.47872 16.3497 7.68075L16.5765 7.45398L16.8032 7.68075C18.6007 9.47872 19.612 11.8475 19.6892 14.3774C18.9249 13.5178 17.8146 12.9725 16.5765 12.9725ZM20.7333 14.4087C21.4986 13.5308 22.6215 12.9725 23.8747 12.9725C24.8376 12.9725 25.7227 13.3035 26.4291 13.854C25.1477 10.2315 21.8229 7.5744 17.8417 7.27622C19.649 9.23475 20.6671 11.7386 20.7333 14.4087Z" fill="#929497"/>
</svg>
