<svg width="48" height="48" viewBox="0 0 48 48" fill="none" xmlns="http://www.w3.org/2000/svg">
<g clip-path="url(#clip0_3_14095)">
<path d="M45.3351 12.9952C44.2261 10.8466 42.7725 8.82984 40.9714 7.02871C39.1702 5.22749 37.1533 3.7739 35.0048 2.66502L18.0971 18.0968L2.66516 35.0046C3.77413 37.1532 5.22772 39.1701 7.02885 40.9712C8.82997 42.7723 10.8468 44.2259 12.9954 45.3349L29.9031 29.903L45.3351 12.9952Z" fill="#FFDA44"/>
<path d="M7.02874 40.9712C8.03552 41.978 9.10981 42.8759 10.2366 43.6665L43.6663 10.2366C42.8759 9.10981 41.978 8.03552 40.9712 7.02874C39.9643 6.02196 38.8901 5.12412 37.7634 4.33362L4.33362 37.7634C5.12402 38.89 6.02187 39.9644 7.02874 40.9712Z" fill="#D80027"/>
<path d="M7.0287 7.02869C-0.543205 14.6006 -1.9968 25.9723 2.66501 35.0046L35.0046 2.6651C25.9722 -1.99662 14.6005 -0.542837 7.0287 7.02869Z" fill="#338AF3"/>
<path d="M40.9711 40.9713C48.543 33.3995 49.9965 22.0279 45.3349 12.9955L12.9953 45.335C22.0276 49.9968 33.3994 48.5433 40.9711 40.9713Z" fill="#338AF3"/>
<path d="M12.79 7.30357L14.085 11.2895H18.276L14.8855 13.7529L16.1805 17.7388L12.79 15.2753L9.39921 17.7388L10.6945 13.7529L7.30371 11.2895H11.4947L12.79 7.30357Z" fill="#FFDA44"/>
</g>
<defs>
<clipPath id="clip0_3_14095">
<rect width="48" height="48" fill="white"/>
</clipPath>
</defs>
</svg>
