<svg width="32" height="32" viewBox="0 0 32 32" fill="none" xmlns="http://www.w3.org/2000/svg">
<path d="M7.04998 20.4001C7.04998 20.0636 7.38482 19.8501 7.71428 19.8501H13.8857C14.2152 19.8501 14.5499 20.0636 14.55 20.4001C14.55 20.7366 14.2151 20.9501 13.8857 20.9501H7.71428C7.38482 20.9501 7.04998 20.7366 7.04998 20.4001Z" fill="#929497"/>
<path fill-rule="evenodd" clip-rule="evenodd" d="M23.3 16.8001H22.3C21.473 16.8001 20.8 17.4731 20.8 18.3001V19.3001C20.8 20.1271 21.473 20.8001 22.3 20.8001H23.3C24.127 20.8001 24.8 20.1271 24.8 19.3001V18.3001C24.8 17.4731 24.127 16.8001 23.3 16.8001ZM23.8 19.3001C23.8 19.5761 23.576 19.8002 23.3 19.8002H22.3C22.024 19.8002 21.8 19.5761 21.8 19.3001V18.3002C21.8 18.0241 22.024 17.8001 22.3 17.8001H23.3C23.576 17.8001 23.8 18.0241 23.8 18.3002V19.3001Z" fill="#929497"/>
<path fill-rule="evenodd" clip-rule="evenodd" d="M3.84998 10.5001C3.84998 9.03925 5.03913 7.8501 6.49996 7.8501H25.5C26.9609 7.8501 28.15 9.03925 28.15 10.5001V21.5001C28.15 22.9609 26.9608 24.1501 25.5 24.1501H6.49996C5.03914 24.1501 3.84998 22.9609 3.84998 21.5001V10.5001ZM5.14996 14.0501V12.3501H26.8499V14.0501H5.14996ZM5.14996 15.3501V21.5001C5.14996 22.2442 5.75579 22.8501 6.49996 22.8501H25.5C26.2404 22.8501 26.8438 22.2504 26.85 21.5115V15.3501H5.14996ZM26.85 11.0501H5.14996V10.5001C5.14996 9.75595 5.75579 9.15013 6.49996 9.15013H25.5C26.2442 9.15013 26.85 9.75595 26.85 10.5001V11.0501Z" fill="#929497"/>
</svg>
