<svg xmlns="http://www.w3.org/2000/svg" xmlns:xlink="http://www.w3.org/1999/xlink" viewBox="0 0 362.38 183.33"><defs><style>.cls-1{fill:#fff;}.cls-1,.cls-6{fill-rule:evenodd;}.cls-2{fill:none;}.cls-3{clip-path:url(#clip-path);}.cls-4{fill:#b0b0b0;}.cls-5{opacity:0.1;}.cls-6{fill:#fefefe;}.cls-7{mask:url(#mask);}</style><clipPath id="clip-path" transform="translate(14 17.52)"><rect class="cls-2" width="335" height="132" rx="8"/></clipPath><mask id="mask" x="318.96" y="131.42" width="43.43" height="43.43" maskUnits="userSpaceOnUse"><g transform="translate(14 17.52)"><g id="mask0_2974:3593" data-name="mask0 2974:3593"><path class="cls-1" d="M305,113.9h43.42v43.43H305Z"/></g></g></mask></defs><g id="Layer_2" data-name="Layer 2"><g id="Layer_1-2" data-name="Layer 1"><g class="cls-3"><path class="cls-4" d="M0,8A8,8,0,0,1,8,0H327a8,8,0,0,1,8,8V124a8,8,0,0,1-8,8H8a8,8,0,0,1-8-8Z" transform="translate(14 17.52)"/><g class="cls-5"><path class="cls-6" d="M240.72,155.43l2.34-6.54,2.24,3.91Zm-6.64-.29,4.38-14.29,1.76,3.07-4.39,14.29Zm-4.6-8,4.38-14.29,1.76,3.06-4.39,14.29Zm-4.6-8,4.38-14.29,1.76,3.06-4.39,14.29Zm.8,24.82a3.36,3.36,0,0,1-4.59-1.24l-.12-.21L218,157.31l-10.29-18-3-5.17-.1-.18a3.36,3.36,0,0,1,1.24-4.59l.71-.41a3.37,3.37,0,0,0-1.25,4.59l16.42,28.67a3.37,3.37,0,0,0,4.59,1.25Zm-10-5.27a10.36,10.36,0,0,1-10.28-18l1.81-1,10.29,18Zm-18.51-12.56c-.68,2.65-.66,5-1.3,4.8s-.6-2.45.08-5.1,1.75-4.66,2.39-4.5S197.9,143.42,197.21,146.07Zm9.31,18.09c-2.63-.76-4.62-1.88-4.43-2.51s2.16.55,4.79,1.3,4.91.8,4.73,1.43S209.15,164.91,206.52,164.16Zm-1.37-24A10.92,10.92,0,0,0,216,159.11l1.82-1,1.1,1.92-2.21,1.26-.39.19a13.12,13.12,0,0,1-12.56-23l2.12-1.21,1.1,1.91Zm49.23,3.43L238,114.92a3.93,3.93,0,0,0-5.35-1.45l-7.4,4.24,1.21,2.11L222,134.11,220.28,131l3.3-12.4.17-.61-5,2.85-.16.6-1.19,4.59-1.68-2.94-10.11,5.78a3.94,3.94,0,0,0-1.45,5.35l.11.19-1.83,1.05a16.3,16.3,0,0,0,15.6,28.6c.18-.08.34-.16.5-.25l1.93-1.1.1.19a3.94,3.94,0,0,0,5.36,1.45l27-15.44A3.93,3.93,0,0,0,254.38,143.6Z" transform="translate(14 17.52)"/><path class="cls-6" d="M104.05,32.73a1.89,1.89,0,1,1,1.89-1.89A1.89,1.89,0,0,1,104.05,32.73Zm0-6.43a4.54,4.54,0,1,0,4.53,4.54A4.54,4.54,0,0,0,104.05,26.3Z" transform="translate(14 17.52)"/><path class="cls-6" d="M84.15,14.1a3.36,3.36,0,0,1,3.36-3.36h33a3.37,3.37,0,0,1,3.36,3.36v.82a3.36,3.36,0,0,0-3.36-3.36h-33a3.35,3.35,0,0,0-3.36,3.36Zm33.2-12.44c-.46.47-1.62-1.49-3.58-3.4s-4-3-3.52-3.51,2.42.69,4.38,2.6S117.81,1.19,117.35,1.66ZM97.83-5.25c.46.47-1.55,1.61-3.51,3.51s-3.13,3.87-3.59,3.4.76-2.4,2.72-4.31S97.37-5.72,97.83-5.25ZM104-2.56A10.91,10.91,0,0,0,93.12,8.08v2.1H90.91V7.64c0-.15,0-.29,0-.43a13.12,13.12,0,0,1,26.22.53v2.44h-2.21V8.08A10.91,10.91,0,0,0,104-2.56ZM93.67,10.18V8.08a10.35,10.35,0,0,1,20.7,0v2.08Zm19.09,24.13-1.35,2.34-1.87-.92a7.6,7.6,0,0,1-1.62,1.37l.58,2L106,40l-.85-1.9a7.06,7.06,0,0,1-2.12,0l-.84,1.9-2.54-.92.57-2a7.6,7.6,0,0,1-1.62-1.37l-1.87.92-1.35-2.34,1.72-1.16a7.21,7.21,0,0,1-.36-2.09l-2-.5.47-2.66,2.06.22a7.5,7.5,0,0,1,1.07-1.84l-1.23-1.67,2.07-1.74,1.44,1.51a7.53,7.53,0,0,1,2-.7l.14-2h2.7l.14,2a7.5,7.5,0,0,1,2,.68l1.44-1.5,2.07,1.74-1.23,1.68a7.32,7.32,0,0,1,1.07,1.84L113,27.9l.47,2.66-2,.5a7.21,7.21,0,0,1-.36,2.09ZM87.51,49.1h33a3.93,3.93,0,0,0,3.92-3.92V14.1a3.93,3.93,0,0,0-3.92-3.92h-.22V8.08a16.3,16.3,0,0,0-32.58-.67c0,.19,0,.37,0,.55v2.22h-.22a3.93,3.93,0,0,0-3.92,3.92V45.18A3.93,3.93,0,0,0,87.51,49.1Z" transform="translate(14 17.52)"/><path class="cls-6" d="M204.81,81.2l9.87-25,.16-.39,1.55-3.94.27-.68.1-.24.11-.28.08-.21a3.36,3.36,0,0,1,4.36-1.89l.76.3a3.36,3.36,0,0,0-4.36,1.89L205.57,81.5a3.36,3.36,0,0,0,1.89,4.36l-.76-.3A3.36,3.36,0,0,1,204.81,81.2ZM185.48,62.55a16.14,16.14,0,0,1,.89,2.49l-1-2.49ZM189,71.12a.31.31,0,0,1-.06.25s0,.06-.07.08h-.07a.33.33,0,0,1-.17,0,1,1,0,0,1-.23-.12l-.19-.14c-.08-.08-.17-.15-.26-.25a4.91,4.91,0,0,1-.33-.41,6.31,6.31,0,0,1-.38-.54c-.15-.24-.31-.5-.47-.78s-.47-.9-.7-1.41c-.06-.16-.13-.3-.2-.46a19,19,0,0,1-.65-1.8,11.52,11.52,0,0,1-.3-1.19,6.7,6.7,0,0,1-.11-.7,4.12,4.12,0,0,1,0-.48v-.1a2.17,2.17,0,0,1,0-.26s0,0,0-.07a.75.75,0,0,1,.05-.16v0h.38l1.23,2.81c.17.48.35,1,.57,1.51,0,.13.11.25.17.38.25.58.51,1.11.76,1.59l.19.37.38.73.27.55v.19Zm9.35-24a25.68,25.68,0,0,1-2.68,1c-.47.18-1,.37-1.49.61-.33.15-.65.3-1,.46-.6.31-1.15.61-1.63.88a4.58,4.58,0,0,1-1.75.76.21.21,0,0,1-.17-.09s0,0-.05,0a.4.4,0,0,1,0-.11.37.37,0,0,1,0-.18.73.73,0,0,1,.12-.23A2.19,2.19,0,0,1,190,50a3.2,3.2,0,0,1,.32-.31l.26-.22c.16-.12.33-.25.53-.38s.46-.31.72-.46.73-.41,1.14-.62l.7-.33a18,18,0,0,1,2.42-.9c.36-.1.7-.18,1-.24s.41-.06.58-.07h.44l.25,0h0v.66Zm-2.62,24.44,2,.79a5.56,5.56,0,0,1,.65.3l.21.14.36.23a2.09,2.09,0,0,1,.22.2,2.75,2.75,0,0,1,.26.22c.07.07.13.15.2.23l.19.22c.06.09.1.17.15.26a1,1,0,0,1,.13.22c.05.09.07.18.11.27s0,.14.07.22a2.34,2.34,0,0,1,0,.26c0,.08,0,.15,0,.23a1.13,1.13,0,0,1,0,.25.57.57,0,0,1,0,.13h0l-5.76-2.28c-.13,0-.26-.12-.39-.18a13.12,13.12,0,0,1,10.13-24.19l10.93,4.32-.46,1.17-.35.88-10.61-4.19a10.92,10.92,0,0,0-8,20.3Zm26.42-4.48a7.19,7.19,0,0,0,.05-1.47c0-.08,0-.14,0-.22l2.69-.28,17.55,3.46-1,4.83L223.93,70h-.08l16.41,6.48L238.45,81l-16.63-6.57-2.39-1,.18-.25s0,0,0,0a6.93,6.93,0,0,0,.83-1.5l.15-.41a7.52,7.52,0,0,0,.31-1.44,1.49,1.49,0,0,1,0-.21c.78,0,1.56.12,2.34.18l-1.87-.37c0-.1.1-.19.14-.28v0a7,7,0,0,0,.54-1.62A3.21,3.21,0,0,0,222.16,67.11ZM236.6,85.7,220,79.13c-.7-.58-1.4-1.13-2.1-1.7a1.83,1.83,0,0,1,.13-.16,7.17,7.17,0,0,0,.75-1.27c.06-.13.12-.26.17-.4a6.86,6.86,0,0,0,.43-1.66v0c0-.1,0-.21,0-.31l2.39.94,16.64,6.57Zm-30.1.38L235.4,97.5a3.92,3.92,0,0,0,5.09-2.2l12.14-30.73a3.94,3.94,0,0,0-2.21-5.09L221.51,48.06a3.92,3.92,0,0,0-5.08,2.21l-.08.2-10.61-4.19a16.3,16.3,0,0,0-12.6,30.05c.17.09.34.16.5.23l2.11.83c2.19.87,4.38.33,5-1.22s-.62-3.45-2.81-4.31l-2-.79a10.36,10.36,0,0,1,7.63-19.25L214.16,56h0l-9.87,25A3.92,3.92,0,0,0,206.5,86.08Z" transform="translate(14 17.52)"/><path class="cls-6" d="M219,75.62l0,.08c0,.11-.1.22-.15.33a7.23,7.23,0,0,1-.72,1.22l.78.58,1.19.89,1.51-3.83L219.39,74A7.42,7.42,0,0,1,219,75.62Z" transform="translate(14 17.52)"/><path class="cls-6" d="M221,69.94a7,7,0,0,1-.3,1.39l-.12.34,0,.08a7.48,7.48,0,0,1-.78,1.44l2.17.86,1.51-3.83-1.48-.17Z" transform="translate(14 17.52)"/><path class="cls-6" d="M224,69.57l.18-.92-.15.74Z" transform="translate(14 17.52)"/><path class="cls-6" d="M224.74,65.53l-1.49.1-1,.07a7.44,7.44,0,0,1-.05,1.42c0,.12,0,.24-.06.36s0,0,0,.07a7.49,7.49,0,0,1-.51,1.56l2.29.45Z" transform="translate(14 17.52)"/><path class="cls-6" d="M154.35,16.31l4.44,1.27L161,16.33l.6,1.08-.28.16-.18-.32,0,0L161,16.9l-1.54.86-.7.39-.27-.07-.89-.26-.19-.05-1.88-.54.67,1.21.28.51-.49.28-.44.24-4.91,2.74,1.14,2.05L155.84,22,157,24l-4.08,2.28,1.15,2.05,4.9-2.73.44-.25.23-.12.27-.16.28.51.68,1.21,1.78-6.28a1.24,1.24,0,0,0-.85-1.53l-2-.57-.67-.2.69-.39,1.08-.6,0,.08.2.36-.64.36,1.47.41a1.81,1.81,0,0,1,1.25,2.24L161,28.3l-1.34-2.4-5.86,3.27L152.4,26.6l-.24-.42.52-.29,3.55-2-.67-1.21-3.56,2-.51.29-.23-.42L149.82,22l5.86-3.27Zm6.86-19.43a3.37,3.37,0,0,1,4.57,1.3l.11.21,2.89,5.18,10.08,18.08,2.9,5.2.11.19a3.36,3.36,0,0,1-1.3,4.57l-.72.4a3.36,3.36,0,0,0,1.3-4.57L165.06-1.42a3.36,3.36,0,0,0-4.57-1.3Zm9.89,5.39a10.36,10.36,0,0,1,10.07,18.09l-1.82,1L169.27,3.3ZM189.46,15c.71-2.64.72-4.95,1.36-4.78s.57,2.45-.14,5.09-1.8,4.65-2.43,4.47S188.75,17.68,189.46,15ZM180.37-3.15c2.62.78,4.59,1.93,4.4,2.56s-2.16-.58-4.78-1.36-4.9-.85-4.71-1.48S177.75-3.93,180.37-3.15Zm1.09,24A10.92,10.92,0,0,0,170.83,1.78l-1.83,1L167.92.88l2.22-1.24.39-.19a13.12,13.12,0,0,1,12.3,23.16L180.7,23.8l-1.08-1.93ZM153.69,47.23,180.84,32.1a3.91,3.91,0,0,0,1.51-5.33l-.1-.19,1.83-1A16.31,16.31,0,0,0,168.81-3.23a4.47,4.47,0,0,0-.49.25L166.37-1.9l-.1-.19a3.94,3.94,0,0,0-5.34-1.52L133.79,11.53a3.92,3.92,0,0,0-1.52,5.33l16.09,28.86A3.91,3.91,0,0,0,153.69,47.23Z" transform="translate(14 17.52)"/><path class="cls-6" d="M15.83,90.77l.82-.06a3.37,3.37,0,0,0-3.1,3.61L16,127.26a3.37,3.37,0,0,0,3.61,3.1l-.82.06a3.36,3.36,0,0,1-3.6-3.1L12.73,94.38A3.37,3.37,0,0,1,15.83,90.77Zm5.74,11.32,22-1.65A1.66,1.66,0,0,1,45.33,102l1,12.79a1.66,1.66,0,0,1-1.52,1.76l-17.38,1.31c0,.14-.12.23-.22.23a16.21,16.21,0,0,0-3.93.29c-.1,0-.2-.06-.24-.2l-.22,0A1.65,1.65,0,0,1,21,116.64l-1-12.78A1.65,1.65,0,0,1,21.57,102.09Zm-33.11,4.49a.35.35,0,0,1-.14,0h-.05a.45.45,0,0,1-.06-.12.48.48,0,0,1-.06-.18,2.44,2.44,0,0,1,0-.26,2.77,2.77,0,0,1,.09-.33q.06-.2.15-.42c.07-.16.15-.33.25-.51s.24-.44.38-.67.4-.62.63-.94.55-.75.87-1.14a17.83,17.83,0,0,1,2-2c.25-.22.48-.39.7-.55a4.91,4.91,0,0,1,.5-.31A1.91,1.91,0,0,1-6,98.94s.06,0,.09,0h.42s.06,0,.08,0a0,0,0,0,0,0,0s0,0,0,0l0,.07s0,0,0,0,0,0,0,.07l0,0a3.85,3.85,0,0,1-.89,1.13l-1,1c-.41.42-.86.9-1.3,1.43s-.77,1-1.1,1.42C-10.51,105.48-11.14,106.51-11.54,106.58Zm.77,12.33a.1.1,0,0,1,.07,0,.37.37,0,0,1,.3,0,4.7,4.7,0,0,1,1,.87c.37.38.81.85,1.31,1.35.33.33.68.67,1.06,1s1,.84,1.46,1.19c1.23.93,2.19,1.56,2.24,2a.26.26,0,0,1,0,.19.52.52,0,0,1-.41.1l-.28,0-.37-.12-.48-.22-.58-.33c-.24-.15-.49-.31-.76-.5s-.84-.62-1.27-1l-.35-.29c-.55-.49-1-1-1.47-1.45a10.74,10.74,0,0,1-.82-1c-.15-.2-.27-.39-.38-.56s-.14-.27-.2-.4a.08.08,0,0,0,0,0v-.73Zm2.18-6.37A10.94,10.94,0,0,0,2.85,122.63L5,122.47a5.82,5.82,0,0,1,.72,0l.24,0a3.18,3.18,0,0,1,.43.06l.27.06.35.1.26.11.29.13.24.15.22.15.2.19.17.18.15.21a2,2,0,0,1,.11.2,2.25,2.25,0,0,1,.08.24.5.5,0,0,1,0,.13h0l-6.17.46H2.14A13.12,13.12,0,0,1,.71,98.69l11.72-.88,0,.51.12,1.69-11.38.85A10.92,10.92,0,0,0-8.59,112.54Zm9.86-11.12,11.36-.85,2,26.8a3.92,3.92,0,0,0,4.2,3.61l31-2.32a3.92,3.92,0,0,0,3.61-4.2L51,91.51a3.92,3.92,0,0,0-4.2-3.62l-31,2.32a3.94,3.94,0,0,0-3.62,4.21l0,.22L.81,95.49a16.23,16.23,0,0,0-11,5.7,16.17,16.17,0,0,0-3.81,11.75A16.3,16.3,0,0,0,2.57,128a4.91,4.91,0,0,0,.55,0l2.27-.17c2.34-.17,4.08-1.62,4-3.28s-2.06-2.83-4.41-2.65l-2.14.16a10.36,10.36,0,0,1-1.53-20.65Z" transform="translate(14 17.52)"/><path class="cls-6" d="M45.49,114.28a.14.14,0,0,0-.12.14.13.13,0,0,0,.14.11.12.12,0,0,0,.11-.13A.12.12,0,0,0,45.49,114.28Z" transform="translate(14 17.52)"/><path class="cls-6" d="M45.53,114.88a.12.12,0,1,0,0,.24.12.12,0,1,0,0-.24Z" transform="translate(14 17.52)"/><path class="cls-6" d="M45.51,114.58a.12.12,0,0,0-.12.13.14.14,0,0,0,.14.12.12.12,0,0,0,.11-.14A.11.11,0,0,0,45.51,114.58Z" transform="translate(14 17.52)"/><path class="cls-6" d="M44.5,107.54a.91.91,0,1,1-.84,1A.91.91,0,0,1,44.5,107.54Zm.15,2a1.05,1.05,0,1,0-.16-2.1,1,1,0,0,0-1,1.13A1.06,1.06,0,0,0,44.65,109.5Z" transform="translate(14 17.52)"/><path class="cls-6" d="M22.65,117.44,43,115.91a.88.88,0,0,0,.78-1l-1-12.79a.89.89,0,0,0-.91-.85l-20.34,1.52a.89.89,0,0,0-.78,1l1,12.79A.89.89,0,0,0,22.65,117.44Z" transform="translate(14 17.52)"/><path class="cls-6" d="M116.45,107.56a3.35,3.35,0,0,1-.91,4.66l-.68.46a3.38,3.38,0,0,0,.92-4.67L97.33,80.6a3.35,3.35,0,0,0-4.66-.91l.68-.46a3.37,3.37,0,0,1,4.66.92l15,22.29,3.32,4.94ZM95,98.16l4.27,6.35-4,2.69L91,100.86Zm5.29,9.7-12.22,8.22L87,114.41l-6.46-9.6-1.09-1.62,13.18-8.87.61.9-.12.08,1.76,2.61-4.26,2.87,4.61,6.85,4.26-2.87.13.2.12-.08.91,1.36Zm14.89-35.09v-.44l.06,0a1.33,1.33,0,0,1,.24-.11l.06,0,.31-.07h2.23a18.8,18.8,0,0,1,2,.31c.45.1.88.21,1.28.32s.71.21,1,.32l.71.28a5.24,5.24,0,0,1,.53.25l.39.21a2.77,2.77,0,0,1,.31.22c.08.07.14.14.2.2a.77.77,0,0,1,.11.19.35.35,0,0,1,0,.17s0,0,0,0h0a.19.19,0,0,1-.09.12.58.58,0,0,1-.39.08,4.83,4.83,0,0,1-.74-.15c-.49-.13-1.11-.33-1.83-.54-.56-.16-1.17-.32-1.82-.46s-1.49-.26-2.14-.34a8.71,8.71,0,0,1-2.53-.48Zm15.05,19c.17-.62.34-1.31.47-2s.23-1.53.3-2.2c.13-1.36.19-2.37.47-2.62a.2.2,0,0,1,.17,0h0a.42.42,0,0,1,.12.08.51.51,0,0,1,.14.15,1.2,1.2,0,0,1,.12.23,1.67,1.67,0,0,1,.09.37,10.2,10.2,0,0,1,0,2.85c-.05.45-.11.92-.19,1.41a16.46,16.46,0,0,1-.85,3.07,8.54,8.54,0,0,1-.44.94,3,3,0,0,1-.23.32,1.7,1.7,0,0,1-.19.19.81.81,0,0,1-.18.1.38.38,0,0,1-.17,0h0a.19.19,0,0,1-.14-.1C129.58,94.21,129.91,93.21,130.27,91.82ZM126,81.23a10.93,10.93,0,0,0-14.93-3.11l-1.78,1.19a4.33,4.33,0,0,1-.62.36l-.23.1a3.2,3.2,0,0,1-.39.16l-.28.08-.34.08-.29,0-.31,0-.28,0-.27,0-.27-.06-.23-.07-.23-.12a.82.82,0,0,1-.2-.12,1,1,0,0,1-.19-.16.43.43,0,0,1-.1-.09h0L110.21,76c.12-.08.24-.16.37-.23a13.12,13.12,0,0,1,14.19,22.06L115,104.42l-1.23-1.83,9.46-6.37A10.91,10.91,0,0,0,126,81.23Zm7,9.09a16.3,16.3,0,0,0-24.32-17,5.55,5.55,0,0,0-.48.29l-1.88,1.26c-2,1.31-2.75,3.43-1.82,4.81s3.19,1.44,5.15.13l1.77-1.2a10.36,10.36,0,0,1,11.55,17.19l-9.45,6.36-15-22.3A3.92,3.92,0,0,0,93,78.77L67.25,96.12a3.92,3.92,0,0,0-1.07,5.44L84.63,129A3.92,3.92,0,0,0,90.07,130l25.79-17.35a3.93,3.93,0,0,0,1.06-5.44l-.12-.19,9.46-6.37A16.19,16.19,0,0,0,133,90.32Z" transform="translate(14 17.52)"/><path class="cls-6" d="M93,109.44l-5.53-8.22.07,0L93,109.39Zm-.89.59-5.53-8.21.07,0L92.14,110Zm-.89.6-5.53-8.21.07,0,5.53,8.22Zm-.89.6L84.76,103l.07,0,5.53,8.21Zm-.89.6-5.53-8.22.07,0,5.53,8.21Zm-.89.6L83,104.21l.07,0,5.53,8.22Zm-.89.6-5.53-8.22.07,0L87.69,113Zm-6.89-8.36,6.47,9.6,7.22-4.85L88,99.81Z" transform="translate(14 17.52)"/><path class="cls-6" d="M97.61,102.47,94,104.87l.91,1.35,3.57-2.4Z" transform="translate(14 17.52)"/><g class="cls-7"><path class="cls-6" d="M316.25,150.93a18.59,18.59,0,0,0,7.87,3l-.18,1.67a20,20,0,0,1-8.68-3.33Zm-7.78-6.59,1.53-.68a18.53,18.53,0,0,0,5.24,6.51l-1,1.35A20.37,20.37,0,0,1,308.47,144.34Zm-1.92-10.27,1.67.18a18.42,18.42,0,0,0,1.26,8.26l-1.54.68A20,20,0,0,1,306.55,134.07Zm3.49-9.93,1.35,1a18.62,18.62,0,0,0-3,7.87l-1.67-.18A20.06,20.06,0,0,1,310,124.14Zm8-6.76.68,1.54a18.53,18.53,0,0,0-6.54,5.21l-1.35-1A20.31,20.31,0,0,1,318,117.38Zm10.28-1.88-.18,1.66a18.45,18.45,0,0,0-8.27,1.24l-.68-1.54A20.07,20.07,0,0,1,328.29,115.5Zm8.81,4.81a18.45,18.45,0,0,0-7.74-3l.18-1.67a20,20,0,0,1,8.55,3.31Zm7.78,6.59-1.54.68a18.65,18.65,0,0,0-5.24-6.52l1-1.35A20.31,20.31,0,0,1,344.88,126.9Zm1.91,10.27-1.67-.18a18.32,18.32,0,0,0-1.26-8.27l1.54-.68A20.08,20.08,0,0,1,346.79,137.17Zm-3.42,9.8L342,146a18.54,18.54,0,0,0,3-7.74l1.66.18A20,20,0,0,1,343.37,147Zm-7.92,6.82-.68-1.54a18.66,18.66,0,0,0,6.5-5.26l1.35,1A20.24,20.24,0,0,1,335.45,153.79Zm-10.26,2,.18-1.67a18.54,18.54,0,0,0,8.26-1.29l.68,1.54A20.05,20.05,0,0,1,325.19,155.74Zm-15-13.53a17.76,17.76,0,0,1-1.2-7.88c0-.21,0-.42,0-.64s.07-.41.1-.61a17.71,17.71,0,0,1,2.9-7.5c.24-.35.5-.68.76-1a18,18,0,0,1,6.23-5c.38-.18.76-.35,1.15-.51a17.6,17.6,0,0,1,7.88-1.17l.57,0c.23,0,.46.07.69.11a17.53,17.53,0,0,1,7.37,2.86c.35.23.68.49,1,.75a17.82,17.82,0,0,1,5,6.21c.18.38.36.75.52,1.14a17.78,17.78,0,0,1,1.2,7.88c0,.21,0,.42,0,.63s-.06.42-.09.63a17.76,17.76,0,0,1-2.83,7.37c-.24.35-.49.68-.75,1a17.83,17.83,0,0,1-6.19,5c-.38.18-.76.37-1.14.53a17.77,17.77,0,0,1-7.88,1.23l-.7,0c-.19,0-.37-.07-.55-.09a17.55,17.55,0,0,1-7.5-2.88c-.35-.23-.68-.49-1-.75a17.87,17.87,0,0,1-5-6.21C310.51,143,310.33,142.6,310.17,142.21ZM348.26,138a21.72,21.72,0,1,0-23.93,19.24A21.71,21.71,0,0,0,348.26,138Z" transform="translate(14 17.52)"/></g><path class="cls-6" d="M315.9,149.28c.33.26.66.51,1,.75a17.25,17.25,0,0,0,7.33,2.81c.18,0,.36.07.55.09l.7,0a17.37,17.37,0,0,0,7.69-1.21c.39-.16.77-.34,1.15-.52a17.53,17.53,0,0,0,6-4.91c.26-.33.52-.66.75-1a17.28,17.28,0,0,0,2.77-7.2c0-.21.07-.42.1-.63s0-.42,0-.62a17.24,17.24,0,0,0-1.17-7.7c-.16-.39-.34-.77-.52-1.15a17.55,17.55,0,0,0-4.88-6.07c-.33-.26-.66-.52-1-.75a17.27,17.27,0,0,0-7.2-2.8l-.69-.11c-.19,0-.38,0-.56,0a17.44,17.44,0,0,0-7.71,1.15c-.39.16-.77.34-1.14.52a17.54,17.54,0,0,0-6.09,4.85c-.26.33-.52.66-.76,1a17.36,17.36,0,0,0-2.84,7.33c0,.2-.07.4-.1.61s0,.42,0,.64a17.36,17.36,0,0,0,1.17,7.69c.16.4.34.78.53,1.15A17.44,17.44,0,0,0,315.9,149.28Z" transform="translate(14 17.52)"/><path class="cls-6" d="M302.33,156.06a1,1,0,0,1-.33.61l-6.51-1.38,0,0-3.21-.73h0l-1.7-.32a.8.8,0,0,1-.19,0l-.16,0h0A15.1,15.1,0,0,1,285.8,127a15.27,15.27,0,0,1,11.2-2.25l6.43,1.36c-.16.39-.32.79-.46,1.19l-5.79-1.23,0,.13-.51-.11h0A13.71,13.71,0,0,0,291,152.9h.08l1.53.27,6.16,1.2h0l3.67.88A2.07,2.07,0,0,1,302.33,156.06Zm.63-3.17-8.5-1.79-.64-.13-2.29-.5a11.2,11.2,0,0,1,4.65-21.91l2.27.49.65.13,0-.12,5.59,1.18a21.81,21.81,0,0,1,2.43-5.92l-6.71-1.42-.65-.14-2.29-.48a17.75,17.75,0,0,0-13.08,2.62,17.62,17.62,0,0,0,5.08,31.67c.2.06.39-.2.58-.16l2.39.18h0l0,.32v.26l9.11,2c1.41.29,2.81-.86,3.17-2.58S304.36,153.18,303,152.89Z" transform="translate(14 17.52)"/><path class="cls-6" d="M258.53,22l-.42.7A3.36,3.36,0,0,0,257,18.05L228.73.91A3.36,3.36,0,0,0,224.11,2l.42-.7A3.38,3.38,0,0,1,229.15.21L257.4,17.35A3.36,3.36,0,0,1,258.53,22ZM241.85-13.78l.12,0v-.77l.3-.2q.25-.15.57-.3c.27-.12.56-.25.88-.36a16.3,16.3,0,0,1,2.28-.68,18.08,18.08,0,0,1,2.18-.37l.19,0h1.88l.37.07h0a1.3,1.3,0,0,1,.23.1.49.49,0,0,1,.15.13s.08.08.09.12,0,0,0,0a.2.2,0,0,1-.05.18,4.18,4.18,0,0,1-2,.5l-1.63.25-1.17.23c-.84.2-1.62.44-2.29.65l-.56.18c-.35.12-.66.21-.93.28a3.26,3.26,0,0,1-.52.11v-.11ZM264.32-.15H264a8.12,8.12,0,0,1-.63-2.59c-.11-.63-.24-1.33-.43-2.06s-.35-1.23-.54-1.77c-.25-.74-.48-1.37-.64-1.87a3.31,3.31,0,0,1-.16-.64.54.54,0,0,1,.05-.44s.05-.09.11-.1a0,0,0,0,1,0,0,.38.38,0,0,1,.18,0,.77.77,0,0,1,.19.11,1.56,1.56,0,0,1,.21.18c.07.09.16.19.24.31s.22.35.34.56.28.58.42.91a17.62,17.62,0,0,1,.79,2.39c.16.6.28,1.17.37,1.71s.11.81.14,1.17a7.54,7.54,0,0,1,0,1.35,3.25,3.25,0,0,1-.07.38.75.75,0,0,1-.1.24.45.45,0,0,1-.1.13ZM255-10.56a10.92,10.92,0,0,0-14.85,3.45L239-5.28a5,5,0,0,1-.41.58l-.18.21c-.1.1-.18.2-.28.29l-.23.2-.26.21-.26.16-.25.14c-.09.05-.18.08-.27.12l-.25.09-.28,0-.23,0h-.27l-.22,0-.25-.08a.53.53,0,0,1-.12,0h0l3.21-5.3a2.71,2.71,0,0,1,.24-.35,13.12,13.12,0,0,1,17.6-3.78,13.12,13.12,0,0,1,4.53,17.83l-6.09,10.05L252.9,14l5.91-9.75A10.92,10.92,0,0,0,255-10.56ZM223,30.79a4.8,4.8,0,0,1-6.68,1.53l-.08,0-8.14-4.94-1-.61A4.77,4.77,0,1,1,212,18.56a4.09,4.09,0,1,0-4.23,7l1,.62,8.22,5a4.09,4.09,0,0,0,5.66-1.34,4,4,0,0,0,.24-3.76,4.18,4.18,0,0,0-1.07-1.45A4.74,4.74,0,0,1,223,30.79Zm42.13-36a16.16,16.16,0,0,0-7.34-9.94,16.31,16.31,0,0,0-21.88,4.69,5.23,5.23,0,0,0-.31.45l-1.18,1.94c-1.22,2-1.06,4.27.37,5.14s3.5,0,4.72-2.05l1.11-1.83a10.29,10.29,0,0,1,14.08-3.26,10.31,10.31,0,0,1,3.62,14l-5.91,9.74h0l-23-13.94a3.92,3.92,0,0,0-5.38,1.32L223,2.86l8.22,5c2.31,1.41,2.78,4.89,1.37,7.21A5.84,5.84,0,0,1,229,17.6l-.38.08-.39.06h-.3l0,0a4.71,4.71,0,0,1,0,4.87,4.76,4.76,0,0,1-6,1.84,4.11,4.11,0,0,0,5-1.66,4.11,4.11,0,0,0-1.43-5.65l-.08-.05-4.86-3-3.28-2-1-.62a4.09,4.09,0,1,0-4.24,7,4.8,4.8,0,0,1-1.73-6.63,4.7,4.7,0,0,1,3.87-2.27l.47,0a5.1,5.1,0,0,1,2.32.71l-.57-.35a4.5,4.5,0,0,0-1.87-.62,5.8,5.8,0,0,1,.37-5.07A5.3,5.3,0,0,1,216.15,3a4.38,4.38,0,0,0-1.72,1.62l-.25.4A4.53,4.53,0,0,0,214,9.41a4.52,4.52,0,0,0-3.85,2.17l-.25.4a4.54,4.54,0,0,0,1.52,6.23,4.52,4.52,0,0,0-6.22,1.52l-.25.41a4.54,4.54,0,0,0,1.53,6.23l1.59,1-.17.29A3.94,3.94,0,0,0,209.25,33L237.5,50.14a3.93,3.93,0,0,0,5.39-1.31L259,22.26a3.93,3.93,0,0,0-1.32-5.39l-.19-.11L263.42,7A16.18,16.18,0,0,0,265.14-5.22Z" transform="translate(14 17.52)"/><path class="cls-6" d="M215.57,4.76A4.09,4.09,0,0,0,217,10.4l1,.62,8.22,5a4.09,4.09,0,0,0,5.66-1.34,4,4,0,0,0,.23-3.77A4.2,4.2,0,0,0,230.47,9l-.08,0L222.25,4l-1-.62A4.11,4.11,0,0,0,215.57,4.76Z" transform="translate(14 17.52)"/><path class="cls-6" d="M326.4,88a15.41,15.41,0,0,0-6.61-27.27l-.52-.09-2.12-.28c-2.21-.29-4.09.71-4.3,2.28s1.37,3,3.57,3.3l2,.26a9.79,9.79,0,0,1-2.55,19.4l-10-1.31,3.63-27.8a4.76,4.76,0,0,0-9.19-2.27l-.26,0a4.76,4.76,0,0,0-9.2-1.2l-1.61-.21a4.76,4.76,0,0,0-9.2-1.2l-.26,0a4.76,4.76,0,0,0-9.47-.16l-4.59,35.13a4.76,4.76,0,0,0,8.67,3.28l1,.14A4.74,4.74,0,0,0,283.82,91l2.38.32a4.74,4.74,0,0,0,8.43,1.1l1,.13a4.75,4.75,0,0,0,9.21-.94l.23-1.77,10.06,1.32A15.38,15.38,0,0,0,326.4,88Z" transform="translate(14 17.52)"/><path class="cls-6" d="M164.46,130.7a4.77,4.77,0,0,0,5-3.12l.26,0a4.76,4.76,0,0,0,9.22,1.11l1.61.2a4.76,4.76,0,0,0,9.21,1.11l.26,0a4.77,4.77,0,0,0,9.47.07L203.79,95a4.76,4.76,0,0,0-8.7-3.19l-1-.13a4.73,4.73,0,0,0-8.43-1l-2.39-.29a4.74,4.74,0,0,0-8.44-1l-1-.12a4.76,4.76,0,0,0-9.21,1L164.34,92l-10.07-1.22a15.41,15.41,0,0,0-4.33,30.49,3.28,3.28,0,0,0,.52.08l2.13.26c2.2.27,4.08-.75,4.27-2.31s-1.39-3-3.6-3.27l-2-.24a9.79,9.79,0,0,1,2.36-19.43l10,1.22-3.36,27.83A4.78,4.78,0,0,0,164.46,130.7Z" transform="translate(14 17.52)"/><path class="cls-6" d="M41,18.9a10.16,10.16,0,0,1,7.92,10.16,2.12,2.12,0,0,0-1.35,1.39v.06a2.78,2.78,0,0,0-1.38,1.71h0l-16-3.78a2.75,2.75,0,0,0-.46-2.15s0,0,0-.06a2.07,2.07,0,0,0-.43-1.65A10.15,10.15,0,0,1,41,18.9ZM11.64,61.36a1.35,1.35,0,0,1-.19.42,3.33,3.33,0,0,0,2.25,2l31.2,7.37a3.78,3.78,0,0,0,3-.65,1.09,1.09,0,0,1,0-.57,1.16,1.16,0,0,1,1.34-.86A3.86,3.86,0,0,0,49.65,68l.19-.8a.75.75,0,0,1-.15,0,1.16,1.16,0,0,1,.54-2.26l.13.07.32-1.35h0a1.28,1.28,0,0,1-1-1.48l0-.06a1.28,1.28,0,0,1,1.51-.91h0l.41-1.71h-.15A1.16,1.16,0,0,1,52,57.24a.59.59,0,0,1,.14.06l.32-1.37s-.09,0-.14,0a1.14,1.14,0,0,1-.86-1.39,1.16,1.16,0,0,1,1.39-.86s.09,0,.13.06l.37-1.55h-.15a1.16,1.16,0,1,1,.54-2.25.75.75,0,0,1,.13.06l.46-1.93h-.15a1.16,1.16,0,0,1,.53-2.25.84.84,0,0,1,.14.06l.36-1.56h-.14A1.16,1.16,0,0,1,55.64,42a.52.52,0,0,1,.13.06l.37-1.56s-.1,0-.15,0a1.16,1.16,0,0,1,.53-2.25l.11,0a3.93,3.93,0,0,0-1.5-3.62,3.4,3.4,0,0,0,.12-.34,2.78,2.78,0,0,0-.47-2.14l0-.06a2.15,2.15,0,0,0-.57-1.83,15.56,15.56,0,0,0-2.37-10.11,15.68,15.68,0,0,0-28,2.86,2.15,2.15,0,0,0-1.45,1.42s0,0,0,.06A2.8,2.8,0,0,0,21,26.28c0,.11,0,.22,0,.33a3.77,3.77,0,0,0-2.76,2.66,1.13,1.13,0,0,1-.54,2.18L17.31,33a1.13,1.13,0,0,1-.52,2.19l-.37,1.56a1.16,1.16,0,0,1,.72,1.33A1.14,1.14,0,0,1,15.9,39l-.46,1.94a1.15,1.15,0,0,1,.72,1.33,1.13,1.13,0,0,1-1.23.86l-.37,1.57A1.12,1.12,0,0,1,15.27,46a1.14,1.14,0,0,1-1.23.87l-.33,1.37a1.16,1.16,0,0,1,.72,1.33,1.13,1.13,0,0,1-1.23.86l-.42,1.74a1.3,1.3,0,0,1,.89,1.45v.06a1.28,1.28,0,0,1-1.44.89l-.33,1.37a1.13,1.13,0,0,1,.72,1.32,1.14,1.14,0,0,1-1.23.87l-.19.8a4.51,4.51,0,0,0-.11,1.21A1.14,1.14,0,0,1,11.64,61.36Z" transform="translate(14 17.52)"/></g></g></g></g></svg>