<svg width="23" height="22" viewBox="0 0 23 22" fill="none" xmlns="http://www.w3.org/2000/svg">
<path d="M13.1 6.5C13.1 7.32843 12.4284 8 11.6 8C10.7715 8 10.1 7.32843 10.1 6.5C10.1 5.67157 10.7715 5 11.6 5C12.4284 5 13.1 5.67157 13.1 6.5Z" fill="currentColor"/>
<path d="M10.5 11V17C10.5 17.5523 10.9477 18 11.5 18C12.0523 18 12.5 17.5523 12.5 17V11C12.5 10.4477 12.0523 10 11.5 10C10.9477 10 10.5 10.4477 10.5 11Z" fill="currentColor"/>
<path fill-rule="evenodd" clip-rule="evenodd" d="M11.5 22C17.5751 22 22.5 17.0751 22.5 11C22.5 4.92487 17.5751 0 11.5 0C5.42487 0 0.5 4.92487 0.5 11C0.5 17.0751 5.42487 22 11.5 22ZM11.5 20.5C16.7467 20.5 21 16.2467 21 11C21 5.75329 16.7467 1.5 11.5 1.5C6.25329 1.5 2 5.75329 2 11C2 16.2467 6.25329 20.5 11.5 20.5Z" fill="currentColor"/>
</svg>
