<svg width="32" height="32" viewBox="0 0 32 32" fill="none" xmlns="http://www.w3.org/2000/svg">
<g id="Icon/action/search">
<path id="Union" fill-rule="evenodd" clip-rule="evenodd" d="M21.0319 19.6177C22.2635 18.078 23 16.125 23 14C23 9.02944 18.9706 5 14 5C9.02944 5 5 9.02944 5 14C5 18.9706 9.02944 23 14 23C16.125 23 18.078 22.2635 19.6177 21.0319L25 26.4142L26.4142 25L21.0319 19.6177ZM21 14C21 17.866 17.866 21 14 21C10.134 21 7 17.866 7 14C7 10.134 10.134 7 14 7C17.866 7 21 10.134 21 14Z" fill="#822221"/>
</g>
</svg>
