<svg width="15" height="18" viewBox="0 0 15 18" fill="none" xmlns="http://www.w3.org/2000/svg">
<path d="M10.2031 1.08183C9.97218 0.874053 9.61652 0.892841 9.40874 1.12379C9.20097 1.35474 9.21976 1.7104 9.45071 1.91818L12.2837 4.46693H1C0.68934 4.46693 0.4375 4.71877 0.4375 5.02943C0.4375 5.34009 0.68934 5.59193 1 5.59193H12.2837L9.45071 8.14065C9.21976 8.34843 9.20097 8.70409 9.40874 8.93504C9.61652 9.16599 9.97218 9.18478 10.2031 8.977L14.1227 5.45073C14.2391 5.34767 14.3125 5.19712 14.3125 5.02943C14.3125 4.88482 14.2579 4.75295 14.1683 4.6533C14.1551 4.63862 14.141 4.62458 14.1262 4.61124L10.2031 1.08183Z" fill="#A32A29"/>
<path d="M5.34126 9.18629C5.13348 8.95534 4.77782 8.93655 4.54687 9.14433L0.623791 12.6737C0.605817 12.6899 0.589011 12.7071 0.573433 12.7252C0.488711 12.8237 0.4375 12.9518 0.4375 13.0919C0.4375 13.2596 0.510891 13.4102 0.627308 13.5133L4.54687 17.0395C4.77782 17.2473 5.13348 17.2285 5.34126 16.9975C5.54903 16.7666 5.53024 16.4109 5.29929 16.2032L2.46629 13.6544H13.75C14.0607 13.6544 14.3125 13.4026 14.3125 13.0919C14.3125 12.7813 14.0607 12.5294 13.75 12.5294H2.46626L5.29929 9.98068C5.53024 9.7729 5.54903 9.41724 5.34126 9.18629Z" fill="#A32A29"/>
</svg>
