<svg width="24" height="16" viewBox="0 0 24 16" fill="none" xmlns="http://www.w3.org/2000/svg">
<path d="M3.25803 6.22028C3.25819 6.22012 3.25788 6.22044 3.25803 6.22028L8.79895 2.29354C8.79901 2.29352 8.7989 2.29356 8.79895 2.29354L3.25803 6.22028Z" fill="#A32A29"/>
<path fill-rule="evenodd" clip-rule="evenodd" d="M11.3685 0.472536C11.3685 0.472536 11.3685 0.472535 11.3685 0.472536L11.7446 0.206024C15.8363 0.0982728 19.6998 2.56308 23.2422 7.38142C23.4256 7.63096 23.4349 7.96818 23.2653 8.2274C23.165 8.38067 21.9789 10.1645 19.9958 11.9317C18.0157 13.6961 15.2124 15.4695 11.881 15.5477C11.8058 15.5494 11.7299 15.5504 11.6542 15.5504C7.64733 15.5504 3.85971 13.0593 0.385157 8.25623L0.589139 8.11167C0.589173 8.11172 0.589105 8.11162 0.589139 8.11167L0.385157 8.25623C0.203514 8.00538 0.196752 7.66793 0.368349 7.41011C0.468693 7.25914 1.65454 5.5043 3.63678 3.76543C5.61608 2.02913 8.41722 0.284561 11.7446 0.206024L11.3685 0.472536ZM2.34879 6.86446C2.34892 6.86432 2.34866 6.86461 2.34879 6.86446L3.25803 6.22028C2.64304 6.87478 2.18287 7.45014 1.90551 7.81707C5.1048 12.08 8.45529 14.1427 11.8419 14.0637C14.3932 14.0051 16.6598 12.7366 18.4147 11.3052C20.0405 9.97907 21.2061 8.53036 21.725 7.83216C18.5266 3.64033 15.1734 1.62004 11.7842 1.69003C10.7356 1.71423 9.73529 1.93922 8.79895 2.29354L9.50052 1.79635C9.50055 1.79634 9.50049 1.79636 9.50052 1.79635L8.79895 2.29354C7.45773 2.8011 6.24759 3.57409 5.21495 4.40241C4.45633 5.01093 3.79743 5.64627 3.25803 6.22028L2.34879 6.86446Z" fill="#A32A29"/>
<path d="M11.8153 11.923C9.58063 11.923 7.7691 10.1115 7.7691 7.87686C7.7691 5.64224 9.58063 3.83071 11.8153 3.83071C14.0499 3.83071 15.8614 5.64224 15.8614 7.87686C15.8588 10.1104 14.0488 11.9205 11.8153 11.923ZM11.8153 4.81533C10.1244 4.81533 8.75372 6.18602 8.75372 7.87686C8.75372 9.56771 10.1244 10.9384 11.8153 10.9384C13.5061 10.9384 14.8768 9.56771 14.8768 7.87686C14.8749 6.18679 13.5053 4.81718 11.8153 4.81533Z" fill="#A32A29"/>
<path fill-rule="evenodd" clip-rule="evenodd" d="M11.8153 4.08071C9.7187 4.08071 8.0191 5.78031 8.0191 7.87686C8.0191 9.97333 9.71854 11.6729 11.815 11.673C13.9107 11.6706 15.609 9.9723 15.6114 7.87658C15.6113 5.78015 13.9117 4.08071 11.8153 4.08071ZM7.5191 7.87686C7.5191 5.50416 9.44255 3.58071 11.8153 3.58071C14.188 3.58071 16.1114 5.50416 16.1114 7.87686C16.1087 10.2483 14.187 12.1703 11.8155 12.173C9.44284 12.173 7.5191 10.2496 7.5191 7.87686ZM8.50372 7.87686C8.50372 6.04795 9.98634 4.56533 11.8153 4.56533C13.6432 4.56733 15.1248 6.04866 15.1268 7.87659C15.1268 9.7055 13.6442 11.1884 11.8153 11.1884C9.98634 11.1884 8.50372 9.70578 8.50372 7.87686ZM11.8151 5.06533C10.2624 5.06541 9.00372 6.32415 9.00372 7.87686C9.00372 9.42963 10.2625 10.6884 11.8153 10.6884C13.3679 10.6884 14.6266 9.42978 14.6268 7.87714C14.6251 6.32496 13.3673 5.06709 11.8151 5.06533Z" fill="#A32A29"/>
</svg>
