<svg width="13" height="14" viewBox="0 0 13 14" fill="none" xmlns="http://www.w3.org/2000/svg">
<path d="M7.59981 6.9998L12.5998 1.99981C12.8998 1.69981 12.8998 1.1998 12.5998 0.899805C12.2998 0.599805 11.7998 0.599805 11.4998 0.899805L6.4998 5.8998L1.49981 0.899805C1.19981 0.599805 0.699805 0.599805 0.399805 0.899805C0.0998047 1.1998 0.0998047 1.69981 0.399805 1.99981L5.3998 6.9998L0.399805 11.9998C0.0998047 12.2998 0.0998047 12.7998 0.399805 13.0998C0.499805 13.1998 0.699805 13.2998 0.899805 13.2998C1.0998 13.2998 1.2998 13.1998 1.3998 13.0998L6.3998 8.09981L11.3998 13.0998C11.4998 13.1998 11.6998 13.2998 11.8998 13.2998C12.0998 13.2998 12.2998 13.1998 12.3998 13.0998C12.6998 12.7998 12.6998 12.2998 12.3998 11.9998L7.59981 6.9998Z" fill="#A32A29"/>
</svg>
