<svg xmlns="http://www.w3.org/2000/svg" viewBox="0 0 20 20"><defs><style>.cls-1{fill:#929497;fill-rule:evenodd;}</style></defs><g id="Layer_2" data-name="Layer 2"><g id="Layer_1-2" data-name="Layer 1"><path class="cls-1" d="M10,6.67A3.33,3.33,0,1,0,13.38,10,3.35,3.35,0,0,0,10,6.67ZM8.31,10A1.69,1.69,0,1,1,10,11.67,1.68,1.68,0,0,1,8.31,10Z"/><path class="cls-1" d="M7.56,0,7.18,3A7.44,7.44,0,0,0,5.3,4.11L2.44,2.92,0,7.08,2.47,8.93a7.67,7.67,0,0,0,0,2.14L0,12.92l2.44,4.16L5.3,15.89A7.44,7.44,0,0,0,7.18,17l.38,3h4.88l.38-3a7.44,7.44,0,0,0,1.88-1.07l2.86,1.19L20,12.92l-2.47-1.85A9.45,9.45,0,0,0,17.61,10h0a9.45,9.45,0,0,0-.08-1.07L20,7.08,17.56,2.92,14.7,4.11A7.44,7.44,0,0,0,12.82,3l-.38-3Zm1.5,1.67h1.88l.34,2.61.51.16A6,6,0,0,1,14,5.69l.4.36,2.47-1,.94,1.61L15.66,8.23l.12.52A6.56,6.56,0,0,1,15.92,10a6.56,6.56,0,0,1-.14,1.25l-.12.52,2.13,1.59L16.85,15l-2.47-1-.4.36a6,6,0,0,1-2.19,1.25l-.51.16-.34,2.61H9.06l-.34-2.61-.51-.16A6,6,0,0,1,6,14.31L5.62,14,3.15,15l-.94-1.61,2.13-1.59-.12-.52a5.85,5.85,0,0,1,0-2.5l.12-.52L2.21,6.64,3.15,5l2.47,1L6,5.69A6,6,0,0,1,8.21,4.44l.51-.16Z"/></g></g></svg>