<svg width="321" height="320" viewBox="0 0 321 320" fill="none" xmlns="http://www.w3.org/2000/svg">
<path d="M35.1608 195.895C55.1459 264.217 134.539 273.04 189.601 244.241C215.843 230.523 238.474 205.196 249.994 176.825C259.482 166.173 265.211 152.7 266.298 138.476C268.825 103.927 247.547 74.5218 220.27 61.6493C193.669 49.0952 162.035 50.5078 132.928 54.9146C104.079 59.2817 76.3049 74.2532 57.9413 100.306C39.4184 126.608 26.0585 164.977 35.1608 195.895Z" fill="#F7F7F7"/>
<path d="M239.399 281.347L158.703 281.297C156.395 281.297 154.109 280.843 151.977 279.959C149.845 279.076 147.908 277.781 146.277 276.148C144.645 274.516 143.351 272.578 142.469 270.445C141.587 268.313 141.133 266.027 141.135 263.719V61.4108C141.133 59.1012 141.588 56.8141 142.471 54.6802C143.355 52.5464 144.65 50.6076 146.284 48.975C147.917 47.3424 149.857 46.0478 151.991 45.1655C154.126 44.2832 156.413 43.8304 158.723 43.833H239.419C241.732 43.833 244.021 44.2893 246.157 45.1758C248.293 46.0623 250.233 47.3615 251.866 48.999C253.499 50.6365 254.793 52.5802 255.673 54.7185C256.554 56.8569 257.003 59.148 256.997 61.4605V263.819C256.986 268.476 255.127 272.939 251.827 276.226C248.527 279.513 244.057 281.355 239.399 281.347Z" fill="#263238"/>
<path d="M239.368 51.0349H223.731C223.219 51.0452 222.715 51.1565 222.247 51.3623C221.779 51.5682 221.356 51.8645 221.003 52.2343C220.65 52.6041 220.373 53.04 220.189 53.5171C220.005 53.9941 219.917 54.5029 219.93 55.014V57.8492C219.944 58.3603 219.856 58.8691 219.672 59.3461C219.488 59.8232 219.211 60.2591 218.858 60.6289C218.505 60.9987 218.082 61.295 217.614 61.5009C217.146 61.7067 216.642 61.818 216.13 61.8283H185.63C185.12 61.8167 184.616 61.7045 184.149 61.4982C183.681 61.2919 183.259 60.9956 182.906 60.626C182.553 60.2565 182.276 59.8211 182.092 59.3446C181.907 58.8682 181.818 58.36 181.83 57.8492V54.9742C181.842 54.4634 181.753 53.9553 181.569 53.4788C181.384 53.0023 181.108 52.5669 180.755 52.1974C180.402 51.8278 179.98 51.5315 179.512 51.3252C179.045 51.1189 178.541 51.0067 178.03 50.9951H158.831C155.567 50.9951 152.436 52.2913 150.126 54.5987C147.817 56.9061 146.518 60.036 146.516 63.3006V260.775C146.514 262.391 146.832 263.993 147.449 265.487C148.067 266.981 148.973 268.339 150.116 269.482C151.259 270.626 152.616 271.533 154.11 272.152C155.603 272.771 157.204 273.09 158.821 273.09L239.398 273.14C242.65 273.121 245.762 271.817 248.055 269.511C250.347 267.205 251.634 264.086 251.634 260.834V63.3602C251.639 60.1001 250.351 56.971 248.051 54.6602C245.751 52.3493 242.629 51.0454 239.368 51.0349Z" fill="white"/>
<path d="M241.756 70.9704C241.756 71.03 239.717 71.0897 237.21 71.1096C234.703 71.1295 232.664 71.1096 232.664 71.0499C232.664 70.9902 234.654 70.9405 237.21 70.9107C239.767 70.8808 241.756 70.9206 241.756 70.9704Z" fill="#263238"/>
<path d="M241.778 73.2983C241.778 73.2983 239.739 73.4077 237.232 73.4276C234.725 73.4475 232.686 73.4276 232.686 73.4276C232.686 73.4276 234.675 73.3083 237.232 73.2884C239.788 73.2685 241.778 73.2486 241.778 73.2983Z" fill="#263238"/>
<path d="M241.797 75.626C241.797 75.6757 239.758 75.7354 237.251 75.7553C234.744 75.7752 232.705 75.7553 232.705 75.6956C232.705 75.6359 234.695 75.5862 237.251 75.5663C239.808 75.5464 241.797 75.5762 241.797 75.626Z" fill="#263238"/>
<path d="M177.842 119.038H159.051V137.83H177.842V119.038Z" fill="#E7515B"/>
<path d="M213.993 121.058C213.993 121.147 207.706 121.217 199.956 121.217C192.207 121.217 185.92 121.147 185.92 121.058C185.92 120.968 192.207 120.898 199.956 120.898C207.706 120.898 213.993 120.968 213.993 121.058Z" fill="#E7515B"/>
<path d="M236.365 126.818C236.365 126.907 225.074 126.977 211.148 126.977C197.221 126.977 185.92 126.907 185.92 126.818C185.92 126.728 197.211 126.659 211.148 126.659C225.084 126.659 236.365 126.728 236.365 126.818Z" fill="#263238"/>
<path d="M235.778 130.936C235.778 131.026 224.617 131.095 210.849 131.095C197.081 131.095 185.92 131.026 185.92 130.936C185.92 130.847 197.081 130.777 210.849 130.777C224.617 130.777 235.778 130.847 235.778 130.936Z" fill="#263238"/>
<path d="M215.355 134.855C215.355 134.945 208.77 135.015 200.643 135.015C192.515 135.015 185.92 134.945 185.92 134.855C185.92 134.766 192.515 134.696 200.643 134.696C208.77 134.696 215.355 134.766 215.355 134.855Z" fill="#263238"/>
<path d="M177.842 150.344H159.051V169.135H177.842V150.344Z" fill="#E7515B"/>
<path d="M213.993 152.403C213.993 152.493 207.706 152.562 199.956 152.562C192.207 152.562 185.92 152.493 185.92 152.403C185.92 152.314 192.207 152.244 199.956 152.244C207.706 152.244 213.993 152.274 213.993 152.403Z" fill="#E7515B"/>
<path d="M236.365 158.124C236.365 158.213 225.074 158.283 211.148 158.283C197.221 158.283 185.92 158.213 185.92 158.124C185.92 158.034 197.211 157.964 211.148 157.964C225.084 157.964 236.365 158.034 236.365 158.124Z" fill="#263238"/>
<path d="M235.778 162.242C235.778 162.331 224.617 162.401 210.849 162.401C197.081 162.401 185.92 162.331 185.92 162.242C185.92 162.152 197.081 162.083 210.849 162.083C224.617 162.083 235.778 162.152 235.778 162.242Z" fill="#263238"/>
<path d="M215.355 166.161C215.355 166.251 208.77 166.32 200.643 166.32C192.515 166.32 185.92 166.251 185.92 166.161C185.92 166.072 192.515 166.002 200.643 166.002C208.77 166.002 215.355 166.072 215.355 166.161Z" fill="#263238"/>
<path d="M177.842 181.649H159.051V200.441H177.842V181.649Z" fill="#E7515B"/>
<path d="M213.993 183.669C213.993 183.758 207.706 183.828 199.956 183.828C192.207 183.828 185.92 183.758 185.92 183.669C185.92 183.579 192.207 183.51 199.956 183.51C207.706 183.51 213.993 183.579 213.993 183.669Z" fill="#E7515B"/>
<path d="M236.365 189.429C236.365 189.518 225.074 189.588 211.148 189.588C197.221 189.588 185.92 189.518 185.92 189.429C185.92 189.339 197.211 189.27 211.148 189.27C225.084 189.27 236.365 189.349 236.365 189.429Z" fill="#263238"/>
<path d="M235.778 193.547C235.778 193.637 224.617 193.707 210.849 193.707C197.081 193.707 185.92 193.637 185.92 193.547C185.92 193.458 197.081 193.388 210.849 193.388C224.617 193.388 235.778 193.458 235.778 193.547Z" fill="#263238"/>
<path d="M215.355 197.466C215.355 197.556 208.77 197.625 200.643 197.625C192.515 197.625 185.92 197.556 185.92 197.466C185.92 197.377 192.515 197.307 200.643 197.307C208.77 197.307 215.355 197.387 215.355 197.466Z" fill="#263238"/>
<path d="M177.842 212.956H159.051V231.747H177.842V212.956Z" fill="#E7515B"/>
<path d="M213.993 214.985C213.993 215.064 207.706 215.144 199.956 215.144C192.207 215.144 185.92 215.064 185.92 214.985C185.92 214.905 192.207 214.815 199.956 214.815C207.706 214.815 213.993 214.895 213.993 214.985Z" fill="#455B64"/>
<path d="M236.365 220.745C236.365 220.824 225.074 220.904 211.148 220.904C197.221 220.904 185.92 220.824 185.92 220.745C185.92 220.665 197.211 220.585 211.148 220.585C225.084 220.585 236.365 220.655 236.365 220.745Z" fill="#263238"/>
<path d="M235.778 224.853C235.778 224.943 224.617 225.012 210.849 225.012C197.081 225.012 185.92 224.943 185.92 224.853C185.92 224.763 197.081 224.694 210.849 224.694C224.617 224.694 235.778 224.763 235.778 224.853Z" fill="#263238"/>
<path d="M215.355 228.783C215.355 228.862 208.77 228.942 200.643 228.942C192.515 228.942 185.92 228.862 185.92 228.783C185.92 228.703 192.515 228.624 200.643 228.624C208.77 228.624 215.355 228.693 215.355 228.783Z" fill="#263238"/>
<path d="M177.842 244.261H159.051V263.053H177.842V244.261Z" fill="#E0E0E0"/>
<path d="M213.993 246.291C213.993 246.38 207.706 246.45 199.956 246.45C192.207 246.45 185.92 246.38 185.92 246.291C185.92 246.201 192.207 246.131 199.956 246.131C207.706 246.131 213.993 246.201 213.993 246.291Z" fill="#E0E0E0"/>
<path d="M236.365 252.05C236.365 252.14 225.074 252.209 211.148 252.209C197.221 252.209 185.92 252.14 185.92 252.05C185.92 251.961 197.211 251.891 211.148 251.891C225.084 251.891 236.365 251.961 236.365 252.05Z" fill="#EBEBEB"/>
<path d="M235.778 256.159C235.778 256.248 224.617 256.318 210.849 256.318C197.081 256.318 185.92 256.248 185.92 256.159C185.92 256.069 197.081 256 210.849 256C224.617 256 235.778 256.069 235.778 256.159Z" fill="#EBEBEB"/>
<path d="M215.355 260.088C215.355 260.178 208.77 260.248 200.643 260.248C192.515 260.248 185.92 260.178 185.92 260.088C185.92 259.999 192.515 259.929 200.643 259.929C208.77 259.929 215.355 259.999 215.355 260.088Z" fill="#EBEBEB"/>
<g opacity="0.3">
<path opacity="0.3" d="M177.842 212.956H159.051V231.747H177.842V212.956Z" fill="black"/>
</g>
<g opacity="0.3">
<path opacity="0.3" d="M177.842 150.344H159.051V169.135H177.842V150.344Z" fill="black"/>
</g>
<path d="M224.78 61.2757L175.5 67.7197L184.317 135.149L233.597 128.705L224.78 61.2757Z" fill="#F5F6F6"/>
<path d="M214.571 57.5179L165.291 63.9619L174.108 131.391L223.388 124.947L214.571 57.5179Z" fill="white"/>
<path d="M223.363 124.967L223.303 124.639C223.303 124.42 223.234 124.102 223.174 123.644C223.055 122.759 222.886 121.565 222.667 119.973C222.239 116.75 221.602 112.015 220.806 106.126C219.225 94.2684 217.026 77.4367 214.35 57.5311L214.579 57.7102L165.318 64.1762L165.507 63.9176C168.789 89.1054 171.823 112.423 174.281 131.354L174.072 131.185L209.884 126.609L219.832 125.355L222.498 125.037L223.383 124.937L222.498 125.067L219.901 125.425L209.953 126.768L174.072 131.563H173.893V131.384C171.406 112.483 168.352 89.1452 165.039 63.9673V63.7385H165.258L214.529 57.2725H214.728V57.4814C217.295 77.4665 219.464 94.3479 220.995 106.226C221.742 112.194 222.338 116.82 222.736 120.043C222.945 121.625 223.085 122.848 223.194 123.684L223.303 124.619C223.393 124.778 223.373 124.868 223.363 124.967Z" fill="#A42A29"/>
<path d="M197.151 73.5867C197.151 73.716 191.789 74.5218 185.214 75.3872C178.638 76.2527 173.227 76.8496 173.217 76.7203C173.207 76.5909 178.569 75.8051 185.154 74.9296C191.74 74.0542 197.161 73.4673 197.151 73.5867Z" fill="#A42A29"/>
<path d="M210.869 77.7947C210.869 77.914 202.642 79.0978 192.456 80.4209C182.269 81.7439 173.993 82.7387 173.973 82.6094C173.953 82.4801 182.209 81.3062 192.396 79.9832C202.583 78.6601 210.879 77.6355 210.869 77.7947Z" fill="#A42A29"/>
<path d="M211.694 83.8732C211.694 83.9926 203.467 85.1764 193.28 86.5094C183.094 87.8424 174.827 88.7874 174.787 88.6979C174.747 88.6083 183.014 87.3947 193.201 86.0617C203.387 84.7287 211.674 83.7638 211.694 83.8732Z" fill="#A42A29"/>
<path d="M212.5 89.9908C212.5 90.1101 204.263 91.2939 194.087 92.6269C183.91 93.9599 175.613 94.9348 175.604 94.8055C175.594 94.6762 183.82 93.5023 194.027 92.1793C204.233 90.8562 212.51 89.8714 212.5 89.9908Z" fill="#A42A29"/>
<path d="M213.296 96.0988C213.296 96.2182 205.07 97.402 194.873 98.735C184.677 100.068 176.42 101.053 176.42 100.924C176.42 100.794 184.647 99.6204 194.833 98.2874C205.02 96.9543 213.277 95.9695 213.296 96.0988Z" fill="#A42A29"/>
<path d="M214.121 102.217C214.121 102.336 205.884 103.52 195.708 104.853C185.531 106.186 177.235 107.161 177.225 107.041C177.215 106.922 185.451 105.728 195.648 104.395C205.844 103.062 214.081 102.087 214.121 102.217Z" fill="#A42A29"/>
<path d="M214.888 108.325C214.888 108.444 206.661 109.628 196.475 110.961C186.288 112.294 178.021 113.279 178.031 113.16C178.041 113.04 186.258 111.846 196.455 110.513C206.651 109.18 214.878 108.196 214.888 108.325Z" fill="#A42A29"/>
<path d="M198.633 116.671C198.633 116.79 194.216 117.477 188.745 118.193C183.273 118.909 178.797 119.386 178.797 119.257C178.797 119.128 183.204 118.451 188.685 117.745C194.166 117.039 198.613 116.591 198.633 116.671Z" fill="#A42A29"/>
<path d="M304.816 280.481C304.816 287.663 185.532 300.536 134.281 300.377C82.0551 300.238 23.4824 290.708 23.4824 283.525C23.4824 276.343 69.1628 268.792 125.278 268.792C181.394 268.792 304.816 273.309 304.816 280.481Z" fill="#E0E0E0"/>
<path d="M204.751 139.61C204.682 139.61 203.199 129.305 201.458 116.591C199.718 103.878 198.355 93.5422 198.474 93.5322C198.593 93.5223 200.026 103.828 201.777 116.551C203.528 129.275 204.831 139.591 204.751 139.61Z" fill="#A42A29"/>
<path d="M248.173 83.2358C248.173 83.2358 248.173 83.2955 248.173 83.395L247.994 83.8526L247.317 85.6034L244.81 92.0397C242.701 97.4712 239.836 104.972 236.753 113.358C233.669 121.744 231.033 129.274 229.133 134.835L226.894 141.361C226.626 142.117 226.427 142.714 226.278 143.142L226.109 143.599L226.049 143.748C226.049 143.748 226.049 143.699 226.049 143.589L226.188 143.122C226.321 142.697 226.51 142.1 226.755 141.331C227.253 139.779 227.989 137.531 228.914 134.766C230.764 129.235 233.4 121.624 236.464 113.258C239.528 104.892 242.433 97.3418 244.592 91.97C245.666 89.2642 246.581 87.0757 247.178 85.5636C247.496 84.8275 247.735 84.2505 247.904 83.8327L248.103 83.3851C248.123 83.3337 248.146 83.2838 248.173 83.2358Z" fill="#A42A29"/>
<path d="M279.29 123.773C279.29 123.833 271.799 129.742 262.458 136.954C253.117 144.166 245.497 149.986 245.448 149.886C245.398 149.787 252.938 143.918 262.289 136.696C271.64 129.474 279.25 123.714 279.29 123.773Z" fill="#A42A29"/>
<path d="M186.466 141.53C186.406 141.53 183.482 137.859 179.96 133.234C176.438 128.608 173.603 124.818 173.663 124.768C173.723 124.718 176.647 128.439 180.179 133.065C183.71 137.69 186.526 141.461 186.466 141.53Z" fill="#A42A29"/>
<path d="M275.738 170.558C275.738 170.638 271.092 169.355 265.422 167.693C259.752 166.032 255.156 164.639 255.176 164.57C255.196 164.5 259.821 165.773 265.492 167.435C271.162 169.096 275.758 170.489 275.738 170.558Z" fill="#A42A29"/>
<path d="M102.856 141.62C97.4746 140.625 84.5723 139.7 78.4941 143.042C78.4941 143.042 78.5936 148.553 81.0408 150.195C83.4879 151.836 103.921 138.307 112.764 159.337C112.764 159.337 112.874 143.42 102.817 141.62H102.856Z" fill="#B72F49"/>
<path d="M74.0962 230.235L69.7291 241.038C69.7291 241.038 39.6967 234.532 23.3823 239.944C17.1748 241.983 12.3601 257.363 22.9147 265.351C33.1709 273.09 95.6432 284.54 94.8473 284.55C94.0515 284.56 112.664 284.928 112.664 284.928L114.653 268.196L149.282 268.822C175.514 266.336 176.559 239.825 162.91 236.771C147.541 233.339 124.054 231.797 124.054 231.797L120.324 223.381L74.0962 230.235Z" fill="#8B383F"/>
<path d="M110.337 215.741C110.213 216.016 110.063 216.28 109.889 216.527C109.455 217.22 108.976 217.884 108.456 218.516C107.689 219.476 106.858 220.383 105.969 221.232C103.793 223.306 101.293 225.013 98.5683 226.285C97.4617 226.813 96.3179 227.258 95.1462 227.618C94.3604 227.87 93.5597 228.073 92.7488 228.225C92.4567 228.304 92.1561 228.348 91.8535 228.355C91.8535 228.285 93.1069 228.046 95.0667 227.36C96.2101 226.965 97.3295 226.503 98.4191 225.977C99.7525 225.325 101.039 224.58 102.269 223.749C103.497 222.92 104.673 222.016 105.79 221.043C106.679 220.22 107.516 219.343 108.297 218.417C109.59 216.795 110.277 215.701 110.337 215.741Z" fill="#263238"/>
<path d="M124.193 221.739C124.193 221.849 122.95 222.028 121.517 222.605C120.085 223.182 119.04 223.908 118.971 223.818C119.628 223.105 120.457 222.571 121.378 222.267C122.255 221.851 123.225 221.669 124.193 221.739Z" fill="#263238"/>
<g opacity="0.3">
<path opacity="0.3" d="M95.047 227.559C100.98 225.602 106.052 221.651 109.402 216.377C109.919 217.437 110.134 218.619 110.023 219.793C109.913 220.967 109.481 222.088 108.775 223.033C110.665 223.629 112.675 222.784 114.585 222.247C116.494 221.709 118.922 221.64 120.086 223.241C111.485 225.261 102.762 226.723 93.9727 227.618" fill="black"/>
</g>
<path d="M191.123 134.825C191.019 134.635 190.878 134.467 190.707 134.334C190.535 134.2 190.339 134.103 190.128 134.049L190.695 132.537C190.595 132.037 190.399 131.561 190.118 131.135C189.711 130.568 188.487 130.747 188.487 130.747L188.626 130.329C188.746 130.032 188.784 129.709 188.736 129.392C188.689 129.076 188.558 128.777 188.358 128.528L188.149 128.309C187.677 127.941 187.105 127.722 186.507 127.683C186.507 127.683 187.104 126.24 186.696 125.693C185.214 123.843 180.181 127.812 179.116 128.27C176.609 129.354 178.728 129.543 176.689 130.488C176.533 130.583 176.36 130.646 176.18 130.674C176 130.701 175.816 130.692 175.639 130.648C175.462 130.603 175.296 130.524 175.15 130.415C175.004 130.305 174.881 130.168 174.789 130.011C173.979 128.278 172.901 126.683 171.596 125.285C170.103 123.833 168.88 124.092 168.184 124.45C168.106 124.49 168.038 124.547 167.984 124.616C167.931 124.685 167.893 124.765 167.874 124.851C167.855 124.936 167.855 125.025 167.874 125.11C167.894 125.196 167.931 125.276 167.985 125.345C168.812 126.391 169.573 127.487 170.263 128.628C170.71 129.513 171.824 136.397 171.824 136.397L170.312 140.217L154.346 172.537C154.346 172.537 123.339 156.104 123.399 155.626L124.393 178.138L147.741 190.304C149.741 191.349 151.946 191.944 154.2 192.046C156.455 192.147 158.704 191.754 160.79 190.893C162.876 190.032 164.749 188.724 166.275 187.062C167.802 185.4 168.945 183.423 169.626 181.272L177.982 149.001L179.484 146.206L190.825 138.794C191.219 138.217 191.454 137.547 191.506 136.85C191.558 136.153 191.426 135.455 191.123 134.825Z" fill="#8F5045"/>
<path d="M184.975 128.797C184.617 129.076 184.209 129.304 183.841 129.563L182.707 130.349C182.249 130.667 181.771 130.966 181.304 131.264C181.027 131.29 180.763 131.389 180.538 131.553C180.273 131.733 180.026 131.94 179.802 132.169L179.722 132.259H179.623L179.434 132.14H179.364L179.304 132.09L179.145 131.931L179.046 131.811V131.742L178.897 131.602C178.897 131.602 178.897 131.602 178.847 131.602C178.814 131.577 178.777 131.557 178.737 131.543C178.719 131.533 178.699 131.528 178.678 131.528C178.657 131.528 178.636 131.533 178.618 131.543C178.618 131.543 178.558 131.592 178.538 131.632C178.496 131.716 178.475 131.808 178.475 131.901C178.475 131.994 178.496 132.086 178.538 132.169C178.558 132.221 178.581 132.271 178.608 132.319C178.638 132.373 178.675 132.423 178.718 132.468C178.759 132.519 178.806 132.566 178.857 132.607L179.086 132.776C179.163 132.824 179.247 132.861 179.334 132.886H179.424C179.167 133.23 178.966 133.613 178.827 134.02C178.712 134.32 178.686 134.647 178.754 134.961C178.821 135.275 178.977 135.563 179.205 135.79C179.397 135.986 179.649 136.112 179.921 136.149C180.016 136.173 180.115 136.173 180.21 136.149C180.266 136.131 180.317 136.1 180.359 136.059H180.299C180.434 136.009 180.544 135.909 180.608 135.78C180.623 135.756 180.631 135.728 180.633 135.699C180.635 135.67 180.63 135.641 180.618 135.615C180.606 135.589 180.588 135.565 180.566 135.548C180.543 135.53 180.517 135.517 180.488 135.512H180.259C180.114 135.476 179.971 135.429 179.832 135.373C179.69 135.295 179.578 135.173 179.513 135.024C179.45 134.796 179.44 134.557 179.483 134.324C179.526 134.092 179.622 133.872 179.762 133.681C180.002 133.272 180.297 132.898 180.637 132.567C180.817 132.398 180.986 132.239 181.175 132.08C181.281 131.995 181.381 131.902 181.473 131.801C182.018 131.499 182.546 131.167 183.055 130.807C183.423 130.558 183.771 130.279 184.119 129.991C184.467 129.702 184.776 129.314 185.114 128.996C185.054 128.827 185.014 128.777 184.975 128.797Z" fill="#703E38"/>
<path d="M186.884 131.782C186.41 131.963 185.971 132.23 185.591 132.567L184.298 133.562C183.88 133.871 183.452 134.159 183.045 134.467C182.637 134.776 182.269 135.134 181.891 135.462C181.891 135.462 181.891 135.542 181.891 135.532C182.379 135.373 182.855 135.177 183.313 134.945C183.781 134.69 184.236 134.411 184.676 134.109C185.114 133.821 185.541 133.532 185.959 133.234C186.423 132.955 186.823 132.583 187.133 132.14C187.157 132.1 187.169 132.055 187.167 132.009C187.166 131.962 187.151 131.918 187.125 131.88C187.099 131.842 187.062 131.813 187.019 131.795C186.977 131.778 186.93 131.773 186.884 131.782Z" fill="#703E38"/>
<path d="M188.736 135.184C188.516 135.228 188.31 135.327 188.139 135.472C187.91 135.621 187.681 135.78 187.462 135.95L186.109 136.944C185.194 137.591 184.219 138.148 183.344 138.844C183.027 139.009 182.694 139.139 182.349 139.232C181.908 139.333 181.446 139.261 181.056 139.033C180.877 138.936 180.728 138.792 180.625 138.617C180.522 138.442 180.468 138.242 180.469 138.039C180.491 137.796 180.558 137.56 180.668 137.342C180.787 137.113 180.887 136.875 181.026 136.656C181.026 136.656 181.026 136.596 180.976 136.656C180.772 136.855 180.586 137.071 180.419 137.303C180.265 137.543 180.167 137.815 180.131 138.098C180.118 138.344 180.169 138.588 180.279 138.808C180.389 139.027 180.554 139.215 180.757 139.352C181.149 139.626 181.624 139.756 182.1 139.72C181.99 139.809 181.895 139.917 181.822 140.038C181.662 140.333 181.602 140.671 181.65 141.003C181.698 141.335 181.853 141.642 182.09 141.879C182.366 142.154 182.709 142.353 183.085 142.455C183.317 142.509 183.554 142.532 183.792 142.525C184.03 142.525 184.379 142.525 184.478 142.257C184.506 142.217 184.522 142.17 184.522 142.122C184.522 142.074 184.506 142.027 184.478 141.988C184.319 141.829 184.13 141.879 183.931 141.898C183.769 141.913 183.606 141.913 183.443 141.898C183.144 141.892 182.85 141.814 182.588 141.67C182.376 141.524 182.217 141.313 182.134 141.069C182.052 140.825 182.051 140.561 182.13 140.317C182.216 140.053 182.383 139.823 182.608 139.66C183.073 139.569 183.516 139.387 183.911 139.123C184.839 138.679 185.717 138.135 186.527 137.501C186.975 137.173 187.403 136.825 187.82 136.507C188.049 136.323 188.262 136.12 188.457 135.9C188.645 135.746 188.786 135.543 188.865 135.313C188.865 135.313 188.765 135.174 188.736 135.184Z" fill="#703E38"/>
<path d="M84.0039 147.449L74.4043 150.583L81.2683 168.429L99.045 170.319L110.067 160.59L110.634 150.284L100 147.509L84.0039 147.449Z" fill="#D0D8DC"/>
<path d="M77.229 149.518C77.229 149.518 85.9234 168.101 98.01 165.017C110.097 161.933 107.779 149.538 107.779 149.538C107.779 149.538 121.009 152.075 125.406 155.815C129.803 159.555 128.45 168.827 128.45 168.827L126.859 185.509L122.959 217.561C122.959 217.561 127.933 229.717 121.099 232.582L108.167 236.323L76.9405 238.561C76.9405 238.561 66.9927 242.54 63.7398 239.198C60.4869 235.855 57.0449 229.16 57.0449 229.16L68.6043 152.761L77.229 149.518Z" fill="#D0D8DC"/>
<path d="M121.766 153.707C122.124 153.866 154.166 172.329 154.166 172.329L169.843 139.68C170.241 144.336 175.325 150.215 180.04 148.205C180.04 148.205 166.938 203.028 158.801 200.73C156.483 200.083 123.795 184.117 123.795 184.117L116.652 172.299L121.766 153.707Z" fill="#D0D8DC"/>
<g opacity="0.3">
<path opacity="0.3" d="M77.2495 201.367C75.366 196.572 73.4925 191.78 71.629 186.992C71.3504 186.296 70.9326 185.48 70.1865 185.43C69.8354 185.448 69.5042 185.599 69.2603 185.852C69.0164 186.105 68.878 186.442 68.8734 186.793C68.8366 187.518 68.9002 188.244 69.0624 188.952C69.719 192.135 70.2064 194.294 71.9672 196.621C75.3992 201.158 73.728 203.714 73.728 203.714C74.5835 209.603 74.9416 217.711 73.728 223.978L76.2448 231.111C77.3092 225.49 80.5919 220.556 80.6218 214.836C80.6715 210.18 78.9307 205.704 77.2495 201.367Z" fill="black"/>
</g>
<g opacity="0.3">
<path opacity="0.3" d="M126.84 185.609C131.923 187.598 136.569 190.583 141.553 192.791C139.285 188.97 135.914 185.925 131.883 184.057C130.85 183.53 129.675 183.349 128.531 183.54C127.407 183.818 126.661 184.534 126.949 185.658" fill="black"/>
</g>
<g opacity="0.3">
<path opacity="0.3" d="M153.311 172.08C151.669 172.219 150.585 173.841 149.929 175.363C148.086 179.685 147.654 184.479 148.695 189.061C148.884 189.887 149.292 190.852 150.138 190.921C150.441 190.923 150.737 190.827 150.982 190.648C151.228 190.469 151.409 190.216 151.5 189.926C151.666 189.337 151.693 188.718 151.58 188.116C151.272 185.291 150.476 182.983 150.894 179.65C151.366 177.032 152.179 174.488 153.311 172.08Z" fill="black"/>
</g>
<path d="M103.213 136.904L100.915 152.91C100.915 152.91 92.161 159.297 81.8053 149.926C83.2288 142.467 82.476 134.756 79.6367 127.713C79.6367 127.713 81.099 127.643 83.4268 127.713C83.4268 127.713 87.0081 139.411 103.213 136.954V136.904Z" fill="#703E38"/>
<path d="M77.7872 117.406C80.0751 141.192 103.293 142.186 108.277 132.786C109.879 129.801 111.092 124.449 111.56 118.739C111.679 117.446 111.749 116.143 111.769 114.83C111.938 105.946 110.147 97.1725 104.994 95.3421C87.0884 88.9656 75.5091 93.6212 77.7872 117.406Z" fill="#8F5045"/>
<path d="M112.386 96.9939C113.191 95.3226 112.386 92.8755 110.217 92.6666L110.157 92.5472C110.354 91.819 110.272 91.0437 109.929 90.3724C109.585 89.7011 109.003 89.182 108.297 88.9163V88.8566C108.354 88.8696 108.408 88.8933 108.456 88.9262L108.287 88.8168C108.278 88.4273 108.187 88.0442 108.02 87.6921C107.853 87.3401 107.614 87.0269 107.319 86.7729C107.024 86.5188 106.678 86.3295 106.305 86.2172C105.932 86.1049 105.54 86.0721 105.154 86.1209C104.92 86.1474 104.69 86.1974 104.467 86.2701C104.192 85.8489 103.803 85.5147 103.345 85.3068C102.887 85.0989 102.379 85.0259 101.881 85.0963C101.667 85.1145 101.456 85.1614 101.254 85.2356C100.96 84.9708 100.612 84.7738 100.234 84.6586C99.8558 84.5435 99.4569 84.5129 99.0655 84.5691C98.8528 84.591 98.6428 84.6343 98.4388 84.6984C97.8677 84.2806 97.163 84.0873 96.4587 84.1551C95.7544 84.223 95.0996 84.5473 94.6188 85.0665C94.3303 84.6944 93.9477 84.406 93.5105 84.2312C93.0733 84.0563 92.5974 84.0012 92.1319 84.0717C91.6267 84.1165 91.1425 84.295 90.7292 84.589C90.4459 84.3609 90.1185 84.1938 89.7676 84.0979C89.4168 84.0021 89.0499 83.9796 88.6899 84.0319C88.0886 84.0757 87.5185 84.317 87.0684 84.7183C86.5972 84.5092 86.0776 84.4335 85.5663 84.4994C85.3211 84.5292 85.0805 84.5894 84.8501 84.6785C84.3482 84.4644 83.7971 84.3919 83.2569 84.4691C82.7167 84.5463 82.208 84.7701 81.7862 85.1162C81.3446 84.9263 80.8613 84.8543 80.3835 84.9073C79.7891 84.9459 79.2252 85.184 78.7829 85.583C78.3406 85.982 78.0458 86.5185 77.9463 87.1058H77.8667C77.5048 87.1345 77.1522 87.2348 76.8293 87.4008C76.5063 87.5667 76.2196 87.7951 75.9855 88.0727C75.7514 88.3502 75.5747 88.6714 75.4656 89.0177C75.3565 89.364 75.3172 89.7285 75.3499 90.0901C74.9296 89.9395 74.4794 89.8917 74.0368 89.9508C73.5908 89.9979 73.1622 90.1494 72.7857 90.393C72.4091 90.6366 72.0953 90.9655 71.8696 91.353C71.6438 91.7406 71.5126 92.1758 71.4864 92.6235C71.4603 93.0712 71.5399 93.5188 71.719 93.93H71.5698C71.1509 93.9688 70.746 94.1007 70.3846 94.316C70.0233 94.5313 69.7145 94.8246 69.481 95.1744C69.2474 95.5243 69.0949 95.9219 69.0346 96.3382C68.9744 96.7545 69.0078 97.1791 69.1325 97.5808C66.9142 98.3866 66.8644 101.45 68.5058 102.704C67.8673 103.197 67.4457 103.919 67.3306 104.718C67.2155 105.516 67.4158 106.328 67.8891 106.981C67.8091 107.473 67.8429 107.975 67.9877 108.451C68.1326 108.927 68.3847 109.364 68.7247 109.727C68.3843 110.388 68.2855 111.148 68.4453 111.874C68.6052 112.601 69.0136 113.249 69.6001 113.706C70.754 121.237 74.4447 128.757 82.0945 132.896L80.5725 127.573C80.5725 127.573 77.3793 122.948 78.0657 119.466C78.7521 115.984 80.8909 118.471 80.8909 118.471C80.8909 118.471 85.3773 109.14 84.7705 103.38L84.1537 97.6206C84.1537 97.6206 100.876 91.8807 109.172 99.3515L109.381 99.2918C109.408 99.5676 109.491 99.835 109.623 100.078C109.756 100.321 109.936 100.535 110.154 100.707C110.371 100.879 110.621 101.005 110.888 101.078C111.155 101.151 111.435 101.17 111.709 101.132C114.097 100.953 114.126 97.7997 112.386 96.9939Z" fill="#0E3944"/>
<path d="M80.2833 117.307C80.2833 117.307 76.3041 112.811 72.7826 115.646C69.2611 118.481 75.3889 126.758 79.2686 126.39C83.1482 126.021 80.2634 117.307 80.2634 117.307H80.2833Z" fill="#8F5045"/>
<path d="M80.6409 269.29C80.6409 269.29 54.4384 277.149 52.986 277.656C43.9236 280.849 50.2703 298.845 67.6292 293.891C70.8722 293.234 92.9662 286.311 92.9662 286.311L80.6409 269.29Z" fill="#0E3944"/>
<path d="M68.9842 284.709C68.7454 283.973 68.4868 283.247 68.1983 282.531C67.9098 281.814 67.6114 281.158 67.2831 280.481C67.0243 279.794 66.5801 279.191 65.9998 278.741C65.9673 278.718 65.9299 278.705 65.8908 278.701C65.8518 278.696 65.8123 278.702 65.7759 278.717C65.7395 278.731 65.7073 278.755 65.6821 278.785C65.657 278.815 65.6397 278.851 65.6317 278.89C65.6065 279.596 65.7497 280.299 66.0496 280.939C66.2883 281.645 66.5271 282.362 66.7559 283.078C66.9847 283.794 67.2035 284.5 67.4224 285.226C67.5114 285.988 67.8073 286.71 68.2779 287.316C68.3625 287.382 68.4616 287.427 68.567 287.447C68.6724 287.467 68.7811 287.462 68.8842 287.432C68.9872 287.402 69.0816 287.347 69.1595 287.274C69.2374 287.2 69.2967 287.108 69.3323 287.007C69.4538 286.224 69.3323 285.422 68.9842 284.709Z" fill="#D0D8DC"/>
<path d="M74.8035 284.49C74.2365 283.376 73.7093 282.242 73.192 281.108C72.9333 280.551 72.6747 279.994 72.3962 279.447C72.1176 278.899 71.8988 278.263 71.3417 278.114L71.2223 277.984C71.1427 277.885 70.9338 277.915 70.9338 278.064C70.9338 278.213 70.8045 278.362 70.7747 278.551C70.76 278.69 70.76 278.83 70.7747 278.969C70.8293 279.307 70.9125 279.64 71.0234 279.964C71.1925 280.551 71.4014 281.128 71.6202 281.705C72.0977 282.889 72.615 284.033 73.2019 285.177C73.2598 285.317 73.3541 285.44 73.4751 285.532C73.5962 285.624 73.7396 285.682 73.8906 285.7C74.0416 285.719 74.1947 285.696 74.3342 285.636C74.4737 285.575 74.5945 285.478 74.6842 285.356C74.783 285.237 74.8466 285.093 74.8677 284.94C74.8888 284.787 74.8666 284.631 74.8035 284.49Z" fill="#D0D8DC"/>
<path d="M113.599 267.629C113.599 267.629 140.786 268.096 142.298 268.047C151.251 267.788 153.957 282.859 139.841 283.864C136.588 284.093 109.6 284.749 109.6 284.749L113.599 267.629Z" fill="#0E3944"/>
<path d="M120.651 272.453C120.638 272.383 120.606 272.319 120.558 272.266C120.509 272.214 120.448 272.177 120.379 272.158C120.311 272.139 120.238 272.14 120.17 272.161C120.102 272.181 120.041 272.221 119.995 272.274C119.798 272.58 119.653 272.916 119.567 273.269C119.457 273.657 119.348 274.045 119.259 274.433C119.06 275.199 118.91 275.975 118.781 276.751C118.625 277.515 118.522 278.29 118.473 279.068C118.473 279.884 119.388 280.74 120.154 280.133C120.266 280.047 120.353 279.932 120.406 279.801C120.458 279.67 120.474 279.527 120.452 279.387C120.428 279.257 120.373 279.134 120.293 279.029C120.46 278.062 120.553 277.085 120.572 276.104L120.661 274.304C120.661 274.095 120.661 273.886 120.661 273.677C120.733 273.272 120.729 272.857 120.651 272.453Z" fill="#D0D8DC"/>
<path d="M125.805 272.772C125.772 272.69 125.729 272.613 125.676 272.543C125.666 272.536 125.653 272.532 125.641 272.532C125.628 272.532 125.616 272.536 125.606 272.543C125.178 273.016 124.931 273.626 124.91 274.264C124.78 274.911 124.711 275.567 124.641 276.254C124.421 277.602 124.305 278.966 124.293 280.332C124.293 281.188 125.716 281.168 125.785 280.332C125.785 280.332 125.785 280.243 125.785 280.193C125.84 280.131 125.883 280.06 125.914 279.984C126.023 279.644 126.067 279.286 126.044 278.929C126.044 278.601 126.044 278.263 126.044 277.935C126.044 277.298 126.123 276.661 126.183 276.025C126.243 275.388 126.312 274.751 126.372 274.115C126.432 273.647 126.412 272.772 125.805 272.772Z" fill="#D0D8DC"/>
<path d="M134.131 196.969C136.777 202.062 137.115 215.373 135.613 219.063C133.882 223.241 123.755 222.615 123.755 222.615C123.755 222.615 120.214 189.359 116.722 172.647C113.231 155.934 104.695 146.285 104.695 146.285C104.695 146.285 122.512 144.942 126.302 154.522C128.163 159.073 128.943 163.993 128.58 168.896C128.518 169.716 128.398 170.531 128.222 171.334H128.371C128.958 171.334 131.007 172.03 133.176 178.944C135.742 187.111 132.917 195.397 132.917 195.397C133.43 195.832 133.843 196.372 134.131 196.979V196.969Z" fill="#EF4153"/>
<path d="M113.31 161.356C113.31 161.356 115.201 150.851 111.003 146.435C106.805 142.018 102.756 141.66 102.756 141.66C102.756 141.66 108.197 145.788 109.202 148.782C110.207 151.777 113.31 161.356 113.31 161.356Z" fill="#CE374C"/>
<path d="M117.807 172.517C121.577 171.931 125.221 170.707 128.58 168.896C128.518 169.716 128.398 170.531 128.222 171.334C128.222 171.334 121.617 172.955 117.807 172.517Z" fill="#CE374C"/>
<path d="M134.131 196.969C130.5 197.599 126.811 197.836 123.129 197.676C123.129 197.676 130.232 196.95 132.918 195.388C133.43 195.823 133.844 196.362 134.131 196.969Z" fill="#CE374C"/>
<path d="M90.5002 161.933C90.5002 161.933 92.5893 150.99 91.1966 147.757C89.8039 144.524 78.9707 142.027 78.1152 143.152C77.2597 144.276 76.5236 147.379 77.956 150.851C77.956 150.851 84.5415 151.12 90.5002 161.933Z" fill="#CE374C"/>
<path d="M102.855 141.619L101.611 148.105C105.879 149.368 109.928 152.562 112.763 159.336C112.763 159.336 112.872 143.42 102.815 141.619H102.855Z" fill="#B72F49"/>
<path d="M98.0996 191.807C101.034 219.75 94.2299 229.071 94.2299 229.071C94.2299 229.071 73.9662 234.045 69.7881 230.374C65.6101 226.703 67.7986 213.264 67.7986 213.264C66.9584 211.673 66.2014 210.039 65.5305 208.37C65.0132 207.126 64.4561 205.684 63.9388 204.122C63.4216 202.56 62.9441 200.909 62.5561 199.198C61.7538 195.856 61.895 192.357 62.9639 189.091C63.2079 188.283 63.5416 187.506 63.9587 186.773C63.9587 186.773 58.1791 171.016 59.1042 163.634C59.2911 162.088 59.8139 160.6 60.6362 159.277C65.0828 151.946 77.1495 149.528 77.1495 149.528C80.6711 150.066 90.7681 154.801 94.6975 171.752L98.0996 191.807Z" fill="#EF4153"/>
<path d="M90.9581 176.437C88.322 180.794 69.9782 183.082 69.9782 183.082C69.9782 183.082 59.8911 202.222 69.2321 206.718C78.404 211.125 93.2859 205.594 93.833 205.395C90.7691 208.548 69.829 212.836 65.5813 208.379C65.385 208.182 65.2235 207.954 65.1038 207.703C64.5888 206.564 64.2211 205.364 64.0095 204.132C63.2171 199.162 62.8841 194.131 63.0147 189.1C63.2587 188.293 63.5924 187.516 64.0095 186.783C64.0095 186.783 58.2298 171.025 59.155 163.644C59.3418 162.097 59.8647 160.61 60.6869 159.287C71.6295 158.292 74.783 178.297 74.783 178.297C77.9364 179.043 90.9283 176.457 90.9283 176.457L90.9581 176.437Z" fill="#CE374C"/>
<path d="M88.0227 269.907L83.2776 262.048L71.1611 217.153C71.1611 217.153 61.9594 212.508 55.2446 224.117C54.9761 224.584 67.0527 256.557 70.4151 265.45L71.2805 274.075C71.2805 274.075 71.2805 284.351 71.8774 285.216C72.3587 285.823 73.0044 286.279 73.7376 286.529C73.7068 286.893 73.7561 287.258 73.8822 287.6C74.0082 287.942 74.2078 288.252 74.4669 288.508C74.7259 288.764 75.0382 288.96 75.3814 289.083C75.7247 289.205 76.0907 289.25 76.4534 289.215C76.4534 289.215 76.8612 292.021 79.0199 291.513C79.609 291.405 80.168 291.171 80.6589 290.828C81.1497 290.485 81.5611 290.04 81.865 289.524C81.865 289.524 82.054 293.105 83.954 292.618C85.854 292.13 86.0928 290.578 86.4211 290.051C86.7493 289.524 86.8687 284.241 86.8687 284.241L86.3713 275.567L91.5939 279.357C93.0761 280.004 95.2348 280.78 96.3888 279.636L88.0227 269.907Z" fill="#8F5045"/>
<path d="M60.6968 160.829C52.6788 164.281 52.2809 207.693 52.1914 217.531C52.1914 217.531 67.7 261.063 68.6351 263.49C70.2964 267.828 83.915 259.511 83.915 259.511L71.4404 215.512L70.3064 184.236C70.3064 184.236 72.4352 174.408 68.8838 167.395C65.3325 160.381 60.6968 160.829 60.6968 160.829Z" fill="#D0D8DC"/>
<path d="M275.569 159.944H152.465C150.508 159.944 148.63 160.722 147.246 162.106C145.862 163.49 145.084 165.367 145.084 167.325V216.517C145.087 218.473 145.865 220.348 147.249 221.73C148.633 223.112 150.509 223.888 152.465 223.888H275.569C277.525 223.888 279.401 223.112 280.785 221.73C282.169 220.348 282.948 218.473 282.951 216.517V167.325C282.951 165.367 282.173 163.49 280.789 162.106C279.405 160.722 277.527 159.944 275.569 159.944Z" fill="#FAFBFB"/>
<path d="M275.569 159.944L177.841 160.073H153.41C152.405 160.016 151.398 160.117 150.425 160.372C149.465 160.65 148.576 161.132 147.819 161.784C147.057 162.428 146.437 163.222 145.999 164.118C145.56 165.014 145.313 165.991 145.272 166.987V179.263V203.694V215.91C145.201 216.9 145.332 217.893 145.657 218.83C145.982 219.767 146.494 220.629 147.162 221.362C147.831 222.089 148.643 222.669 149.547 223.066C150.451 223.463 151.427 223.669 152.415 223.67L250.142 223.789H274.574C275.578 223.843 276.585 223.743 277.558 223.491C278.526 223.209 279.424 222.728 280.194 222.078C280.967 221.426 281.595 220.62 282.04 219.713C282.485 218.805 282.738 217.815 282.781 216.806V204.6V180.168V167.962C282.855 166.944 282.721 165.922 282.387 164.957C282.054 163.993 281.528 163.106 280.841 162.351C280.172 161.613 279.359 161.019 278.453 160.605C277.546 160.191 276.565 159.966 275.569 159.944ZM275.569 159.944C276.592 159.945 277.604 160.159 278.541 160.571C279.478 160.984 280.319 161.587 281.01 162.341C281.704 163.096 282.237 163.982 282.579 164.948C282.921 165.914 283.064 166.939 283 167.962V180.178V204.61V216.825C282.957 217.858 282.701 218.87 282.247 219.798C281.793 220.726 281.152 221.55 280.364 222.217C279.577 222.886 278.659 223.381 277.668 223.67C276.673 223.936 275.642 224.04 274.614 223.978H250.182L152.455 224.107C151.398 224.104 150.354 223.881 149.388 223.453C148.422 223.025 147.556 222.401 146.844 221.62C146.143 220.841 145.605 219.929 145.263 218.938C144.921 217.946 144.782 216.897 144.854 215.851V203.665V179.233V167.007C144.897 165.963 145.156 164.94 145.617 164.003C146.078 163.066 146.73 162.236 147.53 161.565C148.324 160.886 149.253 160.384 150.256 160.093C151.258 159.831 152.296 159.73 153.33 159.795H177.762L275.569 159.944Z" fill="#A42A29"/>
<path d="M268.676 185.798C268.676 186.047 244.652 186.236 215.028 186.236C185.403 186.236 161.369 186.047 161.369 185.798C161.369 185.549 185.383 185.37 215.028 185.37C244.672 185.37 268.676 185.559 268.676 185.798Z" fill="#A42A29"/>
<path d="M268.676 193.398C268.676 193.647 244.652 193.836 215.028 193.836C185.403 193.836 161.369 193.647 161.369 193.398C161.369 193.15 185.383 192.971 215.028 192.971C244.672 192.971 268.676 193.19 268.676 193.398Z" fill="#A42A29"/>
<path d="M218.072 201.028C217.336 201.154 216.59 201.211 215.843 201.197L209.765 201.326C204.642 201.406 197.549 201.456 189.72 201.456C181.891 201.456 174.799 201.406 169.676 201.326L163.597 201.197C162.851 201.211 162.105 201.154 161.369 201.028C162.104 200.895 162.851 200.839 163.597 200.859L169.676 200.72C174.809 200.64 181.891 200.59 189.72 200.59C197.549 200.59 204.642 200.64 209.765 200.72L215.843 200.859C216.59 200.839 217.337 200.895 218.072 201.028Z" fill="#A42A29"/>
<path d="M266.944 206.997C267.133 207.156 264.815 210.12 261.791 213.612L260.19 215.422L259.881 215.771L259.573 215.442C257.225 212.906 255.594 210.986 255.753 210.856C255.912 210.727 257.742 212.408 260.17 214.835H259.563C260.07 214.239 260.558 213.622 261.135 212.995C264.119 209.553 266.725 206.847 266.944 206.997Z" fill="#A42A29"/>
<path d="M271.649 206.997C271.828 207.156 270.038 209.523 267.67 212.289C266.626 213.483 265.68 214.567 264.865 215.373L264.586 215.661L264.357 215.383C263.412 214.209 262.865 213.393 262.965 213.334C263.064 213.274 263.79 213.861 264.855 214.925H264.357C265.044 214.04 265.969 212.936 267.013 211.712C269.381 208.956 271.47 206.847 271.649 206.997Z" fill="#A42A29"/>
<path d="M227.64 152.095C226.241 149.708 224.255 147.718 221.87 146.315L221.691 146.205L217.822 144.574L213.504 143.997C212.017 144.096 210.538 144.296 209.077 144.594L208.083 144.803L207.635 144.942C207.359 145.01 207.086 145.093 206.819 145.191L206.153 145.449C205.904 145.549 205.665 145.648 205.427 145.768L204.69 146.176C204.551 146.265 204.402 146.325 204.263 146.414C201.917 147.832 199.95 149.798 198.533 152.144C198.443 152.294 198.374 152.433 198.294 152.582C198.214 152.731 198.015 153.06 197.886 153.308C197.757 153.557 197.667 153.796 197.568 154.034C197.468 154.273 197.379 154.472 197.299 154.701C197.22 154.93 197.13 155.248 197.051 155.517C196.971 155.785 196.961 155.815 196.921 155.964V156.183C196.784 156.812 196.698 157.451 196.663 158.093C196.528 158.722 196.441 159.361 196.404 160.003V160.212C196.404 160.302 196.404 160.391 196.404 160.481C196.373 161.79 196.551 163.097 196.931 164.35C196.931 164.35 196.931 164.35 196.931 164.41C196.925 164.426 196.925 164.444 196.931 164.46V164.529C197.304 165.841 197.839 167.1 198.523 168.28C199.561 170.054 200.933 171.611 202.562 172.866C202.93 173.154 203.318 173.393 203.706 173.642C203.895 173.761 204.064 173.9 204.253 174.01C205.449 174.704 206.729 175.243 208.063 175.611L209.057 175.82C209.714 175.956 210.378 176.049 211.047 176.099H211.266C214.116 176.481 217.017 176.1 219.672 174.994C220.425 174.803 221.142 174.487 221.791 174.059C224.175 172.66 226.161 170.674 227.56 168.29C229 165.825 229.759 163.022 229.759 160.167C229.759 157.313 229 154.51 227.56 152.045L227.64 152.095Z" fill="#EBEBEB"/>
<path d="M227.642 152.095C226.925 150.879 226.052 149.762 225.045 148.772C224.036 147.788 222.906 146.936 221.683 146.235L217.803 144.614L213.486 144.067C211.882 144.191 210.29 144.431 208.721 144.783C208.327 144.857 207.938 144.956 207.557 145.082C207.175 145.19 206.8 145.319 206.433 145.47C205.696 145.775 204.984 146.137 204.304 146.554C203.121 147.209 202.056 148.056 201.15 149.061C200.165 149.98 199.338 151.056 198.703 152.244L198.226 153.139C198.065 153.439 197.922 153.748 197.798 154.064C197.661 154.388 197.545 154.721 197.45 155.059L197.161 156.054V156.273L196.913 158.133V158.183L196.664 160.053V160.262C196.664 160.63 196.664 160.978 196.664 161.326C196.664 161.674 196.714 162.033 196.763 162.381C196.853 163.072 197.003 163.755 197.211 164.42V164.48C197.764 166.415 198.679 168.228 199.907 169.822C200.514 170.625 201.2 171.365 201.956 172.03C202.726 172.677 203.541 173.268 204.393 173.801C205.57 174.483 206.826 175.018 208.134 175.393L208.95 175.562C209.219 175.618 209.491 175.662 209.765 175.691L211.397 175.93H211.446C212.817 176.304 214.264 176.304 215.635 175.93H215.694C217.085 175.951 218.457 175.608 219.673 174.935C220.765 174.625 221.792 174.123 222.707 173.453C226.078 171.19 228.46 167.729 229.369 163.772C230.278 159.816 229.646 155.661 227.602 152.154L227.642 152.095ZM227.642 152.095C228.813 154.088 229.543 156.31 229.781 158.61C230.02 160.909 229.762 163.233 229.024 165.425C228.29 167.624 227.097 169.642 225.523 171.344C224.732 172.191 223.855 172.955 222.906 173.622C221.973 174.327 220.922 174.863 219.803 175.203C218.54 175.961 217.097 176.366 215.625 176.377H215.674C214.225 176.77 212.697 176.77 211.248 176.377L209.566 176.158C209.288 176.109 208.999 176.089 208.731 176.029L207.915 175.87C206.557 175.501 205.253 174.955 204.035 174.249C203.153 173.694 202.306 173.086 201.499 172.428C200.713 171.74 199.997 170.977 199.36 170.15C198.071 168.5 197.124 166.61 196.574 164.589V164.53C196.363 163.827 196.21 163.108 196.117 162.381C196.068 162.018 196.038 161.653 196.027 161.287C196.027 160.918 196.027 160.55 196.027 160.192V159.973L196.296 157.984V158.034L196.565 156.044V155.825L196.873 154.83C196.972 154.492 197.122 154.174 197.251 153.836C197.391 153.513 197.547 153.198 197.718 152.891L198.236 151.965C198.915 150.748 199.789 149.649 200.822 148.712C201.77 147.694 202.883 146.843 204.115 146.196C204.816 145.776 205.552 145.417 206.313 145.121C206.694 144.973 207.082 144.847 207.477 144.743C207.861 144.622 208.254 144.529 208.651 144.465C210.236 144.139 211.841 143.926 213.456 143.828L217.763 144.435L221.633 146.076C222.85 146.793 223.976 147.655 224.985 148.643C226.019 149.671 226.912 150.832 227.642 152.095Z" fill="#A42A29"/>
<path d="M221.502 152.264C218.677 154.333 211.386 161.277 208.879 163.376L207.257 161.655C206.464 160.61 205.376 159.827 204.134 159.406C203.998 159.382 203.857 159.39 203.725 159.431C203.593 159.473 203.473 159.545 203.376 159.643C203.278 159.741 203.205 159.861 203.164 159.993C203.123 160.125 203.114 160.265 203.139 160.401C203.492 161.678 204.207 162.825 205.198 163.704L207.934 166.748C208.224 167.037 208.618 167.199 209.028 167.199C209.438 167.199 209.831 167.037 210.122 166.748C212.112 164.43 220.687 155.964 222.736 153.726C222.857 153.547 222.915 153.333 222.904 153.117C222.892 152.901 222.81 152.695 222.671 152.53C222.531 152.364 222.342 152.249 222.131 152.201C221.92 152.153 221.7 152.175 221.502 152.264Z" fill="#A42A29"/>
</svg>
