<svg width="44" height="48" viewBox="0 0 44 48" fill="none" xmlns="http://www.w3.org/2000/svg">
<path d="M9.43859 5.05328C9.53731 5.00485 9.63776 4.95557 9.74023 4.90424C9.9923 4.80322 10.1939 4.7022 10.446 4.55066C10.4758 4.52078 10.6292 4.45555 10.7181 4.4177L10.7259 4.41439C10.6677 4.45427 10.7191 4.42541 10.7722 4.39434C10.7805 4.39058 10.784 4.38863 10.7813 4.38901C10.8163 4.36847 10.8493 4.34862 10.8493 4.34862C10.9501 4.29811 11.051 4.2476 11.2022 4.19709C11.8576 3.94454 12.5633 3.69198 13.2691 3.48994C17.2517 2.27768 21.4864 1.92411 25.6707 2.53024C28.8971 3.03534 32.0731 4.09607 34.9466 5.56088C35.5011 5.86394 36.2069 5.71241 36.5094 5.15679C36.8119 4.65168 36.6606 3.84351 36.1061 3.59096C31.0648 1.06543 25.4186 -0.298357 19.722 0.0552178C16.0418 0.307771 12.4625 1.16645 9.13528 2.68177C8.47992 2.98483 7.82455 3.2879 7.2196 3.69198C6.71547 4.04556 6.46341 4.70219 6.8163 5.25781C7.06836 5.76292 7.82455 6.01547 8.32868 5.6619C8.69014 5.42045 9.05163 5.24312 9.43859 5.05328Z" fill="#221F1F"/>
<path d="M5.75744 39.0492C5.2029 37.6854 4.90043 36.2711 4.64836 34.8063C4.62316 34.6548 4.59795 34.4906 4.57274 34.3264C4.54754 34.1623 4.52233 33.9981 4.49712 33.8466C4.49712 33.7456 4.49712 33.6951 4.44671 33.594C4.44671 33.493 4.43411 33.392 4.42151 33.291C4.4089 33.19 4.3963 33.0889 4.3963 32.9879C4.29547 32.2303 4.29547 31.4726 4.29547 30.6644C4.29547 29.8563 4.34589 28.9976 4.44671 28.1894C4.44671 28.0998 4.44671 28.0101 4.48195 27.9204C4.47267 27.9915 4.46757 28.0344 4.49712 27.8863C4.49145 27.8977 4.48642 27.9091 4.48195 27.9204L4.48349 27.9087C4.48977 27.8608 4.49712 27.8046 4.49712 27.7853C4.52233 27.6843 4.53493 27.5833 4.54754 27.4823C4.56014 27.3812 4.57274 27.2802 4.59795 27.1792C4.62958 27.0366 4.65625 26.8939 4.68263 26.7529C4.74033 26.4443 4.79664 26.1432 4.90043 25.8659C5.40455 24.0475 6.00951 22.5827 7.11859 21.0169C7.62271 20.3097 8.22767 19.6026 8.93344 18.946C9.74005 18.1883 10.5467 17.5317 11.5045 16.9255C13.8739 15.4102 16.5962 14.3495 19.4193 14.0969C22.4945 13.7939 25.5696 14.2485 28.4432 15.3597C30.7117 16.2184 32.7787 17.5317 34.4423 19.2995C35.3497 20.2087 36.0555 21.2695 36.7109 22.3807C37.0637 22.9868 37.4166 23.6434 37.7191 24.3001C37.7947 24.4769 37.883 24.6537 37.9712 24.8305C38.0594 25.0072 38.1476 25.184 38.2232 25.3608C38.3745 25.7144 38.4753 26.068 38.5761 26.4215C38.6769 26.7246 38.7273 27.0276 38.7778 27.3306C38.8045 27.411 38.8171 27.5058 38.8305 27.6072C38.8424 27.6967 38.855 27.7916 38.8786 27.8863C38.8786 27.9369 38.8912 27.9874 38.9038 28.0379C38.9164 28.0884 38.929 28.1389 38.929 28.1894C38.8939 27.9782 38.9077 28.1349 38.9193 28.2665C38.9244 28.3236 38.929 28.3762 38.929 28.3914C38.9794 28.7955 38.9794 29.1996 38.9794 29.6541V30.8665C38.8282 31.8767 38.6265 32.4323 38.0216 33.2405L37.9208 33.392L37.6687 33.6446C37.5175 33.7961 37.3662 33.9476 37.2654 33.9981C36.7613 34.4022 36.1563 34.6548 35.5514 34.8063C34.2406 35.2104 32.7282 35.1094 31.4679 34.4527C30.5101 33.9476 29.8043 33.2405 29.3002 32.2808C29.1994 32.0787 29.1489 31.9777 29.0481 31.6746C28.9977 31.5231 28.9473 31.3211 28.9473 31.1695C28.932 31.1082 28.9074 31.0283 28.8862 30.9595C28.8376 30.8014 28.8068 30.7014 28.9473 31.018C28.8895 30.8732 28.898 30.6951 28.9062 30.522C28.9124 30.3932 28.9184 30.267 28.8969 30.1593C28.8969 29.9034 28.8565 29.6476 28.814 29.3788C28.7894 29.2232 28.7641 29.0633 28.7456 28.8966C27.6366 23.3404 19.7218 21.623 16.1425 25.7649C13.4202 28.8966 14.1764 33.493 15.6383 37.0288C17.302 41.1201 20.478 44.3528 24.4102 46.3227C25.6705 46.9794 27.0316 47.4845 28.3928 47.9391C29.8043 48.3937 30.4093 46.1712 28.9977 45.7166C26.5779 44.9084 24.1077 43.7467 22.192 42.1303C20.5788 40.8171 19.4697 39.4028 18.4615 37.6349L17.8061 36.3216C17.7557 36.2206 17.7053 36.1196 17.7053 36.0691C17.6044 35.867 17.554 35.665 17.5036 35.4629C17.2515 34.7558 17.0499 33.9981 16.8987 33.2405C16.8483 32.887 16.7979 32.584 16.7475 32.281C16.7475 32.1799 16.7474 32.1292 16.697 32.0787C16.697 32.003 16.6844 31.9272 16.6718 31.8514C16.6592 31.7757 16.6466 31.6999 16.6466 31.6241C16.4954 30.3614 16.697 29.0986 17.3524 27.9874C18.7639 25.6639 21.5366 25.2598 23.8556 26.2195C24.7126 26.5731 25.5192 27.1792 26.0234 27.9874C26.4926 28.7318 26.5675 29.537 26.6481 30.403C26.6714 30.6534 26.6952 30.9089 26.7291 31.1695C26.7796 31.4726 26.7291 31.2706 26.7291 31.22C26.7291 31.2958 26.7417 31.3589 26.7543 31.4221C26.7669 31.4852 26.7796 31.5484 26.7796 31.6241C26.8048 31.6999 26.8174 31.7883 26.83 31.8767C26.8426 31.9651 26.8552 32.0535 26.8804 32.1292C26.9812 32.4828 27.1324 32.8869 27.2837 33.19C27.4349 33.5435 27.687 33.9476 27.939 34.2507C28.8969 35.5134 30.2076 36.4226 31.7704 36.8772C34.4927 37.6854 37.8199 36.9783 39.6852 34.7558C41.9538 32.0282 41.7017 28.0379 40.6431 24.8052C39.9373 22.6837 38.7274 20.6633 37.3662 18.946C35.8538 16.976 33.9382 15.3092 31.72 14.1475C25.9729 11.1168 19.0664 10.7127 13.1681 13.4403C9.08468 15.3092 5.55579 18.4914 3.79135 22.6837C2.4302 25.9164 2.0269 29.5027 2.37979 33.0384C2.58144 35.1599 2.98474 37.2813 3.69052 39.3017C3.74093 39.4028 3.79135 39.5038 3.79135 39.6048C4.04341 40.2109 4.54754 40.615 5.2029 40.413C5.50538 40.3625 6.00951 39.6553 5.75744 39.0492Z" fill="#221F1F"/>
<path d="M2.32957 17.6833C2.22875 17.7843 2.17833 17.8348 2.12792 17.9359C1.32132 19.1986 -0.644778 18.0369 0.212239 16.7741C1.27091 15.1073 2.73287 13.6425 4.19484 12.3292C7.11878 9.80365 10.5468 7.83373 14.2774 6.77301C17.1509 5.96484 20.2261 5.7628 23.2004 5.91433C26.326 6.06586 29.4012 6.77301 32.2747 8.03577C36.5598 9.90467 40.1391 12.9858 42.8614 16.7741C43.2143 17.2792 42.9622 18.0369 42.4581 18.3399C41.9036 18.6935 41.2482 18.441 40.8953 17.9359C38.1226 14.1476 34.2408 11.0664 29.9053 9.55109C28.4434 9.04599 26.931 8.69241 25.4186 8.43986C25.3682 8.38935 25.2674 8.38935 25.1665 8.38935C25.0153 8.36409 25.0783 8.37672 25.1413 8.38935C25.2043 8.40198 25.2674 8.4146 25.1161 8.38935C25.0405 8.38935 24.9649 8.37672 24.8893 8.36409C24.8136 8.35147 24.738 8.33884 24.6624 8.33884C24.4103 8.28833 24.1079 8.23782 23.8558 8.23782C23.6289 8.23782 23.3895 8.22519 23.15 8.21256C22.9106 8.19993 22.6711 8.18731 22.4442 8.18731C21.5368 8.1368 20.579 8.1368 19.6211 8.18731C17.4534 8.33884 15.3361 8.79343 13.3195 9.50058C11.6055 10.1067 9.94189 10.9654 8.3791 11.9756C7.06837 12.8343 6.06011 13.6425 4.90062 14.7537C4.14443 15.5113 3.38824 16.3195 2.73287 17.1277C2.70767 17.1782 2.66986 17.2161 2.63205 17.254C2.59424 17.2918 2.55643 17.3297 2.53122 17.3802C2.48081 17.4813 2.4304 17.5823 2.32957 17.6833Z" fill="#221F1F"/>
<path d="M20.2764 30.3111C20.226 32.483 20.9821 34.655 22.0408 36.5239C23.5532 39.2514 25.973 41.3729 28.9473 42.2821C31.2663 42.9892 33.5853 42.8882 36.0051 42.6357C36.6101 42.5851 37.1646 42.1305 37.1646 41.4739C37.1646 40.8678 36.6605 40.2617 36.0051 40.3122C34.039 40.5142 32.0729 40.6657 30.2581 40.2111C29.4515 40.0091 28.8969 39.8071 28.292 39.504C28.1407 39.4282 27.9895 39.3398 27.8383 39.2514C27.687 39.163 27.5358 39.0747 27.3846 38.9989C27.3394 38.9687 27.2988 38.9386 27.2599 38.9098C27.1686 38.8421 27.0874 38.7818 26.9813 38.7463C26.8804 38.6958 26.83 38.6453 26.7796 38.5948C26.7603 38.5755 26.7411 38.5636 26.7246 38.5534C26.698 38.5369 26.6788 38.525 26.6788 38.4938C26.1747 38.0897 25.6705 37.5846 25.2672 37.0795C25.2168 37.029 25.1664 36.9658 25.116 36.9027C25.0656 36.8396 25.0152 36.7764 24.9647 36.7259C25.0404 36.8017 25.0026 36.7512 24.9458 36.6754C24.8891 36.5996 24.8135 36.4986 24.8135 36.4734C24.7127 36.3471 24.6245 36.2082 24.5362 36.0693C24.448 35.9304 24.3598 35.7915 24.259 35.6652C23.9565 35.1601 23.7044 34.655 23.4524 34.0994C23.4524 34.0847 23.4481 34.0701 23.4421 34.0554C23.45 34.0694 23.456 34.0814 23.4587 34.0867C23.4596 34.0886 23.4601 34.0897 23.4602 34.0896C23.4604 34.0896 23.4448 34.0552 23.402 33.9478C23.402 33.9731 23.4146 33.9983 23.4272 34.0236C23.4289 34.027 23.4306 34.0304 23.4322 34.0338C23.4358 34.041 23.4391 34.0482 23.4421 34.0554C23.4312 34.0361 23.4166 34.013 23.402 33.9983C23.3768 33.9226 23.3516 33.8595 23.3264 33.7964C23.3012 33.7332 23.2759 33.67 23.2507 33.5942C23.2003 33.468 23.1625 33.3417 23.1247 33.2154C23.0869 33.0892 23.0491 32.9629 22.9987 32.8366C22.8474 32.382 22.7466 31.9274 22.6458 31.4728C22.6458 31.4326 22.6138 31.2003 22.6008 31.2347C22.5977 31.2051 22.5953 31.1805 22.5953 31.1697V30.2605C22.5953 28.8463 20.3268 28.8462 20.2764 30.3111Z" fill="#221F1F"/>
<path fill-rule="evenodd" clip-rule="evenodd" d="M32.1235 22.3302C33.9383 24.6032 35.0978 27.4823 34.997 30.4119C34.997 31.9272 32.678 31.9272 32.5772 30.5129C32.5772 30.1594 32.5772 29.7552 32.5268 29.3512C32.5268 29.3007 32.5142 29.1744 32.5079 29.1113C32.5016 29.0481 32.5016 29.0481 32.5268 29.2502C32.5268 29.1744 32.5142 29.1113 32.5016 29.0481C32.489 28.985 32.4764 28.9218 32.4764 28.8461C32.3755 28.1894 32.1739 27.5833 31.9722 26.9772C31.947 26.9014 31.9092 26.813 31.8714 26.7246C31.8336 26.6362 31.7958 26.5478 31.7706 26.4721C31.7202 26.3458 31.7328 26.3837 31.7454 26.4216C31.758 26.4595 31.7706 26.4973 31.7202 26.3711C31.7202 26.2971 31.6932 26.2502 31.6589 26.1908C31.6464 26.169 31.6329 26.1456 31.6193 26.1185C31.4681 25.7649 31.3169 25.4114 31.1152 25.1083C30.6111 24.2496 30.2582 23.795 29.6028 23.1384C28.3929 21.8756 26.8806 20.9664 25.1161 20.4108C22.7467 19.6531 20.2261 19.5521 17.8063 20.3603C16.7476 20.7139 15.8402 21.219 14.9327 21.8251C14.8265 21.9069 14.7243 21.9848 14.6248 22.0606C14.11 22.4527 13.667 22.7902 13.1179 23.3404C11.8071 24.6537 10.8997 26.3711 10.4964 28.2399C10.2948 29.1996 10.1939 30.1594 10.1939 31.1696C10.1939 31.6242 10.2444 32.1293 10.2948 32.5839C10.2948 32.6596 10.3074 32.748 10.32 32.8364C10.3326 32.9248 10.3452 33.0132 10.3452 33.089C10.3497 33.1163 10.353 33.1366 10.3553 33.1512C10.3956 33.2043 10.3956 33.2947 10.3956 33.3415C10.4026 33.384 10.4097 33.4274 10.4169 33.4717C10.4611 33.7436 10.5105 34.0477 10.5972 34.3517C11.5047 38.6451 13.8237 42.4334 16.9492 45.4641C18.0079 46.4743 16.3947 48.0906 15.336 47.0804C11.6055 43.4942 8.93362 38.7967 8.17743 33.6446C7.77413 30.816 7.97578 27.8864 9.13527 25.2093C10.9501 21.118 15.2856 18.1378 19.6715 17.5822C24.2087 16.9761 29.25 18.6934 32.1235 22.3302ZM10.3517 33.1466C10.3496 33.1366 10.3474 33.1254 10.3452 33.1142C10.3326 33.0511 10.32 32.988 10.3452 33.1395C10.3474 33.1417 10.3496 33.1441 10.3517 33.1466Z" fill="#221F1F"/>
</svg>
