<svg width="32" height="32" viewBox="0 0 32 32" fill="none" xmlns="http://www.w3.org/2000/svg">
<path fill-rule="evenodd" clip-rule="evenodd" d="M10.3677 16.0259C10.8182 18.6807 13.1277 20.5619 15.7345 20.5619C16.0336 20.5619 16.3382 20.5379 16.6446 20.4844C18.0791 20.2444 19.3308 19.4579 20.1745 18.2708C21.0163 17.0875 21.3468 15.6438 21.1031 14.2093C20.8612 12.7767 20.0748 11.5231 18.8896 10.6813C17.7043 9.83946 16.2588 9.509 14.828 9.75084C11.8686 10.2511 9.8674 13.0684 10.3677 16.0259ZM14.9813 10.6591C15.2379 10.6167 15.4926 10.5964 15.7456 10.5964C16.676 10.5964 17.5825 10.8825 18.356 11.4327C19.34 12.1324 19.9936 13.1736 20.1948 14.3644C20.3979 15.5551 20.1228 16.7533 19.4231 17.7373C18.7234 18.7213 17.6822 19.3767 16.4914 19.5761C14.0342 19.9933 11.6933 18.3299 11.2779 15.8727C10.8606 13.4136 12.524 11.0764 14.9813 10.6591Z" fill="#929497"/>
<path fill-rule="evenodd" clip-rule="evenodd" d="M14.149 26.3239C14.557 26.3701 14.9705 26.3941 15.3841 26.3941C15.5576 26.3941 15.7311 26.3886 15.9065 26.3812C16.093 26.3719 16.2573 26.2501 16.3182 26.0747L17.1084 23.8427L17.2431 23.8206C17.9059 23.7098 18.5539 23.5215 19.1742 23.2612L20.9078 24.5978C21.061 24.7178 21.2751 24.727 21.4376 24.6218C21.9545 24.2895 22.4511 23.9055 22.9164 23.4809C23.0548 23.3553 23.1028 23.1578 23.0364 22.9806L22.309 21.0347C22.8185 20.4679 23.2542 19.8384 23.6031 19.1553L25.5785 19.0741C25.7687 19.0649 25.9348 18.9393 25.9976 18.7603C26.1951 18.1658 26.3465 17.5436 26.4425 16.9086C26.4721 16.7184 26.3816 16.5319 26.2155 16.4378L24.5613 15.5018C24.5853 14.8944 24.5465 14.2833 24.445 13.6833C24.4118 13.4821 24.3711 13.2827 24.3231 13.0852L25.7391 11.791C25.8776 11.6655 25.9256 11.4661 25.8591 11.2907C25.6413 10.7073 25.3755 10.1406 25.0671 9.61071C24.9693 9.44087 24.7773 9.35225 24.5835 9.38918L22.7041 9.73625C22.1853 9.07348 21.5779 8.4901 20.8893 7.99902L21.1607 5.96641C21.1865 5.78179 21.0961 5.59902 20.9318 5.50487C20.4351 5.22056 19.9035 4.97133 19.3533 4.76271C19.1668 4.69256 18.9582 4.74795 18.8327 4.89933L17.4942 6.52395C16.6745 6.36148 15.8382 6.31718 15.0001 6.39287L13.765 4.44518C13.6635 4.28456 13.4733 4.20333 13.2887 4.24025C12.7551 4.33995 12.229 4.48025 11.7231 4.65564C11.5367 4.72025 11.4111 4.89748 11.413 5.09502L11.4351 7.50056C10.7391 7.89748 10.1041 8.38302 9.53914 8.95164L7.0893 8.17256C6.90653 8.11533 6.7053 8.17625 6.5853 8.32948C6.2733 8.72825 5.9853 9.15656 5.72499 9.60333C5.62714 9.77318 5.64745 9.98548 5.77299 10.1332L7.50468 12.1603C7.24991 12.8636 7.08745 13.5929 7.01914 14.3424L4.51576 15.3726C4.33484 15.4483 4.22037 15.6292 4.23145 15.8249C4.25545 16.2569 4.30345 16.6815 4.36991 17.0803C4.38099 17.1449 4.39391 17.2076 4.40684 17.2704L4.42345 17.3553C4.46037 17.5436 4.60991 17.6895 4.80007 17.7209L7.51576 18.1732C7.75945 18.8378 8.08068 19.471 8.4776 20.0581L7.24437 22.4156C7.15207 22.591 7.18345 22.8052 7.32007 22.9473C7.69299 23.3369 8.09914 23.7043 8.5293 24.0384C8.67884 24.1547 8.8856 24.1695 9.04622 24.0716L11.3207 22.7313C11.9188 23.0839 12.5558 23.3627 13.2222 23.5639L13.7502 25.9658C13.7927 26.1596 13.9533 26.3036 14.149 26.3239ZM15.5539 25.471C15.229 25.4766 14.9022 25.4655 14.5773 25.4396L14.0641 23.0987C14.0271 22.9326 13.8998 22.7978 13.7336 22.7535C12.9656 22.5467 12.2382 22.2273 11.5699 21.8046C11.4241 21.7123 11.2395 21.7086 11.0899 21.7972L8.85237 23.1153C8.63268 22.9344 8.42037 22.7424 8.2173 22.5449L9.42284 20.239C9.50407 20.0839 9.49114 19.8956 9.38776 19.7553C8.91699 19.0999 8.5496 18.3818 8.30037 17.6212C8.24684 17.4587 8.10653 17.3369 7.93853 17.311L5.26899 16.8643C5.22837 16.615 5.19699 16.3603 5.17484 16.0981L7.63207 15.0864C7.79637 15.0181 7.90714 14.863 7.91822 14.6858C7.96622 13.8421 8.14899 13.0169 8.46099 12.2396C8.52376 12.079 8.49422 11.8981 8.38345 11.7689L6.69053 9.7861C6.8253 9.56825 6.9693 9.35595 7.12068 9.15102L9.5336 9.91718C9.70345 9.97071 9.88807 9.92271 10.0118 9.78979C10.6173 9.1381 11.3244 8.59533 12.1127 8.18179C12.2659 8.10056 12.3601 7.94179 12.3601 7.7701L12.3379 5.42364C12.6056 5.34056 12.8807 5.26856 13.1558 5.20764L14.3742 7.12579C14.4684 7.27718 14.6401 7.36025 14.8191 7.33625C15.7441 7.22364 16.669 7.27164 17.5662 7.4821C17.7342 7.52087 17.9151 7.46364 18.0278 7.32702L19.3311 5.74487C19.6321 5.86856 19.9238 6.00887 20.2062 6.15841L19.9385 8.15779C19.9145 8.33133 19.9939 8.50302 20.1398 8.60087C20.917 9.11964 21.589 9.76395 22.1373 10.5135C22.2407 10.6556 22.4179 10.7258 22.5933 10.6963L24.4265 10.3547C24.5945 10.6667 24.7478 10.9916 24.8844 11.3239L23.4979 12.5904C23.3687 12.7086 23.317 12.8858 23.3631 13.0519C23.4333 13.3123 23.4924 13.5744 23.5367 13.8366C23.6419 14.4606 23.6733 15.0956 23.6253 15.7289C23.6142 15.9079 23.7028 16.0778 23.8579 16.1646L25.4788 17.0803C25.4124 17.4495 25.3238 17.8113 25.2185 18.1658L23.2911 18.247C23.1195 18.2526 22.9662 18.3541 22.8924 18.5092C22.525 19.2864 22.0394 19.9953 21.445 20.6119C21.3231 20.7393 21.2844 20.9276 21.3453 21.0938L22.0616 23.0083C21.7884 23.2446 21.5022 23.4643 21.2087 23.6673L19.5195 22.3658C19.3847 22.2606 19.2019 22.2403 19.0468 22.3123C18.4228 22.5966 17.7656 22.7978 17.0881 22.9123C16.9625 22.9344 16.837 22.951 16.7115 22.9658C16.5379 22.9879 16.3902 23.1043 16.333 23.2704L15.5539 25.471Z" fill="#929497"/>
</svg>
