<svg width="48" height="48" viewBox="0 0 48 48" fill="none" xmlns="http://www.w3.org/2000/svg">
<path d="M24 48C37.2548 48 48 37.2548 48 24C48 10.7452 37.2548 0 24 0C10.7452 0 0 10.7452 0 24C0 37.2548 10.7452 48 24 48Z" fill="#FFDA44"/>
<path d="M7.02935 40.9703C8.03613 41.9771 9.11032 42.8749 10.2371 43.6654L43.6655 10.2369C42.8752 9.11011 41.9773 8.03592 40.9705 7.02914C39.9636 6.02236 38.8895 5.12461 37.7628 4.33411L4.33441 37.7626C5.12472 38.8891 6.02266 39.9634 7.02935 40.9703Z" fill="black"/>
<path d="M7.02936 7.02971C-0.542075 14.6013 -1.99567 25.9724 2.66586 35.0045L35.0042 2.6663C25.972 -1.99523 14.6009 -0.541544 7.02936 7.02971Z" fill="#6DA544"/>
<path d="M40.9705 40.9705C48.542 33.3991 49.9954 22.0279 45.3341 12.9957L12.9958 45.334C22.0278 49.9956 33.399 48.542 40.9705 40.9705Z" fill="#338AF3"/>
</svg>
