<svg width="24" height="25" viewBox="0 0 24 25" fill="none" xmlns="http://www.w3.org/2000/svg">
<g clip-path="url(#clip0)">
<path d="M2.07055 21.2127L3.78856 18.3507C4.58056 17.0297 4.99958 15.5177 4.99958 13.9767V11.4697C4.99958 7.61073 8.14058 4.46973 11.9996 4.46973C15.8585 4.46973 18.9995 7.61073 18.9995 11.4697V13.9767C18.9995 15.5177 19.4186 17.0297 20.2106 18.3507L21.9286 21.2127C22.0216 21.3667 22.0236 21.5597 21.9356 21.7157C21.8465 21.8727 21.6796 21.9698 21.4996 21.9698H2.4996C2.3196 21.9698 2.15258 21.8728 2.06361 21.7157C1.97558 21.5597 1.97755 21.3667 2.07055 21.2127ZM20.6165 20.9697L19.3535 18.8647C18.4676 17.3887 17.9996 15.6987 17.9996 13.9767V11.4697C17.9996 8.16071 15.3086 5.46971 11.9996 5.46971C8.69056 5.46971 5.99956 8.16071 5.99956 11.4697V13.9767C5.99956 15.6987 5.53156 17.3887 4.64656 18.8647L3.38258 20.9697H20.6165Z" fill="#333333"/>
<path d="M12 0.969727C13.103 0.969727 14 1.86673 14 2.96974V4.96976C14 5.24571 13.776 5.46973 13.5 5.46973C13.224 5.46973 13 5.24571 13 4.96971V2.96974C13 2.41774 12.552 1.96976 12 1.96976C11.448 1.96976 11 2.41774 11 2.96974V4.96976C11 5.24571 10.776 5.46973 10.5 5.46973C10.224 5.46973 9.99996 5.24571 9.99996 4.96971V2.96974C9.99996 1.86673 10.897 0.969727 12 0.969727Z" fill="#333333"/>
<path d="M9.83599 21.2168C9.97699 20.9788 10.282 20.9008 10.521 21.0378C10.76 21.1778 10.84 21.4848 10.7 21.7228C10.57 21.9438 10.499 22.2088 10.499 22.4698C10.499 23.2968 11.172 23.9698 11.999 23.9698C12.826 23.9698 13.499 23.2968 13.499 22.4698C13.499 22.2088 13.428 21.9438 13.298 21.7228C13.159 21.4837 13.239 21.1777 13.477 21.0378C13.718 20.9008 14.022 20.9788 14.162 21.2168C14.383 21.5948 14.5 22.0278 14.5 22.4698C14.5 23.8488 13.379 24.9698 12 24.9698C10.621 24.9698 9.49999 23.8488 9.49798 22.4698C9.49798 22.0278 9.61498 21.5948 9.83599 21.2168Z" fill="#333333"/>
<circle cx="19" cy="9.19043" r="4.5" fill="#F2994A" stroke="white"/>
</g>
<defs>
<clipPath id="clip0">
<rect width="24" height="24" fill="white" transform="matrix(-1 0 0 1 24 0.969727)"/>
</clipPath>
</defs>
</svg>
