<svg width="24" height="24" viewBox="0 0 24 24" fill="none" xmlns="http://www.w3.org/2000/svg">
<path d="M23.5 5.4999C23.5 5.2999 23.4 5.0999 23.2 4.8999C23 4.7999 22.8 4.6999 22.6 4.6999C22.2 4.6999 21.9 5.0999 21.9 5.4999V17.5999C21.9 17.6999 21.9 17.6999 21.9 17.6999C21.9 17.6999 21.9 17.6999 21.8 17.6999C21.8 17.6999 21.7 17.6999 21.6 17.6999H19.8C19.4 17.6999 19 18.0999 19 18.4999V20.9999L16 18.0999C15.9 17.9999 15.7 17.8999 15.5 17.8999H8.80002C8.40002 17.8999 8.00002 18.2999 8.00002 18.6999C8.00002 19.0999 8.40002 19.4999 8.80002 19.4999H15.2L19.3 23.3999C19.5 23.5999 19.8 23.6999 20.1 23.4999C20.4 23.3999 20.6 23.0999 20.6 22.7999V19.4999H21.6C22.1 19.4999 22.5 19.2999 22.9 18.9999C23.2 18.6999 23.4 18.1999 23.4 17.6999L23.5 5.4999Z" fill="#A32A29"/>
<path d="M4.20002 20.1999L8.30002 16.2999H18.5C19 16.2999 19.5 16.0999 19.8 15.7999C20.1 15.4999 20.3 14.9999 20.3 14.4999V2.6999C20.3 2.1999 20.1 1.7999 19.8 1.3999C19.5 1.0999 19 0.899902 18.5 0.899902H2.20002C1.70002 0.899902 1.20002 1.0999 0.900024 1.3999C0.500024 1.7999 0.400024 2.1999 0.400024 2.6999V14.4999C0.400024 14.9999 0.600024 15.3999 0.900024 15.7999C1.20002 16.0999 1.70002 16.2999 2.20002 16.2999H3.00002V19.5999C3.00002 19.8999 3.20002 20.1999 3.50002 20.2999C3.70002 20.4999 4.00002 20.3999 4.20002 20.1999ZM3.70002 14.9999V14.7999H2.20002C2.00002 14.7999 2.00002 14.7999 2.00002 14.6999C2.00002 14.6999 2.00002 14.5999 2.00002 14.4999V2.6999C2.00002 2.5999 2.00002 2.5999 2.00002 2.4999C2.00002 2.4999 2.00002 2.4999 2.00002 2.3999C2.00002 2.3999 2.00002 2.3999 2.10002 2.3999C2.10002 2.3999 2.20002 2.3999 2.30002 2.3999H18.7C18.8 2.3999 18.8 2.3999 18.9 2.3999C18.9 2.3999 18.9 2.3999 19 2.3999C19 2.3999 19 2.3999 19 2.4999C19 2.4999 19 2.5999 19 2.6999V14.4999C19 14.5999 19 14.5999 19 14.6999C19 14.6999 19 14.6999 19 14.7999C19 14.7999 19 14.7999 18.9 14.7999C18.9 14.7999 18.8 14.7999 18.7 14.7999H8.10002C7.90002 14.7999 7.70002 14.8999 7.60002 14.9999L7.80002 15.1999L7.50002 14.9999L4.40002 17.8999V15.5999C4.40002 15.1999 4.00002 14.7999 3.60002 14.7999L3.70002 14.9999Z" fill="#A32A29"/>
</svg>
