<svg width="18" height="16" viewBox="0 0 18 16" fill="none" xmlns="http://www.w3.org/2000/svg">
<path fill-rule="evenodd" clip-rule="evenodd" d="M12.1659 0.731051C12.3212 0.462011 12.6652 0.369832 12.9342 0.525162C13.2033 0.680492 13.2955 1.02451 13.1401 1.29355L12.2211 2.88543C14.0398 3.72886 15.7824 5.29221 17.4321 7.53615C17.5697 7.7233 17.5767 7.97622 17.4495 8.17064C17.3743 8.28558 16.4847 9.62343 14.9973 10.9488C13.5123 12.2722 11.4098 13.6022 8.91122 13.6609C8.85482 13.6622 8.79793 13.6629 8.74114 13.6629C7.89788 13.6629 7.06758 13.5158 6.25177 13.2245L5.01236 15.3713C4.85703 15.6403 4.51301 15.7325 4.24397 15.5772C3.97493 15.4218 3.88275 15.0778 4.03808 14.8088L5.21381 12.7723C3.49805 11.8881 1.85151 10.3517 0.289356 8.19226C0.153124 8.00412 0.148053 7.75103 0.27675 7.55766C0.352008 7.44444 1.24139 6.12831 2.72807 4.82415C4.21255 3.52193 6.3134 2.2135 8.80893 2.1546C9.60374 2.13367 10.3871 2.24217 11.1577 2.47723L12.1659 0.731051ZM10.5794 3.47886C10.0013 3.32576 9.42066 3.25559 8.83863 3.26761C8.05219 3.28576 7.30196 3.4545 6.5997 3.72024C5.59379 4.10091 4.68618 4.68065 3.9117 5.30189C3.34273 5.75828 2.8489 6.23442 2.44435 6.66493C1.98311 7.15581 1.63764 7.58769 1.42962 7.86289C2.84367 9.74704 4.29711 11.0581 5.77225 11.8051L6.66277 10.2627C6.03331 9.6746 5.63983 8.83712 5.63983 7.90773C5.63983 6.12821 7.08242 4.68562 8.86194 4.68562C9.18904 4.68562 9.50476 4.73436 9.80222 4.82498L10.5794 3.47886ZM9.22192 5.83009C9.10491 5.80984 8.98459 5.79922 8.86182 5.79908C7.6973 5.79914 6.75329 6.7432 6.75329 7.90773C6.75329 8.42161 6.93711 8.89256 7.24258 9.25841L9.22192 5.83009ZM8.17088 9.90054L10.2414 6.31424C10.6875 6.70087 10.9699 7.27141 10.9706 7.90794C10.9705 9.07242 10.0265 10.0164 8.86194 10.0164C8.6199 10.0164 8.38738 9.97561 8.17088 9.90054ZM7.60742 10.8765C7.99299 11.0396 8.41693 11.1298 8.86194 11.1298C10.6405 11.1278 12.082 9.68651 12.0841 7.90795C12.0841 6.85836 11.5822 5.92577 10.8054 5.33747L11.6573 3.86195C13.234 4.56649 14.787 5.89887 16.2943 7.87421C15.905 8.39785 15.0309 9.48438 13.8115 10.479C12.4953 11.5525 10.7955 12.5039 8.88196 12.5479C8.19218 12.564 7.50433 12.4616 6.82027 12.2399L7.60742 10.8765Z" fill="#A32A29"/>
</svg>
