<svg width="48" height="48" viewBox="0 0 48 48" fill="none" xmlns="http://www.w3.org/2000/svg">
<path d="M0 24C0 10.7452 10.7452 0 24 0C37.2548 0 48 10.7452 48 24C48 37.2548 37.2548 48 24 48C10.7452 48 0 37.2548 0 24Z" fill="#929497" fill-opacity="0.2"/>
<path fill-rule="evenodd" clip-rule="evenodd" d="M28.7825 22.7152C25.4372 22.7152 22.7151 25.4373 22.7151 28.7826C22.7151 32.1279 25.4372 34.85 28.7825 34.85C32.1278 34.85 34.8499 32.1279 34.8499 28.7826C34.8499 25.4373 32.1278 22.7152 28.7825 22.7152ZM22.4151 28.7826C22.4151 25.2716 25.2715 22.4152 28.7825 22.4152C32.2935 22.4152 35.1499 25.2716 35.1499 28.7826C35.1499 32.2936 32.2935 35.15 28.7825 35.15C25.2715 35.15 22.4151 32.2936 22.4151 28.7826ZM23.3716 28.7826C23.3716 25.7996 25.7985 23.3717 28.7825 23.3717C31.7665 23.3717 34.1934 25.7996 34.1934 28.7826C34.1934 31.7656 31.7665 34.1935 28.7825 34.1935C25.7985 34.1935 23.3716 31.7656 23.3716 28.7826ZM28.7825 23.6717C25.9642 23.6717 23.6716 25.9653 23.6716 28.7826C23.6716 31.6 25.9642 33.8935 28.7825 33.8935C31.6008 33.8935 33.8934 31.6 33.8934 28.7826C33.8934 25.9653 31.6008 23.6717 28.7825 23.6717Z" fill="#A32A29"/>
<path d="M15.4505 13C14.0883 13 12.9999 14.1733 12.9999 15.5913V30.8957C12.9999 32.3136 14.0883 33.487 15.4505 33.487H21.3202C21.6904 33.487 21.9703 33.1716 21.9703 32.8087C21.9703 32.4458 21.6904 32.1304 21.3202 32.1304H15.4505C14.8277 32.1304 14.3001 31.5878 14.3001 30.8957V15.5913C14.3001 14.8991 14.8277 14.3565 15.4505 14.3565H26.2536C26.8764 14.3565 27.404 14.8991 27.404 15.5913V21.3878C27.404 21.7507 27.6839 22.0661 28.0541 22.0661C28.4243 22.0661 28.7042 21.7507 28.7042 21.3878V15.5913C28.7042 14.1733 27.6158 13 26.2536 13H15.4505Z" fill="#A32A29"/>
<path d="M17.2607 20.5022C16.9248 20.5022 16.676 20.7974 16.676 21.1304C16.676 21.4635 16.9248 21.7587 17.2607 21.7587H25.9564C26.2924 21.7587 26.5412 21.4635 26.5412 21.1304C26.5412 20.7974 26.2924 20.5022 25.9564 20.5022H17.2607Z" fill="#A32A29"/>
<path d="M15.3912 24.3283C15.0443 24.3283 14.7629 24.6097 14.7629 24.9565C14.7629 25.3034 15.0443 25.5848 15.3912 25.5848H21.1303C21.4771 25.5848 21.7586 25.3034 21.7586 24.9565C21.7586 24.6097 21.4771 24.3283 21.1303 24.3283H15.3912Z" fill="#A32A29"/>
<path d="M15.3912 16.6761C15.0443 16.6761 14.7629 16.9575 14.7629 17.3043C14.7629 17.6512 15.0443 17.9326 15.3912 17.9326H20.1738C20.5206 17.9326 20.802 17.6512 20.802 17.3043C20.802 16.9575 20.5206 16.6761 20.1738 16.6761H15.3912Z" fill="#A32A29"/>
<path d="M28.4332 26.3116C28.4332 25.9648 28.7146 25.6833 29.0615 25.6833C29.4083 25.6833 29.6897 25.9648 29.6897 26.3116V28.4333H32.0506C32.3974 28.4333 32.6789 28.7148 32.6789 29.0616C32.6789 29.4084 32.3974 29.6899 32.0506 29.6899H29.6897V32.0507C29.6897 32.3976 29.4083 32.679 29.0615 32.679C28.7146 32.679 28.4332 32.3976 28.4332 32.0507V29.6899H26.3115C25.9646 29.6899 25.6832 29.4084 25.6832 29.0616C25.6832 28.7148 25.9646 28.4333 26.3115 28.4333H28.4332V26.3116Z" fill="#A32A29"/>
<path fill-rule="evenodd" clip-rule="evenodd" d="M28.7825 35C25.3543 35 22.5651 32.2108 22.5651 28.7826C22.5651 25.3544 25.3543 22.5652 28.7825 22.5652C32.2107 22.5652 34.9999 25.3544 34.9999 28.7826C34.9999 32.2108 32.2107 35 28.7825 35ZM28.7825 23.5217C25.8814 23.5217 23.5216 25.8824 23.5216 28.7826C23.5216 31.6828 25.8814 34.0435 28.7825 34.0435C31.6836 34.0435 34.0434 31.6828 34.0434 28.7826C34.0434 25.8824 31.6836 23.5217 28.7825 23.5217Z" fill="#A32A29"/>
</svg>
