<svg width="289" height="234" viewBox="0 0 289 234" fill="none" xmlns="http://www.w3.org/2000/svg">
<path d="M248.225 69.4061C195.367 -60.9501 -13.5557 8.48739 42.509 148.399C58.6413 198.028 119.549 211.182 166.212 206.416C224.491 195.41 267.794 126.3 248.225 69.4061Z" fill="#F7F7F7"/>
<path d="M252.109 221.478C199.6 210.57 -7.97033 216.373 47.7236 228.088C63.7577 232.244 124.262 233.345 170.63 232.953C228.527 232.026 271.601 226.245 252.109 221.478Z" fill="#E0E0E0"/>
<path d="M257.574 91.6356C262.787 106.732 259.93 121.424 253.211 123.747C246.491 126.071 238.431 115.152 233.217 100.045C228.003 84.9384 228.516 68.8389 235.246 66.5156C241.976 64.1923 252.349 76.5396 257.574 91.6356Z" fill="#C96F32"/>
<path d="M213.485 129.004C213.485 128.753 210.387 129.113 210.213 128.851C208.718 126.67 206.853 124.903 205.304 122.743C203.756 120.583 202.61 118.173 200.941 116.057C197.769 111.925 194.36 107.981 190.732 104.244C183.588 96.7989 175.75 90.0529 167.324 84.0975C166.07 83.2249 164.816 82.385 163.518 81.5888C162.587 80.8735 161.533 80.3339 160.409 79.9963C159.209 79.7999 157.213 79.6909 156.799 81.0216C152.305 83.2031 148.269 86.4754 144.331 89.4313C139.892 92.8126 135.605 96.3358 131.395 100.044C122.931 107.542 115.061 115.686 107.856 124.401C105.904 126.779 103.973 129.178 102.108 131.622C100.243 134.065 97.7451 136.617 96.3598 139.497C96.2922 139.629 96.2733 139.781 96.3064 139.926C96.3396 140.071 96.4226 140.199 96.5409 140.289C96.6593 140.379 96.8055 140.424 96.9538 140.417C97.1022 140.41 97.2433 140.35 97.3524 140.25C97.5051 140.086 97.6469 139.901 97.7996 139.737C103.107 144.997 108.995 149.637 115.35 153.568C121.817 157.604 128.577 161.151 135.572 164.181C136.32 164.523 137.133 164.7 137.956 164.7C138.778 164.7 139.591 164.523 140.339 164.181C142.357 163.374 144.342 162.414 146.327 161.497C150.429 159.589 154.432 157.593 158.326 155.324C162.158 153.293 166.098 151.472 170.128 149.87C174.262 148.038 180.533 147.492 184.646 145.616C193.862 141.406 199.447 137.861 208.642 133.618C209.635 133.127 214.074 129.582 213.485 129.004Z" fill="#884638"/>
<path d="M257.29 103.317C256.624 99.9902 255.981 96.6525 255.185 93.3475C253.57 86.6503 251.803 79.9967 249.731 73.4303C249.513 72.7214 214.129 77.7934 202.076 77.5207C196.076 77.3878 190.098 76.7382 184.209 75.5791C178.755 74.4884 173.302 73.5503 167.706 74.2484C164.865 74.6262 162.087 75.3856 159.449 76.5063C156.951 77.597 154.246 78.7532 152.697 81.0547C152.668 81.0942 152.652 81.142 152.652 81.191C152.652 81.2401 152.668 81.2879 152.697 81.3274L152.512 81.4583C152.052 81.8021 151.65 82.2184 151.323 82.6908C151.249 82.824 151.211 82.9746 151.214 83.1271C150.388 83.6525 149.798 84.4774 149.567 85.4286C149.403 86.6503 150.385 87.4793 151.127 88.3082C151.868 89.1372 152.872 90.2716 153.766 91.2423C153.749 91.2701 153.74 91.3023 153.74 91.3351C153.74 91.3679 153.749 91.4 153.766 91.4278C156.46 94.7001 160.66 96.8816 164.161 99.2158C167.87 101.692 171.578 104.157 175.178 106.786C182.344 112.021 186.5 117.202 193.208 123.027C197.004 126.299 200.08 131.568 203.712 135.025C204.443 135.734 208.958 133.738 209.297 133.029C209.297 133.029 214.663 129.866 216.223 128.001C218.596 125.185 221.488 122.852 224.742 121.129C228.2 119.391 231.91 118.209 235.737 117.628C237.754 117.268 239.794 117.006 241.834 116.733C243.415 116.526 258.675 114.148 258.642 113.461C258.461 110.049 258.008 106.657 257.29 103.317Z" fill="#A96050"/>
<path d="M286.969 91.3188C284.672 78.2989 280.414 65.7027 274.338 53.9604C255.926 59.8614 237.7 65.7079 236.304 66.2205C235.682 66.4496 244.113 71.8597 248.236 92.8568C251.509 109.643 251.334 119.591 250.625 123.856C250.538 124.38 261.14 123.583 266.856 122.94C269.179 122.678 278.429 121.456 288.398 120.137C289.263 110.511 288.782 100.812 286.969 91.3188Z" fill="#E28A40"/>
<path d="M204.715 134.632C203.362 132.103 201.642 129.787 199.611 127.761C197.593 125.579 195.455 123.463 193.262 121.423C184.329 113.112 174.032 106.458 165.012 98.2447C162.351 95.8232 159.755 93.3145 157.071 90.9039C155.98 89.9441 154.966 88.9297 153.908 87.948C153.145 87.2208 152.359 86.4936 151.552 85.7665C150.337 84.677 149.059 83.6607 147.723 82.7233C147.287 82.4288 146.807 82.047 146.295 81.7089C147.614 81.4035 148.945 81.098 150.276 80.8472C151.857 80.5308 153.461 80.3563 155.042 80.0836C155.793 79.9757 156.526 79.7703 157.224 79.4728C157.454 79.3534 157.664 79.1988 157.846 79.0147C157.98 79.003 158.11 78.962 158.227 78.8947L158.369 78.8184C158.468 78.764 158.55 78.6832 158.606 78.585C158.662 78.4868 158.689 78.375 158.686 78.2621V78.1094C158.672 77.9601 158.627 77.8153 158.555 77.684C158.558 77.6587 158.558 77.6329 158.555 77.6076C158.436 77.4269 158.259 77.2922 158.053 77.2259C155.215 76.4307 152.274 76.063 149.327 76.1351C148.956 76.1351 148.585 76.0478 148.236 75.9824C146.785 75.7533 145.357 75.3061 143.873 75.1643C140.874 74.8807 137.874 75.8188 134.907 76.0806C131.94 76.3423 129.159 76.6259 126.301 77.0732C123.443 77.5204 120.564 78.2948 117.717 78.9711C111.859 80.3781 105.98 81.807 100.014 82.6687C96.9052 83.1269 93.7638 83.5086 90.6443 83.8577C87.7342 84.1034 84.8052 84.0046 81.9182 83.5631C78.6649 83.1274 75.4412 82.4936 72.2651 81.6652C69.4618 80.9562 40.4368 70.5613 38.6153 70.0487C37.9936 69.8742 32.5398 86.9336 31.9944 93.0527C31.1872 102.182 30.4455 115.108 29.8129 115.108C29.7147 115.108 29.682 115.271 29.8129 115.293C31.7653 115.686 66.9749 125.11 70.858 126.441C78.6776 129.127 86.191 132.634 93.273 136.901C95.1382 138.04 96.9338 139.29 98.6504 140.642C100.222 141.972 101.726 143.381 103.155 144.864C104.511 146.294 106.11 147.473 107.878 148.343C109.754 149.128 111.565 150.066 113.332 151.026C116.706 152.824 120.21 154.366 123.814 155.64C127.759 157.132 131.792 158.381 135.889 159.382C140.317 160.385 159.613 163.308 161.751 163.003C162.47 162.894 163.234 162.817 163.932 162.697L164.467 162.643C165.548 162.518 166.586 162.145 167.499 161.552C169.132 160.476 170.3 158.825 170.771 156.927C172.618 157.162 174.487 157.162 176.334 156.927C177.798 156.663 179.1 155.833 179.955 154.615C180.653 153.603 181.116 152.448 181.308 151.234C182.227 151.388 183.157 151.476 184.089 151.495C186.448 151.573 188.799 151.18 191.005 150.339C191.998 150.01 192.895 149.439 193.613 148.678C194.33 147.916 194.847 146.988 195.117 145.976C195.334 144.951 195.227 143.884 194.811 142.922C197.607 143.008 200.363 142.248 202.719 140.741C205.174 139.312 205.904 137.13 204.715 134.632Z" fill="#884638"/>
<path d="M61.7068 77.4781C61.7007 77.3997 61.673 77.3247 61.6268 77.2611C61.5806 77.1976 61.5177 77.1481 61.445 77.1181C53.7007 73.4859 26.1373 61.564 12.2629 55.4775C6.91823 63.5818 -2.84403 85.1461 2.04255 111.03C14.2154 113.702 47.0471 121.054 51.9119 122.199C52.0065 122.218 52.1046 122.213 52.1965 122.183C52.2883 122.153 52.3708 122.1 52.4358 122.028C52.5007 121.956 52.5459 121.869 52.5669 121.775C52.5879 121.681 52.5839 121.582 52.5554 121.49C52.5823 115.367 53.0196 109.252 53.8643 103.187C54.6351 97.2851 55.8567 91.4507 57.5183 85.7351C58.23 82.8934 59.6311 80.271 61.5978 78.0998C61.688 78.0269 61.7488 77.9237 61.7689 77.8094C61.7889 77.6951 61.7669 77.5774 61.7068 77.4781Z" fill="#A32A29"/>
<path d="M182.093 82.0695C178.59 79.8606 174.842 78.0669 170.924 76.7248C166.844 75.1868 162.841 74.5433 158.566 75.634C154.207 76.8974 149.927 78.4199 145.749 80.1934C143.739 80.8227 141.807 81.679 139.99 82.7457C138.321 83.9128 137.459 85.8326 136.325 87.4578C133.38 91.6899 130.871 96.3693 128.308 100.82C126.955 103.143 125.57 105.444 124.24 107.779C123.618 108.869 123.007 109.96 122.407 111.051C121.938 111.913 121.109 115.741 122.003 115.883C129.421 117.094 135.18 111.683 139.826 106.677C142.324 103.983 144.844 101.223 148.083 99.4779C150.101 98.3871 155.021 97.4491 155.446 97.2964C162.907 95.2458 170.597 98.1036 178.101 96.642C181.319 96.0202 185.18 94.2859 186.238 90.8937C187.362 87.3487 184.896 84.0001 182.093 82.0695Z" fill="#A96050"/>
<path d="M96.1308 138.014C93.3275 140.566 90.2407 147.831 95.5854 149.423C97.6709 150.009 99.8933 149.871 101.89 149.031C101.89 149.031 106.918 147.253 108.838 145.355C109.482 144.722 110.103 144.079 110.725 143.424C110.034 144.284 109.411 145.196 108.86 146.151C108.587 146.555 108.336 146.958 108.085 147.373C107.138 148.955 106.335 150.62 105.686 152.347C104.66 155.095 104.464 159.153 107.736 160.484C111.009 161.814 114.216 159.109 116.626 157.146C119.471 154.831 122.188 152.362 124.763 149.751C126.217 148.253 127.643 146.715 129.039 145.137L130.631 143.337C130.625 143.366 130.625 143.395 130.631 143.424C129.534 144.609 128.531 145.878 127.632 147.22C126.266 149.118 125.01 151.091 123.869 153.132C122.701 155.205 121.645 157.338 120.705 159.524C120.247 160.614 119.811 161.705 119.418 162.796C118.942 163.8 118.71 164.903 118.742 166.014C118.96 167.923 120.771 168.697 122.483 168.642C124.41 168.47 126.287 167.934 128.014 167.061C131.676 165.364 134.954 162.936 137.645 159.927C138.048 159.48 138.408 159.011 138.79 158.553C138.278 159.644 137.787 160.789 137.318 161.912C136.519 163.484 136.016 165.188 135.834 166.941C135.78 170.148 139.107 171.62 141.812 170.519C143.256 169.85 144.495 168.807 145.4 167.497C146.479 166.085 147.466 164.606 148.356 163.069C149.398 161.337 150.275 159.511 150.974 157.615C151.41 156.473 151.742 155.294 151.967 154.092C152.063 154.028 152.133 153.931 152.163 153.819C152.708 151.31 154.137 146.947 150.854 145.715C150.313 145.524 149.739 145.446 149.167 145.486C148.595 145.525 148.037 145.681 147.527 145.944C146.723 146.389 146.041 147.026 145.542 147.798C145.952 146.066 145.952 144.262 145.542 142.53C145.003 140.931 143.938 139.562 142.521 138.647C141.702 138.205 140.79 137.962 139.86 137.937C138.929 137.912 138.006 138.107 137.165 138.505C135.643 139.195 134.183 140.017 132.802 140.959C132.923 140.65 133.021 140.333 133.096 140.01C133.327 139.016 133.444 137.999 133.446 136.978C133.481 135.332 132.996 133.718 132.06 132.364C130.075 129.583 126.781 129.201 123.934 130.902C121.064 132.795 118.451 135.05 116.157 137.61C118.138 135.585 120.009 133.455 121.764 131.23C122.663 130.057 123.442 128.796 124.087 127.466C124.599 126.376 125.178 125.089 124.719 123.911C123.705 121.38 120.171 123.114 118.524 123.791C115.849 124.875 113.248 126.132 110.736 127.554L102.883 132.44L96.1308 138.014Z" fill="#A96050"/>
</svg>
