<svg width="102" height="32" viewBox="0 0 102 32" fill="none" xmlns="http://www.w3.org/2000/svg">
<rect width="102" height="32" rx="16" fill="white"/>
<rect width="102" height="32" rx="16" fill="#58595B" fill-opacity="0.1"/>
<path d="M21.9142 13L20.5 11.5858L13.5 18.5858L11 16.0858L9.58579 17.5L13.5 21.4142L21.9142 13Z" fill="#58595B"/>
<path fill-rule="evenodd" clip-rule="evenodd" d="M16 4C9.37258 4 4 9.37258 4 16C4 22.6274 9.37258 28 16 28C22.6274 28 28 22.6274 28 16C28 9.37258 22.6274 4 16 4ZM6 16C6 10.4772 10.4772 6 16 6C21.5228 6 26 10.4772 26 16C26 21.5228 21.5228 26 16 26C10.4772 26 6 21.5228 6 16Z" fill="#58595B"/>
<path d="M43.7285 12.4336C44.4316 12.4336 45.0117 12.5215 45.4688 12.6973C45.9297 12.8691 46.2734 13.1328 46.5 13.4883C46.7266 13.8438 46.8398 14.2969 46.8398 14.8477C46.8398 15.3008 46.7578 15.6797 46.5938 15.9844C46.4297 16.2852 46.2148 16.5293 45.9492 16.7168C45.6836 16.9043 45.4004 17.0488 45.0996 17.1504L47.4492 21H46.2891L44.1914 17.4258H42.4102V21H41.4141V12.4336H43.7285ZM43.6699 13.2949H42.4102V16.582H43.7695C44.4688 16.582 44.9824 16.4395 45.3105 16.1543C45.6426 15.8691 45.8086 15.4492 45.8086 14.8945C45.8086 14.3125 45.6328 13.9004 45.2812 13.6582C44.9336 13.416 44.3965 13.2949 43.6699 13.2949ZM51.1465 14.4609C51.6934 14.4609 52.1621 14.582 52.5527 14.8242C52.9434 15.0664 53.2422 15.4062 53.4492 15.8438C53.6562 16.2773 53.7598 16.7852 53.7598 17.3672V17.9707H49.3242C49.3359 18.7246 49.5234 19.2988 49.8867 19.6934C50.25 20.0879 50.7617 20.2852 51.4219 20.2852C51.8281 20.2852 52.1875 20.248 52.5 20.1738C52.8125 20.0996 53.1367 19.9902 53.4727 19.8457V20.7012C53.1484 20.8457 52.8262 20.9512 52.5059 21.0176C52.1895 21.084 51.8145 21.1172 51.3809 21.1172C50.7637 21.1172 50.2246 20.9922 49.7637 20.7422C49.3066 20.4883 48.9512 20.1172 48.6973 19.6289C48.4434 19.1406 48.3164 18.543 48.3164 17.8359C48.3164 17.1445 48.4316 16.5469 48.6621 16.043C48.8965 15.5352 49.2246 15.1445 49.6465 14.8711C50.0723 14.5977 50.5723 14.4609 51.1465 14.4609ZM51.1348 15.2578C50.6152 15.2578 50.2012 15.4277 49.8926 15.7676C49.584 16.1074 49.4004 16.582 49.3418 17.1914H52.7402C52.7363 16.8086 52.6758 16.4727 52.5586 16.1836C52.4453 15.8906 52.2715 15.6641 52.0371 15.5039C51.8027 15.3398 51.502 15.2578 51.1348 15.2578ZM57.9844 21.1172C57.4062 21.1172 56.8965 20.998 56.4551 20.7598C56.0137 20.5215 55.6699 20.1582 55.4238 19.6699C55.1777 19.1816 55.0547 18.5664 55.0547 17.8242C55.0547 17.0469 55.1836 16.4121 55.4414 15.9199C55.7031 15.4238 56.0625 15.0566 56.5195 14.8184C56.9766 14.5801 57.4961 14.4609 58.0781 14.4609C58.3984 14.4609 58.707 14.4941 59.0039 14.5605C59.3047 14.623 59.5508 14.7031 59.7422 14.8008L59.4492 15.6152C59.2539 15.5371 59.0273 15.4668 58.7695 15.4043C58.5156 15.3418 58.2773 15.3105 58.0547 15.3105C57.6094 15.3105 57.2383 15.4062 56.9414 15.5977C56.6484 15.7891 56.4277 16.0703 56.2793 16.4414C56.1348 16.8125 56.0625 17.2695 56.0625 17.8125C56.0625 18.332 56.1328 18.7754 56.2734 19.1426C56.418 19.5098 56.6309 19.791 56.9121 19.9863C57.1973 20.1777 57.5527 20.2734 57.9785 20.2734C58.3184 20.2734 58.625 20.2383 58.8984 20.168C59.1719 20.0938 59.4199 20.0078 59.6426 19.9102V20.7773C59.4277 20.8867 59.1875 20.9707 58.9219 21.0293C58.6602 21.0879 58.3477 21.1172 57.9844 21.1172ZM63.6387 14.4609C64.1855 14.4609 64.6543 14.582 65.0449 14.8242C65.4355 15.0664 65.7344 15.4062 65.9414 15.8438C66.1484 16.2773 66.252 16.7852 66.252 17.3672V17.9707H61.8164C61.8281 18.7246 62.0156 19.2988 62.3789 19.6934C62.7422 20.0879 63.2539 20.2852 63.9141 20.2852C64.3203 20.2852 64.6797 20.248 64.9922 20.1738C65.3047 20.0996 65.6289 19.9902 65.9648 19.8457V20.7012C65.6406 20.8457 65.3184 20.9512 64.998 21.0176C64.6816 21.084 64.3066 21.1172 63.873 21.1172C63.2559 21.1172 62.7168 20.9922 62.2559 20.7422C61.7988 20.4883 61.4434 20.1172 61.1895 19.6289C60.9355 19.1406 60.8086 18.543 60.8086 17.8359C60.8086 17.1445 60.9238 16.5469 61.1543 16.043C61.3887 15.5352 61.7168 15.1445 62.1387 14.8711C62.5645 14.5977 63.0645 14.4609 63.6387 14.4609ZM63.627 15.2578C63.1074 15.2578 62.6934 15.4277 62.3848 15.7676C62.0762 16.1074 61.8926 16.582 61.834 17.1914H65.2324C65.2285 16.8086 65.168 16.4727 65.0508 16.1836C64.9375 15.8906 64.7637 15.6641 64.5293 15.5039C64.2949 15.3398 63.9941 15.2578 63.627 15.2578ZM68.877 14.5781V21H67.9043V14.5781H68.877ZM68.4023 12.1758C68.5625 12.1758 68.6992 12.2285 68.8125 12.334C68.9297 12.4355 68.9883 12.5957 68.9883 12.8145C68.9883 13.0293 68.9297 13.1895 68.8125 13.2949C68.6992 13.4004 68.5625 13.4531 68.4023 13.4531C68.2344 13.4531 68.0938 13.4004 67.9805 13.2949C67.8711 13.1895 67.8164 13.0293 67.8164 12.8145C67.8164 12.5957 67.8711 12.4355 67.9805 12.334C68.0938 12.2285 68.2344 12.1758 68.4023 12.1758ZM72.3516 21L69.9141 14.5781H70.957L72.3691 18.4629C72.4668 18.7285 72.5664 19.0215 72.668 19.3418C72.7695 19.6621 72.8398 19.9199 72.8789 20.1152H72.9199C72.9668 19.9199 73.0449 19.6621 73.1543 19.3418C73.2637 19.0176 73.3633 18.7246 73.4531 18.4629L74.8652 14.5781H75.9082L73.4648 21H72.3516ZM79.4121 14.4609C79.959 14.4609 80.4277 14.582 80.8184 14.8242C81.209 15.0664 81.5078 15.4062 81.7148 15.8438C81.9219 16.2773 82.0254 16.7852 82.0254 17.3672V17.9707H77.5898C77.6016 18.7246 77.7891 19.2988 78.1523 19.6934C78.5156 20.0879 79.0273 20.2852 79.6875 20.2852C80.0938 20.2852 80.4531 20.248 80.7656 20.1738C81.0781 20.0996 81.4023 19.9902 81.7383 19.8457V20.7012C81.4141 20.8457 81.0918 20.9512 80.7715 21.0176C80.4551 21.084 80.0801 21.1172 79.6465 21.1172C79.0293 21.1172 78.4902 20.9922 78.0293 20.7422C77.5723 20.4883 77.2168 20.1172 76.9629 19.6289C76.709 19.1406 76.582 18.543 76.582 17.8359C76.582 17.1445 76.6973 16.5469 76.9277 16.043C77.1621 15.5352 77.4902 15.1445 77.9121 14.8711C78.3379 14.5977 78.8379 14.4609 79.4121 14.4609ZM79.4004 15.2578C78.8809 15.2578 78.4668 15.4277 78.1582 15.7676C77.8496 16.1074 77.666 16.582 77.6074 17.1914H81.0059C81.002 16.8086 80.9414 16.4727 80.8242 16.1836C80.7109 15.8906 80.5371 15.6641 80.3027 15.5039C80.0684 15.3398 79.7676 15.2578 79.4004 15.2578ZM85.9629 21.1172C85.1504 21.1172 84.5059 20.8398 84.0293 20.2852C83.5566 19.7305 83.3203 18.9062 83.3203 17.8125C83.3203 16.707 83.5625 15.873 84.0469 15.3105C84.5312 14.7441 85.1758 14.4609 85.9805 14.4609C86.3203 14.4609 86.6172 14.5059 86.8711 14.5957C87.125 14.6855 87.3438 14.8066 87.5273 14.959C87.7109 15.1074 87.8652 15.2773 87.9902 15.4688H88.0605C88.0449 15.3477 88.0293 15.1816 88.0137 14.9707C87.998 14.7598 87.9902 14.5879 87.9902 14.4551V11.8828H88.9629V21H88.1777L88.0312 20.0859H87.9902C87.8691 20.2773 87.7148 20.4512 87.5273 20.6074C87.3438 20.7637 87.123 20.8887 86.8652 20.9824C86.6113 21.0723 86.3105 21.1172 85.9629 21.1172ZM86.1152 20.3086C86.8027 20.3086 87.2891 20.1133 87.5742 19.7227C87.8594 19.332 88.002 18.752 88.002 17.9824V17.8066C88.002 16.9902 87.8652 16.3633 87.5918 15.9258C87.3223 15.4883 86.8301 15.2695 86.1152 15.2695C85.5176 15.2695 85.0703 15.5 84.7734 15.9609C84.4766 16.418 84.3281 17.043 84.3281 17.8359C84.3281 18.625 84.4746 19.2344 84.7676 19.6641C85.0645 20.0938 85.5137 20.3086 86.1152 20.3086Z" fill="#58595B"/>
</svg>
