<svg width="334" height="120" viewBox="0 0 334 120" fill="none" xmlns="http://www.w3.org/2000/svg">
<rect width="333.333" height="120" transform="translate(0.5)" fill="#EEEEEE"/>
<path fill-rule="evenodd" clip-rule="evenodd" d="M180.967 72.9999H152.407C151.68 72.9999 150.982 72.7109 150.468 72.1966C149.954 71.6822 149.665 70.9846 149.665 70.2573V47.8725C149.665 47.1451 149.954 46.4475 150.468 45.9332C150.982 45.4188 151.68 45.1299 152.407 45.1299H180.967C181.694 45.1299 182.392 45.4188 182.906 45.9332C183.421 46.4475 183.71 47.1451 183.71 47.8725V70.2573C183.71 70.9846 183.421 71.6822 182.906 72.1966C182.392 72.7109 181.694 72.9999 180.967 72.9999ZM152.407 47.2684C152.247 47.2684 152.094 47.332 151.98 47.4453C151.867 47.5586 151.803 47.7123 151.803 47.8725V70.2573C151.803 70.3366 151.819 70.4152 151.849 70.4884C151.88 70.5617 151.924 70.6283 151.98 70.6844C152.036 70.7405 152.103 70.785 152.176 70.8154C152.25 70.8458 152.328 70.8614 152.407 70.8614H180.967C181.126 70.86 181.279 70.7957 181.391 70.6826C181.503 70.5694 181.566 70.4166 181.566 70.2573V47.8725C181.566 47.7132 181.503 47.5603 181.391 47.4472C181.279 47.3341 181.126 47.2698 180.967 47.2684H152.407ZM156.094 65.851H177.217C177.386 65.8558 177.553 65.813 177.699 65.7275C177.845 65.642 177.964 65.5172 178.043 65.3673C178.121 65.2174 178.156 65.0485 178.143 64.8798C178.131 64.711 178.071 64.5492 177.97 64.4129L175.057 60.4566C174.981 60.3514 174.883 60.2637 174.77 60.1997C174.657 60.1357 174.531 60.0968 174.402 60.0856C174.273 60.0744 174.142 60.0913 174.02 60.135C173.898 60.1788 173.786 60.2483 173.693 60.339L170.7 63.1886L163.749 53.7524C163.663 53.6346 163.549 53.5394 163.418 53.4753C163.286 53.4111 163.141 53.3797 162.995 53.3839C162.849 53.3881 162.706 53.4278 162.578 53.4994C162.451 53.571 162.343 53.6726 162.263 53.7952L155.313 64.4556C155.223 64.5936 155.173 64.7535 155.168 64.918C155.162 65.0824 155.202 65.2453 155.282 65.3889C155.363 65.5325 155.481 65.6514 155.624 65.7329C155.767 65.8143 155.929 65.8552 156.094 65.851ZM178.015 53.8026C178.015 55.5536 176.596 56.973 174.845 56.973C173.094 56.973 171.675 55.5536 171.675 53.8026C171.675 52.0517 173.094 50.6323 174.845 50.6323C176.596 50.6323 178.015 52.0517 178.015 53.8026Z" fill="#929497" fill-opacity="0.4"/>
</svg>
