<svg width="30" height="29" viewBox="0 0 30 29" fill="none" xmlns="http://www.w3.org/2000/svg">
<path fill-rule="evenodd" clip-rule="evenodd" d="M31 -1H30V0H31V-1ZM0 6.75C0 5.23122 1.23122 4 2.75 4H16.5632C18.082 4 19.3132 5.23122 19.3132 6.75V7.78125H26.0042C27.5229 7.78125 28.7542 9.01247 28.7542 10.5312V22.8438C28.7542 24.3625 27.5229 25.5938 26.0042 25.5938H19.3132V25.7188C19.3132 27.2375 18.082 28.4688 16.5632 28.4688H2.75C1.23122 28.4688 0 27.2375 0 25.7188V6.75ZM2.75 5.5C2.05964 5.5 1.5 6.05964 1.5 6.75V25.7188C1.5 26.4091 2.05964 26.9688 2.75 26.9688H16.5632C17.2536 26.9688 17.8132 26.4091 17.8132 25.7188V6.75C17.8132 6.05964 17.2536 5.5 16.5632 5.5H2.75ZM19.3132 24.0938H23.8149V9.28125H19.3132V24.0938ZM26.0042 24.0938H25.3149V9.28125H26.0042C26.6945 9.28125 27.2542 9.84089 27.2542 10.5312V22.8438C27.2542 23.5341 26.6945 24.0938 26.0042 24.0938ZM3.86264 10.375C3.86264 8.85622 5.09386 7.625 6.61264 7.625H12.7006C14.2194 7.625 15.4506 8.85622 15.4506 10.375V12.125C15.4506 13.6438 14.2194 14.875 12.7006 14.875H6.61264C5.09386 14.875 3.86264 13.6438 3.86264 12.125V10.375ZM6.61264 9.125C5.92228 9.125 5.36264 9.68464 5.36264 10.375V12.125C5.36264 12.8154 5.92228 13.375 6.61264 13.375H12.7006C13.3909 13.375 13.9506 12.8154 13.9506 12.125V10.375C13.9506 9.68464 13.3909 9.125 12.7006 9.125H6.61264ZM3.86264 18.5938C3.86264 18.0415 4.31036 17.5938 4.86264 17.5938H5.75962C6.31191 17.5938 6.75962 18.0415 6.75962 18.5938V19.3125C6.75962 19.8648 6.31191 20.3125 5.75962 20.3125H4.86264C4.31036 20.3125 3.86264 19.8648 3.86264 19.3125V18.5938ZM5.75962 18.5938H4.86264V19.3125H5.75962V18.5938ZM12.5536 18.5938C12.5536 18.0415 13.0013 17.5938 13.5536 17.5938H14.4506C15.0029 17.5938 15.4506 18.0415 15.4506 18.5938V19.3125C15.4506 19.8648 15.0029 20.3125 14.4506 20.3125H13.5536C13.0013 20.3125 12.5536 19.8648 12.5536 19.3125V18.5938ZM14.4506 18.5938H13.5536V19.3125H14.4506V18.5938ZM8.20811 18.5938C8.20811 18.0415 8.65583 17.5938 9.20811 17.5938H10.1051C10.6574 17.5938 11.1051 18.0415 11.1051 18.5938V19.3125C11.1051 19.8648 10.6574 20.3125 10.1051 20.3125H9.20811C8.65583 20.3125 8.20811 19.8648 8.20811 19.3125V18.5938ZM10.1051 18.5938H9.20811V19.3125H10.1051V18.5938ZM3.86264 23.125C3.86264 22.5727 4.31036 22.125 4.86264 22.125H5.75962C6.31191 22.125 6.75962 22.5727 6.75962 23.125V23.8438C6.75962 24.396 6.31191 24.8438 5.75962 24.8438H4.86264C4.31036 24.8438 3.86264 24.396 3.86264 23.8438V23.125ZM5.75962 23.125H4.86264V23.8438H5.75962V23.125ZM12.5536 23.125C12.5536 22.5727 13.0013 22.125 13.5536 22.125H14.4506C15.0029 22.125 15.4506 22.5727 15.4506 23.125V23.8438C15.4506 24.396 15.0029 24.8438 14.4506 24.8438H13.5536C13.0013 24.8438 12.5536 24.396 12.5536 23.8438V23.125ZM14.4506 23.125H13.5536V23.8438H14.4506V23.125ZM8.20811 23.125C8.20811 22.5727 8.65583 22.125 9.20811 22.125H10.1051C10.6574 22.125 11.1051 22.5727 11.1051 23.125V23.8438C11.1051 24.396 10.6574 24.8438 10.1051 24.8438H9.20811C8.65583 24.8438 8.20811 24.396 8.20811 23.8438V23.125ZM10.1051 23.125H9.20811V23.8438H10.1051V23.125Z" fill="#929497"/>
</svg>
