<svg width="220" height="220" viewBox="0 0 220 220" fill="none" xmlns="http://www.w3.org/2000/svg">
<path d="M26.264 149.796C-7.42201 105.202 19.8505 44.785 68.1068 39.4062C71.8427 38.9684 115.055 37.4048 138.281 43.5967C149.177 42.8462 166.612 41.0949 176.512 47.4119C199.488 62.1097 202.29 74.9312 197.62 97.8848C193.075 120.338 177.322 139.289 160.946 155.3C144.694 171.186 122.216 181.381 97.185 180.505C71.9673 179.692 41.5191 169.936 26.264 149.796Z" fill="#F7F7F7"/>
<path d="M197.807 173.875C206.276 174.313 210.012 176.19 197.185 178.003C189.464 179.129 175.329 179.192 153.038 179.942C97.7459 181.818 21.8435 178.441 21.8435 176.878C21.8435 175.689 35.4175 173.75 68.2317 173.25C78.3811 173.125 91.6438 171.499 105.778 171.499C165.554 171.561 173.399 172.687 197.807 173.875Z" fill="#E0E0E0"/>
<path opacity="0.8" d="M182.552 156.426H37.6589C33.8606 156.426 30.7473 153.299 30.7473 149.483V79.184H189.464V149.546C189.464 153.361 186.35 156.426 182.552 156.426Z" fill="#F5F5F5"/>
<path d="M182.552 156.426L69.6637 156.551L41.4571 156.613H37.908C36.7249 156.676 35.4796 156.363 34.4211 155.8C33.3625 155.237 32.4285 154.424 31.7436 153.424C31.0587 152.423 30.6228 151.235 30.5606 149.984C30.4983 145.23 30.5606 140.54 30.4983 135.786L30.436 79.1214V78.8087H30.7474L189.464 79.0589H189.526V79.1214L189.464 119.712V140.039V145.105V147.67C189.464 148.545 189.464 149.358 189.401 150.234C189.215 151.923 188.405 153.549 187.16 154.675C185.915 155.8 184.233 156.426 182.552 156.426ZM182.552 156.426C184.233 156.426 185.915 155.8 187.16 154.612C188.405 153.486 189.215 151.86 189.401 150.171C189.464 149.358 189.401 148.483 189.464 147.607V145.043V139.977V119.65L189.401 79.0589L189.464 79.1214L30.7474 79.4967L31.0587 79.184L30.9964 135.849C30.9964 140.54 30.9342 145.293 30.9964 149.984C31.0587 151.11 31.4946 152.235 32.1172 153.173C32.7399 154.112 33.6116 154.925 34.6701 155.425C35.6664 155.925 36.8494 156.176 37.9702 156.176H41.5194L69.7259 156.238L182.552 156.426Z" fill="#A42A29"/>
<path d="M189.463 92.5058H30.7471V61.6091C30.7471 57.7939 33.8604 54.6667 37.6586 54.6667H182.552C186.35 54.6667 189.463 57.7939 189.463 61.6091V92.5058Z" fill="#A42A29"/>
<path d="M136.911 102.951C136.226 101.7 130.622 108.517 132.179 112.645C133.736 116.836 136.911 116.148 136.911 116.148C136.911 116.148 138.904 106.641 136.911 102.951Z" fill="#7A4B51"/>
<path d="M129.813 92.756C129.813 92.756 129.813 92.756 132.926 96.4461C136.039 100.136 135.23 100.449 134.669 103.013C134.109 105.39 129.688 104.89 127.945 104.139C126.45 103.514 122.465 104.452 121.345 103.639C120.909 103.326 121.345 103.138 122.652 103.013C124.147 102.888 125.516 102.2 125.516 102.2C124.582 100.824 119.165 101.887 118.356 100.261C117.982 99.4482 124.458 100.887 125.08 100.074C125.08 100.074 124.769 99.5107 121.656 98.5726C119.85 98.0097 118.044 97.4468 117.92 96.8839C117.733 95.7581 121.282 97.5719 125.765 98.0097C125.765 98.0097 123.96 97.0715 122.216 96.321C120.597 95.633 119.041 95.1952 119.414 94.5072C119.726 93.9443 122.154 95.0701 123.773 95.7581C126.762 97.009 129.19 97.2592 130.435 97.2592C131.058 97.2592 131.369 97.2592 131.369 97.2592C128.505 93.0687 129.813 92.756 129.813 92.756Z" fill="#8F5045"/>
<path d="M131.369 97.0717C131.369 97.0717 131.058 99.1981 132.179 100.324C132.179 100.324 129.813 99.636 130.373 97.0717C130.996 97.1342 131.369 97.0717 131.369 97.0717Z" fill="#703E38"/>
<path d="M135.167 100.136L138.156 107.454L135.167 114.459C135.167 114.459 132.926 106.141 132.116 103.576C131.369 100.887 135.167 100.136 135.167 100.136Z" fill="#8F5045"/>
<path d="M169.29 88.8158C169.29 88.8158 158.891 92.631 155.778 95.508L147.31 121.839C147.31 121.839 146.998 120.025 146.438 120.776L136.911 102.951C136.911 102.951 136.724 112.645 132.179 112.645C132.179 112.645 141.519 138.476 146.687 139.914C151.917 141.353 160.821 118.587 160.821 118.587L169.29 88.8158Z" fill="#522228"/>
<path d="M183.922 157.739C185.417 157.614 186.849 157.552 188.343 157.427C188.592 147.169 181.618 104.89 181.618 104.89C181.618 104.89 163.935 103.263 162.939 107.892C157.708 132.284 143.262 156.739 143.262 156.739C146.998 152.861 173.835 154.55 183.922 157.739Z" fill="#4F1F25"/>
<path d="M174.831 85.6262C174.831 85.6262 181.493 82.6866 187.409 84.8756L188.405 93.3816C188.405 93.3816 174.271 98.5728 169.725 97.0092C165.18 95.5081 163.997 91.8805 174.831 85.6262Z" fill="#7A4B51"/>
<path d="M167.422 158.427C170.348 158.365 173.275 158.24 176.201 158.115C175.703 150.172 171.78 142.541 172.154 135.286L156.089 134.911C153.349 141.29 151.481 149.546 150.236 157.99C156.027 158.052 161.755 158.553 167.422 158.427Z" fill="#0E3944"/>
<path d="M167.422 158.427C175.205 158.24 183.05 157.865 190.834 157.177C189.152 143.542 180.186 136.037 180.186 136.037L156.151 134.911C156.151 134.911 157.833 148.233 161.942 158.365C163.81 158.49 165.616 158.49 167.422 158.427Z" fill="#0E3944"/>
<path d="M148.991 158.052C155.155 157.99 161.382 158.615 167.421 158.427C175.578 158.24 183.735 157.864 191.892 157.114C189.713 141.791 185.79 130.908 184.047 126.592C184.047 126.592 205.03 100.199 195.13 91.6929C194.57 91.1926 194.009 90.7547 193.386 90.3795C184.171 84.4378 170.099 88.8159 167.546 89.6289C167.297 89.6915 167.172 89.754 167.172 89.754C167.172 89.754 147.808 103.076 158.891 122.089C158.829 122.152 154.346 138.226 148.991 158.052Z" fill="#D95D7B"/>
<path d="M189.215 60.7336C189.215 60.7336 193.449 56.3556 197.558 60.1082C201.668 63.8608 197.372 71.6163 197.558 73.0548C197.745 74.4933 201.108 74.806 200.298 76.6198C199.489 78.4336 197.372 78.6838 197.558 79.5594C197.745 80.435 199.8 81.811 198.928 82.7491C198.056 83.6247 196.189 82.6866 196.313 84.2502C196.438 85.8138 197.496 87.8152 195.628 88.0028C195.628 88.0028 197.06 86.2516 195.753 85.6887C194.445 85.1258 193.449 85.7512 192.888 83.8749C192.328 82.0611 195.005 81.3106 193.822 80.3099C192.639 79.3092 189.962 79.3092 191.207 77.6831C192.453 76.0569 192.888 74.6184 190.585 73.305C188.156 71.929 189.215 60.7336 189.215 60.7336Z" fill="#222323"/>
<path d="M170.846 58.6072C166.051 58.4821 165.74 68.9895 171.469 74.5559C177.197 80.1223 178.629 58.7948 170.846 58.6072Z" fill="#222323"/>
<path d="M187.098 57.544C187.098 57.544 172.839 52.7281 169.974 62.7977C167.11 72.8673 169.725 83.4997 176.388 82.7492C185.852 81.8111 198.181 63.2355 187.098 57.544Z" fill="#8F5045"/>
<path d="M181.431 62.7351C181.431 62.7351 184.669 66.9255 184.544 72.3043C184.544 72.3043 186.911 69.3647 188.156 71.929C189.401 74.4934 184.42 78.246 184.42 78.246C184.42 78.246 192.452 78.6838 193.449 68.239C193.822 63.7983 188.094 59.7955 181.431 62.7351Z" fill="#141515"/>
<path d="M184.233 75.9943C183.112 78.9338 178.94 84.0624 174.519 82.6239C174.519 82.6239 175.64 87.002 173.772 88.6281C173.772 88.6281 171.842 92.0681 176.263 92.5059C181.805 93.1313 184.918 88.6281 184.918 88.6281C182.489 83.2494 185.79 76.5572 185.79 76.5572C184.607 77.3077 184.233 75.9943 184.233 75.9943Z" fill="#703E38"/>
<path d="M177.82 59.7955C177.82 59.7955 175.64 71.116 184.544 72.3043C184.544 72.3043 187.72 66.9255 191.892 70.6782C191.892 70.6782 196.375 58.357 185.852 56.4182C185.852 56.4182 183.797 51.7274 175.64 53.2284C164.246 55.2924 161.07 69.1771 167.421 82.8743C167.359 82.8743 161.817 58.2319 177.82 59.7955Z" fill="#141515"/>
<path d="M193.324 90.442C192.141 91.13 190.709 91.818 189.028 92.5685C158.517 106.266 165.678 93.4441 165.678 93.4441C165.678 92.506 165.989 91.6304 166.549 90.8798C166.799 90.5046 167.11 90.1293 167.483 89.754C169.974 88.941 183.548 84.7505 192.701 90.1293C192.95 90.1918 193.137 90.3169 193.324 90.442Z" fill="#703E38"/>
<path d="M193.324 90.4419C192.141 91.1299 190.709 91.8179 189.028 92.5684C158.517 106.266 165.678 93.4441 165.678 93.4441C165.678 92.5059 165.989 91.6303 166.549 90.8798C167.67 91.3801 169.912 92.4434 170.659 92.631L171.157 94.5073L173.772 92.8186C173.772 92.8186 182.925 93.0688 192.763 90.1918C192.95 90.1918 193.137 90.3169 193.324 90.4419Z" fill="#8F5045"/>
<path d="M192.515 157.051C192.701 156.301 192.764 155.425 192.701 154.362C192.515 151.923 193.698 150.297 195.379 149.546L188.592 126.405C188.592 126.405 200.049 102.451 200.298 98.5103C200.298 98.5103 198.305 89.9417 187.471 87.3774C187.471 87.3774 178.629 93.5693 173.399 105.828C169.787 114.396 175.765 142.103 179.688 157.99C183.984 157.802 188.218 157.489 192.515 157.051Z" fill="#4F1F25"/>
<path d="M191.145 88.128C191.145 88.128 192.515 92.381 191.518 101.45C191.518 101.45 189.214 99.7611 184.918 100.011C184.918 100.011 174.146 112.27 174.022 130.908C174.022 130.908 169.414 113.146 172.714 104.077C176.014 95.0703 187.471 84.9382 187.471 84.9382L191.145 88.128Z" fill="#0E3944"/>
<path d="M143.2 158.365C143.698 158.302 144.196 158.24 144.694 158.24L159.514 127.656C159.514 127.656 159.327 112.207 159.514 107.454C159.7 102.701 169.289 88.8158 169.289 88.8158C159.95 92.5059 155.591 102.388 154.719 107.454C153.847 112.457 155.715 128.469 155.715 128.469C145.068 145.668 143.262 154.549 143.2 158.365Z" fill="#662D34"/>
<path d="M159.514 127.656C159.514 127.656 159.389 107.829 162.502 99.8236C165.678 91.818 174.831 85.6887 174.831 85.6887C174.831 85.6887 163.312 89.5039 158.953 99.3233C158.953 99.3233 160.012 99.0106 161.132 99.1357C161.132 99.0731 156.338 103.639 159.514 127.656Z" fill="#432024"/>
<path d="M200.235 98.5101C200.235 98.5101 209.638 134.848 206.773 137.913C203.909 140.977 200.422 146.544 195.254 134.848C190.086 123.152 189.214 113.458 189.214 113.458C189.214 113.458 194.196 98.6978 200.235 98.5101Z" fill="#0E3944"/>
<path d="M193.448 116.21C193.448 116.21 200.049 116.085 201.605 111.707C201.605 111.644 196.5 109.893 193.448 116.21Z" fill="#082930"/>
<path d="M193.947 105.828L196.313 115.46C196.313 115.46 200.298 114.584 201.169 112.02L199.364 105.828H193.947Z" fill="#8F5045"/>
<path d="M196.063 96.5713C196.063 96.5713 196.063 96.5713 194.507 101.137C192.95 105.703 193.822 105.703 195.254 107.829C196.624 109.831 200.546 107.704 201.916 106.391C203.099 105.265 207.147 104.702 207.832 103.514C208.143 103.013 207.645 103.013 206.4 103.389C204.967 103.826 203.473 103.701 203.473 103.701C203.847 102.075 209.264 101.074 209.388 99.2607C209.451 98.3851 203.971 102.075 203.099 101.512C203.099 101.512 203.162 100.887 205.715 98.8855C207.147 97.6971 208.703 96.5088 208.579 95.9459C208.33 94.8826 205.715 97.8222 201.667 99.8862C201.667 99.8862 203.037 98.3226 204.345 97.0091C205.59 95.8208 206.835 94.7576 206.275 94.2572C205.777 93.8194 203.909 95.8208 202.664 97.0091C200.36 99.2607 198.18 100.387 196.997 100.887C196.437 101.137 196.126 101.2 196.126 101.2C197.433 96.3837 196.063 96.5713 196.063 96.5713Z" fill="#8F5045"/>
<path d="M196.25 101.2C196.25 101.2 197.309 103.076 196.686 104.577C196.686 104.577 198.617 103.076 197.184 100.887C196.562 101.074 196.25 101.2 196.25 101.2Z" fill="#703E38"/>
<path d="M187.471 87.3773C187.471 87.3773 178.63 93.5692 173.399 105.828C168.169 118.086 179.315 156.488 179.315 156.488C179.315 156.488 185.79 155.675 189.464 150.922L188.53 126.405C188.53 126.405 199.987 102.45 200.236 98.5101C200.236 98.5101 198.243 89.9416 187.471 87.3773Z" fill="#662D34"/>
<path d="M191.145 88.1279C191.145 88.1279 192.515 92.3808 191.518 101.45C191.518 101.45 189.214 99.761 184.918 100.011C184.918 100.011 174.146 112.27 174.022 130.908C174.022 130.908 169.414 113.145 172.714 104.077C176.014 95.0702 187.471 84.9381 187.471 84.9381L191.145 88.1279Z" fill="#522228"/>
<path d="M200.236 98.5101C200.236 98.5101 209.638 134.848 206.774 137.913C203.909 140.977 200.422 146.544 195.254 134.848C190.086 123.152 189.215 113.458 189.215 113.458C189.215 113.458 194.196 98.6978 200.236 98.5101Z" fill="#522228"/>
<path d="M193.449 116.21C193.449 116.21 200.049 116.085 201.606 111.707C201.606 111.644 196.5 109.893 193.449 116.21Z" fill="#7A4B51"/>
<path d="M193.947 105.828L196.313 115.46C196.313 115.46 200.298 114.584 201.17 112.02L199.364 105.828H193.947Z" fill="#8F5045"/>
<path d="M196.064 96.5712C196.064 96.5712 196.064 96.5712 194.507 101.137C192.95 105.703 193.822 105.703 195.254 107.829C196.624 109.831 200.547 107.704 201.917 106.391C203.1 105.265 207.147 104.702 207.832 103.514C208.143 103.013 207.645 103.013 206.4 103.389C204.968 103.826 203.473 103.701 203.473 103.701C203.847 102.075 209.264 101.074 209.389 99.2606C209.451 98.385 203.971 102.075 203.1 101.512C203.1 101.512 203.162 100.887 205.715 98.8853C207.147 97.697 208.704 96.5087 208.579 95.9458C208.33 94.8825 205.715 97.8221 201.668 99.886C201.668 99.886 203.037 98.3224 204.345 97.009C205.59 95.8207 206.836 94.7574 206.275 94.2571C205.777 93.8193 203.909 95.8207 202.664 97.009C200.36 99.2606 198.181 100.386 196.998 100.887C196.437 101.137 196.126 101.199 196.126 101.199C197.433 96.3836 196.064 96.5712 196.064 96.5712Z" fill="#8F5045"/>
<path d="M196.251 101.199C196.251 101.199 197.309 103.076 196.687 104.577C196.687 104.577 198.617 103.076 197.185 100.887C196.562 101.074 196.251 101.199 196.251 101.199Z" fill="#703E38"/>
<path d="M177.82 59.7955C177.82 59.7955 175.64 71.116 184.544 72.3043C184.544 72.3043 187.72 66.9255 191.892 70.6782C191.892 70.6782 196.375 58.357 185.852 56.4182C185.852 56.4182 183.797 51.7274 175.64 53.2284C164.246 55.2924 161.07 69.1771 167.421 82.8743C167.359 82.8743 161.817 58.2319 177.82 59.7955Z" fill="#141515"/>
<path d="M181.431 62.7351C181.431 62.7351 184.669 66.9255 184.544 72.3043C184.544 72.3043 186.911 69.3647 188.156 71.929C189.401 74.4934 184.42 78.246 184.42 78.246C184.42 78.246 192.452 78.6838 193.449 68.239C193.822 63.7983 188.094 59.7955 181.431 62.7351Z" fill="#141515"/>
<path fill-rule="evenodd" clip-rule="evenodd" d="M33.5492 161.805C32.0548 161.054 30.7472 160.053 29.5641 158.99L25.2678 160.491L21.2828 154.112L24.4583 150.859C23.9602 149.296 23.7111 147.67 23.6489 146.043L19.5393 144.105L21.1582 136.724H25.7037C26.4508 135.223 27.4471 133.91 28.5056 132.722L27.0112 128.406L33.3624 124.341L36.6002 127.53C38.1569 127.03 39.7758 126.78 41.3947 126.717L43.325 122.589L50.6724 124.216V128.781C52.1667 129.532 53.4743 130.533 54.6574 131.596L58.9538 130.095L63.0011 136.474L59.8255 139.727C60.3236 141.29 60.5727 142.916 60.6349 144.542L64.7445 146.481L63.1256 153.861H58.5802C57.833 155.363 56.8367 156.676 55.7782 157.864L57.2726 162.18L50.9214 166.245L47.6836 163.055C46.1269 163.556 44.508 163.806 42.8891 163.868L40.9588 167.996L33.6114 166.37L33.5492 161.805ZM40.0249 153.173C44.3835 154.174 48.6798 151.422 49.6761 147.044C50.6724 142.666 47.9327 138.351 43.574 137.35C39.2154 136.349 34.919 139.101 33.9228 143.479C32.9265 147.857 35.6662 152.173 40.0249 153.173Z" fill="#A42A29"/>
<path d="M85.3546 140.289C85.3546 140.289 84.9187 140.289 84.2338 139.914C83.5489 139.601 82.6149 138.913 82.0545 137.662C81.7432 137.037 81.5564 136.286 81.6186 135.473C81.6809 134.66 81.8677 133.784 82.3658 133.034C82.6149 132.659 82.9262 132.283 83.2375 131.971C83.6111 131.658 83.9847 131.408 84.4829 131.22C85.3546 130.782 86.4131 130.72 87.4716 130.907C88.4679 131.158 89.4019 131.721 90.0245 132.471C90.3359 132.846 90.5849 133.284 90.7717 133.722C90.9585 134.16 91.0831 134.598 91.1453 135.035C91.2699 135.911 91.0831 136.787 90.7717 137.537C90.4604 138.288 89.9623 138.851 89.4641 139.288C88.4056 140.164 87.2848 140.352 86.5376 140.352C85.7904 140.414 85.3546 140.289 85.3546 140.289C85.3546 140.227 85.7904 140.352 86.4754 140.352C87.2226 140.352 88.2811 140.101 89.2773 139.226C89.7755 138.788 90.2113 138.225 90.5227 137.537C90.834 136.849 90.9585 135.974 90.834 135.16C90.7717 134.723 90.6472 134.285 90.4604 133.91C90.2736 133.472 90.0245 133.097 89.7132 132.784C89.0905 132.096 88.2188 131.533 87.2848 131.345C86.3508 131.158 85.2923 131.22 84.4829 131.595C84.047 131.783 83.6734 132.033 83.2998 132.346C82.9885 132.659 82.6771 132.971 82.4281 133.347C81.9299 134.035 81.7432 134.91 81.6809 135.661C81.6186 136.411 81.8054 137.162 82.0545 137.725C82.6149 138.913 83.4866 139.601 84.1093 139.976C84.981 140.164 85.4169 140.227 85.3546 140.289Z" fill="#263238"/>
<path d="M81.6185 145.293C81.6185 145.293 81.6185 145.355 81.6185 145.48C81.6185 145.605 81.6185 145.793 81.6185 145.981C81.6185 146.419 81.6185 147.107 81.6185 147.982L81.5563 147.92C82.6771 148.17 84.1092 148.483 85.7904 148.858L85.7281 148.92C86.0394 148.17 86.413 147.419 86.8489 146.544V146.481H86.9112C87.7829 146.419 88.7169 146.293 89.7131 145.981H89.7754L89.8377 146.043C90.3981 146.606 91.083 147.232 91.7057 147.92H91.5811C92.7642 147.169 93.9472 146.419 95.2548 145.543L95.1925 145.668C94.9435 144.918 94.6322 144.042 94.3208 143.166V143.104L94.3831 143.041C95.0057 142.416 95.5661 141.603 96.002 140.727L96.0643 140.665H96.1265C96.936 140.665 97.87 140.665 98.7417 140.665L98.6172 140.727C98.9285 139.414 99.2398 137.913 99.5512 136.474L99.6134 136.599C98.8663 136.224 98.0568 135.849 97.2473 135.473L97.1851 135.411V135.348C97.1228 134.473 96.9983 133.535 96.6869 132.596V132.534L96.7492 132.471C97.3096 131.908 97.9945 131.22 98.6172 130.595V130.783C97.87 129.594 97.0605 128.343 96.3133 127.092L96.5001 127.155C95.6907 127.405 94.8812 127.718 94.0095 128.031H93.9472L93.885 127.968C93.2623 127.343 92.4528 126.78 91.5811 126.342C91.5188 126.279 91.6434 126.467 91.5189 126.217V126.154V126.092V125.904V125.591V124.903C91.5189 124.466 91.5189 124.028 91.5189 123.59L91.6434 123.715C90.2113 123.402 88.7791 123.09 87.4093 122.777L87.5338 122.714C87.1602 123.527 86.7866 124.341 86.413 125.091L86.3508 125.154H86.2885C85.3545 125.216 84.4205 125.341 83.5488 125.654H83.4865L83.4243 125.591C82.8016 124.966 82.1789 124.341 81.5563 123.715H81.7431C80.4978 124.528 79.2524 125.279 78.0694 126.029L78.1316 125.904C78.443 126.78 78.7543 127.593 79.0034 128.406V128.468L78.9411 128.531C78.3184 129.219 77.758 130.032 77.3222 130.845L77.2599 130.908H77.1976C76.3259 130.908 75.3919 130.908 74.5825 130.908L74.707 130.845C74.3957 132.346 74.0221 133.785 73.773 135.098L73.7107 134.973C74.5202 135.348 75.3297 135.724 76.0769 136.099H76.1391V136.161C76.2014 137.162 76.3259 138.1 76.6373 138.976V139.038L76.575 139.101C75.8901 139.789 75.2674 140.414 74.707 140.977V140.852C75.5787 142.291 76.3882 143.542 77.0108 144.542H76.9486C77.9448 144.167 78.7543 143.917 79.4392 143.667C80.1242 144.292 80.7468 144.73 81.1204 144.98C81.3072 145.105 81.494 145.168 81.5563 145.23C81.6185 145.293 81.6185 145.293 81.6185 145.293C81.6185 145.293 81.5563 145.293 81.4317 145.23C81.3072 145.168 81.1827 145.105 80.9959 144.98C80.56 144.73 79.9996 144.355 79.2524 143.667H79.3147C78.6298 143.917 77.8203 144.23 76.824 144.542H76.7618V144.48C76.0769 143.416 75.3297 142.228 74.3957 140.79L74.3334 140.727L74.3957 140.665C74.9561 140.102 75.5787 139.476 76.2637 138.788V138.851C76.0146 137.975 75.8278 137.037 75.7655 136.036L75.8278 136.099C75.0806 135.724 74.2711 135.348 73.4617 134.973L73.3994 134.91V134.848C73.7107 133.472 74.0221 132.096 74.3334 130.595V130.532H74.3957C75.2674 130.532 76.1391 130.532 77.0108 130.532L76.8863 130.595C77.3222 129.782 77.8826 128.969 78.5675 128.218V128.343C78.2562 127.53 78.0071 126.717 77.6958 125.842L77.6335 125.779L77.6958 125.717C78.8788 124.966 80.1242 124.153 81.3695 123.402L81.4317 123.34L81.494 123.402C82.1167 124.028 82.7393 124.653 83.362 125.279L83.2375 125.216C84.1715 124.903 85.1054 124.778 86.0394 124.716L85.9149 124.778C86.2885 123.965 86.6621 123.215 87.0357 122.402L87.098 122.277H87.2225C88.5923 122.589 90.0245 122.902 91.4566 123.215H91.5811V123.34C91.5811 123.778 91.5811 124.215 91.5811 124.653V125.341V125.654V125.842V125.904V125.967C91.4566 125.717 91.5189 125.904 91.5189 125.842C92.3906 126.279 93.2 126.905 93.885 127.53H93.7604C94.6322 127.218 95.4416 126.905 96.2511 126.655L96.3756 126.592L96.4379 126.655C97.2473 127.906 98.0568 129.156 98.7417 130.345L98.804 130.407L98.7417 130.47C98.1191 131.095 97.4341 131.783 96.8737 132.346L96.936 132.221C97.2473 133.159 97.3719 134.16 97.4341 135.036L97.3719 134.91C98.1813 135.286 98.9908 135.724 99.738 136.036L99.8002 136.099V136.224C99.4889 137.725 99.1153 139.163 98.8663 140.477V140.539H98.7417C97.8077 140.539 96.936 140.539 96.1265 140.539L96.2511 140.477C95.8152 141.352 95.1925 142.166 94.5699 142.854V142.728C94.8812 143.604 95.1926 144.48 95.4416 145.23V145.293L95.3793 145.355C94.0718 146.168 92.8264 146.981 91.7057 147.669L91.6434 147.732L91.5811 147.669C90.9585 146.981 90.2735 146.356 89.7131 145.793H89.7754C88.7791 146.106 87.8452 146.231 86.9734 146.293L87.0357 146.231C86.5998 147.107 86.2262 147.92 85.9149 148.608V148.67H85.8526C84.1092 148.295 82.6771 147.92 81.6185 147.669H81.5563V147.607C81.5563 146.731 81.5563 146.106 81.5563 145.668C81.5563 145.48 81.5563 145.293 81.5563 145.168C81.6185 145.355 81.6185 145.293 81.6185 145.293Z" fill="#263238"/>
<path fill-rule="evenodd" clip-rule="evenodd" d="M60.5727 120.088C59.8255 119.713 59.2028 119.212 58.5802 118.712L56.4631 119.462L54.4706 116.273L56.0895 114.646C55.8405 113.896 55.7159 113.083 55.6537 112.27L53.5989 111.269L54.4083 107.642H56.6499C57.0235 106.891 57.5216 106.266 58.0198 105.64L57.2726 103.514L60.4482 101.512L62.0671 103.138C62.8143 102.888 63.6237 102.763 64.4332 102.701L65.4294 100.637L69.0409 101.45V103.701C69.7881 104.077 70.4107 104.577 71.0334 105.077L73.1504 104.327L75.143 107.516L73.524 109.143C73.7731 109.893 73.8976 110.706 73.9599 111.519L76.0147 112.52L75.2052 116.148H72.9636C72.59 116.898 72.0919 117.523 71.5938 118.149L72.341 120.275L69.1654 122.277L67.5465 120.651C66.7993 120.901 65.9898 121.026 65.1804 121.088L64.1841 123.152L60.5727 122.339V120.088ZM63.7483 115.835C65.9276 116.335 68.0446 114.959 68.5427 112.77C69.0409 110.581 67.671 108.455 65.4917 107.954C63.3124 107.454 61.1953 108.83 60.6972 111.019C60.2614 113.208 61.6312 115.334 63.7483 115.835Z" fill="#E7515B"/>
<g opacity="0.4">
<g opacity="0.4">
<g opacity="0.4">
<g opacity="0.4">
<path opacity="0.4" fill-rule="evenodd" clip-rule="evenodd" d="M60.5727 120.088C59.8255 119.713 59.2028 119.212 58.5802 118.712L56.4631 119.462L54.4706 116.273L56.0895 114.646C55.8405 113.896 55.7159 113.083 55.6537 112.27L53.5989 111.269L54.4083 107.642H56.6499C57.0235 106.891 57.5216 106.266 58.0198 105.64L57.2726 103.514L60.4482 101.512L62.0671 103.138C62.8143 102.888 63.6237 102.763 64.4332 102.701L65.4294 100.637L69.0409 101.45V103.701C69.7881 104.077 70.4107 104.577 71.0334 105.077L73.1504 104.327L75.143 107.516L73.524 109.143C73.7731 109.893 73.8976 110.706 73.9599 111.519L76.0147 112.52L75.2052 116.148H72.9636C72.59 116.898 72.0919 117.523 71.5938 118.149L72.341 120.275L69.1654 122.277L67.5465 120.651C66.7993 120.901 65.9898 121.026 65.1804 121.088L64.1841 123.152L60.5727 122.339V120.088ZM63.7483 115.835C65.9276 116.335 68.0446 114.959 68.5427 112.77C69.0409 110.581 67.671 108.455 65.4917 107.954C63.3124 107.454 61.1953 108.83 60.6972 111.019C60.2614 113.208 61.6312 115.334 63.7483 115.835Z" fill="white"/>
</g>
</g>
</g>
</g>
</svg>
