<svg width="29" height="30" viewBox="0 0 29 30" fill="none" xmlns="http://www.w3.org/2000/svg">
<path fill-rule="evenodd" clip-rule="evenodd" d="M30 -0.0302734H29V0.969727H30V-0.0302734ZM14.0033 4.4488L25.5366 16.5853C26.5112 17.7031 25.8614 19.4597 24.3995 19.4597H22.2877V28.083C22.2877 28.5621 22.1253 29.0412 21.1507 29.0412H17.2521C16.6023 29.0412 16.2774 28.5621 16.2774 28.083V23.452C16.2774 22.9729 15.9525 22.6535 15.6277 22.6535H11.0793C10.592 22.6535 10.2671 22.9729 10.2671 23.452V28.083C10.2671 28.5621 9.77979 29.0412 9.29247 29.0412H5.06901C4.41924 29.0412 4.09436 28.4024 4.09436 28.083V19.4597H1.49531C0.195782 19.4597 -0.453982 17.8628 0.358223 16.9047L12.054 4.4488C12.5413 3.81004 13.5159 3.81004 14.0033 4.4488Z" fill="#929497"/>
</svg>
