<svg width="22" height="22" viewBox="0 0 22 22" fill="none" xmlns="http://www.w3.org/2000/svg">
<path d="M12.6 6.5C12.6 7.32843 11.9284 8 11.1 8C10.2715 8 9.59998 7.32843 9.59998 6.5C9.59998 5.67157 10.2715 5 11.1 5C11.9284 5 12.6 5.67157 12.6 6.5Z" fill="#A32A29"/>
<path d="M10 11V17C10 17.5523 10.4477 18 11 18C11.5523 18 12 17.5523 12 17V11C12 10.4477 11.5523 10 11 10C10.4477 10 10 10.4477 10 11Z" fill="#A32A29"/>
<path fill-rule="evenodd" clip-rule="evenodd" d="M11 22C17.0751 22 22 17.0751 22 11C22 4.92487 17.0751 0 11 0C4.92487 0 0 4.92487 0 11C0 17.0751 4.92487 22 11 22ZM11 20.5C16.2467 20.5 20.5 16.2467 20.5 11C20.5 5.75329 16.2467 1.5 11 1.5C5.75329 1.5 1.5 5.75329 1.5 11C1.5 16.2467 5.75329 20.5 11 20.5Z" fill="#A32A29"/>
</svg>
