<?xml version="1.0" encoding="utf-8"?>
<!-- Generator: Adobe Illustrator 27.4.0, SVG Export Plug-In . SVG Version: 6.00 Build 0)  -->
<svg version="1.1" id="Layer_1" xmlns="http://www.w3.org/2000/svg" xmlns:xlink="http://www.w3.org/1999/xlink" x="0px" y="0px"
	 viewBox="0 0 32 33" style="enable-background:new 0 0 32 33;" xml:space="preserve">
<style type="text/css">
	.st0{fill-rule:evenodd;clip-rule:evenodd;fill:#595B5C;}
</style>
<path class="st0" d="M16,4.8c-6.6,0-12,5.4-12,12s5.4,12,12,12c6.6,0,12-5.4,12-12S22.6,4.8,16,4.8z M6,16.8c0-5.5,4.5-10,10-10
	c2.4,0,4.6,0.8,6.3,2.3L8.3,23.2C6.8,21.4,6,19.2,6,16.8z M9.7,24.6c1.7,1.4,3.9,2.3,6.3,2.3c5.5,0,10-4.5,10-10
	c0-2.4-0.8-4.6-2.3-6.3L9.7,24.6z"/>
</svg>
