<svg width="48" height="48" viewBox="0 0 48 48" fill="none" xmlns="http://www.w3.org/2000/svg">
<path d="M41.8868 39.9998C45.6878 35.7536 48 30.1472 48 23.9998C48 17.8525 45.6877 12.2459 41.8867 7.9998L24 6.26074L6.11325 7.9998C2.31234 12.2459 0 17.8525 0 23.9998C0 30.1472 2.31225 35.7536 6.11316 39.9998L24 41.7389L41.8868 39.9998Z" fill="#FFDA44"/>
<path d="M6.11322 7.99997H41.8868C37.4923 3.09056 31.1074 0 24 0C16.8925 0 10.5077 3.09056 6.11322 7.99997Z" fill="black"/>
<path d="M0 24L24 26.087L48 24C48 21.1946 47.5171 18.5023 46.6324 15.9999H1.36762C0.482906 18.5023 0 21.1946 0 24Z" fill="#D80027"/>
<path d="M1.36762 32H46.6326C47.5171 29.4976 48 26.8054 48 24H0C0 26.8054 0.482906 29.4976 1.36762 32Z" fill="black"/>
<path d="M41.8868 39.9999H6.11316C10.5076 44.9094 16.8924 48 24 48C31.1076 48 37.4924 44.9094 41.8868 39.9999Z" fill="#D80027"/>
<path d="M32.0087 23.9998C32.0087 28.4232 28.4234 32.0085 24 32.0085C19.5766 32.0085 15.9913 28.4232 15.9913 23.9998C15.9913 19.5764 19.5766 15.9911 24 15.9911C28.4234 15.9911 32.0087 19.5764 32.0087 23.9998Z" fill="#F0F0F0"/>
<path d="M26.934 24.4086L24.0001 23.1373C24.0001 23.1373 24.6865 20.8589 24.723 20.703C24.7498 20.5891 24.764 20.4703 24.764 20.3482C24.764 19.9159 24.5888 19.5246 24.3055 19.2415L25.0433 18.5037C24.5713 18.0317 23.9191 17.7396 23.1987 17.7396C22.4783 17.7396 21.8261 18.0316 21.3541 18.5037L22.0919 19.2415C21.8086 19.5247 21.6334 19.916 21.6334 20.3482C21.6334 20.5063 21.6573 20.6586 21.7009 20.8025L20.5901 21.9133H22.6091C22.6091 21.9133 21.7743 23.1671 21.3186 24.1967C20.8629 25.2263 21.3249 26.4832 22.3781 26.9514L22.9871 27.2221L24.0001 28.1742V29.2176L22.9566 30.2611H25.0436V28.1741L25.9958 27.2219H27.9653C27.9748 27.2023 27.9847 27.1832 27.9937 27.1631C28.4616 26.11 27.9872 24.8766 26.934 24.4086Z" fill="black"/>
</svg>
