<svg width="22" height="13" viewBox="0 0 22 13" fill="none" xmlns="http://www.w3.org/2000/svg">
<path fill-rule="evenodd" clip-rule="evenodd" d="M3.65 3.09375C7.775 -1.03125 14.525 -1.03125 18.65 3.09375C20.6 5.11875 21.725 7.81875 21.65 10.5938C21.65 10.8188 21.425 11.0438 21.2 11.0438H18.5C18.275 11.0438 18.05 10.8188 18.05 10.5938C18.05 6.76875 14.9 3.61875 11.075 3.61875C7.25 3.61875 4.1 6.76875 4.1 10.5938C4.1 10.8188 3.875 11.0438 3.65 11.0438H0.95C0.725 11.0438 0.5 10.8188 0.5 10.5938C0.5 7.81875 1.625 5.11875 3.65 3.09375ZM16.4 4.74375L17.675 3.46875C15.95 1.89375 13.85 0.99375 11.6 0.91875V2.71875C13.4 2.86875 15.05 3.54375 16.4 4.74375ZM19.025 10.1437H20.825C20.75 7.89375 19.85 5.79375 18.275 4.06875L17 5.34375C18.2 6.69375 18.95 8.34375 19.025 10.1437ZM3.95 4.06875C2.375 5.71875 1.475 7.89375 1.4 10.1437H3.2C3.35 8.34375 4.025 6.69375 5.225 5.34375L3.95 4.06875ZM10.625 2.71875V0.91875C8.375 0.99375 6.275 1.89375 4.55 3.46875L5.825 4.74375C7.175 3.54375 8.825 2.79375 10.625 2.71875Z" fill="#A32A29"/>
<path fill-rule="evenodd" clip-rule="evenodd" d="M11.525 6.54375V9.24375C12.2 9.46875 12.65 10.1437 12.5 10.8187C12.425 11.5687 11.825 12.0938 11.075 12.0938C10.325 12.0938 9.72503 11.4937 9.65003 10.8187C9.50003 10.0687 9.95003 9.46875 10.625 9.24375V6.54375C10.625 6.24375 10.775 6.09375 11.075 6.09375C11.375 6.09375 11.525 6.31875 11.525 6.54375ZM10.475 10.5938C10.475 10.8937 10.775 11.1937 11.075 11.1937C11.45 11.1937 11.75 10.9688 11.675 10.5938C11.675 10.2938 11.375 9.99375 11.075 9.99375C10.775 9.99375 10.475 10.2938 10.475 10.5938Z" fill="#A32A29"/>
</svg>
