<svg width="33" height="32" viewBox="0 0 33 32" fill="none" xmlns="http://www.w3.org/2000/svg">
<circle cx="16.5" cy="16" r="16" fill="#E60000"/>
<path d="M15.3 19.375C15.3 18.7537 15.8037 18.25 16.425 18.25C17.0463 18.25 17.55 18.7537 17.55 19.375C17.55 19.9963 17.0463 20.5 16.425 20.5C15.8037 20.5 15.3 19.9963 15.3 19.375Z" fill="white"/>
<path d="M17.25 16L17.25 11.5C17.25 11.0858 16.9142 10.75 16.5 10.75C16.0858 10.75 15.75 11.0858 15.75 11.5L15.75 16C15.75 16.4142 16.0858 16.75 16.5 16.75C16.9142 16.75 17.25 16.4142 17.25 16Z" fill="white"/>
<path fill-rule="evenodd" clip-rule="evenodd" d="M16.5 7.75C11.9437 7.75 8.25 11.4436 8.25 16C8.25 20.5563 11.9437 24.25 16.5 24.25C21.0563 24.25 24.75 20.5563 24.75 16C24.75 11.4437 21.0564 7.75 16.5 7.75ZM16.5 8.875C12.565 8.875 9.375 12.065 9.375 16C9.375 19.935 12.565 23.125 16.5 23.125C20.435 23.125 23.625 19.935 23.625 16C23.625 12.065 20.435 8.875 16.5 8.875Z" fill="white"/>
</svg>
