<svg width="18" height="18" viewBox="0 0 18 18" fill="none" xmlns="http://www.w3.org/2000/svg">
<path fill-rule="evenodd" clip-rule="evenodd" d="M7 0.25C10.7279 0.25 13.75 3.27208 13.75 7C13.75 8.72131 13.1057 10.2921 12.0451 11.4845L17.0303 16.4697C17.3232 16.7626 17.3232 17.2374 17.0303 17.5303C16.7374 17.8232 16.2626 17.8232 15.9697 17.5303L10.9288 12.4895C9.82212 13.2829 8.46561 13.75 7 13.75C3.27208 13.75 0.25 10.7279 0.25 7C0.25 3.27208 3.27208 0.25 7 0.25ZM12.25 7C12.25 4.10051 9.8995 1.75 7 1.75C4.1005 1.75 1.75 4.10051 1.75 7C1.75 9.8995 4.1005 12.25 7 12.25C9.8995 12.25 12.25 9.8995 12.25 7Z" fill="#A32A29"/>
</svg>
