<svg width="24" height="24" viewBox="0 0 24 24" fill="none" xmlns="http://www.w3.org/2000/svg">
<path fill-rule="evenodd" clip-rule="evenodd" d="M12 0C5.37258 0 0 5.37258 0 12C0 18.6274 5.37258 24 12 24C18.6274 24 24 18.6274 24 12C24 5.37258 18.6274 0 12 0ZM2 12C2 6.47715 6.47715 2 12 2C14.4013 2 16.6049 2.84637 18.3287 4.25707L4.25707 18.3287C2.84637 16.6049 2 14.4013 2 12ZM5.67129 19.743C7.39515 21.1536 9.59874 22 12 22C17.5228 22 22 17.5228 22 12C22 9.59874 21.1536 7.39515 19.743 5.67129L5.67129 19.743Z" fill="#2F9803"/>
</svg>
