<svg width="18" height="18" viewBox="0 0 18 18" fill="none" xmlns="http://www.w3.org/2000/svg">
<path fill-rule="evenodd" clip-rule="evenodd" d="M7.5 0.25C11.2279 0.25 14.25 3.27208 14.25 7C14.25 8.72131 13.6057 10.2921 12.5451 11.4845L17.5303 16.4697C17.8232 16.7626 17.8232 17.2374 17.5303 17.5303C17.2374 17.8232 16.7626 17.8232 16.4697 17.5303L11.4288 12.4895C10.3221 13.2829 8.96561 13.75 7.5 13.75C3.77208 13.75 0.75 10.7279 0.75 7C0.75 3.27208 3.77208 0.25 7.5 0.25ZM12.75 7C12.75 4.10051 10.3995 1.75 7.5 1.75C4.6005 1.75 2.25 4.10051 2.25 7C2.25 9.8995 4.6005 12.25 7.5 12.25C10.3995 12.25 12.75 9.8995 12.75 7Z" fill="#A32A29"/>
</svg>
