<svg width="32" height="32" viewBox="0 0 32 32" fill="none" xmlns="http://www.w3.org/2000/svg">
<circle cx="16" cy="16" r="16" fill="#E60000"/>
<path d="M14.8 19.375C14.8 18.7537 15.3037 18.25 15.925 18.25C16.5463 18.25 17.05 18.7537 17.05 19.375C17.05 19.9963 16.5463 20.5 15.925 20.5C15.3037 20.5 14.8 19.9963 14.8 19.375Z" fill="white"/>
<path d="M16.75 16L16.75 11.5C16.75 11.0858 16.4142 10.75 16 10.75C15.5858 10.75 15.25 11.0858 15.25 11.5L15.25 16C15.25 16.4142 15.5858 16.75 16 16.75C16.4142 16.75 16.75 16.4142 16.75 16Z" fill="white"/>
<path fill-rule="evenodd" clip-rule="evenodd" d="M16 7.75C11.4437 7.75 7.75 11.4436 7.75 16C7.75 20.5563 11.4437 24.25 16 24.25C20.5563 24.25 24.25 20.5563 24.25 16C24.25 11.4437 20.5564 7.75 16 7.75ZM16 8.875C12.065 8.875 8.875 12.065 8.875 16C8.875 19.935 12.065 23.125 16 23.125C19.935 23.125 23.125 19.935 23.125 16C23.125 12.065 19.935 8.875 16 8.875Z" fill="white"/>
</svg>
