<svg width="48" height="48" viewBox="0 0 48 48" fill="none" xmlns="http://www.w3.org/2000/svg">
<g clip-path="url(#clip0_1283_119825)">
<path d="M0 24C0 37.3 10.7 48 24 48C37.3 48 48 37.3 48 24C48 10.9 37.6 0.3 24.5 0H23.4C10.4 0.3 0 10.9 0 24Z" fill="white"/>
<path fill-rule="evenodd" clip-rule="evenodd" d="M9.22023 19.0032H11.219L12.355 21.9715L13.4779 19C14.0146 19.0063 14.9202 19.0063 15.4602 19V19.1778C15.4569 20.6159 15.4569 22.2192 15.4602 23.6573H14.2254C14.2269 23.1963 14.2356 22.5873 14.2445 21.9684V21.9684V21.9684V21.9684V21.9683V21.9682V21.9681L14.2445 21.968C14.2546 21.2615 14.2649 20.5422 14.2649 20.0159L12.9346 23.6573H11.8084L10.4518 20.0159V23.6573L9.21693 23.6541L9.22023 19.0032ZM39.6116 20.8159L39.6083 23.6573H38.3471V19H39.9672L41.989 21.8255V19H43.2271V23.6541H41.6696L39.6116 20.8159ZM20.5129 21.8318L20.5194 20.8159L17.76 20.8191L17.7567 20.0159H18.0169C18.2761 20.0159 18.5545 20.0156 18.8396 20.0152H18.8396H18.8397H18.8397H18.8397H18.8398H18.8398C19.4311 20.0145 20.051 20.0138 20.5886 20.0159V19H16.4956V23.6573H20.582L20.5853 22.6319C20.3973 22.6319 20.1856 22.6317 19.9614 22.6315L19.9608 22.6315C19.231 22.6309 18.3687 22.6302 17.7567 22.6351V21.8318L18.0663 21.8287C18.2482 21.8287 18.4417 21.8285 18.6409 21.8283C19.2638 21.8277 19.9441 21.827 20.5129 21.8318ZM13.2441 26.8543L13.2375 27.8702C12.6687 27.8654 11.9884 27.8661 11.3656 27.8667L11.3626 27.8667C11.1643 27.8669 10.972 27.8671 10.7909 27.8671L10.4814 27.8702V28.6734C11.0932 28.6686 11.9554 28.6693 12.6851 28.6699H12.6854C12.9098 28.6701 13.1217 28.6703 13.3099 28.6703L13.3066 29.6957H9.2202V25.0384H13.3132V26.0543C12.7126 26.0495 12.0046 26.0501 11.3503 26.0507L11.3492 26.0507C11.1393 26.0509 10.935 26.0511 10.7415 26.0511H10.4814L10.4847 26.8543H13.2441ZM34.0939 27.8702L34.1005 26.8543H31.3444L31.3411 26.0511H31.6012C31.795 26.0511 31.9997 26.0509 32.21 26.0507C32.8643 26.0501 33.5724 26.0495 34.1729 26.0543V25.0384H30.0799V29.6957H34.163L34.1663 28.6703C33.9781 28.6703 33.7663 28.6701 33.5418 28.6699H33.5415C32.8118 28.6693 31.9496 28.6686 31.3378 28.6734V27.8702L31.6473 27.8671C31.8284 27.8671 32.0207 27.8669 32.219 27.8667L32.222 27.8667C32.8448 27.8661 33.5251 27.8654 34.0939 27.8702ZM8.91397 23.6564H7.50134L7.06997 22.631H4.79131L4.36324 23.6564H3L5.14365 19.0023H6.76044L8.91397 23.6564ZM5.93394 20.015L5.21939 21.8278H6.64849L5.93394 20.015ZM36.6259 23.6574H38.0385L35.8817 19.0033H34.2649L32.1212 23.6574H33.4878L33.9158 22.632H36.1945L36.6259 23.6574ZM34.3439 21.8288L35.0585 20.016L35.773 21.8288H34.3439ZM39.115 25.0447L38.6178 26.0638L36.563 26.067C36.4873 26.067 36.4083 26.0702 36.3358 26.0892C36.102 26.1495 35.9934 26.3051 36.023 26.521C36.0461 26.7083 36.2173 26.848 36.4412 26.8512C36.5861 26.8537 36.731 26.8522 36.8759 26.8506C37.0932 26.8484 37.3105 26.8461 37.5279 26.8575C37.8143 26.8734 38.1107 26.8956 38.384 26.9781C38.8417 27.1178 39.1216 27.4416 39.1973 27.9052C39.306 28.5782 39.0722 29.2258 38.3774 29.5211C38.1667 29.61 37.9263 29.6703 37.6991 29.6766C37.0938 29.6899 36.403 29.6893 35.7464 29.6888H35.7461H35.7458H35.7455H35.7452H35.7449H35.7446H35.7443C35.455 29.6886 35.1724 29.6884 34.9067 29.6893V28.6734L37.5904 28.6576C37.8143 28.6322 37.9461 28.5115 37.9592 28.321C37.9757 28.0925 37.8703 27.9528 37.6365 27.8956C37.5641 27.8798 37.4851 27.8702 37.4093 27.8702C37.2606 27.8691 37.1115 27.8704 36.9623 27.8716C36.6885 27.8739 36.4143 27.8762 36.1416 27.8639C35.7497 27.848 35.3941 27.721 35.1109 27.4385C34.5445 26.8765 34.5676 25.5082 35.7892 25.14C36.0066 25.0765 36.2469 25.0416 36.4741 25.0384L39.115 25.0447ZM43.3951 26.0638L43.8923 25.0447L41.2514 25.0384C41.0242 25.0416 40.7838 25.0765 40.5665 25.14C39.3448 25.5082 39.3218 26.8765 39.8882 27.4385C40.1714 27.721 40.527 27.848 40.9188 27.8639C41.1916 27.8762 41.4658 27.8739 41.7396 27.8716C41.8888 27.8704 42.0379 27.8691 42.1866 27.8702C42.2623 27.8702 42.3414 27.8798 42.4138 27.8956C42.6476 27.9528 42.753 28.0925 42.7365 28.321C42.7234 28.5115 42.5916 28.6322 42.3677 28.6576L39.684 28.6734V29.6893C39.9498 29.6884 40.2325 29.6886 40.5219 29.6888H40.5222H40.5225H40.5228H40.523H40.5233H40.5236C41.1802 29.6893 41.8711 29.6899 42.4764 29.6766C42.7036 29.6703 42.944 29.61 43.1547 29.5211C43.8495 29.2258 44.0833 28.5782 43.9747 27.9052C43.8989 27.4416 43.619 27.1178 43.1613 26.9781C42.888 26.8956 42.5916 26.8734 42.3052 26.8575C42.0878 26.8461 41.8705 26.8484 41.6532 26.8506C41.5083 26.8522 41.3634 26.8537 41.2185 26.8512C40.9946 26.848 40.8234 26.7083 40.8003 26.521C40.7707 26.3051 40.8793 26.1495 41.1131 26.0892C41.1856 26.0702 41.2646 26.067 41.3403 26.067L43.3951 26.0638ZM19.3738 25.0445L17.4211 27.4128L19.3738 29.6891L17.8163 29.6923L16.4991 28.2065L15.2281 29.6923L13.6014 29.6859L15.6595 27.4128L13.6047 25.0445L15.2314 25.0508L16.4959 26.4382L17.8163 25.0477L19.3738 25.0445ZM20.9503 29.6925L20.947 28.1591H22.6132C23.7229 28.1464 24.4605 27.2162 24.1872 26.1781C24.0028 25.4701 23.4068 25.0637 22.6165 25.0479C22.0635 25.0364 21.4496 25.0387 20.8475 25.041H20.8475H20.8473C20.4492 25.0426 20.0561 25.0441 19.6891 25.0415V29.6925H20.9503ZM22.3925 27.1368L20.947 27.14L20.9437 26.0638C21.1173 26.065 21.3137 26.0643 21.5147 26.0636H21.5148H21.5148H21.5148H21.5148C21.821 26.0624 22.1381 26.0612 22.4024 26.067C22.7614 26.0733 22.9853 26.3019 22.9787 26.6257C22.9721 26.9337 22.7449 27.1337 22.3925 27.1368ZM29.6097 29.6703L28.0852 29.6957L26.7054 28.1591H26.1061L26.1094 29.6925H24.8483V25.0415C25.2153 25.0441 25.6083 25.0426 26.0065 25.041H26.0066H26.0067C26.6088 25.0387 27.2226 25.0364 27.7756 25.0479C28.5659 25.0637 29.1619 25.4701 29.3463 26.1781C29.59 27.0987 29.0401 27.9337 28.1378 28.121L29.6097 29.6703ZM26.1061 27.14L27.5517 27.1368C27.904 27.1337 28.1313 26.9337 28.1378 26.6257C28.1444 26.3019 27.9205 26.0733 27.5616 26.067C27.2973 26.0612 26.9802 26.0624 26.674 26.0636H26.674H26.674H26.6739C26.4728 26.0643 26.2765 26.065 26.1029 26.0638L26.1061 27.14ZM24.704 23.6573L26.2286 23.6319L24.7567 22.0826C25.659 21.8953 26.2089 21.0604 25.9652 20.1397C25.7808 19.4317 25.1848 19.0254 24.3945 19.0095C23.8415 18.998 23.2276 19.0004 22.6255 19.0027C22.2273 19.0042 21.8342 19.0057 21.4671 19.0031V23.6541H22.7283L22.725 22.1207H23.3243L24.704 23.6573ZM24.1706 21.0984L22.725 21.1016L22.7217 20.0254C22.8953 20.0267 23.0917 20.0259 23.2928 20.0252H23.2928H23.2929C23.599 20.024 23.9161 20.0228 24.1805 20.0286C24.5394 20.0349 24.7633 20.2635 24.7567 20.5873C24.7501 20.8953 24.5229 21.0953 24.1706 21.0984ZM31.4105 23.6513C30.8705 23.6735 30.337 23.645 29.8431 23.3973C29.1944 23.0703 28.8586 22.5275 28.7433 21.8512C28.6577 21.3465 28.684 20.8385 28.875 20.3528C29.1714 19.6035 29.7476 19.1527 30.5577 19.0607C31.0453 19.0063 31.5403 19.0083 32.0344 19.0102C32.2042 19.0108 32.374 19.0115 32.5432 19.0099H32.6552L32.6618 20.0544L31.4006 20.0575C31.2162 20.0607 31.0285 20.0734 30.8474 20.1083C30.393 20.1972 30.0967 20.4734 30.0209 20.9052C29.9715 21.1846 29.9682 21.4893 30.0242 21.7655C30.1296 22.3116 30.5609 22.61 31.1998 22.6291C31.3641 22.6332 31.5285 22.6319 31.7031 22.6305C31.7943 22.6298 31.8884 22.6291 31.9867 22.6291L31.9244 22.7552L31.9242 22.7555C31.7734 23.0608 31.6126 23.3863 31.4797 23.6481L31.4105 23.6513ZM27.9698 19.0033H26.7218V23.6606H27.9698C27.9665 22.2066 27.9665 20.4573 27.9698 19.0033Z" fill="#006FCF"/>
</g>
<defs>
<clipPath id="clip0_1283_119825">
<rect width="48" height="48" fill="white"/>
</clipPath>
</defs>
</svg>
