<svg width="18" height="24" viewBox="0 0 18 24" fill="none" xmlns="http://www.w3.org/2000/svg">
<path fill-rule="evenodd" clip-rule="evenodd" d="M9 0C5.6961 0 3 2.65476 3 5.95V7.05C3 8.50477 3.52547 9.8347 4.39673 10.8665L1.5297 12.6646L1.52844 12.6653C0.544018 13.2802 0 14.4181 0 15.576V24H18V15.576C18 14.4181 17.456 13.2802 16.4716 12.6653L16.4703 12.6646L13.6033 10.8665C14.4745 9.8347 15 8.50477 15 7.05V5.95C15 2.65476 12.3039 0 9 0ZM5 5.95C5 3.77824 6.78167 2 9 2C11.2183 2 13 3.77824 13 5.95V7.05C13 9.22176 11.2183 11 9 11C6.78167 11 5 9.22176 5 7.05V5.95ZM11.9847 12.2122C11.1047 12.7136 10.0851 13 9 13C7.91485 13 6.89527 12.7136 6.01525 12.2122L2.59031 14.3602L2.5883 14.3614C2.26952 14.5603 2 15.0068 2 15.576V22H16V15.576C16 15.0068 15.7305 14.5603 15.4117 14.3614L15.4097 14.3602L11.9847 12.2122Z" fill="white"/>
</svg>
