<svg width="22" height="20" viewBox="0 0 22 20" fill="none" xmlns="http://www.w3.org/2000/svg">
<path d="M6.6706 17.7637C6.6706 17.9846 6.84951 18.1637 7.0706 18.1637C7.2917 18.1637 7.4706 17.9846 7.4706 17.7637V12.7898C7.4706 12.5689 7.2917 12.3898 7.0706 12.3898C6.84951 12.3898 6.6706 12.5689 6.6706 12.7898V17.7637Z" fill="white"/>
<path fill-rule="evenodd" clip-rule="evenodd" d="M2.17061 0.900391C1.46689 0.900391 0.899902 1.48899 0.899902 2.20636V7.79422C0.899902 8.51179 1.46688 9.10039 2.17061 9.10039H4.9999V19.1177C4.9999 19.6044 5.4189 20.0004 5.93356 20.0004H16.0662C16.5809 20.0004 16.9999 19.6044 16.9999 19.1177V9.10039H19.8296C20.5329 9.10039 21.0999 8.51176 21.0999 7.79422V2.20636C21.0999 1.48901 20.5329 0.900391 19.8296 0.900391H2.17061ZM12.3175 19.0004H13.6495V4.00039H12.3175V19.0004ZM15.8803 19.0004H14.6495V4.00039H15.9999V18.8866C15.9999 18.9493 15.9462 19.0004 15.8803 19.0004ZM5.9999 4.00039H11.3175V19.0004H6.11947C6.05359 19.0004 5.9999 18.9493 5.9999 18.8866V4.00039ZM5.49813 2.84111C5.48901 2.84063 5.47983 2.84039 5.47061 2.84039H3.3374C3.06681 2.84039 2.8374 3.04823 2.8374 3.317V6.56378C2.8374 6.83255 3.06681 7.04039 3.3374 7.04039H4.9999V7.90039H2.36255C2.21739 7.90039 2.0999 7.78283 2.0999 7.63971V2.36088C2.0999 2.21799 2.21735 2.10039 2.36255 2.10039H19.6376C19.7827 2.10039 19.8999 2.21785 19.8999 2.36088V7.63971C19.8999 7.78297 19.7827 7.90039 19.6376 7.90039H16.9999V7.04039H18.6628C18.9334 7.04039 19.1628 6.83255 19.1628 6.56378V3.317C19.1628 3.04823 18.9334 2.84039 18.6628 2.84039H16.5292C16.52 2.84039 16.5108 2.84063 16.5017 2.84111C16.4717 2.8354 16.4407 2.83242 16.409 2.83242H5.59081C5.55913 2.83242 5.52815 2.8354 5.49813 2.84111ZM3.8374 3.79361V6.08718H4.97061V3.79361H3.8374ZM17.0292 3.79361V6.08718H18.1628V3.79361H17.0292Z" fill="white"/>
</svg>
