<svg width="25" height="25" viewBox="0 0 25 25" fill="none" xmlns="http://www.w3.org/2000/svg">
<path d="M15.6192 16.2863L12.9675 13.6346L10.3159 16.2863L9.25523 15.2256L11.9069 12.574L9.25522 9.92232L10.3159 8.86166L12.9675 11.5133L15.6192 8.86166L16.6798 9.92232L14.0282 12.574L16.6798 15.2256L15.6192 16.2863Z" fill="#A32A29"/>
<path fill-rule="evenodd" clip-rule="evenodd" d="M3.96753 12.574C3.96753 7.60341 7.99697 3.57397 12.9675 3.57397C17.9381 3.57397 21.9675 7.60341 21.9675 12.574C21.9675 17.5445 17.9381 21.574 12.9675 21.574C7.99697 21.574 3.96753 17.5445 3.96753 12.574ZM12.9675 5.07397C8.82539 5.07397 5.46753 8.43184 5.46753 12.574C5.46753 16.7161 8.82539 20.074 12.9675 20.074C17.1097 20.074 20.4675 16.7161 20.4675 12.574C20.4675 8.43184 17.1097 5.07397 12.9675 5.07397Z" fill="#A32A29"/>
</svg>
