<svg width="32" height="32" viewBox="0 0 32 32" fill="none" xmlns="http://www.w3.org/2000/svg">
<g clip-path="url(#clip0_2597:54340)">
<path fill-rule="evenodd" clip-rule="evenodd" d="M32.9999 -1H31.9999V0H32.9999V-1ZM25.5379 7.609L24.4539 6.525C23.6479 5.719 22.2429 5.719 21.4369 6.525L11.6799 16.281C11.5879 16.373 11.5289 16.492 11.5109 16.62L10.9689 20.414C10.9419 20.601 11.0049 20.789 11.1379 20.923C11.2509 21.038 11.4039 21.1 11.5619 21.1C11.5899 21.1 11.6189 21.098 11.6469 21.094L15.4409 20.552C15.5689 20.534 15.6889 20.474 15.7799 20.383L25.5359 10.626C25.9389 10.223 26.1609 9.688 26.1609 9.118C26.1609 8.548 25.9399 8.012 25.5379 7.609ZM15.0739 19.392L12.2699 19.793L12.6709 16.988L20.4559 9.204L22.8589 11.607L15.0739 19.392ZM23.7069 10.759L24.6889 9.777C24.8659 9.601 24.9619 9.367 24.9619 9.118C24.9619 8.869 24.8659 8.634 24.6889 8.458L23.6049 7.374C23.2529 7.02 22.6389 7.02 22.2859 7.374L21.3039 8.356L23.7069 10.759ZM25.0379 16.5V21.5C25.0379 24.037 22.9749 26.1 20.4379 26.1H10.4379C7.90089 26.1 5.83789 24.037 5.83789 21.5V11.5C5.83789 8.963 7.90089 6.9 10.4379 6.9H15.4379C15.7699 6.9 16.0379 7.169 16.0379 7.5C16.0379 7.831 15.7689 8.1 15.4379 8.1H10.4379C8.56289 8.1 7.03789 9.625 7.03789 11.5V21.5C7.03789 23.375 8.56289 24.9 10.4379 24.9H20.4379C22.3129 24.9 23.8379 23.375 23.8379 21.5V16.5C23.8379 16.168 24.1069 15.9 24.4379 15.9C24.7689 15.9 25.0379 16.168 25.0379 16.5Z" fill="#B3B4B6"/>
</g>
<defs>
<clipPath id="clip0_2597:54340">
<rect width="32" height="32" fill="white"/>
</clipPath>
</defs>
</svg>
