<svg xmlns="http://www.w3.org/2000/svg" viewBox="0 0 362.44 183.29"><defs><style>.cls-1{opacity:0.1;}.cls-2{fill:#fefefe;fill-rule:evenodd;}</style></defs><g id="Layer_2" data-name="Layer 2"><g id="Layer_1-2" data-name="Layer 1"><g class="cls-1"><path class="cls-2" d="M254.77,172.94l2.34-6.54,2.24,3.91Zm-6.64-.29,4.38-14.29,1.76,3.07-4.39,14.29Zm-4.6-8,4.38-14.29,1.76,3.06-4.39,14.29Zm-4.6-8,4.38-14.29,1.76,3.06-4.39,14.29Zm.8,24.82a3.36,3.36,0,0,1-4.59-1.23h0L235,180l-3-5.2-10.29-18-3-5.17-.1-.18a3.36,3.36,0,0,1,1.24-4.59h0l.71-.41a3.37,3.37,0,0,0-1.25,4.59l16.42,28.67a3.37,3.37,0,0,0,4.59,1.25Zm-10-5.27a10.36,10.36,0,1,1-10.28-18l1.81-1,10.29,18Zm-18.51-12.56c-.68,2.65-.66,5-1.3,4.8s-.6-2.45.08-5.1,1.75-4.66,2.39-4.5-.44,2.09-1.13,4.74Zm9.31,18.09c-2.63-.76-4.62-1.88-4.43-2.51s2.16.55,4.79,1.3,4.91.8,4.73,1.43-2.42.47-5.05-.28Zm-1.37-24a10.92,10.92,0,0,0,10.89,18.89l1.82-1,1.1,1.92-2.21,1.26-.39.19a13.12,13.12,0,0,1-12.56-23l2.12-1.21,1.1,1.91Zm49.23,3.43-16.34-28.73A3.93,3.93,0,0,0,246.7,131l-7.4,4.24,1.21,2.11-4.46,14.29-1.72-3.11,3.3-12.4.17-.61-5,2.85-.16.6-1.19,4.59-1.68-2.94-10.11,5.78a3.94,3.94,0,0,0-1.45,5.35l.11.19L216.49,153a16.3,16.3,0,0,0,15.6,28.6c.18-.08.34-.16.5-.25l1.93-1.1.1.19a3.94,3.94,0,0,0,5.36,1.45l27-15.44a3.93,3.93,0,0,0,1.45-5.31Z"/><path class="cls-2" d="M118.1,50.24A1.89,1.89,0,1,1,120,48.35h0A1.89,1.89,0,0,1,118.1,50.24Zm0-6.43a4.54,4.54,0,1,0,4.53,4.55h0A4.55,4.55,0,0,0,118.1,43.81Z"/><path class="cls-2" d="M98.2,31.61a3.36,3.36,0,0,1,3.36-3.36h33a3.38,3.38,0,0,1,3.36,3.36v.82a3.36,3.36,0,0,0-3.36-3.36h-33a3.36,3.36,0,0,0-3.36,3.34v-.8Zm33.2-12.44c-.46.47-1.62-1.49-3.58-3.4s-4-3-3.52-3.51,2.42.69,4.38,2.6S131.86,18.7,131.4,19.17Zm-19.52-6.91c.46.47-1.55,1.61-3.51,3.51s-3.13,3.87-3.59,3.4.76-2.4,2.72-4.31S111.42,11.79,111.88,12.26ZM118.05,15a10.91,10.91,0,0,0-10.88,10.64v2.1H105v-3a13.12,13.12,0,0,1,26.22.53v2.44H129v-2.1A10.92,10.92,0,0,0,118.05,15ZM107.72,27.69v-2.1a10.35,10.35,0,0,1,20.7,0v2.08Zm19.09,24.13-1.35,2.34-1.87-.92A7.6,7.6,0,0,1,122,54.61l.58,2-2.5.9-.85-1.9a6.85,6.85,0,0,1-2.12,0l-.84,1.9-2.54-.92.57-2a7.6,7.6,0,0,1-1.62-1.37l-1.87.92-1.35-2.34,1.72-1.16a7.39,7.39,0,0,1-.36-2.09l-2-.5.47-2.66,2.06.22a7.69,7.69,0,0,1,1.07-1.84l-1.23-1.67,2.07-1.74,1.44,1.51a7.79,7.79,0,0,1,2-.7l.14-2h2.7l.14,2a7.39,7.39,0,0,1,2,.68l1.44-1.5,2.07,1.74-1.23,1.68A7.69,7.69,0,0,1,125,45.61l2-.2.47,2.66-2,.5a7.39,7.39,0,0,1-.36,2.09ZM101.56,66.61h33a3.93,3.93,0,0,0,3.92-3.92V31.61a3.94,3.94,0,0,0-3.92-3.92h-.22v-2.1a16.3,16.3,0,0,0-32.58-.67v2.77h-.22a3.94,3.94,0,0,0-3.92,3.92V62.69a3.93,3.93,0,0,0,3.94,3.92Z"/><path class="cls-2" d="M218.86,98.71l9.87-25,.16-.39,1.55-3.94.27-.68.1-.24.11-.28L231,68a3.36,3.36,0,0,1,4.36-1.89h0l.76.3a3.36,3.36,0,0,0-4.36,1.89h0L219.62,99a3.36,3.36,0,0,0,1.89,4.36h0l-.76-.3a3.36,3.36,0,0,1-1.89-4.36ZM199.53,80.06a17.18,17.18,0,0,1,.89,2.49l-1-2.49Zm3.52,8.57a.32.32,0,0,1-.06.25.09.09,0,0,1-.07.08h-.07a.25.25,0,0,1-.17,0,1,1,0,0,1-.23-.12l-.19-.14c-.08-.08-.17-.15-.26-.25a3.29,3.29,0,0,1-.33-.41,5.22,5.22,0,0,1-.38-.54c-.15-.24-.31-.5-.47-.78s-.47-.9-.7-1.41c-.06-.16-.13-.3-.2-.46-.25-.59-.46-1.19-.65-1.8a12.18,12.18,0,0,1-.3-1.19,5.37,5.37,0,0,1-.11-.7,3.84,3.84,0,0,1,0-.48v-.1a1.13,1.13,0,0,1,0-.26v-.07a1,1,0,0,1,0-.16h.38l1.23,2.81c.17.48.35,1,.57,1.51,0,.13.11.25.17.38.25.58.51,1.11.76,1.59l.19.37.38.73.27.55v.19Zm9.35-24a23.33,23.33,0,0,1-2.68,1c-.47.18-1,.37-1.49.61l-1,.46c-.6.31-1.15.61-1.63.88a4.35,4.35,0,0,1-1.75.76.2.2,0,0,1-.17-.09h-.05a.2.2,0,0,1,0-.11.28.28,0,0,1,0-.18,1,1,0,0,1,.12-.23,2.32,2.32,0,0,1,.3-.22c.1-.11.21-.21.32-.31l.26-.22c.16-.12.33-.25.53-.38s.46-.31.72-.46.73-.41,1.14-.62l.7-.33a18.46,18.46,0,0,1,2.42-.9c.36-.1.7-.18,1-.24a3.25,3.25,0,0,1,.58-.07h.69v.66Zm-2.62,24.44,2,.79c.22.09.44.19.65.3l.21.14.36.23a2.09,2.09,0,0,1,.22.2,2.75,2.75,0,0,1,.26.22c.07.07.13.15.2.23l.19.22c.06.09.1.17.15.26a1,1,0,0,1,.13.22c0,.09.07.18.11.27s0,.14.07.22v.49a1,1,0,0,1,0,.25v.13h0L208.57,91c-.13,0-.26-.12-.39-.18a13.12,13.12,0,0,1,10.13-24.19l10.93,4.32-.46,1.17-.35.88-10.61-4.19a10.92,10.92,0,0,0-8,20.3Zm26.42-4.48a7.21,7.21,0,0,0,.05-1.47V82.9l2.69-.28,17.55,3.46-1,4.83L238,87.51h-.08L254.31,94l-1.81,4.52-16.63-6.57-2.39-1,.18-.25h0a6.45,6.45,0,0,0,.83-1.5l.15-.41a7.86,7.86,0,0,0,.31-1.44.74.74,0,0,1,0-.21c.78,0,1.56.12,2.34.18l-1.87-.37c0-.1.1-.19.14-.28h0A6.57,6.57,0,0,0,236.1,85a2.58,2.58,0,0,0,.11-.42Zm14.45,18.62-16.6-6.57c-.7-.58-1.4-1.13-2.1-1.7a1.83,1.83,0,0,1,.13-.16,7.31,7.31,0,0,0,.75-1.27c.06-.13.12-.26.17-.4a6.76,6.76,0,0,0,.43-1.66h0v-.31l2.39.94,16.64,6.57Zm-30.1.38L249.45,115a3.92,3.92,0,0,0,5.09-2.2h0l12.14-30.73A3.94,3.94,0,0,0,264.47,77L235.56,65.57a3.92,3.92,0,0,0-5.08,2.21l-.08.2-10.61-4.19a16.3,16.3,0,0,0-12.6,30.05c.17.09.34.16.5.23l2.11.83c2.19.87,4.38.33,5-1.22s-.62-3.45-2.81-4.31l-2-.79a10.36,10.36,0,0,1,7.63-19.25l10.59,4.18h0l-9.87,25A3.92,3.92,0,0,0,220.55,103.59Z"/><path class="cls-2" d="M233.05,93.13v.08c0,.11-.1.22-.15.33a7.11,7.11,0,0,1-.72,1.22l.78.58,1.19.89,1.51-3.83-2.22-.89A7.37,7.37,0,0,1,233.05,93.13Z"/><path class="cls-2" d="M235.05,87.45a6.5,6.5,0,0,1-.3,1.39l-.12.34v.08a7.7,7.7,0,0,1-.78,1.44l2.17.86,1.51-3.83-1.48-.17Z"/><path class="cls-2" d="M238.05,87.08l.18-.92-.15.74Z"/><path class="cls-2" d="M238.79,83l-1.49.1-1,.07a7.47,7.47,0,0,1-.05,1.42.76.76,0,0,1-.06.36c-.06.12,0,0,0,.07a7.12,7.12,0,0,1-.51,1.56l2.29.45Z"/><path class="cls-2" d="M168.4,33.82l4.44,1.27,2.21-1.25.6,1.08-.28.16-.18-.32h0l-.14-.35-1.54.86-.7.39-.27-.07-.89-.26-.19,0-1.88-.54.67,1.21.28.51-.49.28-.44.24-4.91,2.74,1.14,2.05,4.06-2.26,1.16,2L167,43.79l1.15,2.05,4.9-2.73.44-.25.23-.12.27-.16.28.51.68,1.21L176.7,38a1.24,1.24,0,0,0-.85-1.53l-2-.57-.67-.2.69-.39,1.08-.6v.08l.2.36-.64.36,1.47.41a1.82,1.82,0,0,1,1.25,2.24h0l-2.18,7.63-1.34-2.4-5.86,3.27-1.4-2.57-.24-.42.52-.29,3.55-2-.67-1.21-3.56,2-.51.29-.23-.42-1.44-2.55,5.86-3.27Zm6.86-19.43a3.38,3.38,0,0,1,4.57,1.3l.11.21,2.89,5.18,10.08,18.08,2.9,5.2.11.19a3.36,3.36,0,0,1-1.3,4.57l-.72.4A3.36,3.36,0,0,0,195.2,45L179.11,16.09a3.36,3.36,0,0,0-4.57-1.3Zm9.89,5.39a10.36,10.36,0,0,1,10.07,18.09l-1.82,1L183.32,20.81Zm18.36,12.73c.71-2.64.72-4.95,1.36-4.78s.57,2.45-.14,5.09-1.8,4.65-2.43,4.47S202.8,35.19,203.51,32.51Zm-9.09-18.15c2.62.78,4.59,1.93,4.4,2.56s-2.16-.58-4.78-1.36-4.9-.85-4.71-1.48S191.8,13.58,194.42,14.36Zm1.09,24a10.92,10.92,0,0,0-10.63-19.07l-1.83,1L182,18.39l2.22-1.24.39-.19a13.12,13.12,0,0,1,12.3,23.16l-2.13,1.19-1.08-1.93ZM167.74,64.74l27.15-15.13a3.9,3.9,0,0,0,1.52-5.31v0l-.1-.19,1.83-1a16.31,16.31,0,0,0-15.27-28.81l-.49.25-2,1.08-.1-.19A4,4,0,0,0,175,13.9L147.84,29a3.92,3.92,0,0,0-1.52,5.33l16.09,28.86a3.91,3.91,0,0,0,5.32,1.52Z"/><path class="cls-2" d="M29.88,108.28l.82-.06a3.37,3.37,0,0,0-3.1,3.61l2.45,32.94a3.37,3.37,0,0,0,3.61,3.1l-.82.06a3.36,3.36,0,0,1-3.6-3.1l-2.46-32.94A3.37,3.37,0,0,1,29.88,108.28Zm5.74,11.32,22-1.65a1.67,1.67,0,0,1,1.76,1.56h0l1,12.79a1.65,1.65,0,0,1-1.52,1.76l-17.38,1.31a.23.23,0,0,1-.22.23,16.68,16.68,0,0,0-3.93.29.25.25,0,0,1-.24-.2h-.22a1.64,1.64,0,0,1-1.81-1.46.22.22,0,0,1,0-.08l-1-12.78a1.63,1.63,0,0,1,1.52-1.76ZM2.51,124.09H2.32a.23.23,0,0,1-.06-.12.48.48,0,0,1-.06-.18v-.26a2,2,0,0,1,.09-.33q.06-.2.15-.42c.07-.16.15-.33.25-.51s.24-.44.38-.67.4-.62.63-.94.55-.75.87-1.14a18,18,0,0,1,2-2c.25-.22.48-.39.7-.55s.33-.21.5-.31a1.86,1.86,0,0,1,.28-.21h.59v.07h0v.07h0a3.78,3.78,0,0,1-.89,1.13l-1,1c-.41.42-.86.9-1.3,1.43s-.77,1-1.1,1.42C3.54,123,2.91,124,2.51,124.09Zm.77,12.33h.07a.39.39,0,0,1,.3,0,4.89,4.89,0,0,1,1,.87c.37.38.81.85,1.31,1.35.33.33.68.67,1.06,1s1,.84,1.46,1.19c1.23.93,2.19,1.56,2.24,2a.31.31,0,0,1,0,.19.51.51,0,0,1-.41.1H10L9.66,143l-.48-.22-.58-.33c-.24-.15-.49-.31-.76-.5s-.84-.62-1.27-1l-.35-.29c-.55-.49-1-1-1.47-1.45a9.91,9.91,0,0,1-.82-1c-.15-.2-.27-.39-.38-.56a2.47,2.47,0,0,1-.2-.4h0v-.73Zm2.18-6.37A10.93,10.93,0,0,0,16.9,140.14l2.15-.16h1a3.18,3.18,0,0,1,.43.06l.27.06.35.1.26.11.29.13.24.15.22.15.2.19.17.18.15.21a2,2,0,0,1,.11.2,2.25,2.25,0,0,1,.08.24.28.28,0,0,1,0,.13h0l-6.17.46h-.42a13.12,13.12,0,0,1-1.43-26.15l11.72-.88v.51l.12,1.69-11.38.85A10.92,10.92,0,0,0,5.46,130.05Zm9.86-11.12,11.36-.85,2,26.8a3.91,3.91,0,0,0,4.2,3.61l31-2.32a3.91,3.91,0,0,0,3.61-4.2L65.05,109a3.92,3.92,0,0,0-4.2-3.62h0l-31,2.32a3.94,3.94,0,0,0-3.62,4.21v.22L14.86,113a16.29,16.29,0,0,0,1.76,32.51,5,5,0,0,0,.55,0l2.27-.17c2.34-.17,4.08-1.62,4-3.28s-2.06-2.83-4.41-2.65l-2.14.16a10.36,10.36,0,0,1-1.53-20.65Z"/><path class="cls-2" d="M59.54,131.79a.14.14,0,0,0-.12.14.12.12,0,0,0,.14.11.12.12,0,0,0,.11-.13h0a.12.12,0,0,0-.12-.12Z"/><path class="cls-2" d="M59.58,132.39a.12.12,0,0,0-.12.12.12.12,0,0,0,.12.12h0a.12.12,0,0,0,.12-.12.12.12,0,0,0-.12-.12Z"/><path class="cls-2" d="M59.56,132.09a.12.12,0,0,0-.12.12h0a.14.14,0,0,0,.14.12.11.11,0,0,0,.11-.13h0a.11.11,0,0,0-.11-.11Z"/><path class="cls-2" d="M58.55,125.05a.91.91,0,1,1-.84,1,.91.91,0,0,1,.84-1Zm.15,2a1.05,1.05,0,1,0-.16-2.1,1,1,0,0,0-1,1,.61.61,0,0,0,0,.14,1.05,1.05,0,0,0,1.16.93Z"/><path class="cls-2" d="M36.7,135l20.35-1.53a.88.88,0,0,0,.78-1v0l-1-12.79a.9.9,0,0,0-.91-.85L35.58,120.3a.89.89,0,0,0-.78,1h0l1,12.79A.89.89,0,0,0,36.7,135Z"/><path class="cls-2" d="M130.5,125.07a3.35,3.35,0,0,1-.9,4.65h0l-.68.46a3.37,3.37,0,0,0,.92-4.67L111.38,98.11a3.36,3.36,0,0,0-4.65-.92h0l.68-.46a3.38,3.38,0,0,1,4.66.92l15,22.29,3.32,4.94Zm-21.45-9.4,4.27,6.35-4,2.69-4.27-6.34Zm5.29,9.7-12.22,8.22-1.07-1.67-6.46-9.6L93.5,120.7l13.18-8.87.61.9-.12.08,1.76,2.61-4.26,2.87,4.61,6.85,4.26-2.87.13.2.12-.08.91,1.36Zm14.89-35.09v-.44h.06l.24-.11h.06l.31-.07h2.23a19.32,19.32,0,0,1,2,.31c.45.1.88.21,1.28.32s.71.21,1,.32l.71.28.53.25.39.21.31.22c.08.07.14.14.2.2a.72.72,0,0,1,.11.19.48.48,0,0,1,0,.17h0a.19.19,0,0,1-.09.12.6.6,0,0,1-.39.08,4.62,4.62,0,0,1-.74-.15c-.49-.13-1.11-.33-1.83-.54-.56-.16-1.17-.32-1.82-.46s-1.49-.26-2.14-.34a8.4,8.4,0,0,1-2.53-.48Zm15.05,19c.17-.62.34-1.31.47-2s.23-1.53.3-2.2c.13-1.36.19-2.37.47-2.62a.25.25,0,0,1,.17,0h0l.12.08a.5.5,0,0,1,.14.15,1.27,1.27,0,0,1,.12.23,2.49,2.49,0,0,1,.09.37,10.46,10.46,0,0,1,0,2.85c0,.45-.11.92-.19,1.41a16.24,16.24,0,0,1-.85,3.07,8,8,0,0,1-.44.94,3.71,3.71,0,0,1-.23.32,1.7,1.7,0,0,1-.19.19.81.81,0,0,1-.18.1.25.25,0,0,1-.17,0h0a.18.18,0,0,1-.14-.1,8.36,8.36,0,0,1,.55-2.74Zm-4.23-10.54a10.93,10.93,0,0,0-14.93-3.11l-1.78,1.19a3.85,3.85,0,0,1-.62.36l-.23.1a3.2,3.2,0,0,1-.39.16l-.28.08-.34.08h-1.15l-.27-.06-.23-.07-.23-.12a.82.82,0,0,1-.2-.12,1,1,0,0,1-.19-.16.28.28,0,0,1-.1-.09h0l5.15-3.47c.12-.08.24-.16.37-.23a13.12,13.12,0,0,1,14.19,22.06l-9.77,6.59-1.23-1.83,9.46-6.37A10.91,10.91,0,0,0,140.05,98.74Zm7,9.09a16.3,16.3,0,0,0-24.32-17,5.55,5.55,0,0,0-.48.29l-1.88,1.26c-2,1.31-2.75,3.43-1.82,4.81s3.19,1.44,5.15.13l1.77-1.2A10.36,10.36,0,0,1,137,113.31l-9.45,6.36-15-22.3a3.92,3.92,0,0,0-5.42-1.15l-.1.06L81.3,113.63a3.92,3.92,0,0,0-1.07,5.44h0l18.45,27.44a3.92,3.92,0,0,0,5.44,1l25.79-17.35a3.93,3.93,0,0,0,1.06-5.44l-.12-.19,9.46-6.37A16.21,16.21,0,0,0,147.05,107.83Z"/><path class="cls-2" d="M107.05,127l-5.53-8.22h.07l5.46,8.17Zm-.89.59-5.53-8.21h.07l5.49,8.18Zm-.89.6-5.53-8.21h.07l5.53,8.22Zm-.89.6-5.57-8.23h.07l5.53,8.21Zm-.89.6L98,121.12H98l5.53,8.21Zm-.89.6-5.55-8.22h.07l5.53,8.22Zm-.89.6-5.53-8.22h.07l5.49,8.19Zm-6.89-8.36,6.47,9.6,7.22-4.85-6.46-9.61Z"/><path class="cls-2" d="M111.66,120l-3.61,2.4.91,1.35,3.57-2.4Z"/><path class="cls-2" d="M330.3,168.44a18.51,18.51,0,0,0,7.87,3l-.18,1.67a19.89,19.89,0,0,1-8.68-3.33Zm-7.78-6.59,1.53-.68a18.53,18.53,0,0,0,5.24,6.51l-1,1.35A20.25,20.25,0,0,1,322.52,161.85Zm-1.92-10.27,1.67.18a18.34,18.34,0,0,0,1.26,8.26l-1.54.68a20,20,0,0,1-1.39-9.12Zm3.49-9.93,1.35,1a18.64,18.64,0,0,0-3,7.87l-1.67-.18a20.07,20.07,0,0,1,3.28-8.69Zm8-6.76.68,1.54a18.55,18.55,0,0,0-6.54,5.21l-1.35-1a20.36,20.36,0,0,1,7.17-5.75ZM342.37,133l-.18,1.66a18.53,18.53,0,0,0-8.27,1.24l-.68-1.54a20.2,20.2,0,0,1,9.1-1.36Zm8.81,4.81a18.56,18.56,0,0,0-7.74-3l.18-1.67a20.07,20.07,0,0,1,8.55,3.31Zm7.78,6.59-1.54.68a18.65,18.65,0,0,0-5.24-6.52l1-1.35a20.41,20.41,0,0,1,5.75,7.19Zm1.91,10.27-1.67-.18a18.43,18.43,0,0,0-1.26-8.27l1.54-.68a20.08,20.08,0,0,1,1.36,9.13Zm-3.42,9.8-1.4-1a18.51,18.51,0,0,0,3-7.74l1.66.18a20.08,20.08,0,0,1-3.29,8.56Zm-7.92,6.82-.68-1.54a18.55,18.55,0,0,0,6.5-5.26l1.35,1a20.19,20.19,0,0,1-7.2,5.8Zm-10.26,2,.18-1.67a18.36,18.36,0,0,0,8.26-1.29l.68,1.54a19.88,19.88,0,0,1-9.15,1.37Zm-15-13.53a17.8,17.8,0,0,1-1.2-7.88v-.64a3.88,3.88,0,0,1,.1-.61,17.74,17.74,0,0,1,2.9-7.5c.24-.35.5-.68.76-1a18,18,0,0,1,6.23-5c.38-.18.76-.35,1.15-.51a17.8,17.8,0,0,1,7.88-1.17h.57a4.13,4.13,0,0,1,.69.11,17.59,17.59,0,0,1,7.37,2.86,12.41,12.41,0,0,1,1,.75,18,18,0,0,1,5,6.21c.18.38.36.75.52,1.14a17.82,17.82,0,0,1,1.2,7.88V155a4.55,4.55,0,0,1-.09.63,17.81,17.81,0,0,1-2.83,7.37c-.24.35-.49.68-.75,1a17.89,17.89,0,0,1-6.19,5c-.38.18-.76.37-1.14.53a17.68,17.68,0,0,1-7.88,1.23h-.7a4.85,4.85,0,0,1-.55-.09,17.4,17.4,0,0,1-7.5-2.88,12.41,12.41,0,0,1-1-.75,17.87,17.87,0,0,1-5-6.21,6,6,0,0,1-.59-1.15Zm38-4.26a21.72,21.72,0,1,0-23.95,19.24h0a21.71,21.71,0,0,0,23.93-19.23Z"/><path class="cls-2" d="M330,166.79c.33.26.66.51,1,.75a17.17,17.17,0,0,0,7.33,2.81c.18,0,.36.07.55.09h.7a17.29,17.29,0,0,0,7.69-1.21c.39-.16.77-.34,1.15-.52a17.51,17.51,0,0,0,6-4.91c.26-.33.52-.66.75-1a17.34,17.34,0,0,0,2.77-7.2,4.58,4.58,0,0,1,.1-.63,4.28,4.28,0,0,0,0-.62,17.32,17.32,0,0,0-1.17-7.7c-.16-.39-.34-.77-.52-1.15a17.64,17.64,0,0,0-4.88-6.07c-.33-.26-.66-.52-1-.75a17.38,17.38,0,0,0-7.2-2.8l-.69-.11H342a17.5,17.5,0,0,0-7.71,1.15c-.39.16-.77.34-1.14.52a17.54,17.54,0,0,0-6.09,4.85c-.26.33-.52.66-.76,1a17.26,17.26,0,0,0-2.84,7.33,4.55,4.55,0,0,1-.1.61,4.56,4.56,0,0,0,0,.64,17.26,17.26,0,0,0,1.17,7.69c.16.4.34.78.53,1.15A17.4,17.4,0,0,0,330,166.79Z"/><path class="cls-2" d="M316.38,173.57a1,1,0,0,1-.33.61l-6.51-1.38h0l-3.21-.73h0l-1.7-.32h-.35a15.1,15.1,0,0,1-4.43-27.24,15.31,15.31,0,0,1,11.2-2.25l6.43,1.36c-.16.39-.32.79-.46,1.19l-5.79-1.23v.13l-.51-.11h0a13.71,13.71,0,0,0-5.67,26.81h.08l1.53.27,6.16,1.2h0l3.67.88A2,2,0,0,1,316.38,173.57Zm.63-3.17-8.5-1.79-.64-.13-2.29-.5a11.2,11.2,0,0,1,4.65-21.91l2.27.49.65.13v-.12l5.59,1.18a21.68,21.68,0,0,1,2.43-5.92l-6.71-1.42-.65-.14-2.29-.48a17.62,17.62,0,0,0-8,34.29c.2.06.39-.2.58-.16l2.39.18h0v.58l9.11,2c1.41.29,2.81-.86,3.17-2.58s-.36-3.41-1.72-3.7Z"/><path class="cls-2" d="M272.58,39.51l-.42.7a3.36,3.36,0,0,0-1.08-4.63l0,0L242.78,18.42a3.37,3.37,0,0,0-4.62,1.09l.42-.7a3.39,3.39,0,0,1,4.62-1.09l28.25,17.14a3.36,3.36,0,0,1,1.15,4.61ZM255.9,3.73H256V3l.3-.2q.26-.15.57-.3c.27-.12.56-.25.88-.36a16.17,16.17,0,0,1,2.28-.68,20.25,20.25,0,0,1,2.18-.37h2.07l.37.07h0l.23.1a.64.64,0,0,1,.15.13.46.46,0,0,1,.09.12h0a.2.2,0,0,1-.05.18,4.09,4.09,0,0,1-2,.5l-1.63.25-1.17.23c-.84.2-1.62.44-2.29.65l-.56.18c-.35.12-.66.21-.93.28a3,3,0,0,1-.52.11V3.74Zm22.47,13.63h-.32a8.19,8.19,0,0,1-.63-2.59c-.11-.63-.24-1.33-.43-2.06s-.35-1.23-.54-1.77c-.25-.74-.48-1.37-.64-1.87a3.33,3.33,0,0,1-.16-.64A.53.53,0,0,1,275.7,8s.05-.09.11-.1H276a1.18,1.18,0,0,1,.19.11l.21.18c.07.09.16.19.24.31s.22.35.34.56.28.58.42.91a18.57,18.57,0,0,1,.79,2.39c.16.6.28,1.17.37,1.71s.11.81.14,1.17a7.61,7.61,0,0,1,0,1.35c0,.13,0,.26-.07.38a.64.64,0,0,1-.1.24.45.45,0,0,1-.1.13ZM269.05,7A10.93,10.93,0,0,0,254.2,10.4l-1.15,1.83a4,4,0,0,1-.41.58l-.18.21c-.1.1-.18.2-.28.29l-.23.2-.26.21-.26.16-.25.14-.27.12-.25.09h-1l-.25-.08h-.12l3.21-5.3a2.71,2.71,0,0,1,.24-.35,13.12,13.12,0,0,1,22.13,14.05L268.78,32.6,267,31.51l5.91-9.75A10.92,10.92,0,0,0,269.05,7Zm-32,41.35a4.79,4.79,0,0,1-6.6,1.58l-.08-.05h-.08l-8.14-4.94-1-.61a4.78,4.78,0,1,1,4.9-8.21h0A4.09,4.09,0,1,0,221.7,43l.12.07,1,.62,8.22,5a4.09,4.09,0,0,0,5.64-1.3l0,0a4,4,0,0,0,.24-3.76,4.24,4.24,0,0,0-1.07-1.45A4.74,4.74,0,0,1,237.05,48.3Zm42.13-36a16.15,16.15,0,0,0-7.34-9.94A16.31,16.31,0,0,0,250,7.05l-.31.45-1.18,1.94c-1.22,2-1.06,4.27.37,5.14s3.5,0,4.72-2.05l1.11-1.83a10.36,10.36,0,0,1,17.7,10.74l-5.91,9.74h0l-23-13.94a3.92,3.92,0,0,0-5.38,1.32l-1,1.81,8.22,5c2.31,1.41,2.78,4.89,1.37,7.21a5.81,5.81,0,0,1-3.59,2.53l-.38.08-.39.06H242A4.71,4.71,0,0,1,236,42a4.08,4.08,0,0,0,3.59-7.3h0l-.08,0-4.86-3-3.28-2-1-.62a4.09,4.09,0,1,0-4.24,7,4.8,4.8,0,0,1-1.78-6.55l.05-.08a4.72,4.72,0,0,1,3.87-2.27h.47a5.16,5.16,0,0,1,2.32.71l-.57-.35a4.6,4.6,0,0,0-1.87-.62,5.8,5.8,0,0,1,.37-5.07,5.26,5.26,0,0,1,1.25-1.24,4.47,4.47,0,0,0-1.72,1.62l-.25.4a4.54,4.54,0,0,0-.18,4.39,4.55,4.55,0,0,0-3.85,2.17l-.25.4a4.54,4.54,0,0,0,1.52,6.23,4.52,4.52,0,0,0-6.21,1.51h0l-.25.41a4.54,4.54,0,0,0,1.53,6.23l1.59,1-.17.29a3.93,3.93,0,0,0,1.35,5.34l28.25,17.14a3.93,3.93,0,0,0,5.39-1.31l16.11-26.57a3.93,3.93,0,0,0-1.32-5.39l-.19-.11,5.93-9.76a16.22,16.22,0,0,0,1.72-12.22Z"/><path class="cls-2" d="M229.62,22.27A4.09,4.09,0,0,0,231,27.89l0,0,1,.62,8.22,5a4.09,4.09,0,0,0,5.64-1.3l0,0a4,4,0,0,0,.23-3.77,4.23,4.23,0,0,0-1.64-1.91h-.08l-8.14-5-1-.62a4.12,4.12,0,0,0-5.66,1.34Z"/><path class="cls-2" d="M340.45,105.51a15.41,15.41,0,0,0-6.61-27.27l-.52-.09-2.12-.28c-2.21-.29-4.09.71-4.3,2.28s1.37,3,3.57,3.3l2,.26a9.79,9.79,0,0,1-2.55,19.4l-10-1.31L323.55,74a4.76,4.76,0,0,0-9.19-2.27h-.26a4.76,4.76,0,0,0-9.2-1.2l-1.61-.21a4.76,4.76,0,0,0-9.2-1.2h-.26a4.76,4.76,0,0,0-9.47-.16l-4.59,35.13a4.76,4.76,0,0,0,8.67,3.28l1,.14a4.74,4.74,0,0,0,8.43,1l2.38.32a4.74,4.74,0,0,0,8.43,1.1l1,.13a4.75,4.75,0,0,0,9.21-.94l.23-1.77,10.06,1.32A15.33,15.33,0,0,0,340.45,105.51Z"/><path class="cls-2" d="M178.51,148.21a4.76,4.76,0,0,0,5-3.12h.26A4.76,4.76,0,0,0,193,146.2l1.61.2a4.76,4.76,0,0,0,9.21,1.11h.26a4.77,4.77,0,0,0,9.47.07l4.3-35.07a4.76,4.76,0,0,0-8.7-3.19l-1-.13a4.73,4.73,0,0,0-8.43-1l-2.39-.29a4.74,4.74,0,0,0-8.44-1l-1-.12a4.76,4.76,0,0,0-9.21,1l-.28,1.73-10.07-1.22A15.41,15.41,0,0,0,164,138.78a3,3,0,0,0,.52.08l2.13.26c2.2.27,4.08-.75,4.27-2.31s-1.39-3-3.6-3.27l-2-.24a9.79,9.79,0,0,1,2.36-19.43l10,1.22-3.36,27.83A4.78,4.78,0,0,0,178.51,148.21Z"/><path class="cls-2" d="M55.05,36.41A10.17,10.17,0,0,1,63,46.57,2.13,2.13,0,0,0,61.62,48V48a2.8,2.8,0,0,0-1.38,1.71h0L44.24,46a2.74,2.74,0,0,0-.46-2.15v-.06a2.1,2.1,0,0,0-.43-1.65A10.16,10.16,0,0,1,55.05,36.41ZM25.69,78.87a1.33,1.33,0,0,1-.19.42,3.32,3.32,0,0,0,2.25,2L59,88.66A3.77,3.77,0,0,0,62,88a1.1,1.1,0,0,1,0-.57,1.17,1.17,0,0,1,1.34-.86,3.65,3.65,0,0,0,.41-1.07l.19-.8a.38.38,0,0,1-.15,0,1.16,1.16,0,0,1,.54-2.26h0l.13.07.32-1.35h0a1.28,1.28,0,0,1-1-1.48v-.06a1.29,1.29,0,0,1,1.51-.91h0L65.65,77H65.5a1.16,1.16,0,1,1,.55-2.26l.14.06.32-1.37h-.14a1.14,1.14,0,0,1-.87-1.36v0a1.16,1.16,0,0,1,1.39-.86.17.17,0,0,1,.13.06l.37-1.55h-.15a1.16,1.16,0,1,1,.38-2.29l.16,0,.13.06.46-1.93h-.15a1.16,1.16,0,0,1,.53-2.25l.14.06.36-1.56h-.14a1.2,1.2,0,0,1-.88-1.44,1.21,1.21,0,0,1,1.45-.88l.13.06L70.19,58H70a1.16,1.16,0,0,1,.53-2.25h.11a3.94,3.94,0,0,0-1.5-3.62,2,2,0,0,0,.12-.34,2.81,2.81,0,0,0-.47-2.14V49.6a2.14,2.14,0,0,0-.57-1.83,15.73,15.73,0,0,0-30.37-7.25,2.17,2.17,0,0,0-1.45,1.42V42a2.81,2.81,0,0,0-1.39,1.79v.33a3.78,3.78,0,0,0-2.76,2.66A1.13,1.13,0,0,1,31.75,49l-.39,1.55a1.13,1.13,0,0,1-.52,2.19l-.37,1.56a1.16,1.16,0,0,1,.72,1.33,1.13,1.13,0,0,1-1.24.92l-.46,1.94a1.15,1.15,0,0,1,.72,1.33,1.12,1.12,0,0,1-1.23.86l-.37,1.57a1.12,1.12,0,0,1-.52,2.17l-.33,1.37a1.16,1.16,0,0,1,.72,1.33,1.12,1.12,0,0,1-1.23.86l-.42,1.74a1.31,1.31,0,0,1,.89,1.45v.06a1.27,1.27,0,0,1-1.44.89L26,73.45a1.13,1.13,0,0,1-.51,2.19l-.19.8a4.51,4.51,0,0,0-.11,1.21A1.14,1.14,0,0,1,25.69,78.87Z"/></g></g></g></svg>