<svg width="20" height="20" viewBox="0 0 20 20" fill="none" xmlns="http://www.w3.org/2000/svg">
<path fill-rule="evenodd" clip-rule="evenodd" d="M10 2.5C5.85786 2.5 2.5 5.85787 2.5 10C2.5 14.1421 5.85786 17.5 10 17.5C14.1421 17.5 17.5 14.1421 17.5 10C17.5 5.85786 14.1421 2.5 10 2.5Z" fill="#E60000"/>
<path fill-rule="evenodd" clip-rule="evenodd" d="M7.31757 10.0578C7.49099 9.879 7.77217 9.879 7.94559 10.0578L9.50659 11.6672L9.50659 7.1766C9.50659 6.92374 9.71645 6.71875 9.97534 6.71875C10.2342 6.71875 10.4441 6.92374 10.4441 7.1766L10.4441 11.7181L12.0544 10.0578C12.2278 9.879 12.509 9.879 12.6824 10.0578C12.8559 10.2366 12.8559 10.5265 12.6824 10.7053L10.314 13.1472C10.1406 13.326 9.85941 13.326 9.68599 13.1472L7.31757 10.7053C7.14414 10.5265 7.14414 10.2366 7.31757 10.0578Z" fill="white"/>
</svg>
