<svg width="24" height="24" viewBox="0 0 24 24" fill="none" xmlns="http://www.w3.org/2000/svg">
<path d="M24 12C24 18.6274 18.6274 24 12 24C5.37259 24 2.37703e-06 18.6274 2.95642e-06 12C3.53581e-06 5.37258 5.37259 2.78888e-07 12 8.58275e-07C18.6274 1.43766e-06 24 5.37259 24 12Z" fill="#F38707"/>
<circle cx="12" cy="12" r="12" transform="rotate(-180 12 12)" fill="#F38707"/>
<path fill-rule="evenodd" clip-rule="evenodd" d="M17.832 8.15816C18.056 8.36905 18.056 8.71095 17.832 8.92184L9.42025 16.8418C9.19628 17.0527 8.83314 17.0527 8.60916 16.8418L5.16798 13.6018C4.94401 13.391 4.94401 13.049 5.16798 12.8382C5.39196 12.6273 5.7551 12.6273 5.97908 12.8382L9.01471 15.6963L17.0209 8.15816C17.2449 7.94728 17.608 7.94728 17.832 8.15816Z" fill="white" stroke="white" stroke-width="0.2" stroke-linecap="round" stroke-linejoin="round"/>
</svg>
