<svg width="77" height="32" viewBox="0 0 77 32" fill="none" xmlns="http://www.w3.org/2000/svg">
<rect width="77" height="32" rx="16" fill="white"/>
<rect width="77" height="32" rx="16" fill="#58595B" fill-opacity="0.1"/>
<path d="M21.9142 13L20.5 11.5858L13.5 18.5858L11 16.0858L9.58579 17.5L13.5 21.4142L21.9142 13Z" fill="#58595B"/>
<path fill-rule="evenodd" clip-rule="evenodd" d="M16 4C9.37258 4 4 9.37258 4 16C4 22.6274 9.37258 28 16 28C22.6274 28 28 22.6274 28 16C28 9.37258 22.6274 4 16 4ZM6 16C6 10.4772 10.4772 6 16 6C21.5228 6 26 10.4772 26 16C26 21.5228 21.5228 26 16 26C10.4772 26 6 21.5228 6 16Z" fill="#58595B"/>
<path d="M46.0449 18.7207C46.0449 19.2285 45.918 19.6621 45.6641 20.0215C45.4141 20.377 45.0625 20.6484 44.6094 20.8359C44.1562 21.0234 43.623 21.1172 43.0098 21.1172C42.6855 21.1172 42.3789 21.1016 42.0898 21.0703C41.8008 21.0391 41.5352 20.9941 41.293 20.9355C41.0508 20.877 40.8379 20.8047 40.6543 20.7188V19.7637C40.9473 19.8848 41.3047 19.998 41.7266 20.1035C42.1484 20.2051 42.5898 20.2559 43.0508 20.2559C43.4805 20.2559 43.8438 20.1992 44.1406 20.0859C44.4375 19.9688 44.6621 19.8027 44.8145 19.5879C44.9707 19.3691 45.0488 19.1074 45.0488 18.8027C45.0488 18.5098 44.9844 18.2656 44.8555 18.0703C44.7266 17.8711 44.5117 17.6914 44.2109 17.5312C43.9141 17.3672 43.5078 17.1934 42.9922 17.0098C42.6289 16.8809 42.3086 16.7402 42.0312 16.5879C41.7539 16.4316 41.5215 16.2559 41.334 16.0605C41.1465 15.8652 41.0039 15.6387 40.9062 15.3809C40.8125 15.123 40.7656 14.8281 40.7656 14.4961C40.7656 14.0391 40.8809 13.6484 41.1113 13.3242C41.3457 12.9961 41.668 12.7461 42.0781 12.5742C42.4922 12.3984 42.9668 12.3105 43.502 12.3105C43.959 12.3105 44.3809 12.3535 44.7676 12.4395C45.1582 12.5254 45.5156 12.6406 45.8398 12.7852L45.5293 13.6406C45.2207 13.5117 44.8926 13.4043 44.5449 13.3184C44.2012 13.2324 43.8457 13.1895 43.4785 13.1895C43.1113 13.1895 42.8008 13.2441 42.5469 13.3535C42.2969 13.459 42.1055 13.6094 41.9727 13.8047C41.8398 14 41.7734 14.2324 41.7734 14.502C41.7734 14.8027 41.8359 15.0527 41.9609 15.252C42.0898 15.4512 42.293 15.6289 42.5703 15.7852C42.8516 15.9375 43.2227 16.0977 43.6836 16.2656C44.1875 16.4492 44.6152 16.6445 44.9668 16.8516C45.3184 17.0547 45.5859 17.3047 45.7695 17.6016C45.9531 17.8945 46.0449 18.2676 46.0449 18.7207ZM50.123 14.4609C50.6699 14.4609 51.1387 14.582 51.5293 14.8242C51.9199 15.0664 52.2188 15.4062 52.4258 15.8438C52.6328 16.2773 52.7363 16.7852 52.7363 17.3672V17.9707H48.3008C48.3125 18.7246 48.5 19.2988 48.8633 19.6934C49.2266 20.0879 49.7383 20.2852 50.3984 20.2852C50.8047 20.2852 51.1641 20.248 51.4766 20.1738C51.7891 20.0996 52.1133 19.9902 52.4492 19.8457V20.7012C52.125 20.8457 51.8027 20.9512 51.4824 21.0176C51.166 21.084 50.791 21.1172 50.3574 21.1172C49.7402 21.1172 49.2012 20.9922 48.7402 20.7422C48.2832 20.4883 47.9277 20.1172 47.6738 19.6289C47.4199 19.1406 47.293 18.543 47.293 17.8359C47.293 17.1445 47.4082 16.5469 47.6387 16.043C47.873 15.5352 48.2012 15.1445 48.623 14.8711C49.0488 14.5977 49.5488 14.4609 50.123 14.4609ZM50.1113 15.2578C49.5918 15.2578 49.1777 15.4277 48.8691 15.7676C48.5605 16.1074 48.377 16.582 48.3184 17.1914H51.7168C51.7129 16.8086 51.6523 16.4727 51.5352 16.1836C51.4219 15.8906 51.248 15.6641 51.0137 15.5039C50.7793 15.3398 50.4785 15.2578 50.1113 15.2578ZM57.4297 14.4609C58.1914 14.4609 58.7676 14.6484 59.1582 15.0234C59.5488 15.3945 59.7441 15.9922 59.7441 16.8164V21H58.7832V16.8809C58.7832 16.3457 58.6602 15.9453 58.4141 15.6797C58.1719 15.4141 57.7988 15.2812 57.2949 15.2812C56.584 15.2812 56.084 15.4824 55.7949 15.8848C55.5059 16.2871 55.3613 16.8711 55.3613 17.6367V21H54.3887V14.5781H55.1738L55.3203 15.5039H55.373C55.5098 15.2773 55.6836 15.0879 55.8945 14.9355C56.1055 14.7793 56.3418 14.6621 56.6035 14.584C56.8652 14.502 57.1406 14.4609 57.4297 14.4609ZM63.8223 20.3203C63.9824 20.3203 64.1465 20.3066 64.3145 20.2793C64.4824 20.252 64.6191 20.2188 64.7246 20.1797V20.9355C64.6113 20.9863 64.4531 21.0293 64.25 21.0645C64.0508 21.0996 63.8555 21.1172 63.6641 21.1172C63.3242 21.1172 63.0156 21.0586 62.7383 20.9414C62.4609 20.8203 62.2383 20.6172 62.0703 20.332C61.9062 20.0469 61.8242 19.6523 61.8242 19.1484V15.3398H60.9102V14.8652L61.8301 14.4844L62.2168 13.0898H62.8027V14.5781H64.6836V15.3398H62.8027V19.1191C62.8027 19.5215 62.8945 19.8223 63.0781 20.0215C63.2656 20.2207 63.5137 20.3203 63.8223 20.3203Z" fill="#58595B"/>
</svg>
