<svg width="24" height="24" viewBox="0 0 24 24" fill="none" xmlns="http://www.w3.org/2000/svg">
<path fill-rule="evenodd" clip-rule="evenodd" d="M2 5C2 4.44772 2.44772 4 3 4H14C14.5523 4 15 4.44772 15 5V20H16V10C16 9.44772 16.4477 9 17 9H21C21.5523 9 22 9.44772 22 10V20H23V22H1V20H2V5ZM4 6V20H13V6H4ZM18 11V20H20V11H18Z" fill="#929497"/>
<rect x="5" y="8" width="2" height="2" fill="#929497"/>
<rect x="9" y="8" width="2" height="2" fill="#929497"/>
<rect x="5" y="12" width="2" height="2" fill="#929497"/>
<rect x="9" y="12" width="2" height="2" fill="#929497"/>
<rect x="5" y="16" width="2" height="2" fill="#929497"/>
<rect x="9" y="16" width="2" height="2" fill="#929497"/>
</svg>
