<svg width="25" height="26" viewBox="0 0 25 26" fill="none" xmlns="http://www.w3.org/2000/svg">
<path d="M11.9774 0.829102L2 7.17834V3.00001H0V10.8217L12.0226 3.17091L23.4961 9.86379L24.5039 8.13623L11.9774 0.829102Z" fill="#221F1F"/>
<path fill-rule="evenodd" clip-rule="evenodd" d="M7.31015 10.9843C6.11805 11.5803 5 12.5888 5 14V22C5 23.4113 6.1179 24.4197 7.31004 25.0158C8.56193 25.6418 10.2214 26 12 26C13.7786 26 15.4381 25.6418 16.69 25.0158C17.8821 24.4197 19 23.4113 19 22V14C19 12.5888 17.8819 11.5803 16.6899 10.9843C15.4379 10.3583 13.7784 10 12 10C10.2216 10 8.56205 10.3583 7.31015 10.9843ZM8.20457 12.7731C7.22509 13.2629 7 13.7544 7 14C7 14.2456 7.22509 14.7372 8.20457 15.2269C9.12424 15.6867 10.4647 16 12 16C13.5353 16 14.8758 15.6867 15.7954 15.2269C16.7749 14.7372 17 14.2456 17 14C17 13.7544 16.7749 13.2629 15.7954 12.7731C14.8758 12.3133 13.5353 12 12 12C10.4647 12 9.12424 12.3133 8.20457 12.7731ZM17 18V16.85C16.8976 16.9084 16.794 16.9637 16.6899 17.0158C15.4379 17.6417 13.7784 18 12 18C10.2216 18 8.56205 17.6417 7.31015 17.0158C7.20597 16.9637 7.10235 16.9084 7 16.85V18C7 18.2457 7.2251 18.7373 8.20446 19.227C9.12407 19.6868 10.4646 20 12 20C13.5354 20 14.8759 19.6868 15.7955 19.227C16.7749 18.7373 17 18.2457 17 18ZM7 20.8502V22C7 22.2457 7.2251 22.7373 8.20446 23.227C9.12407 23.6868 10.4646 24 12 24C13.5354 24 14.8759 23.6868 15.7955 23.227C16.7749 22.7373 17 22.2457 17 22V20.8502C16.8977 20.9085 16.7941 20.9637 16.69 21.0158C15.4381 21.6418 13.7786 22 12 22C10.2214 22 8.56193 21.6418 7.31004 21.0158C7.20589 20.9637 7.10231 20.9085 7 20.8502Z" fill="#221F1F"/>
</svg>
