<svg width="23" height="24" viewBox="0 0 23 24" fill="none" xmlns="http://www.w3.org/2000/svg">
<path d="M11.5029 5.31543C11.9004 5.31543 12.2012 4.99316 12.2012 4.54199V2.24316L14.0488 3.27441C14.4248 3.5 14.876 3.40332 15.0586 3.07031C15.2412 2.7373 15.1553 2.31836 14.7363 2.09277L12.5127 0.835938C11.75 0.40625 11.2666 0.40625 10.4932 0.835938L8.26953 2.09277C7.86133 2.31836 7.76465 2.7373 7.94727 3.07031C8.12988 3.40332 8.58105 3.5 8.96777 3.27441L10.8154 2.23242V4.54199C10.8154 4.99316 11.1055 5.31543 11.5029 5.31543ZM21.5898 11.1807C21.9766 11.1807 22.2666 10.8477 22.2666 10.3965V7.59277C22.2666 6.59375 21.9551 6.15332 21.1602 5.71289L18.6572 4.30566C18.292 4.09082 17.8945 4.17676 17.6797 4.49902C17.4648 4.82129 17.5938 5.27246 18.0234 5.51953L20.2256 6.75488L18.1416 7.91504C17.7334 8.14062 17.5723 8.58105 17.7871 8.90332C18.0127 9.24707 18.4316 9.34375 18.7861 9.13965L20.9131 7.94727V10.3965C20.9131 10.8477 21.1924 11.1807 21.5898 11.1807ZM1.41602 11.1807C1.81348 11.1807 2.09277 10.8477 2.09277 10.3965V7.94727L4.21973 9.13965C4.58496 9.34375 5.00391 9.24707 5.21875 8.90332C5.44434 8.58105 5.27246 8.14062 4.86426 7.91504L2.78027 6.75488L4.98242 5.51953C5.42285 5.27246 5.54102 4.82129 5.32617 4.49902C5.12207 4.17676 4.71387 4.09082 4.34863 4.30566L1.8457 5.71289C1.13672 6.11035 0.739258 6.6582 0.739258 7.59277V10.3965C0.739258 10.8477 1.0293 11.1807 1.41602 11.1807ZM11.5029 16.251C11.9004 16.251 12.2012 15.9287 12.2012 15.4775V12.8242L14.6182 11.46C15.0156 11.2451 15.166 10.7939 14.9404 10.4609C14.7256 10.1279 14.3281 10.0312 13.9521 10.2461L11.5029 11.5996L9.05371 10.2461C8.67773 10.0312 8.28027 10.1279 8.06543 10.4609C7.85059 10.7939 7.99023 11.2451 8.3877 11.46L10.8154 12.8242V15.4775C10.8154 15.9287 11.1055 16.251 11.5029 16.251ZM3.69336 19.6885C4.08008 19.9033 4.52051 19.8281 4.71387 19.4736C4.90723 19.1191 4.74609 18.7002 4.38086 18.4854L2.79102 17.6045L4.71387 16.541C5.11133 16.3154 5.27246 15.875 5.05762 15.542C4.83203 15.1982 4.42383 15.1016 4.04785 15.3164L2.09277 16.4014V14.6074C2.09277 14.1562 1.80273 13.834 1.41602 13.834C1.01855 13.834 0.739258 14.1562 0.739258 14.6074V16.4551C0.739258 17.8193 1.14746 18.2705 2.08203 18.7969L3.69336 19.6885ZM19.3125 19.6885L20.9238 18.7969C21.8691 18.2705 22.2666 17.8193 22.2666 16.4551V14.6074C22.2666 14.1562 21.9873 13.834 21.5898 13.834C21.2031 13.834 20.9131 14.1562 20.9131 14.6074V16.4014L18.958 15.3164C18.582 15.1016 18.1738 15.1982 17.959 15.542C17.7334 15.875 17.8945 16.3154 18.292 16.541L20.2041 17.6045L18.625 18.4854C18.2598 18.7002 18.1094 19.1191 18.292 19.4736C18.4854 19.8281 18.9258 19.9033 19.3125 19.6885ZM10.665 23.5879C11.2451 23.9209 11.7715 23.9209 12.3408 23.5879L15.1445 22.0195C15.542 21.7832 15.6494 21.375 15.4561 21.0312C15.2627 20.6875 14.833 20.5908 14.4463 20.8164L12.2012 22.0732V19.6133C12.2012 19.1621 11.9004 18.8398 11.5029 18.8398C11.1055 18.8398 10.8154 19.1621 10.8154 19.6133V22.0732L8.55957 20.8164C8.17285 20.5908 7.74316 20.6875 7.5498 21.0312C7.36719 21.375 7.46387 21.7832 7.87207 22.0195L10.665 23.5879Z" fill="#A32A29"/>
</svg>
