<svg width="32" height="32" viewBox="0 0 32 32" fill="none" xmlns="http://www.w3.org/2000/svg">
<path d="M12.0616 21.5972H7.93748C7.69327 21.5972 7.49561 21.7948 7.49561 22.039C7.49561 22.2832 7.69327 22.4809 7.93748 22.4809H12.0616C12.3058 22.4809 12.5035 22.2832 12.5035 22.039C12.5035 21.7948 12.3058 21.5972 12.0616 21.5972Z" fill="#929497"/>
<path d="M12.0616 18.6514H7.93748C7.69327 18.6514 7.49561 18.849 7.49561 19.0932C7.49561 19.3374 7.69327 19.5351 7.93748 19.5351H12.0616C12.3058 19.5351 12.5035 19.3374 12.5035 19.0932C12.5035 18.849 12.3058 18.6514 12.0616 18.6514Z" fill="#929497"/>
<path d="M12.0616 15.7053H7.93748C7.69327 15.7053 7.49561 15.903 7.49561 16.1472C7.49561 16.3914 7.69327 16.5891 7.93748 16.5891H12.0616C12.3058 16.5891 12.5035 16.3914 12.5035 16.1472C12.5035 15.903 12.3058 15.7053 12.0616 15.7053Z" fill="#929497"/>
<path d="M12.0616 12.7595H7.93748C7.69327 12.7595 7.49561 12.9572 7.49561 13.2014C7.49561 13.4456 7.69327 13.6433 7.93748 13.6433H12.0616C12.3058 13.6433 12.5035 13.4456 12.5035 13.2014C12.5035 12.9572 12.3058 12.7595 12.0616 12.7595Z" fill="#929497"/>
<path d="M12.0616 9.81396H7.93748C7.69327 9.81396 7.49561 10.0116 7.49561 10.2558C7.49561 10.5 7.69327 10.6977 7.93748 10.6977H12.0616C12.3058 10.6977 12.5035 10.5 12.5035 10.2558C12.5035 10.0116 12.3058 9.81396 12.0616 9.81396Z" fill="#929497"/>
<path d="M19.4262 21.5972H17.3641C17.1199 21.5972 16.9222 21.7948 16.9222 22.039C16.9222 22.2832 17.1199 22.4809 17.3641 22.4809H19.4262C19.6704 22.4809 19.8681 22.2832 19.8681 22.039C19.8681 21.7948 19.6704 21.5972 19.4262 21.5972Z" fill="#929497"/>
<path d="M19.4262 18.6514H17.3641C17.1199 18.6514 16.9222 18.849 16.9222 19.0932C16.9222 19.3374 17.1199 19.5351 17.3641 19.5351H19.4262C19.6704 19.5351 19.8681 19.3374 19.8681 19.0932C19.8681 18.849 19.6704 18.6514 19.4262 18.6514Z" fill="#929497"/>
<path d="M19.4262 15.7053H17.3641C17.1199 15.7053 16.9222 15.903 16.9222 16.1472C16.9222 16.3914 17.1199 16.5891 17.3641 16.5891H19.4262C19.6704 16.5891 19.8681 16.3914 19.8681 16.1472C19.8681 15.903 19.6704 15.7053 19.4262 15.7053Z" fill="#929497"/>
<path d="M19.4262 12.7595H17.3641C17.1199 12.7595 16.9222 12.9572 16.9222 13.2014C16.9222 13.4456 17.1199 13.6433 17.3641 13.6433H19.4262C19.6704 13.6433 19.8681 13.4456 19.8681 13.2014C19.8681 12.9572 19.6704 12.7595 19.4262 12.7595Z" fill="#929497"/>
<path d="M24.4341 21.5972H22.372C22.1278 21.5972 21.9302 21.7948 21.9302 22.039C21.9302 22.2832 22.1278 22.4809 22.372 22.4809H24.4341C24.6783 22.4809 24.876 22.2832 24.876 22.039C24.876 21.7948 24.6783 21.5972 24.4341 21.5972Z" fill="#929497"/>
<path d="M24.4341 18.6514H22.372C22.1278 18.6514 21.9302 18.849 21.9302 19.0932C21.9302 19.3374 22.1278 19.5351 22.372 19.5351H24.4341C24.6783 19.5351 24.876 19.3374 24.876 19.0932C24.876 18.849 24.6783 18.6514 24.4341 18.6514Z" fill="#929497"/>
<path d="M24.4341 15.7053H22.372C22.1278 15.7053 21.9302 15.903 21.9302 16.1472C21.9302 16.3914 22.1278 16.5891 22.372 16.5891H24.4341C24.6783 16.5891 24.876 16.3914 24.876 16.1472C24.876 15.903 24.6783 15.7053 24.4341 15.7053Z" fill="#929497"/>
<path d="M24.4341 12.7595H22.372C22.1278 12.7595 21.9302 12.9572 21.9302 13.2014C21.9302 13.4456 22.1278 13.6433 22.372 13.6433H24.4341C24.6783 13.6433 24.876 13.4456 24.876 13.2014C24.876 12.9572 24.6783 12.7595 24.4341 12.7595Z" fill="#929497"/>
<path d="M28.5582 25.4266H27.4847C27.5098 25.3318 27.5271 25.2343 27.5271 25.1321V10.6976C27.5271 10.0495 26.9969 9.51925 26.3488 9.51925H24.2676C24.2785 9.45916 24.2864 9.39818 24.2864 9.33514V8.92155C24.2864 8.27347 23.7565 7.74322 23.1081 7.74322H19.5731C18.9254 7.74322 18.3948 8.27347 18.3948 8.92155V9.33514C18.3948 9.39818 18.4028 9.45916 18.4137 9.51925H15.4493C15.3471 9.51925 15.2493 9.53664 15.1547 9.56138V6.86802C15.1547 6.21994 14.6245 5.6897 13.9764 5.6897H6.02269C5.37461 5.6897 4.84437 6.21994 4.84437 6.86802V25.1321C4.84437 25.2343 4.86175 25.3318 4.88679 25.4266H3.81333C3.56912 25.4266 3.37146 25.6243 3.37146 25.8685C3.37146 26.1127 3.56912 26.3104 3.81333 26.3104H28.5582C28.8024 26.3104 29 26.1127 29 25.8685C29 25.6243 28.8024 25.4266 28.5582 25.4266ZM19.2786 9.33514V8.92155C19.2786 8.76189 19.4138 8.62697 19.5731 8.62697H23.1081C23.2681 8.62697 23.4027 8.76189 23.4027 8.92155V9.33514C23.4027 9.40525 23.3735 9.468 23.3311 9.51925H19.3504C19.308 9.468 19.2786 9.40525 19.2786 9.33514ZM6.02269 25.4266C5.86303 25.4266 5.72811 25.2917 5.72811 25.1321V6.86802C5.72811 6.70836 5.86303 6.57344 6.02269 6.57344H13.9764C14.1361 6.57344 14.271 6.70836 14.271 6.86802V10.6976V25.1321C14.271 25.2917 14.1361 25.4266 13.9764 25.4266H6.02269ZM15.4493 25.4266C15.2896 25.4266 15.1547 25.2917 15.1547 25.1321V10.6976C15.1547 10.5379 15.2896 10.403 15.4493 10.403H26.3488C26.5085 10.403 26.6434 10.5379 26.6434 10.6976V25.1321C26.6434 25.2917 26.5085 25.4266 26.3488 25.4266H15.4493Z" fill="#929497"/>
</svg>
