<svg width="18" height="22" viewBox="0 0 18 22" fill="none" xmlns="http://www.w3.org/2000/svg">
<path fill-rule="evenodd" clip-rule="evenodd" d="M13.4399 21.7245C13.2483 21.6493 13.0782 21.5278 12.9448 21.3707C12.8113 21.2136 12.7186 21.0258 12.675 20.8241C12.6269 20.5692 12.675 20.3923 13.0506 19.6756C14.4762 17.0099 15.2028 14.0246 15.1621 10.9999C15.1621 7.91733 14.5965 5.51698 13.188 2.64115C12.971 2.23246 12.7872 1.8069 12.6384 1.36861C12.6576 1.18662 12.7149 1.01073 12.8064 0.852423C12.898 0.694111 13.0217 0.556929 13.1697 0.449819C13.3746 0.334731 13.6086 0.282121 13.8429 0.298441C14.0772 0.314761 14.3017 0.399302 14.4888 0.541697C14.7519 0.887734 14.9783 1.26033 15.1644 1.65345C16.1829 3.67377 16.8704 5.84543 17.2004 8.08502C17.4177 9.85711 17.4461 11.6474 17.2851 13.4255C17.0009 15.6992 16.3488 17.9111 15.3545 19.9742C14.7522 21.2238 14.3743 21.7383 14.056 21.7383C13.9786 21.7408 13.9017 21.7523 13.827 21.7728C13.6963 21.7862 13.5643 21.7713 13.4399 21.7291V21.7245ZM9.34285 19.5746C8.81612 19.4207 8.4268 18.7729 8.58711 18.2859C8.62375 18.1688 8.87337 17.6267 9.13903 17.0823C10.2538 14.8537 10.7295 12.3583 10.5131 9.87437C10.3849 8.09572 9.89379 6.36245 9.07033 4.78194C8.46802 3.54846 8.44053 3.35552 8.78863 2.85937C8.98279 2.62822 9.25999 2.48315 9.56009 2.45563C9.86019 2.42811 10.159 2.52035 10.3917 2.71235C10.6963 2.99029 11.6376 4.96111 11.9948 6.07744C13.197 9.77971 13.0113 13.7947 11.4727 17.3694C10.6849 19.2277 10.1307 19.8043 9.34743 19.5746H9.34285ZM5.11752 17.3947C4.94867 17.3135 4.79963 17.1961 4.68092 17.0509C4.56221 16.9056 4.47673 16.736 4.43048 16.554C4.38468 16.3404 4.46254 16.1061 4.84958 15.3228C6.26947 12.4378 6.2855 9.66304 4.89766 6.84693C4.28848 5.60886 4.27475 5.36308 4.79003 4.87612C4.87677 4.77234 4.98798 4.69193 5.11355 4.64219C5.23913 4.59245 5.37511 4.57495 5.50914 4.59129C6.10916 4.59129 6.4252 4.89449 6.95423 5.99705C7.74742 7.56085 8.14536 9.29618 8.11305 11.0504C8.1515 12.8099 7.73909 14.5499 6.91529 16.1038C6.41145 17.1283 6.16183 17.3993 5.658 17.4682C5.47255 17.4842 5.28595 17.4567 5.11294 17.3878L5.11752 17.3947ZM1.18075 15.3642C0.876155 15.2012 0.646334 14.9262 0.539515 14.597C0.443328 14.2547 0.523482 13.9837 0.910518 13.3451C1.40748 12.5228 1.52428 12.0818 1.52428 11.0091C1.52428 9.93638 1.40748 9.49537 0.910518 8.67305C0.762535 8.43766 0.636057 8.18933 0.532637 7.93111C0.372327 7.38902 0.823494 6.7252 1.42809 6.61264C1.9388 6.51617 2.29148 6.74586 2.76096 7.4832C3.42895 8.54647 3.78341 9.7776 3.78341 11.0343C3.78341 12.2911 3.42895 13.5222 2.76096 14.5855C2.28003 15.332 1.74413 15.5962 1.18075 15.3642Z" fill="white"/>
</svg>
