<svg width="23" height="17" viewBox="0 0 23 17" fill="none" xmlns="http://www.w3.org/2000/svg">
<path fill-rule="evenodd" clip-rule="evenodd" d="M0.35 2.07692C0.35 1.10766 1.15219 0.35 2.10526 0.35H20.8947C21.8478 0.35 22.65 1.10766 22.65 2.07692V7.46154C22.65 7.82052 22.359 8.11154 22 8.11154C21.641 8.11154 21.35 7.82052 21.35 7.46154V4.95769H1.65V13.9231C1.65 14.1427 1.83812 14.35 2.10526 14.35H13.3684C13.7274 14.35 14.0184 14.641 14.0184 15C14.0184 15.359 13.7274 15.65 13.3684 15.65H2.10526C1.15219 15.65 0.35 14.8923 0.35 13.9231V2.07692ZM1.65 3.65769H21.35V2.07692C21.35 1.85726 21.1619 1.65 20.8947 1.65H2.10526C1.83812 1.65 1.65 1.85726 1.65 2.07692V3.65769Z" fill="#A32A29"/>
<path d="M3.66579 9.30769C3.66579 8.94871 3.9568 8.65769 4.31579 8.65769H8.84211C9.20109 8.65769 9.49211 8.94871 9.49211 9.30769C9.49211 9.66668 9.20109 9.95769 8.84211 9.95769H4.31579C3.9568 9.95769 3.66579 9.66668 3.66579 9.30769Z" fill="#A32A29"/>
<path d="M3.66579 12.3077C3.66579 11.9487 3.9568 11.6577 4.31579 11.6577H11.8421C12.2011 11.6577 12.4921 11.9487 12.4921 12.3077C12.4921 12.6667 12.2011 12.9577 11.8421 12.9577H4.31579C3.9568 12.9577 3.66579 12.6667 3.66579 12.3077Z" fill="#A32A29"/>
<path d="M18.5389 14.7144C18.3626 14.7144 18.2207 14.5713 18.2207 14.3962V12.7571H16.6182C16.4418 12.7571 16.3 12.6152 16.3 12.4389C16.3 12.2638 16.4418 12.1207 16.6182 12.1207H18.2207V10.5182C18.2207 10.3431 18.3626 10.2 18.5389 10.2C18.7152 10.2 18.8571 10.3431 18.8571 10.5182V12.1207H20.4962C20.6726 12.1207 20.8144 12.2638 20.8144 12.4389C20.8144 12.6152 20.6726 12.7571 20.4962 12.7571H18.8571V14.3962C18.8571 14.5713 18.7152 14.7144 18.5389 14.7144Z" fill="#A32A29"/>
<path fill-rule="evenodd" clip-rule="evenodd" d="M14.2 12.5C14.2 10.1252 16.1252 8.2 18.5 8.2C20.8748 8.2 22.8 10.1252 22.8 12.5C22.8 14.8748 20.8748 16.8 18.5 16.8C16.1252 16.8 14.2 14.8748 14.2 12.5ZM18.5 9.3C16.7327 9.3 15.3 10.7327 15.3 12.5C15.3 14.2673 16.7327 15.7 18.5 15.7C20.2673 15.7 21.7 14.2673 21.7 12.5C21.7 10.7327 20.2673 9.3 18.5 9.3Z" fill="#A32A29"/>
<path fill-rule="evenodd" clip-rule="evenodd" d="M0.25 2.07692C0.25 1.04973 1.09971 0.25 2.10526 0.25H20.8947C21.9003 0.25 22.75 1.04973 22.75 2.07692V7.46154C22.75 7.87575 22.4142 8.21154 22 8.21154C21.5858 8.21154 21.25 7.87575 21.25 7.46154V5.05769H1.75V13.9231C1.75 14.0862 1.89199 14.25 2.10526 14.25H13.3684C13.7826 14.25 14.1184 14.5858 14.1184 15C14.1184 15.4142 13.7826 15.75 13.3684 15.75H2.10526C1.09971 15.75 0.25 14.9503 0.25 13.9231V2.07692ZM2.10526 0.45C1.20468 0.45 0.45 1.1656 0.45 2.07692V13.9231C0.45 14.8344 1.20468 15.55 2.10526 15.55H13.3684C13.6722 15.55 13.9184 15.3038 13.9184 15C13.9184 14.6962 13.6722 14.45 13.3684 14.45H2.10526C1.78426 14.45 1.55 14.1993 1.55 13.9231V4.85769H21.45V7.46154C21.45 7.7653 21.6962 8.01154 22 8.01154C22.3038 8.01154 22.55 7.7653 22.55 7.46154V2.07692C22.55 1.1656 21.7953 0.45 20.8947 0.45H2.10526ZM2.10526 1.75C1.89199 1.75 1.75 1.91384 1.75 2.07692V3.55769H21.25V2.07692C21.25 1.91384 21.108 1.75 20.8947 1.75H2.10526ZM1.55 2.07692C1.55 1.80068 1.78426 1.55 2.10526 1.55H20.8947C21.2157 1.55 21.45 1.80068 21.45 2.07692V3.75769H1.55V2.07692ZM14.1 12.5C14.1 10.0699 16.07 8.1 18.5 8.1C20.9301 8.1 22.9 10.0699 22.9 12.5C22.9 14.9301 20.9301 16.9 18.5 16.9C16.07 16.9 14.1 14.9301 14.1 12.5ZM18.5 8.3C16.1804 8.3 14.3 10.1804 14.3 12.5C14.3 14.8196 16.1804 16.7 18.5 16.7C20.8196 16.7 22.7 14.8196 22.7 12.5C22.7 10.1804 20.8196 8.3 18.5 8.3ZM3.56579 9.30769C3.56579 8.89348 3.90158 8.55769 4.31579 8.55769H8.84211C9.25632 8.55769 9.59211 8.89348 9.59211 9.30769C9.59211 9.7219 9.25632 10.0577 8.84211 10.0577H4.31579C3.90158 10.0577 3.56579 9.7219 3.56579 9.30769ZM4.31579 8.75769C4.01203 8.75769 3.76579 9.00393 3.76579 9.30769C3.76579 9.61145 4.01203 9.85769 4.31579 9.85769H8.84211C9.14586 9.85769 9.39211 9.61145 9.39211 9.30769C9.39211 9.00393 9.14586 8.75769 8.84211 8.75769H4.31579ZM18.5 9.4C16.7879 9.4 15.4 10.7879 15.4 12.5C15.4 14.2121 16.7879 15.6 18.5 15.6C20.2121 15.6 21.6 14.2121 21.6 12.5C21.6 10.7879 20.2121 9.4 18.5 9.4ZM15.2 12.5C15.2 10.6775 16.6775 9.2 18.5 9.2C20.3225 9.2 21.8 10.6775 21.8 12.5C21.8 14.3225 20.3225 15.8 18.5 15.8C16.6775 15.8 15.2 14.3225 15.2 12.5ZM18.1207 10.5182C18.1207 10.2881 18.3071 10.1 18.5389 10.1C18.7707 10.1 18.9571 10.2881 18.9571 10.5182V12.0207H20.4962C20.7281 12.0207 20.9144 12.2089 20.9144 12.4389C20.9144 12.6705 20.7278 12.8571 20.4962 12.8571H18.9571V14.3962C18.9571 14.6262 18.7707 14.8144 18.5389 14.8144C18.3071 14.8144 18.1207 14.6262 18.1207 14.3962V12.8571H16.6182C16.3866 12.8571 16.2 12.6705 16.2 12.4389C16.2 12.2089 16.3864 12.0207 16.6182 12.0207H18.1207V10.5182ZM18.5389 10.3C18.4181 10.3 18.3207 10.3981 18.3207 10.5182V12.2207H16.6182C16.4973 12.2207 16.4 12.3188 16.4 12.4389C16.4 12.56 16.4971 12.6571 16.6182 12.6571H18.3207V14.3962C18.3207 14.5163 18.4181 14.6144 18.5389 14.6144C18.6597 14.6144 18.7571 14.5163 18.7571 14.3962V12.6571H20.4962C20.6173 12.6571 20.7144 12.56 20.7144 12.4389C20.7144 12.3188 20.6171 12.2207 20.4962 12.2207H18.7571V10.5182C18.7571 10.3981 18.6597 10.3 18.5389 10.3ZM3.56579 12.3077C3.56579 11.8935 3.90158 11.5577 4.31579 11.5577H11.8421C12.2563 11.5577 12.5921 11.8935 12.5921 12.3077C12.5921 12.7219 12.2563 13.0577 11.8421 13.0577H4.31579C3.90158 13.0577 3.56579 12.7219 3.56579 12.3077ZM4.31579 11.7577C4.01203 11.7577 3.76579 12.0039 3.76579 12.3077C3.76579 12.6114 4.01203 12.8577 4.31579 12.8577H11.8421C12.1459 12.8577 12.3921 12.6114 12.3921 12.3077C12.3921 12.0039 12.1459 11.7577 11.8421 11.7577H4.31579Z" fill="#A32A29"/>
</svg>
