<svg width="18" height="18" viewBox="0 0 18 18" fill="none" xmlns="http://www.w3.org/2000/svg">
<path fill-rule="evenodd" clip-rule="evenodd" d="M5.25 4.18934L8.02994 6.96928C8.32366 6.82871 8.65264 6.75 9 6.75C10.2426 6.75 11.25 7.75736 11.25 9C11.25 10.2426 10.2426 11.25 9 11.25C7.75736 11.25 6.75 10.2426 6.75 9C6.75 8.65264 6.82871 8.32366 6.96928 8.02994L4.18934 5.25L5.25 4.18934ZM8.41485 8.53081C8.31171 8.65928 8.25 8.82243 8.25 9C8.25 9.41421 8.58579 9.75 9 9.75C9.41421 9.75 9.75 9.41421 9.75 9C9.75 8.58579 9.41421 8.25 9 8.25C8.82243 8.25 8.65928 8.31171 8.53081 8.41485L8.41485 8.53081Z" fill="#A32A29"/>
<path d="M9.75 3V5.25H8.25V3H9.75Z" fill="#A32A29"/>
<path d="M13.7731 5.28754L12.7124 4.22688L11.1215 5.81779L12.1822 6.87845L13.7731 5.28754Z" fill="#A32A29"/>
<path d="M12.75 8.25H15V9.75H12.75V8.25Z" fill="#A32A29"/>
<path d="M3 8.25V9.75H5.25V8.25H3Z" fill="#A32A29"/>
<path fill-rule="evenodd" clip-rule="evenodd" d="M0 9C0 4.02944 4.02944 0 9 0C13.9706 0 18 4.02944 18 9C18 13.9706 13.9706 18 9 18C4.02944 18 0 13.9706 0 9ZM9 1.5C4.85786 1.5 1.5 4.85786 1.5 9C1.5 13.1421 4.85786 16.5 9 16.5C13.1421 16.5 16.5 13.1421 16.5 9C16.5 4.85786 13.1421 1.5 9 1.5Z" fill="#A32A29"/>
</svg>
