<svg width="24" height="24" viewBox="0 0 24 24" fill="none" xmlns="http://www.w3.org/2000/svg">
<path fill-rule="evenodd" clip-rule="evenodd" d="M2 7C2 6.44772 2.44772 6 3 6H21C21.5523 6 22 6.44772 22 7V9.5C21.1716 9.5 20.5 10.1716 20.5 11C20.5 11.8284 21.1716 12.5 22 12.5V15C22 15.5523 21.5523 16 21 16H3C2.44772 16 2 15.5523 2 15V12.5C2.82843 12.5 3.5 11.8284 3.5 11C3.5 10.1716 2.82843 9.5 2 9.5V7ZM4 8V9.63803C4.88867 10.0762 5.5 10.9693 5.5 11C5.5 11.0307 4.88867 11.9238 4 12.362V14H20V12.362C19.1113 11.9238 18.5 11.0307 18.5 11C18.5 10.9693 19.1113 10.0762 20 9.63803V8H4Z" fill="#929497"/>
<path d="M9 9H15V10.5H9V9Z" fill="#929497"/>
<path d="M9 11.5H15V13H9V11.5Z" fill="#929497"/>
</svg>
