<svg width="32" height="32" viewBox="0 0 32 32" fill="none" xmlns="http://www.w3.org/2000/svg">
<path fill-rule="evenodd" clip-rule="evenodd" d="M23.0833 6C20.1017 6 17.6667 8.27296 17.6667 11.0562C17.6667 13.8395 20.1017 16.1124 23.0833 16.1124C26.065 16.1124 28.5 13.8395 28.5 11.0562C28.5 8.27296 26.065 6 23.0833 6ZM23.0833 7.55576C25.1643 7.55576 26.8333 9.11375 26.8333 11.0562C26.8333 12.9987 25.1643 14.5567 23.0833 14.5567C21.0024 14.5567 19.3333 12.9987 19.3333 11.0562C19.3333 9.11375 21.0024 7.55576 23.0833 7.55576ZM11.0781 14.2285C11.1527 14.1977 11.2316 14.1772 11.3125 14.1677C11.4493 14.1526 11.588 14.1693 11.7162 14.2163L22.0547 18.0085L22.1328 18.0328V18.045C22.5259 18.1552 22.9315 18.3135 23.2787 18.6162C23.3954 18.7181 23.5 18.8462 23.5912 18.9809C23.8105 18.9053 24.0504 18.8228 24.3544 18.7183L25.7277 18.2461C26.3502 18.0318 26.9696 17.8187 27.4453 17.656C27.5553 17.6184 27.6589 17.5828 27.7538 17.5501L27.7552 17.5496C27.8822 17.5059 27.9934 17.4677 28.0833 17.4373C28.1395 17.4183 28.1839 17.4036 28.2222 17.3909L28.2656 17.3765C28.2781 17.3724 28.2903 17.3676 28.3017 17.363C28.3122 17.3589 28.322 17.355 28.3307 17.3522C28.3358 17.3507 28.3366 17.3496 28.3366 17.3496C28.3366 17.3496 28.3385 17.3467 28.4219 17.3279H28.4349C28.5911 17.2933 28.7491 17.2793 28.9167 17.2793C30.0574 17.2793 31 18.1591 31 19.2239C31 19.9129 30.6105 20.5208 30.0234 20.8648L30.0099 20.8712L29.9974 20.8769L18.9167 26.8934C18.7035 27.0099 18.446 27.0321 18.2135 26.9541L9.19011 23.8912H8.50001V24.6691C8.49996 25.0987 8.12689 25.4469 7.66667 25.447H1.83334C1.37312 25.4469 1.00005 25.0987 1.00001 24.6691V15.3346C0.998148 14.9319 1.32575 14.5945 1.75522 14.5567C1.78124 14.5555 1.80731 14.5555 1.83334 14.5567H7.66667C8.11206 14.5563 8.47909 14.8828 8.50001 15.2981L11.0781 14.2285ZM11.4427 15.7843L21.5208 19.4792C21.5464 19.4885 21.5725 19.4966 21.599 19.5035C21.8556 19.5709 22.0586 19.6705 22.1458 19.7466C22.2331 19.8227 22.25 19.8473 22.25 20.0018C22.25 20.2308 22.0786 20.3908 21.8333 20.3908H17.849L13.8125 18.8836C13.3853 18.725 12.901 18.9185 12.729 19.3165C12.557 19.7146 12.7619 20.1675 13.1875 20.33L17.3542 21.8858C17.4532 21.9246 17.5593 21.9453 17.6667 21.9465H21.8333C22.7637 21.9465 23.5501 21.3552 23.8125 20.5609C23.9079 20.528 24.0761 20.4707 24.3037 20.393L24.3051 20.3926C24.7381 20.2448 25.3856 20.0239 26.1563 19.7587C26.4716 19.6502 26.787 19.5407 27.0859 19.4369C27.4258 19.3189 27.745 19.208 28.0182 19.1146C28.172 19.062 28.3105 19.0169 28.43 18.9781C28.5101 18.952 28.5816 18.9288 28.6432 18.9079C28.6834 18.8945 28.7188 18.8813 28.7493 18.8699C28.7734 18.861 28.7945 18.8531 28.8125 18.8472H28.8255L28.8333 18.8457C28.8598 18.8406 28.8887 18.835 28.9167 18.835C29.1567 18.835 29.3333 18.9999 29.3333 19.2239C29.3333 19.3689 29.2557 19.4832 29.138 19.5521L18.4219 25.3619L9.6198 22.3719C9.52732 22.3443 9.43037 22.3319 9.33334 22.3355H8.50001V16.9997L11.4427 15.7843ZM6.83334 16.1124H2.66667V23.8912H6.83334V16.1124Z" fill="#A32A29"/>
</svg>
