<svg width="27" height="22" viewBox="0 0 27 22" fill="none" xmlns="http://www.w3.org/2000/svg">
<path d="M11.0002 17C11.0002 17.5523 11.4479 18 12.0002 18H14.0002C14.5525 18 15.0002 17.5523 15.0002 17C15.0002 16.4477 14.5525 16 14.0002 16H12.0002C11.4479 16 11.0002 16.4477 11.0002 17Z" fill="#A32A29"/>
<path fill-rule="evenodd" clip-rule="evenodd" d="M3.00019 2.09091C3.00019 0.90766 3.98113 0 5.12519 0H20.8752C22.0192 0 23.0002 0.90766 23.0002 2.09091V12.4314L25.8252 19.0123C26.4334 20.4287 25.3921 22 23.8545 22H2.14647C0.608599 22 -0.431545 20.429 0.174147 19.0135L3.00019 12.4301V2.09091ZM21.4971 14L23.9874 19.8013C24.027 19.8935 23.9604 20 23.8545 20H2.14647C2.04092 20 1.9732 19.8935 2.01277 19.8005L4.50276 14H21.4971ZM21.0002 12H5.00019V2.09091C5.00019 2.07625 5.00486 2.058 5.02596 2.03754C5.04759 2.01656 5.08088 2 5.12519 2H20.8752C20.9195 2 20.9528 2.01656 20.9744 2.03754C20.9955 2.058 21.0002 2.07625 21.0002 2.09091V12Z" fill="#A32A29"/>
</svg>
