<svg width="289" height="207" viewBox="0 0 289 207" fill="none" xmlns="http://www.w3.org/2000/svg">
<path d="M22.2022 161.885C-26.7956 97.0217 12.8736 9.14178 83.0645 1.3181C88.4986 0.68129 151.353 -1.59304 185.136 7.41329C200.985 6.32162 226.344 3.77437 240.745 12.9626C274.165 34.3413 278.24 52.9908 271.448 86.3779C264.836 119.037 241.922 146.602 218.103 169.891C194.464 192.998 161.769 207.827 125.36 206.553C88.6797 205.371 44.3916 191.179 22.2022 161.885Z" fill="#F7F7F7"/>
<path d="M271.72 196.91C284.037 197.547 289.472 200.276 270.814 202.914C259.584 204.551 239.025 204.642 206.601 205.734C126.176 208.463 15.7725 203.551 15.7725 201.276C15.7725 199.548 35.5165 196.728 83.2463 196C98.009 195.818 117.3 193.453 137.859 193.453C224.805 193.544 236.217 195.181 271.72 196.91Z" fill="#E0E0E0"/>
<path opacity="0.8" d="M249.53 171.528H38.7765C33.2518 171.528 28.7234 166.98 28.7234 161.43V59.1766H259.583V161.521C259.583 167.071 255.055 171.528 249.53 171.528Z" fill="#F5F5F5"/>
<path d="M249.53 171.528L85.3289 171.71L44.3012 171.801H39.1388C37.418 171.892 35.6066 171.437 34.0669 170.619C32.5272 169.8 31.1687 168.617 30.1725 167.162C29.1762 165.706 28.5422 163.978 28.4516 162.158C28.3611 155.244 28.4516 148.421 28.3611 141.507L28.2705 59.0857V58.6309H28.7234L259.583 58.9947H259.674V59.0857L259.583 118.127V147.693V155.062V158.792C259.583 160.066 259.583 161.248 259.493 162.522C259.221 164.978 258.044 167.344 256.232 168.981C254.421 170.619 251.976 171.528 249.53 171.528ZM249.53 171.528C251.976 171.528 254.421 170.619 256.232 168.89C258.044 167.253 259.221 164.887 259.493 162.431C259.583 161.248 259.493 159.975 259.583 158.701V154.971V147.602V118.036L259.493 58.9947L259.583 59.0857L28.7234 59.6316L29.1762 59.1767L29.0856 141.598C29.0856 148.421 28.9951 155.335 29.0856 162.158C29.1762 163.796 29.8102 165.433 30.7159 166.798C31.6216 168.162 32.8895 169.345 34.4292 170.073C35.8783 170.801 37.5991 171.164 39.2293 171.164H44.3918L85.4195 171.255L249.53 171.528Z" fill="#A42A29"/>
<path d="M259.583 78.5539H28.7234V33.6133C28.7234 28.0639 33.2518 23.5153 38.7765 23.5153H249.53C255.055 23.5153 259.583 28.0639 259.583 33.6133V78.5539Z" fill="#A42A29"/>
<path d="M183.144 93.7466C182.147 91.9271 173.996 101.843 176.26 107.847C178.525 113.943 183.144 112.942 183.144 112.942C183.144 112.942 186.042 99.114 183.144 93.7466Z" fill="#7A4B51"/>
<path d="M172.819 78.9177C172.819 78.9177 172.819 78.9177 177.347 84.2851C181.876 89.6525 180.698 90.1074 179.883 93.8373C179.068 97.2943 172.638 96.5665 170.102 95.4748C167.928 94.5651 162.132 95.9297 160.501 94.747C159.867 94.2922 160.501 94.0193 162.403 93.8373C164.577 93.6554 166.569 92.6547 166.569 92.6547C165.211 90.6532 157.331 92.1998 156.154 89.8345C155.611 88.6518 165.03 90.7442 165.935 89.5616C165.935 89.5616 165.483 88.7428 160.954 87.3782C158.328 86.5595 155.701 85.7407 155.52 84.9219C155.248 83.2844 160.411 85.9227 166.932 86.5595C166.932 86.5595 164.305 85.1949 161.769 84.1032C159.414 83.1025 157.15 82.4657 157.694 81.465C158.147 80.6462 161.679 82.2837 164.034 83.2844C168.381 85.1039 171.913 85.4678 173.724 85.4678C174.63 85.4678 175.083 85.4678 175.083 85.4678C170.917 79.3726 172.819 78.9177 172.819 78.9177Z" fill="#8F5045"/>
<path d="M175.083 85.1951C175.083 85.1951 174.63 88.2881 176.261 89.9257C176.261 89.9257 172.819 88.925 173.634 85.1951C174.54 85.286 175.083 85.1951 175.083 85.1951Z" fill="#703E38"/>
<path d="M180.607 89.6527L184.955 100.297L180.607 110.486C180.607 110.486 177.347 98.3861 176.17 94.6562C175.083 90.7444 180.607 89.6527 180.607 89.6527Z" fill="#8F5045"/>
<path d="M230.24 73.1865C230.24 73.1865 215.115 78.7359 210.586 82.9206L198.269 121.22C198.269 121.22 197.816 118.582 197.001 119.674L183.144 93.7464C183.144 93.7464 182.872 107.847 176.26 107.847C176.26 107.847 189.846 145.419 197.363 147.512C204.971 149.604 217.922 116.49 217.922 116.49L230.24 73.1865Z" fill="#522228"/>
<path d="M251.523 173.439C253.697 173.257 255.78 173.166 257.954 172.984C258.316 158.064 248.172 96.5666 248.172 96.5666C248.172 96.5666 222.451 94.2013 221.002 100.933C213.394 136.413 192.382 171.983 192.382 171.983C197.816 166.343 236.851 168.799 251.523 173.439Z" fill="#4F1F25"/>
<path d="M238.3 68.5469C238.3 68.5469 247.991 64.2712 256.595 67.4553L258.044 79.8276C258.044 79.8276 237.485 87.3783 230.873 85.104C224.262 82.9207 222.541 77.6442 238.3 68.5469Z" fill="#7A4B51"/>
<path d="M227.522 174.44C231.779 174.349 236.036 174.167 240.293 173.985C239.568 162.431 233.862 151.332 234.406 140.78L211.039 140.234C207.054 149.513 204.337 161.521 202.525 173.803C210.948 173.894 219.281 174.622 227.522 174.44Z" fill="#0E3944"/>
<path d="M227.522 174.44C238.843 174.167 250.255 173.621 261.576 172.62C259.131 152.788 246.089 141.871 246.089 141.871L211.129 140.234C211.129 140.234 213.575 159.611 219.552 174.349C222.269 174.531 224.896 174.531 227.522 174.44Z" fill="#0E3944"/>
<path d="M200.714 173.894C209.68 173.803 218.737 174.713 227.522 174.44C239.387 174.167 251.252 173.621 263.116 172.529C259.946 150.241 254.24 134.411 251.704 128.134C251.704 128.134 282.226 89.7437 267.826 77.3714C267.011 76.6436 266.195 76.0068 265.29 75.461C251.886 66.8185 231.417 73.1866 227.704 74.3693C227.341 74.4603 227.16 74.5512 227.16 74.5512C227.16 74.5512 198.993 93.9285 215.115 121.584C215.024 121.675 208.503 145.055 200.714 173.894Z" fill="#D95D7B"/>
<path d="M259.221 32.3396C259.221 32.3396 265.38 25.9715 271.358 31.4299C277.335 36.8883 271.086 48.1689 271.358 50.2613C271.629 52.3537 276.52 52.8085 275.343 55.4468C274.165 58.085 271.086 58.4489 271.358 59.7225C271.629 60.9961 274.618 62.9975 273.35 64.3621C272.082 65.6357 269.365 64.2711 269.546 66.5455C269.727 68.8198 271.267 71.7309 268.55 72.0039C268.55 72.0039 270.633 69.4566 268.731 68.6379C266.829 67.8191 265.38 68.7288 264.565 65.9996C263.75 63.3614 267.644 62.2697 265.924 60.8142C264.203 59.3586 260.308 59.3586 262.12 56.9933C263.931 54.628 264.565 52.5356 261.214 50.6252C257.682 48.6238 259.221 32.3396 259.221 32.3396Z" fill="#222323"/>
<path d="M232.503 29.2467C225.529 29.0648 225.077 44.3482 233.409 52.4448C241.741 60.5414 243.824 29.5196 232.503 29.2467Z" fill="#222323"/>
<path d="M256.142 27.7003C256.142 27.7003 235.402 20.6953 231.236 35.342C227.069 49.9887 230.873 65.4541 240.564 64.3624C254.331 62.9978 272.263 35.9788 256.142 27.7003Z" fill="#8F5045"/>
<path d="M247.9 35.2508C247.9 35.2508 252.61 41.346 252.428 49.1697C252.428 49.1697 255.87 44.894 257.681 48.6239C259.493 52.3538 252.247 57.8122 252.247 57.8122C252.247 57.8122 263.931 58.449 265.38 43.2565C265.923 36.7974 257.591 30.9751 247.9 35.2508Z" fill="#141515"/>
<path d="M251.975 54.537C250.345 58.8127 244.277 66.2725 237.847 64.1801C237.847 64.1801 239.477 70.5482 236.76 72.9135C236.76 72.9135 233.952 77.9171 240.383 78.5539C248.443 79.4636 252.972 72.9135 252.972 72.9135C249.44 65.0899 254.24 55.3557 254.24 55.3557C252.519 56.4474 251.975 54.537 251.975 54.537Z" fill="#703E38"/>
<path d="M242.647 30.9752C242.647 30.9752 239.477 47.4413 252.429 49.1698C252.429 49.1698 257.048 41.3461 263.116 46.8045C263.116 46.8045 269.637 28.8828 254.33 26.0626C254.33 26.0626 251.342 19.2397 239.477 21.423C222.903 24.4251 218.284 44.6212 227.522 64.5442C227.431 64.5442 219.371 28.7009 242.647 30.9752Z" fill="#141515"/>
<path d="M265.199 75.5519C263.478 76.5526 261.395 77.5533 258.95 78.6449C214.571 98.568 224.986 79.9186 224.986 79.9186C224.986 78.554 225.439 77.2803 226.254 76.1887C226.616 75.6428 227.069 75.097 227.613 74.5512C231.235 73.3685 250.979 67.2733 264.293 75.097C264.655 75.188 264.927 75.3699 265.199 75.5519Z" fill="#703E38"/>
<path d="M265.199 75.5518C263.478 76.5525 261.395 77.5532 258.95 78.6448C214.571 98.5679 224.986 79.9185 224.986 79.9185C224.986 78.5539 225.439 77.2802 226.254 76.1886C227.884 76.9164 231.145 78.4629 232.232 78.7358L232.956 81.465L236.76 79.0087C236.76 79.0087 250.074 79.3726 264.384 75.1879C264.655 75.1879 264.927 75.3698 265.199 75.5518Z" fill="#8F5045"/>
<path d="M264.021 172.438C264.293 171.347 264.384 170.073 264.293 168.526C264.021 164.978 265.742 162.613 268.187 161.521L258.315 127.861C258.315 127.861 274.98 93.0187 275.342 87.2874C275.342 87.2874 272.444 74.8241 256.685 71.0942C256.685 71.0942 243.824 80.1006 236.217 97.9313C230.964 110.395 239.658 150.696 245.364 173.803C251.613 173.53 257.772 173.075 264.021 172.438Z" fill="#4F1F25"/>
<path d="M262.029 72.186C262.029 72.186 264.021 78.3722 262.572 91.5633C262.572 91.5633 259.221 89.107 252.972 89.4709C252.972 89.4709 237.304 107.302 237.122 134.412C237.122 134.412 230.42 108.575 235.22 95.3841C240.021 82.284 256.685 67.5464 256.685 67.5464L262.029 72.186Z" fill="#0E3944"/>
<path d="M192.291 174.349C193.016 174.258 193.74 174.167 194.465 174.167L216.02 129.681C216.02 129.681 215.748 107.21 216.02 100.296C216.292 93.3825 230.239 73.1865 230.239 73.1865C216.654 78.5539 210.314 92.9277 209.046 100.296C207.778 107.574 210.495 130.863 210.495 130.863C195.008 155.881 192.382 168.799 192.291 174.349Z" fill="#662D34"/>
<path d="M216.02 129.681C216.02 129.681 215.839 100.842 220.367 89.1978C224.986 77.5533 238.3 68.6379 238.3 68.6379C238.3 68.6379 221.544 74.1873 215.205 88.47C215.205 88.47 216.744 88.0152 218.374 88.1971C218.374 88.1062 211.401 94.7472 216.02 129.681Z" fill="#432024"/>
<path d="M275.252 87.2874C275.252 87.2874 288.928 140.143 284.762 144.6C280.595 149.058 275.524 157.155 268.006 140.143C260.489 123.131 259.221 109.03 259.221 109.03C259.221 109.03 266.467 87.5603 275.252 87.2874Z" fill="#0E3944"/>
<path d="M265.38 113.033C265.38 113.033 274.98 112.851 277.245 106.483C277.245 106.392 269.818 103.844 265.38 113.033Z" fill="#082930"/>
<path d="M266.104 97.9314L269.546 111.941C269.546 111.941 275.343 110.668 276.611 106.938L273.984 97.9314H266.104Z" fill="#8F5045"/>
<path d="M269.184 84.4672C269.184 84.4672 269.184 84.4672 266.919 91.1082C264.655 97.7493 265.923 97.7493 268.006 100.842C269.999 103.753 275.704 100.66 277.697 98.75C279.418 97.1125 285.305 96.2937 286.301 94.5652C286.754 93.8374 286.029 93.8374 284.218 94.3833C282.135 95.0201 279.961 94.8381 279.961 94.8381C280.505 92.4728 288.384 91.0173 288.565 88.379C288.656 87.1054 280.686 92.4728 279.418 91.6541C279.418 91.6541 279.508 90.7443 283.222 87.8332C285.305 86.1047 287.569 84.3762 287.388 83.5575C287.026 82.0109 283.222 86.2867 277.335 89.2888C277.335 89.2888 279.327 87.0145 281.229 85.104C283.041 83.3755 284.852 81.829 284.037 81.1012C283.312 80.4644 280.595 83.3755 278.784 85.104C275.433 88.3791 272.263 90.0166 270.542 90.7443C269.727 91.1082 269.274 91.1992 269.274 91.1992C271.176 84.1943 269.184 84.4672 269.184 84.4672Z" fill="#8F5045"/>
<path d="M269.456 91.1991C269.456 91.1991 270.995 93.9283 270.09 96.1117C270.09 96.1117 272.897 93.9283 270.814 90.7443C269.908 91.0172 269.456 91.1991 269.456 91.1991Z" fill="#703E38"/>
<path d="M256.686 71.0942C256.686 71.0942 243.825 80.1006 236.217 97.9313C228.609 115.762 244.821 171.619 244.821 171.619C244.821 171.619 254.24 170.437 259.584 163.523L258.225 127.861C258.225 127.861 274.89 93.0187 275.252 87.2874C275.252 87.2874 272.354 74.8241 256.686 71.0942Z" fill="#662D34"/>
<path d="M262.029 72.186C262.029 72.186 264.021 78.3722 262.572 91.5633C262.572 91.5633 259.221 89.107 252.972 89.4709C252.972 89.4709 237.304 107.302 237.122 134.412C237.122 134.412 230.42 108.575 235.22 95.3841C240.021 82.284 256.685 67.5464 256.685 67.5464L262.029 72.186Z" fill="#522228"/>
<path d="M275.252 87.2874C275.252 87.2874 288.928 140.143 284.762 144.6C280.595 149.058 275.524 157.155 268.006 140.143C260.489 123.131 259.221 109.03 259.221 109.03C259.221 109.03 266.467 87.5603 275.252 87.2874Z" fill="#522228"/>
<path d="M265.38 113.033C265.38 113.033 274.98 112.851 277.245 106.483C277.245 106.392 269.818 103.844 265.38 113.033Z" fill="#7A4B51"/>
<path d="M266.104 97.9314L269.546 111.941C269.546 111.941 275.343 110.668 276.611 106.938L273.984 97.9314H266.104Z" fill="#8F5045"/>
<path d="M269.184 84.4672C269.184 84.4672 269.184 84.4672 266.919 91.1082C264.655 97.7493 265.923 97.7493 268.006 100.842C269.999 103.753 275.704 100.66 277.697 98.75C279.418 97.1125 285.305 96.2937 286.301 94.5652C286.754 93.8374 286.029 93.8374 284.218 94.3833C282.135 95.0201 279.961 94.8381 279.961 94.8381C280.505 92.4728 288.384 91.0173 288.565 88.3791C288.656 87.1054 280.686 92.4728 279.418 91.6541C279.418 91.6541 279.508 90.7444 283.222 87.8332C285.305 86.1047 287.569 84.3762 287.388 83.5575C287.026 82.0109 283.222 86.2867 277.335 89.2888C277.335 89.2888 279.327 87.0145 281.229 85.104C283.041 83.3755 284.852 81.829 284.037 81.1012C283.312 80.4644 280.595 83.3755 278.784 85.104C275.433 88.3791 272.263 90.0166 270.542 90.7444C269.727 91.1082 269.274 91.1992 269.274 91.1992C271.176 84.1943 269.184 84.4672 269.184 84.4672Z" fill="#8F5045"/>
<path d="M269.456 91.1991C269.456 91.1991 270.995 93.9283 270.09 96.1117C270.09 96.1117 272.897 93.9283 270.814 90.7443C269.908 91.0172 269.456 91.1991 269.456 91.1991Z" fill="#703E38"/>
<path d="M242.647 30.9752C242.647 30.9752 239.477 47.4413 252.429 49.1698C252.429 49.1698 257.048 41.3461 263.116 46.8045C263.116 46.8045 269.637 28.8828 254.33 26.0626C254.33 26.0626 251.342 19.2397 239.477 21.423C222.903 24.4251 218.284 44.6212 227.522 64.5442C227.431 64.5442 219.371 28.7009 242.647 30.9752Z" fill="#141515"/>
<path d="M247.9 35.2509C247.9 35.2509 252.61 41.3461 252.428 49.1698C252.428 49.1698 255.87 44.8941 257.681 48.624C259.493 52.3539 252.247 57.8123 252.247 57.8123C252.247 57.8123 263.931 58.4491 265.38 43.2566C265.923 36.7975 257.591 30.9752 247.9 35.2509Z" fill="#141515"/>
<path fill-rule="evenodd" clip-rule="evenodd" d="M32.7989 179.352C30.6252 178.26 28.7233 176.805 27.0025 175.258L20.7532 177.442L14.9568 168.162L19.5758 163.432C18.8513 161.157 18.489 158.792 18.3984 156.427L12.4209 153.607L14.7757 142.872H21.3872C22.474 140.688 23.9231 138.778 25.4628 137.05L23.2892 130.772L32.5272 124.859L37.2368 129.499C39.501 128.771 41.8558 128.407 44.2106 128.316L47.0182 122.312L57.7053 124.677V131.318C59.879 132.41 61.7809 133.865 63.5018 135.412L69.751 133.229L75.638 142.508L71.019 147.238C71.7435 149.513 72.1058 151.878 72.1964 154.243L78.1739 157.064L75.8191 167.798H69.2076C68.1208 169.982 66.6717 171.892 65.132 173.621L67.3056 179.898L58.0676 185.811L53.358 181.171C51.0938 181.899 48.739 182.263 46.3842 182.354L43.5766 188.358L32.8895 185.993L32.7989 179.352ZM42.2181 166.798C48.5579 168.253 54.8071 164.25 56.2562 157.882C57.7053 151.514 53.7203 145.237 47.3805 143.782C41.0407 142.326 34.7914 146.329 33.3423 152.697C31.8932 159.065 35.8782 165.342 42.2181 166.798Z" fill="#A42A29"/>
<path d="M108.152 148.057C108.152 148.057 107.518 148.057 106.522 147.511C105.526 147.056 104.167 146.055 103.352 144.236C102.899 143.326 102.627 142.234 102.718 141.052C102.809 139.869 103.08 138.595 103.805 137.504C104.167 136.958 104.62 136.412 105.073 135.957C105.616 135.502 106.16 135.138 106.884 134.866C108.152 134.229 109.692 134.138 111.232 134.411C112.681 134.775 114.039 135.593 114.945 136.685C115.398 137.231 115.76 137.868 116.032 138.504C116.303 139.141 116.485 139.778 116.575 140.415C116.756 141.689 116.485 142.962 116.032 144.054C115.579 145.146 114.854 145.964 114.13 146.601C112.59 147.875 110.96 148.148 109.873 148.148C108.786 148.239 108.152 148.057 108.152 148.057C108.152 147.966 108.786 148.148 109.782 148.148C110.869 148.148 112.409 147.784 113.858 146.51C114.583 145.873 115.217 145.055 115.669 144.054C116.122 143.053 116.303 141.78 116.122 140.597C116.032 139.96 115.851 139.323 115.579 138.777C115.307 138.141 114.945 137.595 114.492 137.14C113.586 136.139 112.318 135.32 110.96 135.047C109.601 134.775 108.062 134.866 106.884 135.411C106.25 135.684 105.707 136.048 105.163 136.503C104.711 136.958 104.258 137.413 103.895 137.959C103.171 138.959 102.899 140.233 102.809 141.325C102.718 142.416 102.99 143.508 103.352 144.327C104.167 146.055 105.435 147.056 106.341 147.602C107.609 147.875 108.243 147.966 108.152 148.057Z" fill="#263238"/>
<path d="M102.718 155.335C102.718 155.335 102.718 155.426 102.718 155.608C102.718 155.79 102.718 156.063 102.718 156.336C102.718 156.972 102.718 157.973 102.718 159.247L102.627 159.156C104.258 159.52 106.341 159.974 108.786 160.52L108.696 160.611C109.148 159.52 109.692 158.428 110.326 157.154V157.063H110.416C111.684 156.972 113.043 156.79 114.492 156.336H114.583L114.673 156.427C115.488 157.245 116.485 158.155 117.39 159.156H117.209C118.93 158.064 120.651 156.972 122.553 155.699L122.462 155.881C122.1 154.789 121.647 153.515 121.194 152.242V152.151L121.285 152.06C122.19 151.15 123.005 149.967 123.639 148.694L123.73 148.603H123.821C124.998 148.603 126.357 148.603 127.624 148.603L127.443 148.694C127.896 146.783 128.349 144.6 128.802 142.508L128.892 142.69C127.806 142.144 126.628 141.598 125.451 141.052L125.36 140.961V140.87C125.27 139.597 125.089 138.232 124.636 136.867V136.776L124.726 136.685C125.541 135.867 126.538 134.866 127.443 133.956V134.229C126.357 132.501 125.179 130.681 124.092 128.862L124.364 128.953C123.187 129.317 122.009 129.771 120.741 130.226H120.651L120.56 130.135C119.654 129.226 118.477 128.407 117.209 127.77C117.118 127.679 117.3 127.952 117.118 127.588V127.497V127.406V127.133V126.678V125.678C117.118 125.041 117.118 124.404 117.118 123.767L117.3 123.949C115.217 123.494 113.133 123.039 111.141 122.585L111.322 122.494C110.779 123.676 110.235 124.859 109.692 125.951L109.601 126.042H109.511C108.152 126.133 106.794 126.314 105.526 126.769H105.435L105.345 126.678C104.439 125.769 103.533 124.859 102.627 123.949H102.899C101.088 125.132 99.2764 126.224 97.5556 127.315L97.6462 127.133C98.099 128.407 98.5519 129.59 98.9141 130.772V130.863L98.8236 130.954C97.9179 131.955 97.1028 133.137 96.4688 134.32L96.3782 134.411H96.2876C95.0197 134.411 93.6611 134.411 92.4837 134.411L92.6649 134.32C92.212 136.503 91.6686 138.596 91.3064 140.506L91.2158 140.324C92.3932 140.87 93.5706 141.416 94.6574 141.962H94.748V142.053C94.8385 143.508 95.0197 144.873 95.4725 146.147V146.238L95.382 146.329C94.3857 147.329 93.48 148.239 92.6649 149.058V148.876C93.9329 150.968 95.1102 152.788 96.0159 154.243H95.9254C97.3745 153.697 98.5519 153.333 99.5481 152.97C100.544 153.879 101.45 154.516 101.993 154.88C102.265 155.062 102.537 155.153 102.627 155.244C102.718 155.335 102.718 155.335 102.718 155.335C102.718 155.335 102.627 155.335 102.446 155.244C102.265 155.153 102.084 155.062 101.812 154.88C101.178 154.516 100.363 153.97 99.2764 152.97H99.367C98.3707 153.333 97.1933 153.788 95.7442 154.243H95.6537V154.152C94.6574 152.606 93.5706 150.877 92.212 148.785L92.1215 148.694L92.212 148.603C93.0272 147.784 93.9329 146.874 94.9291 145.874V145.965C94.5668 144.691 94.2951 143.326 94.2046 141.871L94.2951 141.962C93.2083 141.416 92.0309 140.87 90.8535 140.324L90.7629 140.233V140.142C91.2158 138.141 91.6686 136.14 92.1215 133.956V133.865H92.212C93.48 133.865 94.748 133.865 96.0159 133.865L95.8348 133.956C96.4688 132.774 97.2839 131.591 98.2802 130.499V130.681C97.8273 129.499 97.465 128.316 97.0122 127.042L96.9216 126.951L97.0122 126.86C98.733 125.769 100.544 124.586 102.356 123.494L102.446 123.403L102.537 123.494C103.443 124.404 104.348 125.314 105.254 126.224L105.073 126.133C106.431 125.678 107.79 125.496 109.148 125.405L108.967 125.496C109.511 124.313 110.054 123.221 110.598 122.039L110.688 121.857H110.869C112.862 122.312 114.945 122.767 117.028 123.221H117.209V123.403C117.209 124.04 117.209 124.677 117.209 125.314V126.314V126.769V127.042V127.133V127.224C117.028 126.86 117.118 127.133 117.118 127.042C118.386 127.679 119.564 128.589 120.56 129.499H120.379C121.647 129.044 122.824 128.589 124.002 128.225L124.183 128.134L124.273 128.225C125.451 130.044 126.628 131.864 127.624 133.592L127.715 133.683L127.624 133.774C126.719 134.684 125.723 135.685 124.907 136.503L124.998 136.322C125.451 137.686 125.632 139.142 125.723 140.415L125.632 140.233C126.809 140.779 127.987 141.416 129.074 141.871L129.164 141.962V142.144C128.711 144.327 128.168 146.42 127.806 148.33V148.421H127.624C126.266 148.421 124.998 148.421 123.821 148.421L124.002 148.33C123.368 149.604 122.462 150.786 121.556 151.787V151.605C122.009 152.879 122.462 154.152 122.824 155.244V155.335L122.734 155.426C120.832 156.608 119.02 157.791 117.39 158.792L117.3 158.883L117.209 158.792C116.303 157.791 115.307 156.881 114.492 156.063H114.583C113.133 156.518 111.775 156.699 110.507 156.79L110.598 156.699C109.964 157.973 109.42 159.156 108.967 160.156V160.247H108.877C106.341 159.702 104.258 159.156 102.718 158.792H102.627V158.701C102.627 157.427 102.627 156.518 102.627 155.881C102.627 155.608 102.627 155.335 102.627 155.153C102.718 155.426 102.718 155.335 102.718 155.335Z" fill="#263238"/>
<path fill-rule="evenodd" clip-rule="evenodd" d="M72.1056 118.673C71.0188 118.127 70.1131 117.399 69.2074 116.672L66.1281 117.763L63.2299 113.124L65.5847 110.758C65.2224 109.667 65.0413 108.484 64.9507 107.301L61.9619 105.846L63.1393 100.569H66.3998C66.9432 99.4778 67.6678 98.5681 68.3923 97.6583L67.3055 94.5653L71.9245 91.6541L74.2793 94.0194C75.3661 93.6555 76.5435 93.4736 77.7209 93.3826L79.17 90.3805L84.423 91.5631V94.8382C85.5098 95.384 86.4155 96.1118 87.3212 96.8396L90.4006 95.7479L93.2988 100.388L90.944 102.753C91.3062 103.845 91.4874 105.027 91.5779 106.21L94.5667 107.665L93.3893 112.942H90.1288C89.5854 114.033 88.8609 114.943 88.1363 115.853L89.2232 118.946L84.6041 121.857L82.2494 119.492C81.1625 119.856 79.9851 120.038 78.8077 120.129L77.3586 123.131L72.1056 121.948V118.673ZM76.7246 112.487C79.8946 113.215 82.9739 111.213 83.6985 108.029C84.423 104.845 82.4305 101.752 79.2606 101.024C76.0907 100.297 73.0113 102.298 72.2868 105.482C71.6528 108.666 73.6453 111.759 76.7246 112.487Z" fill="#E7515B"/>
<g opacity="0.4">
<g opacity="0.4">
<g opacity="0.4">
<g opacity="0.4">
<path opacity="0.4" fill-rule="evenodd" clip-rule="evenodd" d="M72.1056 118.673C71.0188 118.127 70.1131 117.399 69.2074 116.672L66.1281 117.763L63.2299 113.124L65.5847 110.758C65.2224 109.667 65.0413 108.484 64.9507 107.301L61.9619 105.846L63.1393 100.569H66.3998C66.9432 99.4778 67.6678 98.5681 68.3923 97.6583L67.3055 94.5653L71.9245 91.6541L74.2793 94.0194C75.3661 93.6555 76.5435 93.4736 77.7209 93.3826L79.17 90.3805L84.423 91.5631V94.8382C85.5098 95.384 86.4155 96.1118 87.3212 96.8396L90.4006 95.7479L93.2988 100.388L90.944 102.753C91.3062 103.845 91.4874 105.027 91.5779 106.21L94.5667 107.665L93.3893 112.942H90.1288C89.5854 114.033 88.8609 114.943 88.1363 115.853L89.2232 118.946L84.6041 121.857L82.2494 119.492C81.1625 119.856 79.9851 120.038 78.8077 120.129L77.3586 123.131L72.1056 121.948V118.673ZM76.7246 112.487C79.8946 113.215 82.9739 111.213 83.6985 108.029C84.423 104.845 82.4305 101.752 79.2606 101.024C76.0907 100.297 73.0113 102.298 72.2868 105.482C71.6528 108.666 73.6453 111.759 76.7246 112.487Z" fill="white"/>
</g>
</g>
</g>
</g>
</svg>
