<svg width="16" height="19" viewBox="0 0 16 19" fill="none" xmlns="http://www.w3.org/2000/svg">
<path d="M4.1756 5.23449H11.5878C11.9674 5.23449 12.2871 4.91483 12.2871 4.53523C12.2871 4.15563 11.9674 3.83596 11.5878 3.83596H4.1756C3.796 3.83596 3.47634 4.15563 3.47634 4.53523C3.47634 4.91483 3.796 5.23449 4.1756 5.23449Z" fill="#A32A29"/>
<path d="M4.1756 8.19138H11.5878C11.9674 8.19138 12.2871 7.87172 12.2871 7.49212C12.2871 7.11252 11.9674 6.79285 11.5878 6.79285H4.1756C3.796 6.79285 3.47634 7.11252 3.47634 7.49212C3.47634 7.87172 3.796 8.19138 4.1756 8.19138Z" fill="#A32A29"/>
<path d="M11.5878 11.1483H4.1756C3.796 11.1483 3.47634 10.8286 3.47634 10.449C3.47634 10.0694 3.796 9.74973 4.1756 9.74973H11.5878C11.9674 9.74973 12.2871 10.0694 12.2871 10.449C12.2871 10.8286 11.9674 11.1483 11.5878 11.1483Z" fill="#A32A29"/>
<path d="M4.1756 14.1052H11.5878C11.9674 14.1052 12.2871 13.7855 12.2871 13.4059C12.2871 13.0263 11.9674 12.7066 11.5878 12.7066H4.1756C3.796 12.7066 3.47634 13.0263 3.47634 13.4059C3.47634 13.7855 3.796 14.1052 4.1756 14.1052Z" fill="#A32A29"/>
<path fill-rule="evenodd" clip-rule="evenodd" d="M15.0841 0H0.699264C0.319664 0 0 0.319664 0 0.699264V17.9211C0 18.2608 0.179811 18.5804 0.479495 18.7403C0.77918 18.9001 1.1388 18.8801 1.41851 18.7003L3.07676 17.5815L4.97476 18.8402C5.29443 19.04 5.69401 19.04 5.99369 18.8402L7.89169 17.5815L9.76972 18.8402C9.92955 18.9401 10.1094 19 10.2892 19C10.469 19 10.6488 18.9401 10.7886 18.8402L12.6866 17.5815L14.3449 18.7003C14.6246 18.8801 14.9842 18.9001 15.2839 18.7403C15.5836 18.5804 15.7634 18.2608 15.7634 17.9211V0.699264C15.7834 0.319664 15.4637 0 15.0841 0ZM14.3849 17.0221L14.3649 17.0088V1.39853H1.37855V17.0221L2.57729 16.2229C2.89695 16.0231 3.29653 16.0231 3.59621 16.2229L5.49422 17.4816L7.39222 16.2429C7.53207 16.143 7.71188 16.0831 7.89169 16.0831C8.0715 16.0831 8.25131 16.123 8.41115 16.2229L10.2892 17.4816L12.1672 16.2229C12.4869 16.0231 12.8864 16.0231 13.1861 16.2229L14.3649 17.0088V17.0221H14.3849Z" fill="#A32A29"/>
</svg>
