<svg width="49" height="49" viewBox="0 0 49 49" fill="none" xmlns="http://www.w3.org/2000/svg">
<path d="M0.833496 24.5C0.833496 11.2452 11.5787 0.5 24.8335 0.5C38.0883 0.5 48.8335 11.2452 48.8335 24.5C48.8335 37.7548 38.0883 48.5 24.8335 48.5C11.5787 48.5 0.833496 37.7548 0.833496 24.5Z" fill="#929497" fill-opacity="0.2"/>
<g clip-path="url(#clip0_2305:50192)">
<path d="M24.1334 16.8999L20.0334 21.1999C19.7334 21.4999 19.3334 21.4999 19.1334 21.2999C18.8334 20.9999 18.8334 20.5999 19.1334 20.3999L24.5334 14.5999C24.7334 14.4999 25.0334 14.4999 25.0334 14.5999L30.5334 20.2999C30.8334 20.5999 30.8334 20.9999 30.5334 21.1999C30.2334 21.4999 29.8334 21.4999 29.6334 21.1999L25.5334 16.8999C25.5334 16.8999 25.4334 16.8999 25.4334 16.9999V27.9999C25.4334 28.2999 25.1334 28.5999 24.8334 28.5999C24.5334 28.5999 24.2334 28.2999 24.2334 27.9999V16.9999C24.2334 16.8999 24.2334 16.7999 24.1334 16.8999Z" fill="#A32A29"/>
<path d="M33.7335 26.9999C33.7335 26.6999 34.0335 26.3999 34.3335 26.3999C34.6335 26.3999 34.9335 26.6999 34.9335 27.0999V29.7999C34.9335 31.9999 33.2335 33.7999 31.0335 33.7999H18.7335C16.5335 33.7999 14.8335 32.0999 14.8335 29.7999V26.8999C14.8335 26.4999 15.1335 26.1999 15.4335 26.1999C15.7335 26.1999 16.0335 26.4999 16.0335 26.7999V29.6999C16.0335 31.2999 17.2335 32.4999 18.7335 32.4999H31.0335C32.6335 32.4999 33.7335 31.2999 33.7335 29.6999V26.9999Z" fill="#A32A29"/>
</g>
<defs>
<clipPath id="clip0_2305:50192">
<rect width="32" height="32" fill="white" transform="translate(8.8335 8.5)"/>
</clipPath>
</defs>
</svg>
