<svg width="40" height="40" viewBox="0 0 40 40" fill="none" xmlns="http://www.w3.org/2000/svg">
<rect width="40" height="40" rx="20" fill="#A32A29"/>
<path fill-rule="evenodd" clip-rule="evenodd" d="M20 8C16.6961 8 14 10.6548 14 13.95V15.05C14 16.5048 14.5255 17.8347 15.3967 18.8665L12.5297 20.6646L12.5284 20.6653C11.544 21.2802 11 22.4181 11 23.576V32H29V23.576C29 22.4181 28.456 21.2802 27.4716 20.6653L27.4703 20.6646L24.6033 18.8665C25.4745 17.8347 26 16.5048 26 15.05V13.95C26 10.6548 23.3039 8 20 8ZM16 13.95C16 11.7782 17.7817 10 20 10C22.2183 10 24 11.7782 24 13.95V15.05C24 17.2218 22.2183 19 20 19C17.7817 19 16 17.2218 16 15.05V13.95ZM22.9847 20.2122C22.1047 20.7136 21.0851 21 20 21C18.9149 21 17.8953 20.7136 17.0153 20.2122L13.5903 22.3602L13.5883 22.3614C13.2695 22.5603 13 23.0068 13 23.576V30H27V23.576C27 23.0068 26.7305 22.5603 26.4117 22.3614L26.4097 22.3602L22.9847 20.2122Z" fill="white"/>
</svg>
