<svg width="22" height="20" viewBox="0 0 22 20" fill="none" xmlns="http://www.w3.org/2000/svg">
<path d="M6.6706 17.7633C6.6706 17.9842 6.84951 18.1633 7.0706 18.1633C7.2917 18.1633 7.4706 17.9842 7.4706 17.7633V12.7895C7.4706 12.5686 7.2917 12.3895 7.0706 12.3895C6.84951 12.3895 6.6706 12.5686 6.6706 12.7895V17.7633Z" fill="#A32A29"/>
<path fill-rule="evenodd" clip-rule="evenodd" d="M2.17061 0.900024C1.46689 0.900024 0.899902 1.48862 0.899902 2.20599V7.79386C0.899902 8.51142 1.46688 9.10003 2.17061 9.10003H4.9999V19.1173C4.9999 19.6041 5.4189 20 5.93356 20H16.0662C16.5809 20 16.9999 19.6041 16.9999 19.1173V9.10003H19.8296C20.5329 9.10003 21.0999 8.5114 21.0999 7.79386V2.20599C21.0999 1.48864 20.5329 0.900024 19.8296 0.900024H2.17061ZM12.3175 19H13.6495V4.00002H12.3175V19ZM15.8803 19H14.6495V4.00002H15.9999V18.8862C15.9999 18.9489 15.9462 19 15.8803 19ZM5.9999 4.00002H11.3175V19H6.11947C6.05359 19 5.9999 18.9489 5.9999 18.8862V4.00002ZM5.49813 2.84075C5.48901 2.84027 5.47983 2.84003 5.47061 2.84003H3.3374C3.06681 2.84003 2.8374 3.04787 2.8374 3.31664V6.56342C2.8374 6.83219 3.06681 7.04003 3.3374 7.04003H4.9999V7.90002H2.36255C2.21739 7.90002 2.0999 7.78246 2.0999 7.63934V2.36051C2.0999 2.21762 2.21735 2.10002 2.36255 2.10002H19.6376C19.7827 2.10002 19.8999 2.21748 19.8999 2.36051V7.63934C19.8999 7.7826 19.7827 7.90002 19.6376 7.90002H16.9999V7.04003H18.6628C18.9334 7.04003 19.1628 6.83219 19.1628 6.56342V3.31664C19.1628 3.04787 18.9334 2.84003 18.6628 2.84003H16.5292C16.52 2.84003 16.5108 2.84027 16.5017 2.84075C16.4717 2.83504 16.4407 2.83205 16.409 2.83205H5.59081C5.55913 2.83205 5.52815 2.83504 5.49813 2.84075ZM3.8374 3.79325V6.08681H4.97061V3.79325H3.8374ZM17.0292 3.79325V6.08681H18.1628V3.79325H17.0292Z" fill="#A32A29"/>
</svg>
