<svg width="40" height="40" viewBox="0 0 40 40" fill="none" xmlns="http://www.w3.org/2000/svg">
<path d="M0 20C0 8.95431 8.95431 0 20 0C31.0457 0 40 8.95431 40 20C40 31.0457 31.0457 40 20 40C8.95431 40 0 31.0457 0 20Z" fill="#929497" fill-opacity="0.2"/>
<path fill-rule="evenodd" clip-rule="evenodd" d="M27.0448 12.1043L27.9482 13.0077C28.2832 13.3435 28.4673 13.7902 28.4673 14.2652C28.4673 14.7402 28.2823 15.186 27.9465 15.5218L19.8165 23.6527C19.7407 23.7285 19.6407 23.7785 19.534 23.7935L16.3723 24.2452C16.349 24.2485 16.3248 24.2502 16.3015 24.2502C16.1698 24.2502 16.0423 24.1985 15.9482 24.1027C15.8373 23.991 15.7848 23.8343 15.8073 23.6785L16.259 20.5168C16.274 20.4102 16.3232 20.311 16.3998 20.2343L24.5307 12.1043C25.2023 11.4327 26.3732 11.4327 27.0448 12.1043ZM16.8915 23.161L19.2282 22.8268L25.7157 16.3393L23.7132 14.3368L17.2257 20.8235L16.8915 23.161ZM27.2407 14.8143L26.4223 15.6327L24.4198 13.6302L25.2382 12.8118C25.5323 12.5168 26.044 12.5168 26.3373 12.8118L27.2407 13.7152C27.3882 13.8618 27.4682 14.0577 27.4682 14.2652C27.4682 14.4727 27.3882 14.6677 27.2407 14.8143ZM27.5315 24.5835V20.4168C27.5315 20.1402 27.3073 19.9168 27.0315 19.9168C26.7557 19.9168 26.5315 20.1402 26.5315 20.4168V24.5835C26.5315 26.146 25.2607 27.4168 23.6982 27.4168H15.3648C13.8023 27.4168 12.5315 26.146 12.5315 24.5835V16.2502C12.5315 14.6877 13.8023 13.4168 15.3648 13.4168H19.5315C19.8073 13.4168 20.0315 13.1927 20.0315 12.9168C20.0315 12.641 19.8082 12.4168 19.5315 12.4168H15.3648C13.2507 12.4168 11.5315 14.136 11.5315 16.2502V24.5835C11.5315 26.6977 13.2507 28.4168 15.3648 28.4168H23.6982C25.8123 28.4168 27.5315 26.6977 27.5315 24.5835Z" fill="#A32A29"/>
</svg>
