<svg width="48" height="48" viewBox="0 0 48 48" fill="none" xmlns="http://www.w3.org/2000/svg">
<path d="M0 24C0 10.7452 10.7452 0 24 0C37.2548 0 48 10.7452 48 24C48 37.2548 37.2548 48 24 48C10.7452 48 0 37.2548 0 24Z" fill="#929497" fill-opacity="0.2"/>
<path d="M23.9999 22C26.7613 22 28.9999 19.7614 28.9999 17C28.9999 14.2386 26.7613 12 23.9999 12C21.2385 12 18.9999 14.2386 18.9999 17C18.9999 19.7614 21.2385 22 23.9999 22Z" stroke="#A32A29" stroke-width="2" stroke-miterlimit="10" stroke-linecap="square"/>
<path d="M26.4759 29H31.9999C34.9999 29 34.9999 31 34.9999 31C34.9999 31 26.0333 36 21.9999 36C17.9664 36 12.9999 32 12.9999 32V29.5C12.9999 29.5 12.9999 27.9763 12.9999 27H22.9999C25.2089 27 26.9999 28.791 26.9999 31H19.9999" stroke="#A32A29" stroke-width="2" stroke-miterlimit="10"/>
</svg>
