<svg width="25" height="25" viewBox="0 0 25 25" fill="none" xmlns="http://www.w3.org/2000/svg">
<path  d="M15.9675 15.574H9.96753V14.074H15.9675V15.574Z" fill="#A32A29"/>
<path d="M15.9675 18.574H9.96753V17.074H15.9675V18.574Z" fill="#A32A29"/>
<path fill-rule="evenodd" clip-rule="evenodd" d="M18.9675 3.57397H6.96753V7.32397H4.71753C3.8891 7.32397 3.21753 7.99555 3.21753 8.82397V15.574C3.21753 16.4024 3.8891 17.074 4.71753 17.074H6.96753V21.574H18.9675V17.074H21.2175C22.046 17.074 22.7175 16.4024 22.7175 15.574V8.82397C22.7175 7.99555 22.046 7.32397 21.2175 7.32397H18.9675V3.57397ZM17.4675 7.32397V5.07397H8.46753V7.32397H17.4675ZM18.9675 15.574H21.2175V8.82397H4.71753L4.71753 15.574H6.96753V11.074H18.9675V15.574ZM8.46753 12.574V20.074H17.4675V12.574H8.46753Z" fill="#A32A29"/>
</svg>
