<svg width="21" height="20" viewBox="0 0 21 20" fill="none" xmlns="http://www.w3.org/2000/svg">
<path d="M10.1334 2.8999L6.03345 7.1999C5.73345 7.4999 5.33345 7.4999 5.13345 7.2999C4.83345 6.9999 4.83345 6.5999 5.13345 6.3999L10.5334 0.599902C10.7334 0.499902 11.0334 0.499902 11.0334 0.599902L16.5334 6.2999C16.8334 6.5999 16.8334 6.9999 16.5334 7.1999C16.2334 7.4999 15.8334 7.4999 15.6334 7.1999L11.5334 2.8999C11.5334 2.8999 11.4334 2.8999 11.4334 2.9999V13.9999C11.4334 14.2999 11.1334 14.5999 10.8334 14.5999C10.5334 14.5999 10.2334 14.2999 10.2334 13.9999V2.9999C10.2334 2.8999 10.2334 2.7999 10.1334 2.8999Z" fill="#A32A29"/>
<path d="M19.7335 12.9999C19.7335 12.6999 20.0335 12.3999 20.3335 12.3999C20.6335 12.3999 20.9335 12.6999 20.9335 13.0999V15.7999C20.9335 17.9999 19.2335 19.7999 17.0335 19.7999H4.7335C2.5335 19.7999 0.833496 18.0999 0.833496 15.7999V12.8999C0.833496 12.4999 1.1335 12.1999 1.4335 12.1999C1.7335 12.1999 2.0335 12.4999 2.0335 12.7999V15.6999C2.0335 17.2999 3.2335 18.4999 4.7335 18.4999H17.0335C18.6335 18.4999 19.7335 17.2999 19.7335 15.6999V12.9999Z" fill="#A32A29"/>
</svg>
